%TF.GenerationSoftware,KiCad,Pcbnew,8.0.4*%
%TF.CreationDate,2024-09-16T22:07:11+05:30*%
%TF.ProjectId,mmeshtastic-pcb,6d6d6573-6874-4617-9374-69632d706362,rev?*%
%TF.SameCoordinates,Original*%
%TF.FileFunction,Soldermask,Bot*%
%TF.FilePolarity,Negative*%
%FSLAX46Y46*%
G04 Gerber Fmt 4.6, Leading zero omitted, Abs format (unit mm)*
G04 Created by KiCad (PCBNEW 8.0.4) date 2024-09-16 22:07:11*
%MOMM*%
%LPD*%
G01*
G04 APERTURE LIST*
G04 Aperture macros list*
%AMRoundRect*
0 Rectangle with rounded corners*
0 $1 Rounding radius*
0 $2 $3 $4 $5 $6 $7 $8 $9 X,Y pos of 4 corners*
0 Add a 4 corners polygon primitive as box body*
4,1,4,$2,$3,$4,$5,$6,$7,$8,$9,$2,$3,0*
0 Add four circle primitives for the rounded corners*
1,1,$1+$1,$2,$3*
1,1,$1+$1,$4,$5*
1,1,$1+$1,$6,$7*
1,1,$1+$1,$8,$9*
0 Add four rect primitives between the rounded corners*
20,1,$1+$1,$2,$3,$4,$5,0*
20,1,$1+$1,$4,$5,$6,$7,0*
20,1,$1+$1,$6,$7,$8,$9,0*
20,1,$1+$1,$8,$9,$2,$3,0*%
G04 Aperture macros list end*
%ADD10C,1.200000*%
%ADD11C,3.000000*%
%ADD12RoundRect,0.312500X-0.937500X0.937500X-0.937500X-0.937500X0.937500X-0.937500X0.937500X0.937500X0*%
%ADD13C,2.200000*%
%ADD14R,1.700000X1.700000*%
%ADD15O,1.700000X1.700000*%
%ADD16O,13.000000X5.000000*%
%ADD17R,1.800000X1.800000*%
%ADD18C,1.800000*%
%ADD19R,1.600000X3.200000*%
G04 APERTURE END LIST*
D10*
%TO.C,U2*%
X137160000Y-107188000D03*
X137160000Y-104648000D03*
X137160000Y-102108000D03*
X137160000Y-99568000D03*
X137160000Y-97028000D03*
X137160000Y-94488000D03*
X134620000Y-107188000D03*
X134620000Y-104648000D03*
X134620000Y-102108000D03*
X134620000Y-99568000D03*
X134620000Y-97028000D03*
X134620000Y-94488000D03*
X132080000Y-107188000D03*
X132080000Y-104648000D03*
X132080000Y-102108000D03*
X132080000Y-99568000D03*
X132080000Y-97028000D03*
X132080000Y-94488000D03*
X129540000Y-107188000D03*
X129540000Y-104648000D03*
X129540000Y-102108000D03*
X129540000Y-99568000D03*
X129540000Y-97028000D03*
X129540000Y-94488000D03*
%TD*%
D11*
%TO.C,TP2*%
X54610000Y-107950000D03*
D12*
X66610000Y-107950000D03*
%TD*%
D13*
%TO.C,JP2*%
X136652000Y-83820000D03*
X134112000Y-83820000D03*
%TD*%
D14*
%TO.C,J1*%
X54610000Y-81280000D03*
D15*
X54610000Y-83820000D03*
X54610000Y-86360000D03*
X54610000Y-88900000D03*
X54610000Y-91440000D03*
%TD*%
D14*
%TO.C,J2*%
X54585000Y-97897000D03*
D15*
X54585000Y-95357000D03*
%TD*%
D11*
%TO.C,TP1*%
X54577000Y-102616000D03*
D12*
X66577000Y-102616000D03*
%TD*%
D16*
%TO.C,U3*%
X99822000Y-91948000D03*
%TD*%
D13*
%TO.C,JP1*%
X123190000Y-83820000D03*
X125730000Y-83820000D03*
%TD*%
D11*
%TO.C,TP4*%
X54610000Y-71120000D03*
D12*
X66610000Y-71120000D03*
%TD*%
D11*
%TO.C,TP3*%
X54577000Y-76454000D03*
D12*
X66577000Y-76454000D03*
%TD*%
D17*
%TO.C,D1*%
X119888000Y-91440000D03*
D18*
X119888000Y-93980000D03*
X119888000Y-96520000D03*
%TD*%
D19*
%TO.C,M1*%
X110993500Y-99625000D03*
X108453500Y-99625000D03*
X105913500Y-99625000D03*
X103373500Y-99625000D03*
X100833500Y-99625000D03*
X98293500Y-99625000D03*
X95753500Y-99625000D03*
X93213500Y-99625000D03*
X90673500Y-99625000D03*
X88133500Y-99625000D03*
X85593500Y-99625000D03*
X83053500Y-99625000D03*
X80513500Y-99625000D03*
X77973500Y-99625000D03*
X75433500Y-99625000D03*
X72893500Y-99625000D03*
X72893500Y-79445000D03*
X75433500Y-79445000D03*
X77973500Y-79445000D03*
X80513500Y-79445000D03*
X83053500Y-79445000D03*
X85593500Y-79445000D03*
X88133500Y-79445000D03*
X90673500Y-79445000D03*
X93213500Y-79445000D03*
X95753500Y-79445000D03*
X98293500Y-79445000D03*
X100833500Y-79445000D03*
X103373500Y-79445000D03*
X105913500Y-79445000D03*
X108453500Y-79445000D03*
X110993500Y-79445000D03*
%TD*%
M02*
