%TF.GenerationSoftware,KiCad,Pcbnew,8.0.4*%
%TF.CreationDate,2024-09-16T22:07:11+05:30*%
%TF.ProjectId,mmeshtastic-pcb,6d6d6573-6874-4617-9374-69632d706362,rev?*%
%TF.SameCoordinates,Original*%
%TF.FileFunction,Legend,Bot*%
%TF.FilePolarity,Positive*%
%FSLAX46Y46*%
G04 Gerber Fmt 4.6, Leading zero omitted, Abs format (unit mm)*
G04 Created by KiCad (PCBNEW 8.0.4) date 2024-09-16 22:07:11*
%MOMM*%
%LPD*%
G01*
G04 APERTURE LIST*
G04 Aperture macros list*
%AMRoundRect*
0 Rectangle with rounded corners*
0 $1 Rounding radius*
0 $2 $3 $4 $5 $6 $7 $8 $9 X,Y pos of 4 corners*
0 Add a 4 corners polygon primitive as box body*
4,1,4,$2,$3,$4,$5,$6,$7,$8,$9,$2,$3,0*
0 Add four circle primitives for the rounded corners*
1,1,$1+$1,$2,$3*
1,1,$1+$1,$4,$5*
1,1,$1+$1,$6,$7*
1,1,$1+$1,$8,$9*
0 Add four rect primitives between the rounded corners*
20,1,$1+$1,$2,$3,$4,$5,0*
20,1,$1+$1,$4,$5,$6,$7,0*
20,1,$1+$1,$6,$7,$8,$9,0*
20,1,$1+$1,$8,$9,$2,$3,0*%
G04 Aperture macros list end*
%ADD10C,0.150000*%
%ADD11C,0.200000*%
%ADD12C,0.250000*%
%ADD13C,0.500000*%
%ADD14C,1.200000*%
%ADD15C,3.000000*%
%ADD16RoundRect,0.312500X-0.937500X0.937500X-0.937500X-0.937500X0.937500X-0.937500X0.937500X0.937500X0*%
%ADD17C,2.200000*%
%ADD18R,1.700000X1.700000*%
%ADD19O,1.700000X1.700000*%
%ADD20O,13.000000X5.000000*%
%ADD21R,1.800000X1.800000*%
%ADD22C,1.800000*%
%ADD23R,1.600000X3.200000*%
G04 APERTURE END LIST*
D10*
X122869077Y-105336875D02*
X122535744Y-106336875D01*
X122535744Y-106336875D02*
X122202411Y-105336875D01*
X121345268Y-106336875D02*
X121916696Y-106336875D01*
X121630982Y-106336875D02*
X121630982Y-105336875D01*
X121630982Y-105336875D02*
X121726220Y-105479732D01*
X121726220Y-105479732D02*
X121821458Y-105574970D01*
X121821458Y-105574970D02*
X121916696Y-105622589D01*
X120916696Y-106241636D02*
X120869077Y-106289256D01*
X120869077Y-106289256D02*
X120916696Y-106336875D01*
X120916696Y-106336875D02*
X120964315Y-106289256D01*
X120964315Y-106289256D02*
X120916696Y-106241636D01*
X120916696Y-106241636D02*
X120916696Y-106336875D01*
X120250030Y-105336875D02*
X120154792Y-105336875D01*
X120154792Y-105336875D02*
X120059554Y-105384494D01*
X120059554Y-105384494D02*
X120011935Y-105432113D01*
X120011935Y-105432113D02*
X119964316Y-105527351D01*
X119964316Y-105527351D02*
X119916697Y-105717827D01*
X119916697Y-105717827D02*
X119916697Y-105955922D01*
X119916697Y-105955922D02*
X119964316Y-106146398D01*
X119964316Y-106146398D02*
X120011935Y-106241636D01*
X120011935Y-106241636D02*
X120059554Y-106289256D01*
X120059554Y-106289256D02*
X120154792Y-106336875D01*
X120154792Y-106336875D02*
X120250030Y-106336875D01*
X120250030Y-106336875D02*
X120345268Y-106289256D01*
X120345268Y-106289256D02*
X120392887Y-106241636D01*
X120392887Y-106241636D02*
X120440506Y-106146398D01*
X120440506Y-106146398D02*
X120488125Y-105955922D01*
X120488125Y-105955922D02*
X120488125Y-105717827D01*
X120488125Y-105717827D02*
X120440506Y-105527351D01*
X120440506Y-105527351D02*
X120392887Y-105432113D01*
X120392887Y-105432113D02*
X120345268Y-105384494D01*
X120345268Y-105384494D02*
X120250030Y-105336875D01*
X122726220Y-107946819D02*
X122726220Y-106946819D01*
X122297649Y-107946819D02*
X122297649Y-107423009D01*
X122297649Y-107423009D02*
X122345268Y-107327771D01*
X122345268Y-107327771D02*
X122440506Y-107280152D01*
X122440506Y-107280152D02*
X122583363Y-107280152D01*
X122583363Y-107280152D02*
X122678601Y-107327771D01*
X122678601Y-107327771D02*
X122726220Y-107375390D01*
X121964315Y-107280152D02*
X121583363Y-107280152D01*
X121821458Y-106946819D02*
X121821458Y-107803961D01*
X121821458Y-107803961D02*
X121773839Y-107899200D01*
X121773839Y-107899200D02*
X121678601Y-107946819D01*
X121678601Y-107946819D02*
X121583363Y-107946819D01*
X121392886Y-107280152D02*
X121011934Y-107280152D01*
X121250029Y-106946819D02*
X121250029Y-107803961D01*
X121250029Y-107803961D02*
X121202410Y-107899200D01*
X121202410Y-107899200D02*
X121107172Y-107946819D01*
X121107172Y-107946819D02*
X121011934Y-107946819D01*
X120678600Y-107280152D02*
X120678600Y-108280152D01*
X120678600Y-107327771D02*
X120583362Y-107280152D01*
X120583362Y-107280152D02*
X120392886Y-107280152D01*
X120392886Y-107280152D02*
X120297648Y-107327771D01*
X120297648Y-107327771D02*
X120250029Y-107375390D01*
X120250029Y-107375390D02*
X120202410Y-107470628D01*
X120202410Y-107470628D02*
X120202410Y-107756342D01*
X120202410Y-107756342D02*
X120250029Y-107851580D01*
X120250029Y-107851580D02*
X120297648Y-107899200D01*
X120297648Y-107899200D02*
X120392886Y-107946819D01*
X120392886Y-107946819D02*
X120583362Y-107946819D01*
X120583362Y-107946819D02*
X120678600Y-107899200D01*
X119821457Y-107899200D02*
X119726219Y-107946819D01*
X119726219Y-107946819D02*
X119535743Y-107946819D01*
X119535743Y-107946819D02*
X119440505Y-107899200D01*
X119440505Y-107899200D02*
X119392886Y-107803961D01*
X119392886Y-107803961D02*
X119392886Y-107756342D01*
X119392886Y-107756342D02*
X119440505Y-107661104D01*
X119440505Y-107661104D02*
X119535743Y-107613485D01*
X119535743Y-107613485D02*
X119678600Y-107613485D01*
X119678600Y-107613485D02*
X119773838Y-107565866D01*
X119773838Y-107565866D02*
X119821457Y-107470628D01*
X119821457Y-107470628D02*
X119821457Y-107423009D01*
X119821457Y-107423009D02*
X119773838Y-107327771D01*
X119773838Y-107327771D02*
X119678600Y-107280152D01*
X119678600Y-107280152D02*
X119535743Y-107280152D01*
X119535743Y-107280152D02*
X119440505Y-107327771D01*
X118964314Y-107851580D02*
X118916695Y-107899200D01*
X118916695Y-107899200D02*
X118964314Y-107946819D01*
X118964314Y-107946819D02*
X119011933Y-107899200D01*
X119011933Y-107899200D02*
X118964314Y-107851580D01*
X118964314Y-107851580D02*
X118964314Y-107946819D01*
X118964314Y-107327771D02*
X118916695Y-107375390D01*
X118916695Y-107375390D02*
X118964314Y-107423009D01*
X118964314Y-107423009D02*
X119011933Y-107375390D01*
X119011933Y-107375390D02*
X118964314Y-107327771D01*
X118964314Y-107327771D02*
X118964314Y-107423009D01*
X117773839Y-106899200D02*
X118630981Y-108184914D01*
X116726220Y-106899200D02*
X117583362Y-108184914D01*
X115964315Y-107280152D02*
X115964315Y-108089676D01*
X115964315Y-108089676D02*
X116011934Y-108184914D01*
X116011934Y-108184914D02*
X116059553Y-108232533D01*
X116059553Y-108232533D02*
X116154791Y-108280152D01*
X116154791Y-108280152D02*
X116297648Y-108280152D01*
X116297648Y-108280152D02*
X116392886Y-108232533D01*
X115964315Y-107899200D02*
X116059553Y-107946819D01*
X116059553Y-107946819D02*
X116250029Y-107946819D01*
X116250029Y-107946819D02*
X116345267Y-107899200D01*
X116345267Y-107899200D02*
X116392886Y-107851580D01*
X116392886Y-107851580D02*
X116440505Y-107756342D01*
X116440505Y-107756342D02*
X116440505Y-107470628D01*
X116440505Y-107470628D02*
X116392886Y-107375390D01*
X116392886Y-107375390D02*
X116345267Y-107327771D01*
X116345267Y-107327771D02*
X116250029Y-107280152D01*
X116250029Y-107280152D02*
X116059553Y-107280152D01*
X116059553Y-107280152D02*
X115964315Y-107327771D01*
X115488124Y-107946819D02*
X115488124Y-107280152D01*
X115488124Y-106946819D02*
X115535743Y-106994438D01*
X115535743Y-106994438D02*
X115488124Y-107042057D01*
X115488124Y-107042057D02*
X115440505Y-106994438D01*
X115440505Y-106994438D02*
X115488124Y-106946819D01*
X115488124Y-106946819D02*
X115488124Y-107042057D01*
X115154791Y-107280152D02*
X114773839Y-107280152D01*
X115011934Y-106946819D02*
X115011934Y-107803961D01*
X115011934Y-107803961D02*
X114964315Y-107899200D01*
X114964315Y-107899200D02*
X114869077Y-107946819D01*
X114869077Y-107946819D02*
X114773839Y-107946819D01*
X114440505Y-107946819D02*
X114440505Y-106946819D01*
X114011934Y-107946819D02*
X114011934Y-107423009D01*
X114011934Y-107423009D02*
X114059553Y-107327771D01*
X114059553Y-107327771D02*
X114154791Y-107280152D01*
X114154791Y-107280152D02*
X114297648Y-107280152D01*
X114297648Y-107280152D02*
X114392886Y-107327771D01*
X114392886Y-107327771D02*
X114440505Y-107375390D01*
X113107172Y-107280152D02*
X113107172Y-107946819D01*
X113535743Y-107280152D02*
X113535743Y-107803961D01*
X113535743Y-107803961D02*
X113488124Y-107899200D01*
X113488124Y-107899200D02*
X113392886Y-107946819D01*
X113392886Y-107946819D02*
X113250029Y-107946819D01*
X113250029Y-107946819D02*
X113154791Y-107899200D01*
X113154791Y-107899200D02*
X113107172Y-107851580D01*
X112630981Y-107946819D02*
X112630981Y-106946819D01*
X112630981Y-107327771D02*
X112535743Y-107280152D01*
X112535743Y-107280152D02*
X112345267Y-107280152D01*
X112345267Y-107280152D02*
X112250029Y-107327771D01*
X112250029Y-107327771D02*
X112202410Y-107375390D01*
X112202410Y-107375390D02*
X112154791Y-107470628D01*
X112154791Y-107470628D02*
X112154791Y-107756342D01*
X112154791Y-107756342D02*
X112202410Y-107851580D01*
X112202410Y-107851580D02*
X112250029Y-107899200D01*
X112250029Y-107899200D02*
X112345267Y-107946819D01*
X112345267Y-107946819D02*
X112535743Y-107946819D01*
X112535743Y-107946819D02*
X112630981Y-107899200D01*
X111726219Y-107851580D02*
X111678600Y-107899200D01*
X111678600Y-107899200D02*
X111726219Y-107946819D01*
X111726219Y-107946819D02*
X111773838Y-107899200D01*
X111773838Y-107899200D02*
X111726219Y-107851580D01*
X111726219Y-107851580D02*
X111726219Y-107946819D01*
X110821458Y-107899200D02*
X110916696Y-107946819D01*
X110916696Y-107946819D02*
X111107172Y-107946819D01*
X111107172Y-107946819D02*
X111202410Y-107899200D01*
X111202410Y-107899200D02*
X111250029Y-107851580D01*
X111250029Y-107851580D02*
X111297648Y-107756342D01*
X111297648Y-107756342D02*
X111297648Y-107470628D01*
X111297648Y-107470628D02*
X111250029Y-107375390D01*
X111250029Y-107375390D02*
X111202410Y-107327771D01*
X111202410Y-107327771D02*
X111107172Y-107280152D01*
X111107172Y-107280152D02*
X110916696Y-107280152D01*
X110916696Y-107280152D02*
X110821458Y-107327771D01*
X110250029Y-107946819D02*
X110345267Y-107899200D01*
X110345267Y-107899200D02*
X110392886Y-107851580D01*
X110392886Y-107851580D02*
X110440505Y-107756342D01*
X110440505Y-107756342D02*
X110440505Y-107470628D01*
X110440505Y-107470628D02*
X110392886Y-107375390D01*
X110392886Y-107375390D02*
X110345267Y-107327771D01*
X110345267Y-107327771D02*
X110250029Y-107280152D01*
X110250029Y-107280152D02*
X110107172Y-107280152D01*
X110107172Y-107280152D02*
X110011934Y-107327771D01*
X110011934Y-107327771D02*
X109964315Y-107375390D01*
X109964315Y-107375390D02*
X109916696Y-107470628D01*
X109916696Y-107470628D02*
X109916696Y-107756342D01*
X109916696Y-107756342D02*
X109964315Y-107851580D01*
X109964315Y-107851580D02*
X110011934Y-107899200D01*
X110011934Y-107899200D02*
X110107172Y-107946819D01*
X110107172Y-107946819D02*
X110250029Y-107946819D01*
X109488124Y-107946819D02*
X109488124Y-107280152D01*
X109488124Y-107375390D02*
X109440505Y-107327771D01*
X109440505Y-107327771D02*
X109345267Y-107280152D01*
X109345267Y-107280152D02*
X109202410Y-107280152D01*
X109202410Y-107280152D02*
X109107172Y-107327771D01*
X109107172Y-107327771D02*
X109059553Y-107423009D01*
X109059553Y-107423009D02*
X109059553Y-107946819D01*
X109059553Y-107423009D02*
X109011934Y-107327771D01*
X109011934Y-107327771D02*
X108916696Y-107280152D01*
X108916696Y-107280152D02*
X108773839Y-107280152D01*
X108773839Y-107280152D02*
X108678600Y-107327771D01*
X108678600Y-107327771D02*
X108630981Y-107423009D01*
X108630981Y-107423009D02*
X108630981Y-107946819D01*
X107440506Y-106899200D02*
X108297648Y-108184914D01*
X106773839Y-107423009D02*
X106630982Y-107470628D01*
X106630982Y-107470628D02*
X106583363Y-107518247D01*
X106583363Y-107518247D02*
X106535744Y-107613485D01*
X106535744Y-107613485D02*
X106535744Y-107756342D01*
X106535744Y-107756342D02*
X106583363Y-107851580D01*
X106583363Y-107851580D02*
X106630982Y-107899200D01*
X106630982Y-107899200D02*
X106726220Y-107946819D01*
X106726220Y-107946819D02*
X107107172Y-107946819D01*
X107107172Y-107946819D02*
X107107172Y-106946819D01*
X107107172Y-106946819D02*
X106773839Y-106946819D01*
X106773839Y-106946819D02*
X106678601Y-106994438D01*
X106678601Y-106994438D02*
X106630982Y-107042057D01*
X106630982Y-107042057D02*
X106583363Y-107137295D01*
X106583363Y-107137295D02*
X106583363Y-107232533D01*
X106583363Y-107232533D02*
X106630982Y-107327771D01*
X106630982Y-107327771D02*
X106678601Y-107375390D01*
X106678601Y-107375390D02*
X106773839Y-107423009D01*
X106773839Y-107423009D02*
X107107172Y-107423009D01*
X106107172Y-107946819D02*
X106107172Y-107280152D01*
X106107172Y-106946819D02*
X106154791Y-106994438D01*
X106154791Y-106994438D02*
X106107172Y-107042057D01*
X106107172Y-107042057D02*
X106059553Y-106994438D01*
X106059553Y-106994438D02*
X106107172Y-106946819D01*
X106107172Y-106946819D02*
X106107172Y-107042057D01*
X105630982Y-107946819D02*
X105630982Y-107280152D01*
X105630982Y-107470628D02*
X105583363Y-107375390D01*
X105583363Y-107375390D02*
X105535744Y-107327771D01*
X105535744Y-107327771D02*
X105440506Y-107280152D01*
X105440506Y-107280152D02*
X105345268Y-107280152D01*
X105011934Y-107565866D02*
X104250030Y-107565866D01*
X103773839Y-107946819D02*
X103773839Y-106946819D01*
X103773839Y-106946819D02*
X103392887Y-106946819D01*
X103392887Y-106946819D02*
X103297649Y-106994438D01*
X103297649Y-106994438D02*
X103250030Y-107042057D01*
X103250030Y-107042057D02*
X103202411Y-107137295D01*
X103202411Y-107137295D02*
X103202411Y-107280152D01*
X103202411Y-107280152D02*
X103250030Y-107375390D01*
X103250030Y-107375390D02*
X103297649Y-107423009D01*
X103297649Y-107423009D02*
X103392887Y-107470628D01*
X103392887Y-107470628D02*
X103773839Y-107470628D01*
X102345268Y-107946819D02*
X102345268Y-107423009D01*
X102345268Y-107423009D02*
X102392887Y-107327771D01*
X102392887Y-107327771D02*
X102488125Y-107280152D01*
X102488125Y-107280152D02*
X102678601Y-107280152D01*
X102678601Y-107280152D02*
X102773839Y-107327771D01*
X102345268Y-107899200D02*
X102440506Y-107946819D01*
X102440506Y-107946819D02*
X102678601Y-107946819D01*
X102678601Y-107946819D02*
X102773839Y-107899200D01*
X102773839Y-107899200D02*
X102821458Y-107803961D01*
X102821458Y-107803961D02*
X102821458Y-107708723D01*
X102821458Y-107708723D02*
X102773839Y-107613485D01*
X102773839Y-107613485D02*
X102678601Y-107565866D01*
X102678601Y-107565866D02*
X102440506Y-107565866D01*
X102440506Y-107565866D02*
X102345268Y-107518247D01*
X101869077Y-107946819D02*
X101869077Y-107280152D01*
X101869077Y-107470628D02*
X101821458Y-107375390D01*
X101821458Y-107375390D02*
X101773839Y-107327771D01*
X101773839Y-107327771D02*
X101678601Y-107280152D01*
X101678601Y-107280152D02*
X101583363Y-107280152D01*
X100821458Y-107946819D02*
X100821458Y-107423009D01*
X100821458Y-107423009D02*
X100869077Y-107327771D01*
X100869077Y-107327771D02*
X100964315Y-107280152D01*
X100964315Y-107280152D02*
X101154791Y-107280152D01*
X101154791Y-107280152D02*
X101250029Y-107327771D01*
X100821458Y-107899200D02*
X100916696Y-107946819D01*
X100916696Y-107946819D02*
X101154791Y-107946819D01*
X101154791Y-107946819D02*
X101250029Y-107899200D01*
X101250029Y-107899200D02*
X101297648Y-107803961D01*
X101297648Y-107803961D02*
X101297648Y-107708723D01*
X101297648Y-107708723D02*
X101250029Y-107613485D01*
X101250029Y-107613485D02*
X101154791Y-107565866D01*
X101154791Y-107565866D02*
X100916696Y-107565866D01*
X100916696Y-107565866D02*
X100821458Y-107518247D01*
X99916696Y-107280152D02*
X99916696Y-108089676D01*
X99916696Y-108089676D02*
X99964315Y-108184914D01*
X99964315Y-108184914D02*
X100011934Y-108232533D01*
X100011934Y-108232533D02*
X100107172Y-108280152D01*
X100107172Y-108280152D02*
X100250029Y-108280152D01*
X100250029Y-108280152D02*
X100345267Y-108232533D01*
X99916696Y-107899200D02*
X100011934Y-107946819D01*
X100011934Y-107946819D02*
X100202410Y-107946819D01*
X100202410Y-107946819D02*
X100297648Y-107899200D01*
X100297648Y-107899200D02*
X100345267Y-107851580D01*
X100345267Y-107851580D02*
X100392886Y-107756342D01*
X100392886Y-107756342D02*
X100392886Y-107470628D01*
X100392886Y-107470628D02*
X100345267Y-107375390D01*
X100345267Y-107375390D02*
X100297648Y-107327771D01*
X100297648Y-107327771D02*
X100202410Y-107280152D01*
X100202410Y-107280152D02*
X100011934Y-107280152D01*
X100011934Y-107280152D02*
X99916696Y-107327771D01*
X99297648Y-107946819D02*
X99392886Y-107899200D01*
X99392886Y-107899200D02*
X99440505Y-107803961D01*
X99440505Y-107803961D02*
X99440505Y-106946819D01*
X98916695Y-107946819D02*
X98916695Y-107280152D01*
X98916695Y-106946819D02*
X98964314Y-106994438D01*
X98964314Y-106994438D02*
X98916695Y-107042057D01*
X98916695Y-107042057D02*
X98869076Y-106994438D01*
X98869076Y-106994438D02*
X98916695Y-106946819D01*
X98916695Y-106946819D02*
X98916695Y-107042057D01*
X98011934Y-107946819D02*
X98011934Y-106946819D01*
X98011934Y-107899200D02*
X98107172Y-107946819D01*
X98107172Y-107946819D02*
X98297648Y-107946819D01*
X98297648Y-107946819D02*
X98392886Y-107899200D01*
X98392886Y-107899200D02*
X98440505Y-107851580D01*
X98440505Y-107851580D02*
X98488124Y-107756342D01*
X98488124Y-107756342D02*
X98488124Y-107470628D01*
X98488124Y-107470628D02*
X98440505Y-107375390D01*
X98440505Y-107375390D02*
X98392886Y-107327771D01*
X98392886Y-107327771D02*
X98297648Y-107280152D01*
X98297648Y-107280152D02*
X98107172Y-107280152D01*
X98107172Y-107280152D02*
X98011934Y-107327771D01*
X97535743Y-107946819D02*
X97535743Y-107280152D01*
X97535743Y-106946819D02*
X97583362Y-106994438D01*
X97583362Y-106994438D02*
X97535743Y-107042057D01*
X97535743Y-107042057D02*
X97488124Y-106994438D01*
X97488124Y-106994438D02*
X97535743Y-106946819D01*
X97535743Y-106946819D02*
X97535743Y-107042057D01*
X97059553Y-107280152D02*
X97059553Y-107946819D01*
X97059553Y-107375390D02*
X97011934Y-107327771D01*
X97011934Y-107327771D02*
X96916696Y-107280152D01*
X96916696Y-107280152D02*
X96773839Y-107280152D01*
X96773839Y-107280152D02*
X96678601Y-107327771D01*
X96678601Y-107327771D02*
X96630982Y-107423009D01*
X96630982Y-107423009D02*
X96630982Y-107946819D01*
X95726220Y-107280152D02*
X95726220Y-108089676D01*
X95726220Y-108089676D02*
X95773839Y-108184914D01*
X95773839Y-108184914D02*
X95821458Y-108232533D01*
X95821458Y-108232533D02*
X95916696Y-108280152D01*
X95916696Y-108280152D02*
X96059553Y-108280152D01*
X96059553Y-108280152D02*
X96154791Y-108232533D01*
X95726220Y-107899200D02*
X95821458Y-107946819D01*
X95821458Y-107946819D02*
X96011934Y-107946819D01*
X96011934Y-107946819D02*
X96107172Y-107899200D01*
X96107172Y-107899200D02*
X96154791Y-107851580D01*
X96154791Y-107851580D02*
X96202410Y-107756342D01*
X96202410Y-107756342D02*
X96202410Y-107470628D01*
X96202410Y-107470628D02*
X96154791Y-107375390D01*
X96154791Y-107375390D02*
X96107172Y-107327771D01*
X96107172Y-107327771D02*
X96011934Y-107280152D01*
X96011934Y-107280152D02*
X95821458Y-107280152D01*
X95821458Y-107280152D02*
X95726220Y-107327771D01*
X95250029Y-107565866D02*
X94488125Y-107565866D01*
X93440506Y-107851580D02*
X93488125Y-107899200D01*
X93488125Y-107899200D02*
X93630982Y-107946819D01*
X93630982Y-107946819D02*
X93726220Y-107946819D01*
X93726220Y-107946819D02*
X93869077Y-107899200D01*
X93869077Y-107899200D02*
X93964315Y-107803961D01*
X93964315Y-107803961D02*
X94011934Y-107708723D01*
X94011934Y-107708723D02*
X94059553Y-107518247D01*
X94059553Y-107518247D02*
X94059553Y-107375390D01*
X94059553Y-107375390D02*
X94011934Y-107184914D01*
X94011934Y-107184914D02*
X93964315Y-107089676D01*
X93964315Y-107089676D02*
X93869077Y-106994438D01*
X93869077Y-106994438D02*
X93726220Y-106946819D01*
X93726220Y-106946819D02*
X93630982Y-106946819D01*
X93630982Y-106946819D02*
X93488125Y-106994438D01*
X93488125Y-106994438D02*
X93440506Y-107042057D01*
X92869077Y-107946819D02*
X92964315Y-107899200D01*
X92964315Y-107899200D02*
X93011934Y-107851580D01*
X93011934Y-107851580D02*
X93059553Y-107756342D01*
X93059553Y-107756342D02*
X93059553Y-107470628D01*
X93059553Y-107470628D02*
X93011934Y-107375390D01*
X93011934Y-107375390D02*
X92964315Y-107327771D01*
X92964315Y-107327771D02*
X92869077Y-107280152D01*
X92869077Y-107280152D02*
X92726220Y-107280152D01*
X92726220Y-107280152D02*
X92630982Y-107327771D01*
X92630982Y-107327771D02*
X92583363Y-107375390D01*
X92583363Y-107375390D02*
X92535744Y-107470628D01*
X92535744Y-107470628D02*
X92535744Y-107756342D01*
X92535744Y-107756342D02*
X92583363Y-107851580D01*
X92583363Y-107851580D02*
X92630982Y-107899200D01*
X92630982Y-107899200D02*
X92726220Y-107946819D01*
X92726220Y-107946819D02*
X92869077Y-107946819D01*
X92107172Y-107946819D02*
X92107172Y-107280152D01*
X92107172Y-107375390D02*
X92059553Y-107327771D01*
X92059553Y-107327771D02*
X91964315Y-107280152D01*
X91964315Y-107280152D02*
X91821458Y-107280152D01*
X91821458Y-107280152D02*
X91726220Y-107327771D01*
X91726220Y-107327771D02*
X91678601Y-107423009D01*
X91678601Y-107423009D02*
X91678601Y-107946819D01*
X91678601Y-107423009D02*
X91630982Y-107327771D01*
X91630982Y-107327771D02*
X91535744Y-107280152D01*
X91535744Y-107280152D02*
X91392887Y-107280152D01*
X91392887Y-107280152D02*
X91297648Y-107327771D01*
X91297648Y-107327771D02*
X91250029Y-107423009D01*
X91250029Y-107423009D02*
X91250029Y-107946819D01*
X90773839Y-107946819D02*
X90773839Y-107280152D01*
X90773839Y-107375390D02*
X90726220Y-107327771D01*
X90726220Y-107327771D02*
X90630982Y-107280152D01*
X90630982Y-107280152D02*
X90488125Y-107280152D01*
X90488125Y-107280152D02*
X90392887Y-107327771D01*
X90392887Y-107327771D02*
X90345268Y-107423009D01*
X90345268Y-107423009D02*
X90345268Y-107946819D01*
X90345268Y-107423009D02*
X90297649Y-107327771D01*
X90297649Y-107327771D02*
X90202411Y-107280152D01*
X90202411Y-107280152D02*
X90059554Y-107280152D01*
X90059554Y-107280152D02*
X89964315Y-107327771D01*
X89964315Y-107327771D02*
X89916696Y-107423009D01*
X89916696Y-107423009D02*
X89916696Y-107946819D01*
X89011935Y-107280152D02*
X89011935Y-107946819D01*
X89440506Y-107280152D02*
X89440506Y-107803961D01*
X89440506Y-107803961D02*
X89392887Y-107899200D01*
X89392887Y-107899200D02*
X89297649Y-107946819D01*
X89297649Y-107946819D02*
X89154792Y-107946819D01*
X89154792Y-107946819D02*
X89059554Y-107899200D01*
X89059554Y-107899200D02*
X89011935Y-107851580D01*
X88535744Y-107280152D02*
X88535744Y-107946819D01*
X88535744Y-107375390D02*
X88488125Y-107327771D01*
X88488125Y-107327771D02*
X88392887Y-107280152D01*
X88392887Y-107280152D02*
X88250030Y-107280152D01*
X88250030Y-107280152D02*
X88154792Y-107327771D01*
X88154792Y-107327771D02*
X88107173Y-107423009D01*
X88107173Y-107423009D02*
X88107173Y-107946819D01*
X87630982Y-107946819D02*
X87630982Y-107280152D01*
X87630982Y-106946819D02*
X87678601Y-106994438D01*
X87678601Y-106994438D02*
X87630982Y-107042057D01*
X87630982Y-107042057D02*
X87583363Y-106994438D01*
X87583363Y-106994438D02*
X87630982Y-106946819D01*
X87630982Y-106946819D02*
X87630982Y-107042057D01*
X87297649Y-107280152D02*
X86916697Y-107280152D01*
X87154792Y-106946819D02*
X87154792Y-107803961D01*
X87154792Y-107803961D02*
X87107173Y-107899200D01*
X87107173Y-107899200D02*
X87011935Y-107946819D01*
X87011935Y-107946819D02*
X86916697Y-107946819D01*
X86678601Y-107280152D02*
X86440506Y-107946819D01*
X86202411Y-107280152D02*
X86440506Y-107946819D01*
X86440506Y-107946819D02*
X86535744Y-108184914D01*
X86535744Y-108184914D02*
X86583363Y-108232533D01*
X86583363Y-108232533D02*
X86678601Y-108280152D01*
X85107173Y-106899200D02*
X85964315Y-108184914D01*
X84202411Y-107946819D02*
X84535744Y-107470628D01*
X84773839Y-107946819D02*
X84773839Y-106946819D01*
X84773839Y-106946819D02*
X84392887Y-106946819D01*
X84392887Y-106946819D02*
X84297649Y-106994438D01*
X84297649Y-106994438D02*
X84250030Y-107042057D01*
X84250030Y-107042057D02*
X84202411Y-107137295D01*
X84202411Y-107137295D02*
X84202411Y-107280152D01*
X84202411Y-107280152D02*
X84250030Y-107375390D01*
X84250030Y-107375390D02*
X84297649Y-107423009D01*
X84297649Y-107423009D02*
X84392887Y-107470628D01*
X84392887Y-107470628D02*
X84773839Y-107470628D01*
X83773839Y-107946819D02*
X83773839Y-106946819D01*
X83773839Y-106946819D02*
X83392887Y-106946819D01*
X83392887Y-106946819D02*
X83297649Y-106994438D01*
X83297649Y-106994438D02*
X83250030Y-107042057D01*
X83250030Y-107042057D02*
X83202411Y-107137295D01*
X83202411Y-107137295D02*
X83202411Y-107280152D01*
X83202411Y-107280152D02*
X83250030Y-107375390D01*
X83250030Y-107375390D02*
X83297649Y-107423009D01*
X83297649Y-107423009D02*
X83392887Y-107470628D01*
X83392887Y-107470628D02*
X83773839Y-107470628D01*
X82821458Y-107042057D02*
X82773839Y-106994438D01*
X82773839Y-106994438D02*
X82678601Y-106946819D01*
X82678601Y-106946819D02*
X82440506Y-106946819D01*
X82440506Y-106946819D02*
X82345268Y-106994438D01*
X82345268Y-106994438D02*
X82297649Y-107042057D01*
X82297649Y-107042057D02*
X82250030Y-107137295D01*
X82250030Y-107137295D02*
X82250030Y-107232533D01*
X82250030Y-107232533D02*
X82297649Y-107375390D01*
X82297649Y-107375390D02*
X82869077Y-107946819D01*
X82869077Y-107946819D02*
X82250030Y-107946819D01*
X81630982Y-106946819D02*
X81535744Y-106946819D01*
X81535744Y-106946819D02*
X81440506Y-106994438D01*
X81440506Y-106994438D02*
X81392887Y-107042057D01*
X81392887Y-107042057D02*
X81345268Y-107137295D01*
X81345268Y-107137295D02*
X81297649Y-107327771D01*
X81297649Y-107327771D02*
X81297649Y-107565866D01*
X81297649Y-107565866D02*
X81345268Y-107756342D01*
X81345268Y-107756342D02*
X81392887Y-107851580D01*
X81392887Y-107851580D02*
X81440506Y-107899200D01*
X81440506Y-107899200D02*
X81535744Y-107946819D01*
X81535744Y-107946819D02*
X81630982Y-107946819D01*
X81630982Y-107946819D02*
X81726220Y-107899200D01*
X81726220Y-107899200D02*
X81773839Y-107851580D01*
X81773839Y-107851580D02*
X81821458Y-107756342D01*
X81821458Y-107756342D02*
X81869077Y-107565866D01*
X81869077Y-107565866D02*
X81869077Y-107327771D01*
X81869077Y-107327771D02*
X81821458Y-107137295D01*
X81821458Y-107137295D02*
X81773839Y-107042057D01*
X81773839Y-107042057D02*
X81726220Y-106994438D01*
X81726220Y-106994438D02*
X81630982Y-106946819D01*
X80440506Y-107280152D02*
X80440506Y-107946819D01*
X80678601Y-106899200D02*
X80916696Y-107613485D01*
X80916696Y-107613485D02*
X80297649Y-107613485D01*
X79726220Y-106946819D02*
X79630982Y-106946819D01*
X79630982Y-106946819D02*
X79535744Y-106994438D01*
X79535744Y-106994438D02*
X79488125Y-107042057D01*
X79488125Y-107042057D02*
X79440506Y-107137295D01*
X79440506Y-107137295D02*
X79392887Y-107327771D01*
X79392887Y-107327771D02*
X79392887Y-107565866D01*
X79392887Y-107565866D02*
X79440506Y-107756342D01*
X79440506Y-107756342D02*
X79488125Y-107851580D01*
X79488125Y-107851580D02*
X79535744Y-107899200D01*
X79535744Y-107899200D02*
X79630982Y-107946819D01*
X79630982Y-107946819D02*
X79726220Y-107946819D01*
X79726220Y-107946819D02*
X79821458Y-107899200D01*
X79821458Y-107899200D02*
X79869077Y-107851580D01*
X79869077Y-107851580D02*
X79916696Y-107756342D01*
X79916696Y-107756342D02*
X79964315Y-107565866D01*
X79964315Y-107565866D02*
X79964315Y-107327771D01*
X79964315Y-107327771D02*
X79916696Y-107137295D01*
X79916696Y-107137295D02*
X79869077Y-107042057D01*
X79869077Y-107042057D02*
X79821458Y-106994438D01*
X79821458Y-106994438D02*
X79726220Y-106946819D01*
X78964315Y-107565866D02*
X78202411Y-107565866D01*
X77773839Y-107899200D02*
X77630982Y-107946819D01*
X77630982Y-107946819D02*
X77392887Y-107946819D01*
X77392887Y-107946819D02*
X77297649Y-107899200D01*
X77297649Y-107899200D02*
X77250030Y-107851580D01*
X77250030Y-107851580D02*
X77202411Y-107756342D01*
X77202411Y-107756342D02*
X77202411Y-107661104D01*
X77202411Y-107661104D02*
X77250030Y-107565866D01*
X77250030Y-107565866D02*
X77297649Y-107518247D01*
X77297649Y-107518247D02*
X77392887Y-107470628D01*
X77392887Y-107470628D02*
X77583363Y-107423009D01*
X77583363Y-107423009D02*
X77678601Y-107375390D01*
X77678601Y-107375390D02*
X77726220Y-107327771D01*
X77726220Y-107327771D02*
X77773839Y-107232533D01*
X77773839Y-107232533D02*
X77773839Y-107137295D01*
X77773839Y-107137295D02*
X77726220Y-107042057D01*
X77726220Y-107042057D02*
X77678601Y-106994438D01*
X77678601Y-106994438D02*
X77583363Y-106946819D01*
X77583363Y-106946819D02*
X77345268Y-106946819D01*
X77345268Y-106946819D02*
X77202411Y-106994438D01*
X76630982Y-107946819D02*
X76726220Y-107899200D01*
X76726220Y-107899200D02*
X76773839Y-107851580D01*
X76773839Y-107851580D02*
X76821458Y-107756342D01*
X76821458Y-107756342D02*
X76821458Y-107470628D01*
X76821458Y-107470628D02*
X76773839Y-107375390D01*
X76773839Y-107375390D02*
X76726220Y-107327771D01*
X76726220Y-107327771D02*
X76630982Y-107280152D01*
X76630982Y-107280152D02*
X76488125Y-107280152D01*
X76488125Y-107280152D02*
X76392887Y-107327771D01*
X76392887Y-107327771D02*
X76345268Y-107375390D01*
X76345268Y-107375390D02*
X76297649Y-107470628D01*
X76297649Y-107470628D02*
X76297649Y-107756342D01*
X76297649Y-107756342D02*
X76345268Y-107851580D01*
X76345268Y-107851580D02*
X76392887Y-107899200D01*
X76392887Y-107899200D02*
X76488125Y-107946819D01*
X76488125Y-107946819D02*
X76630982Y-107946819D01*
X75726220Y-107946819D02*
X75821458Y-107899200D01*
X75821458Y-107899200D02*
X75869077Y-107803961D01*
X75869077Y-107803961D02*
X75869077Y-106946819D01*
X74916696Y-107946819D02*
X74916696Y-107423009D01*
X74916696Y-107423009D02*
X74964315Y-107327771D01*
X74964315Y-107327771D02*
X75059553Y-107280152D01*
X75059553Y-107280152D02*
X75250029Y-107280152D01*
X75250029Y-107280152D02*
X75345267Y-107327771D01*
X74916696Y-107899200D02*
X75011934Y-107946819D01*
X75011934Y-107946819D02*
X75250029Y-107946819D01*
X75250029Y-107946819D02*
X75345267Y-107899200D01*
X75345267Y-107899200D02*
X75392886Y-107803961D01*
X75392886Y-107803961D02*
X75392886Y-107708723D01*
X75392886Y-107708723D02*
X75345267Y-107613485D01*
X75345267Y-107613485D02*
X75250029Y-107565866D01*
X75250029Y-107565866D02*
X75011934Y-107565866D01*
X75011934Y-107565866D02*
X74916696Y-107518247D01*
X74440505Y-107946819D02*
X74440505Y-107280152D01*
X74440505Y-107470628D02*
X74392886Y-107375390D01*
X74392886Y-107375390D02*
X74345267Y-107327771D01*
X74345267Y-107327771D02*
X74250029Y-107280152D01*
X74250029Y-107280152D02*
X74154791Y-107280152D01*
X73821457Y-107565866D02*
X73059553Y-107565866D01*
X72583362Y-107946819D02*
X72583362Y-106946819D01*
X72583362Y-106946819D02*
X72202410Y-106946819D01*
X72202410Y-106946819D02*
X72107172Y-106994438D01*
X72107172Y-106994438D02*
X72059553Y-107042057D01*
X72059553Y-107042057D02*
X72011934Y-107137295D01*
X72011934Y-107137295D02*
X72011934Y-107280152D01*
X72011934Y-107280152D02*
X72059553Y-107375390D01*
X72059553Y-107375390D02*
X72107172Y-107423009D01*
X72107172Y-107423009D02*
X72202410Y-107470628D01*
X72202410Y-107470628D02*
X72583362Y-107470628D01*
X71011934Y-107851580D02*
X71059553Y-107899200D01*
X71059553Y-107899200D02*
X71202410Y-107946819D01*
X71202410Y-107946819D02*
X71297648Y-107946819D01*
X71297648Y-107946819D02*
X71440505Y-107899200D01*
X71440505Y-107899200D02*
X71535743Y-107803961D01*
X71535743Y-107803961D02*
X71583362Y-107708723D01*
X71583362Y-107708723D02*
X71630981Y-107518247D01*
X71630981Y-107518247D02*
X71630981Y-107375390D01*
X71630981Y-107375390D02*
X71583362Y-107184914D01*
X71583362Y-107184914D02*
X71535743Y-107089676D01*
X71535743Y-107089676D02*
X71440505Y-106994438D01*
X71440505Y-106994438D02*
X71297648Y-106946819D01*
X71297648Y-106946819D02*
X71202410Y-106946819D01*
X71202410Y-106946819D02*
X71059553Y-106994438D01*
X71059553Y-106994438D02*
X71011934Y-107042057D01*
X70250029Y-107423009D02*
X70107172Y-107470628D01*
X70107172Y-107470628D02*
X70059553Y-107518247D01*
X70059553Y-107518247D02*
X70011934Y-107613485D01*
X70011934Y-107613485D02*
X70011934Y-107756342D01*
X70011934Y-107756342D02*
X70059553Y-107851580D01*
X70059553Y-107851580D02*
X70107172Y-107899200D01*
X70107172Y-107899200D02*
X70202410Y-107946819D01*
X70202410Y-107946819D02*
X70583362Y-107946819D01*
X70583362Y-107946819D02*
X70583362Y-106946819D01*
X70583362Y-106946819D02*
X70250029Y-106946819D01*
X70250029Y-106946819D02*
X70154791Y-106994438D01*
X70154791Y-106994438D02*
X70107172Y-107042057D01*
X70107172Y-107042057D02*
X70059553Y-107137295D01*
X70059553Y-107137295D02*
X70059553Y-107232533D01*
X70059553Y-107232533D02*
X70107172Y-107327771D01*
X70107172Y-107327771D02*
X70154791Y-107375390D01*
X70154791Y-107375390D02*
X70250029Y-107423009D01*
X70250029Y-107423009D02*
X70583362Y-107423009D01*
D11*
G36*
X84421587Y-103967549D02*
G01*
X84425170Y-103967803D01*
X84428491Y-103969179D01*
X84448000Y-103971100D01*
X84781536Y-103971100D01*
X84873464Y-104017063D01*
X84919428Y-104108991D01*
X84919428Y-104204635D01*
X84873464Y-104296564D01*
X84781536Y-104342528D01*
X84471607Y-104342528D01*
X84405143Y-104309296D01*
X84405143Y-103961256D01*
X84421587Y-103967549D01*
G37*
G36*
X87674480Y-103596144D02*
G01*
X87722957Y-103644620D01*
X87776571Y-103751848D01*
X87776571Y-104133207D01*
X87722957Y-104240434D01*
X87674477Y-104288914D01*
X87567250Y-104342528D01*
X87400178Y-104342528D01*
X87292949Y-104288914D01*
X87244473Y-104240437D01*
X87190857Y-104133205D01*
X87190857Y-103751850D01*
X87244472Y-103644620D01*
X87292948Y-103596143D01*
X87400178Y-103542528D01*
X87567249Y-103542528D01*
X87674480Y-103596144D01*
G37*
G36*
X92103049Y-103096142D02*
G01*
X92151527Y-103144619D01*
X92210792Y-103263147D01*
X92276571Y-103526265D01*
X92276571Y-103858791D01*
X92210792Y-104121908D01*
X92151527Y-104240437D01*
X92103050Y-104288913D01*
X91995821Y-104342528D01*
X91900178Y-104342528D01*
X91792949Y-104288914D01*
X91744473Y-104240437D01*
X91685207Y-104121907D01*
X91619428Y-103858789D01*
X91619428Y-103526267D01*
X91685207Y-103263148D01*
X91744472Y-103144620D01*
X91792948Y-103096143D01*
X91900178Y-103042528D01*
X91995821Y-103042528D01*
X92103049Y-103096142D01*
G37*
G36*
X94960191Y-103096142D02*
G01*
X95008669Y-103144619D01*
X95067934Y-103263147D01*
X95133713Y-103526265D01*
X95133713Y-103858791D01*
X95067934Y-104121908D01*
X95008669Y-104240437D01*
X94960192Y-104288913D01*
X94852963Y-104342528D01*
X94757320Y-104342528D01*
X94650091Y-104288914D01*
X94601615Y-104240437D01*
X94542349Y-104121907D01*
X94476570Y-103858789D01*
X94476570Y-103526267D01*
X94542349Y-103263148D01*
X94601614Y-103144620D01*
X94650090Y-103096143D01*
X94757320Y-103042528D01*
X94852963Y-103042528D01*
X94960191Y-103096142D01*
G37*
G36*
X86348000Y-103628242D02*
G01*
X85900178Y-103628242D01*
X85792950Y-103574628D01*
X85744470Y-103526148D01*
X85690857Y-103418921D01*
X85690857Y-103251848D01*
X85744470Y-103144620D01*
X85792947Y-103096143D01*
X85900178Y-103042528D01*
X86348000Y-103042528D01*
X86348000Y-103628242D01*
G37*
G36*
X99490856Y-103628242D02*
G01*
X99043034Y-103628242D01*
X98935806Y-103574628D01*
X98887326Y-103526148D01*
X98833713Y-103418921D01*
X98833713Y-103251848D01*
X98887326Y-103144620D01*
X98935803Y-103096143D01*
X99043034Y-103042528D01*
X99490856Y-103042528D01*
X99490856Y-103628242D01*
G37*
G36*
X97990856Y-103628242D02*
G01*
X97543034Y-103628242D01*
X97435806Y-103574628D01*
X97387326Y-103526148D01*
X97333713Y-103418921D01*
X97333713Y-103251848D01*
X97387326Y-103144620D01*
X97435803Y-103096143D01*
X97543034Y-103042528D01*
X97990856Y-103042528D01*
X97990856Y-103628242D01*
G37*
G36*
X99857523Y-104709195D02*
G01*
X84038476Y-104709195D01*
X84038476Y-103656814D01*
X84205143Y-103656814D01*
X84205143Y-104442528D01*
X84207064Y-104462037D01*
X84221996Y-104498085D01*
X84249586Y-104525675D01*
X84285634Y-104540607D01*
X84324652Y-104540607D01*
X84360700Y-104525675D01*
X84370695Y-104515679D01*
X84403279Y-104531971D01*
X84421588Y-104538977D01*
X84425170Y-104539231D01*
X84428491Y-104540607D01*
X84448000Y-104542528D01*
X84805143Y-104542528D01*
X84824652Y-104540607D01*
X84827972Y-104539231D01*
X84831556Y-104538977D01*
X84849864Y-104531971D01*
X84992721Y-104460543D01*
X84995983Y-104458489D01*
X84997524Y-104457976D01*
X84999441Y-104456312D01*
X85009312Y-104450100D01*
X85017528Y-104440625D01*
X85027000Y-104432411D01*
X85033213Y-104422539D01*
X85034876Y-104420623D01*
X85035389Y-104419084D01*
X85037443Y-104415821D01*
X85108871Y-104272963D01*
X85115878Y-104254654D01*
X85116132Y-104251068D01*
X85117507Y-104247751D01*
X85119428Y-104228242D01*
X85119428Y-104085385D01*
X85117507Y-104065876D01*
X85116131Y-104062555D01*
X85115877Y-104058973D01*
X85108871Y-104040664D01*
X85037443Y-103897807D01*
X85035389Y-103894543D01*
X85034876Y-103893005D01*
X85033213Y-103891088D01*
X85027000Y-103881217D01*
X85017529Y-103873003D01*
X85009312Y-103863528D01*
X84999438Y-103857313D01*
X84997523Y-103855652D01*
X84995984Y-103855139D01*
X84992721Y-103853085D01*
X84849864Y-103781657D01*
X84831556Y-103774651D01*
X84827972Y-103774396D01*
X84824652Y-103773021D01*
X84805143Y-103771100D01*
X84471607Y-103771100D01*
X84405143Y-103737867D01*
X84405143Y-103680420D01*
X84451106Y-103588492D01*
X84543035Y-103542528D01*
X84781535Y-103542528D01*
X84903278Y-103603400D01*
X84921587Y-103610406D01*
X84960507Y-103613172D01*
X84997523Y-103600833D01*
X85026999Y-103575269D01*
X85044449Y-103540370D01*
X85047215Y-103501450D01*
X85034876Y-103464434D01*
X85009312Y-103434957D01*
X84992721Y-103424514D01*
X84849865Y-103353085D01*
X84831556Y-103346079D01*
X84827972Y-103345824D01*
X84824652Y-103344449D01*
X84805143Y-103342528D01*
X84519428Y-103342528D01*
X84499919Y-103344449D01*
X84496598Y-103345824D01*
X84493015Y-103346079D01*
X84474706Y-103353085D01*
X84331849Y-103424514D01*
X84328584Y-103426568D01*
X84327048Y-103427081D01*
X84325133Y-103428740D01*
X84315259Y-103434957D01*
X84307043Y-103444429D01*
X84297571Y-103452645D01*
X84291356Y-103462518D01*
X84289695Y-103464434D01*
X84289182Y-103465972D01*
X84287128Y-103469236D01*
X84215700Y-103612093D01*
X84208694Y-103630401D01*
X84208439Y-103633984D01*
X84207064Y-103637305D01*
X84205143Y-103656814D01*
X84038476Y-103656814D01*
X84038476Y-103228242D01*
X85490857Y-103228242D01*
X85490857Y-103442528D01*
X85492778Y-103462037D01*
X85494153Y-103465357D01*
X85494408Y-103468941D01*
X85501414Y-103487249D01*
X85572842Y-103630106D01*
X85578128Y-103638504D01*
X85579138Y-103640942D01*
X85581389Y-103643685D01*
X85583285Y-103646697D01*
X85585282Y-103648429D01*
X85591574Y-103656096D01*
X85663003Y-103727525D01*
X85670673Y-103733819D01*
X85672403Y-103735814D01*
X85675410Y-103737707D01*
X85678157Y-103739961D01*
X85680596Y-103740971D01*
X85688993Y-103746257D01*
X85831850Y-103817685D01*
X85850159Y-103824691D01*
X85853741Y-103824945D01*
X85857062Y-103826321D01*
X85876571Y-103828242D01*
X85898792Y-103828242D01*
X85508934Y-104385182D01*
X85499320Y-104402266D01*
X85490880Y-104440360D01*
X85497661Y-104478785D01*
X85518630Y-104511690D01*
X85550595Y-104534065D01*
X85588689Y-104542505D01*
X85627114Y-104535724D01*
X85660019Y-104514755D01*
X85672780Y-104499874D01*
X86142922Y-103828242D01*
X86348000Y-103828242D01*
X86348000Y-104442528D01*
X86349921Y-104462037D01*
X86364853Y-104498085D01*
X86392443Y-104525675D01*
X86428491Y-104540607D01*
X86467509Y-104540607D01*
X86503557Y-104525675D01*
X86531147Y-104498085D01*
X86546079Y-104462037D01*
X86548000Y-104442528D01*
X86548000Y-103728242D01*
X86990857Y-103728242D01*
X86990857Y-104156814D01*
X86992778Y-104176323D01*
X86994153Y-104179643D01*
X86994408Y-104183227D01*
X87001414Y-104201536D01*
X87072843Y-104344392D01*
X87078126Y-104352786D01*
X87079138Y-104355228D01*
X87081392Y-104357975D01*
X87083286Y-104360983D01*
X87085282Y-104362714D01*
X87091575Y-104370381D01*
X87163003Y-104441810D01*
X87170672Y-104448105D01*
X87172403Y-104450100D01*
X87175408Y-104451991D01*
X87178156Y-104454247D01*
X87180597Y-104455258D01*
X87188993Y-104460543D01*
X87331850Y-104531971D01*
X87350159Y-104538977D01*
X87353741Y-104539231D01*
X87357062Y-104540607D01*
X87376571Y-104542528D01*
X87590857Y-104542528D01*
X87610366Y-104540607D01*
X87613686Y-104539231D01*
X87617270Y-104538977D01*
X87635578Y-104531971D01*
X87778435Y-104460543D01*
X87786833Y-104455256D01*
X87789271Y-104454247D01*
X87792014Y-104451995D01*
X87795026Y-104450100D01*
X87796758Y-104448102D01*
X87804425Y-104441811D01*
X87823217Y-104423019D01*
X88207064Y-104423019D01*
X88207064Y-104462037D01*
X88221996Y-104498085D01*
X88249586Y-104525675D01*
X88285634Y-104540607D01*
X88305143Y-104542528D01*
X89019429Y-104542528D01*
X89038938Y-104540607D01*
X89074986Y-104525675D01*
X89102576Y-104498085D01*
X89117508Y-104462037D01*
X89119429Y-104442528D01*
X89119429Y-103851591D01*
X89635636Y-103851591D01*
X89635636Y-103890609D01*
X89650568Y-103926657D01*
X89678158Y-103954247D01*
X89714206Y-103969179D01*
X89733715Y-103971100D01*
X90876572Y-103971100D01*
X90896081Y-103969179D01*
X90932129Y-103954247D01*
X90959719Y-103926657D01*
X90974651Y-103890609D01*
X90974651Y-103851591D01*
X90959719Y-103815543D01*
X90932129Y-103787953D01*
X90896081Y-103773021D01*
X90876572Y-103771100D01*
X89733715Y-103771100D01*
X89714206Y-103773021D01*
X89678158Y-103787953D01*
X89650568Y-103815543D01*
X89635636Y-103851591D01*
X89119429Y-103851591D01*
X89119429Y-103513957D01*
X91419428Y-103513957D01*
X91419428Y-103871100D01*
X91419763Y-103874502D01*
X91419546Y-103875961D01*
X91420625Y-103883258D01*
X91421349Y-103890609D01*
X91421913Y-103891972D01*
X91422414Y-103895354D01*
X91493843Y-104181067D01*
X91494356Y-104182504D01*
X91494408Y-104183227D01*
X91497519Y-104191357D01*
X91500438Y-104199528D01*
X91500867Y-104200107D01*
X91501414Y-104201536D01*
X91572843Y-104344392D01*
X91578126Y-104352786D01*
X91579138Y-104355228D01*
X91581392Y-104357975D01*
X91583286Y-104360983D01*
X91585282Y-104362714D01*
X91591575Y-104370381D01*
X91663003Y-104441810D01*
X91670672Y-104448105D01*
X91672403Y-104450100D01*
X91675408Y-104451991D01*
X91678156Y-104454247D01*
X91680597Y-104455258D01*
X91688993Y-104460543D01*
X91831850Y-104531971D01*
X91850159Y-104538977D01*
X91853741Y-104539231D01*
X91857062Y-104540607D01*
X91876571Y-104542528D01*
X92019428Y-104542528D01*
X92038937Y-104540607D01*
X92042257Y-104539231D01*
X92045840Y-104538977D01*
X92064149Y-104531971D01*
X92207007Y-104460543D01*
X92215403Y-104455257D01*
X92217844Y-104454247D01*
X92220589Y-104451993D01*
X92223598Y-104450100D01*
X92225330Y-104448102D01*
X92232997Y-104441810D01*
X92304425Y-104370381D01*
X92310717Y-104362714D01*
X92312714Y-104360983D01*
X92314607Y-104357974D01*
X92316862Y-104355228D01*
X92317872Y-104352787D01*
X92323157Y-104344393D01*
X92394586Y-104201536D01*
X92395132Y-104200107D01*
X92395562Y-104199528D01*
X92398480Y-104191357D01*
X92401592Y-104183227D01*
X92401643Y-104182504D01*
X92402157Y-104181067D01*
X92466669Y-103923019D01*
X92778492Y-103923019D01*
X92778492Y-103962037D01*
X92793424Y-103998085D01*
X92821014Y-104025675D01*
X92857062Y-104040607D01*
X92876571Y-104042528D01*
X92990857Y-104042528D01*
X92990857Y-104442528D01*
X92992778Y-104462037D01*
X93007710Y-104498085D01*
X93035300Y-104525675D01*
X93071348Y-104540607D01*
X93110366Y-104540607D01*
X93146414Y-104525675D01*
X93174004Y-104498085D01*
X93188936Y-104462037D01*
X93190857Y-104442528D01*
X93190857Y-104042528D01*
X93805142Y-104042528D01*
X93815015Y-104041555D01*
X93817649Y-104041743D01*
X93819550Y-104041109D01*
X93824651Y-104040607D01*
X93839463Y-104034471D01*
X93854665Y-104029404D01*
X93857378Y-104027050D01*
X93860699Y-104025675D01*
X93872037Y-104014336D01*
X93884141Y-104003839D01*
X93885747Y-104000626D01*
X93888289Y-103998085D01*
X93894425Y-103983270D01*
X93901591Y-103968940D01*
X93901845Y-103965357D01*
X93903221Y-103962037D01*
X93903221Y-103946004D01*
X93904357Y-103930020D01*
X93903221Y-103925024D01*
X93903221Y-103923019D01*
X93902209Y-103920577D01*
X93900010Y-103910905D01*
X93767694Y-103513957D01*
X94276570Y-103513957D01*
X94276570Y-103871100D01*
X94276905Y-103874502D01*
X94276688Y-103875961D01*
X94277767Y-103883258D01*
X94278491Y-103890609D01*
X94279055Y-103891972D01*
X94279556Y-103895354D01*
X94350985Y-104181067D01*
X94351498Y-104182504D01*
X94351550Y-104183227D01*
X94354661Y-104191357D01*
X94357580Y-104199528D01*
X94358009Y-104200107D01*
X94358556Y-104201536D01*
X94429985Y-104344392D01*
X94435268Y-104352786D01*
X94436280Y-104355228D01*
X94438534Y-104357975D01*
X94440428Y-104360983D01*
X94442424Y-104362714D01*
X94448717Y-104370381D01*
X94520145Y-104441810D01*
X94527814Y-104448105D01*
X94529545Y-104450100D01*
X94532550Y-104451991D01*
X94535298Y-104454247D01*
X94537739Y-104455258D01*
X94546135Y-104460543D01*
X94688992Y-104531971D01*
X94707301Y-104538977D01*
X94710883Y-104539231D01*
X94714204Y-104540607D01*
X94733713Y-104542528D01*
X94876570Y-104542528D01*
X94896079Y-104540607D01*
X94899399Y-104539231D01*
X94902982Y-104538977D01*
X94921291Y-104531971D01*
X95064149Y-104460543D01*
X95072545Y-104455257D01*
X95074986Y-104454247D01*
X95077731Y-104451993D01*
X95080740Y-104450100D01*
X95082472Y-104448102D01*
X95090139Y-104441810D01*
X95161567Y-104370381D01*
X95167859Y-104362714D01*
X95169856Y-104360983D01*
X95171749Y-104357974D01*
X95174004Y-104355228D01*
X95175014Y-104352787D01*
X95180299Y-104344393D01*
X95251728Y-104201536D01*
X95252274Y-104200107D01*
X95252704Y-104199528D01*
X95255622Y-104191357D01*
X95258734Y-104183227D01*
X95258785Y-104182504D01*
X95259299Y-104181067D01*
X95330727Y-103895354D01*
X95331227Y-103891972D01*
X95331792Y-103890609D01*
X95332515Y-103883258D01*
X95333595Y-103875961D01*
X95333377Y-103874502D01*
X95333713Y-103871100D01*
X95333713Y-103513957D01*
X95333377Y-103510554D01*
X95333595Y-103509096D01*
X95332515Y-103501799D01*
X95331792Y-103494448D01*
X95331226Y-103493083D01*
X95330727Y-103489704D01*
X95265362Y-103228242D01*
X95705141Y-103228242D01*
X95705141Y-103371100D01*
X95706113Y-103380973D01*
X95705926Y-103383608D01*
X95706713Y-103387071D01*
X95707062Y-103390609D01*
X95708073Y-103393050D01*
X95710273Y-103402723D01*
X95781702Y-103617008D01*
X95789693Y-103634908D01*
X95792048Y-103637623D01*
X95793423Y-103640942D01*
X95805859Y-103656096D01*
X96492292Y-104342528D01*
X95805141Y-104342528D01*
X95785632Y-104344449D01*
X95749584Y-104359381D01*
X95721994Y-104386971D01*
X95707062Y-104423019D01*
X95707062Y-104462037D01*
X95721994Y-104498085D01*
X95749584Y-104525675D01*
X95785632Y-104540607D01*
X95805141Y-104542528D01*
X96733713Y-104542528D01*
X96753222Y-104540607D01*
X96789270Y-104525675D01*
X96816860Y-104498085D01*
X96831792Y-104462037D01*
X96831792Y-104423019D01*
X96820650Y-104396120D01*
X96816860Y-104386970D01*
X96804423Y-104371817D01*
X95963972Y-103531365D01*
X95905141Y-103354872D01*
X95905141Y-103251850D01*
X95916945Y-103228242D01*
X97133713Y-103228242D01*
X97133713Y-103442528D01*
X97135634Y-103462037D01*
X97137009Y-103465357D01*
X97137264Y-103468941D01*
X97144270Y-103487249D01*
X97215698Y-103630106D01*
X97220984Y-103638504D01*
X97221994Y-103640942D01*
X97224245Y-103643685D01*
X97226141Y-103646697D01*
X97228138Y-103648429D01*
X97234430Y-103656096D01*
X97305859Y-103727525D01*
X97313529Y-103733819D01*
X97315259Y-103735814D01*
X97318266Y-103737707D01*
X97321013Y-103739961D01*
X97323452Y-103740971D01*
X97331849Y-103746257D01*
X97474706Y-103817685D01*
X97493015Y-103824691D01*
X97496597Y-103824945D01*
X97499918Y-103826321D01*
X97519427Y-103828242D01*
X97990856Y-103828242D01*
X97990856Y-104442528D01*
X97992777Y-104462037D01*
X98007709Y-104498085D01*
X98035299Y-104525675D01*
X98071347Y-104540607D01*
X98110365Y-104540607D01*
X98146413Y-104525675D01*
X98174003Y-104498085D01*
X98188935Y-104462037D01*
X98190856Y-104442528D01*
X98190856Y-103228242D01*
X98633713Y-103228242D01*
X98633713Y-103442528D01*
X98635634Y-103462037D01*
X98637009Y-103465357D01*
X98637264Y-103468941D01*
X98644270Y-103487249D01*
X98715698Y-103630106D01*
X98720984Y-103638504D01*
X98721994Y-103640942D01*
X98724245Y-103643685D01*
X98726141Y-103646697D01*
X98728138Y-103648429D01*
X98734430Y-103656096D01*
X98805859Y-103727525D01*
X98813529Y-103733819D01*
X98815259Y-103735814D01*
X98818266Y-103737707D01*
X98821013Y-103739961D01*
X98823452Y-103740971D01*
X98831849Y-103746257D01*
X98974706Y-103817685D01*
X98993015Y-103824691D01*
X98996597Y-103824945D01*
X98999918Y-103826321D01*
X99019427Y-103828242D01*
X99041648Y-103828242D01*
X98651790Y-104385182D01*
X98642176Y-104402266D01*
X98633736Y-104440360D01*
X98640517Y-104478785D01*
X98661486Y-104511690D01*
X98693451Y-104534065D01*
X98731545Y-104542505D01*
X98769970Y-104535724D01*
X98802875Y-104514755D01*
X98815636Y-104499874D01*
X99285778Y-103828242D01*
X99490856Y-103828242D01*
X99490856Y-104442528D01*
X99492777Y-104462037D01*
X99507709Y-104498085D01*
X99535299Y-104525675D01*
X99571347Y-104540607D01*
X99610365Y-104540607D01*
X99646413Y-104525675D01*
X99674003Y-104498085D01*
X99688935Y-104462037D01*
X99690856Y-104442528D01*
X99690856Y-102942528D01*
X99688935Y-102923019D01*
X99674003Y-102886971D01*
X99646413Y-102859381D01*
X99610365Y-102844449D01*
X99590856Y-102842528D01*
X99019427Y-102842528D01*
X98999918Y-102844449D01*
X98996597Y-102845824D01*
X98993014Y-102846079D01*
X98974705Y-102853085D01*
X98831848Y-102924514D01*
X98823453Y-102929798D01*
X98821013Y-102930809D01*
X98818266Y-102933063D01*
X98815258Y-102934957D01*
X98813526Y-102936953D01*
X98805860Y-102943246D01*
X98734431Y-103014674D01*
X98728138Y-103022340D01*
X98726141Y-103024073D01*
X98724247Y-103027081D01*
X98721994Y-103029827D01*
X98720983Y-103032267D01*
X98715698Y-103040664D01*
X98644270Y-103183521D01*
X98637264Y-103201829D01*
X98637009Y-103205412D01*
X98635634Y-103208733D01*
X98633713Y-103228242D01*
X98190856Y-103228242D01*
X98190856Y-102942528D01*
X98188935Y-102923019D01*
X98174003Y-102886971D01*
X98146413Y-102859381D01*
X98110365Y-102844449D01*
X98090856Y-102842528D01*
X97519427Y-102842528D01*
X97499918Y-102844449D01*
X97496597Y-102845824D01*
X97493014Y-102846079D01*
X97474705Y-102853085D01*
X97331848Y-102924514D01*
X97323453Y-102929798D01*
X97321013Y-102930809D01*
X97318266Y-102933063D01*
X97315258Y-102934957D01*
X97313526Y-102936953D01*
X97305860Y-102943246D01*
X97234431Y-103014674D01*
X97228138Y-103022340D01*
X97226141Y-103024073D01*
X97224247Y-103027081D01*
X97221994Y-103029827D01*
X97220983Y-103032267D01*
X97215698Y-103040664D01*
X97144270Y-103183521D01*
X97137264Y-103201829D01*
X97137009Y-103205412D01*
X97135634Y-103208733D01*
X97133713Y-103228242D01*
X95916945Y-103228242D01*
X95958756Y-103144619D01*
X96007232Y-103096143D01*
X96114463Y-103042528D01*
X96424391Y-103042528D01*
X96531620Y-103096143D01*
X96591573Y-103156095D01*
X96606726Y-103168532D01*
X96642775Y-103183463D01*
X96681793Y-103183463D01*
X96717841Y-103168532D01*
X96745431Y-103140942D01*
X96760362Y-103104894D01*
X96760362Y-103065876D01*
X96745431Y-103029827D01*
X96732994Y-103014674D01*
X96661567Y-102943246D01*
X96653900Y-102936954D01*
X96652168Y-102934957D01*
X96649156Y-102933061D01*
X96646413Y-102930810D01*
X96643975Y-102929800D01*
X96635577Y-102924514D01*
X96492721Y-102853085D01*
X96474412Y-102846079D01*
X96470828Y-102845824D01*
X96467508Y-102844449D01*
X96447999Y-102842528D01*
X96090856Y-102842528D01*
X96071347Y-102844449D01*
X96068026Y-102845824D01*
X96064443Y-102846079D01*
X96046134Y-102853085D01*
X95903277Y-102924514D01*
X95894882Y-102929798D01*
X95892442Y-102930809D01*
X95889695Y-102933063D01*
X95886687Y-102934957D01*
X95884955Y-102936953D01*
X95877289Y-102943246D01*
X95805860Y-103014674D01*
X95799567Y-103022340D01*
X95797570Y-103024073D01*
X95795676Y-103027081D01*
X95793423Y-103029827D01*
X95792412Y-103032267D01*
X95787127Y-103040664D01*
X95715698Y-103183520D01*
X95708692Y-103201829D01*
X95708437Y-103205412D01*
X95707062Y-103208733D01*
X95705141Y-103228242D01*
X95265362Y-103228242D01*
X95259299Y-103203989D01*
X95258785Y-103202551D01*
X95258734Y-103201829D01*
X95255622Y-103193698D01*
X95252704Y-103185528D01*
X95252274Y-103184948D01*
X95251728Y-103183520D01*
X95180299Y-103040663D01*
X95175013Y-103032265D01*
X95174003Y-103029827D01*
X95171750Y-103027082D01*
X95169856Y-103024073D01*
X95167858Y-103022340D01*
X95161566Y-103014674D01*
X95090139Y-102943246D01*
X95082472Y-102936954D01*
X95080740Y-102934957D01*
X95077728Y-102933061D01*
X95074985Y-102930810D01*
X95072547Y-102929800D01*
X95064149Y-102924514D01*
X94921291Y-102853085D01*
X94902983Y-102846079D01*
X94899399Y-102845824D01*
X94896079Y-102844449D01*
X94876570Y-102842528D01*
X94733713Y-102842528D01*
X94714204Y-102844449D01*
X94710883Y-102845824D01*
X94707300Y-102846079D01*
X94688991Y-102853085D01*
X94546134Y-102924514D01*
X94537736Y-102929799D01*
X94535298Y-102930810D01*
X94532553Y-102933062D01*
X94529544Y-102934957D01*
X94527811Y-102936954D01*
X94520145Y-102943247D01*
X94448717Y-103014674D01*
X94442425Y-103022340D01*
X94440428Y-103024073D01*
X94438532Y-103027084D01*
X94436281Y-103029828D01*
X94435271Y-103032265D01*
X94429985Y-103040664D01*
X94358556Y-103183520D01*
X94358009Y-103184948D01*
X94357580Y-103185528D01*
X94354661Y-103193698D01*
X94351550Y-103201829D01*
X94351498Y-103202551D01*
X94350985Y-103203989D01*
X94279556Y-103489703D01*
X94279055Y-103493084D01*
X94278491Y-103494448D01*
X94277767Y-103501798D01*
X94276688Y-103509096D01*
X94276905Y-103510554D01*
X94276570Y-103513957D01*
X93767694Y-103513957D01*
X93542867Y-102839477D01*
X93534876Y-102821577D01*
X93509310Y-102792101D01*
X93474412Y-102774651D01*
X93435492Y-102771885D01*
X93398476Y-102784223D01*
X93369000Y-102809789D01*
X93351550Y-102844687D01*
X93348784Y-102883607D01*
X93353131Y-102902723D01*
X93666400Y-103842528D01*
X93190857Y-103842528D01*
X93190857Y-103442528D01*
X93188936Y-103423019D01*
X93174004Y-103386971D01*
X93146414Y-103359381D01*
X93110366Y-103344449D01*
X93071348Y-103344449D01*
X93035300Y-103359381D01*
X93007710Y-103386971D01*
X92992778Y-103423019D01*
X92990857Y-103442528D01*
X92990857Y-103842528D01*
X92876571Y-103842528D01*
X92857062Y-103844449D01*
X92821014Y-103859381D01*
X92793424Y-103886971D01*
X92778492Y-103923019D01*
X92466669Y-103923019D01*
X92473585Y-103895354D01*
X92474085Y-103891972D01*
X92474650Y-103890609D01*
X92475373Y-103883258D01*
X92476453Y-103875961D01*
X92476235Y-103874502D01*
X92476571Y-103871100D01*
X92476571Y-103513957D01*
X92476235Y-103510554D01*
X92476453Y-103509096D01*
X92475373Y-103501799D01*
X92474650Y-103494448D01*
X92474084Y-103493083D01*
X92473585Y-103489704D01*
X92402157Y-103203989D01*
X92401643Y-103202551D01*
X92401592Y-103201829D01*
X92398480Y-103193698D01*
X92395562Y-103185528D01*
X92395132Y-103184948D01*
X92394586Y-103183520D01*
X92323157Y-103040663D01*
X92317871Y-103032265D01*
X92316861Y-103029827D01*
X92314608Y-103027082D01*
X92312714Y-103024073D01*
X92310716Y-103022340D01*
X92304424Y-103014674D01*
X92232997Y-102943246D01*
X92225330Y-102936954D01*
X92223598Y-102934957D01*
X92220586Y-102933061D01*
X92217843Y-102930810D01*
X92215405Y-102929800D01*
X92207007Y-102924514D01*
X92064149Y-102853085D01*
X92045841Y-102846079D01*
X92042257Y-102845824D01*
X92038937Y-102844449D01*
X92019428Y-102842528D01*
X91876571Y-102842528D01*
X91857062Y-102844449D01*
X91853741Y-102845824D01*
X91850158Y-102846079D01*
X91831849Y-102853085D01*
X91688992Y-102924514D01*
X91680594Y-102929799D01*
X91678156Y-102930810D01*
X91675411Y-102933062D01*
X91672402Y-102934957D01*
X91670669Y-102936954D01*
X91663003Y-102943247D01*
X91591575Y-103014674D01*
X91585283Y-103022340D01*
X91583286Y-103024073D01*
X91581390Y-103027084D01*
X91579139Y-103029828D01*
X91578129Y-103032265D01*
X91572843Y-103040664D01*
X91501414Y-103183520D01*
X91500867Y-103184948D01*
X91500438Y-103185528D01*
X91497519Y-103193698D01*
X91494408Y-103201829D01*
X91494356Y-103202551D01*
X91493843Y-103203989D01*
X91422414Y-103489703D01*
X91421913Y-103493084D01*
X91421349Y-103494448D01*
X91420625Y-103501798D01*
X91419546Y-103509096D01*
X91419763Y-103510554D01*
X91419428Y-103513957D01*
X89119429Y-103513957D01*
X89119429Y-102942528D01*
X89117508Y-102923019D01*
X89102576Y-102886971D01*
X89074986Y-102859381D01*
X89038938Y-102844449D01*
X88999920Y-102844449D01*
X88963872Y-102859381D01*
X88936282Y-102886971D01*
X88921350Y-102923019D01*
X88919429Y-102942528D01*
X88919429Y-104342528D01*
X88305143Y-104342528D01*
X88285634Y-104344449D01*
X88249586Y-104359381D01*
X88221996Y-104386971D01*
X88207064Y-104423019D01*
X87823217Y-104423019D01*
X87875854Y-104370382D01*
X87882148Y-104362711D01*
X87884143Y-104360982D01*
X87886036Y-104357974D01*
X87888290Y-104355228D01*
X87889300Y-104352788D01*
X87894586Y-104344392D01*
X87966014Y-104201535D01*
X87973020Y-104183226D01*
X87973274Y-104179643D01*
X87974650Y-104176323D01*
X87976571Y-104156814D01*
X87976571Y-103728242D01*
X87974650Y-103708733D01*
X87973274Y-103705412D01*
X87973020Y-103701830D01*
X87966014Y-103683521D01*
X87894586Y-103540664D01*
X87889301Y-103532268D01*
X87888290Y-103529827D01*
X87886034Y-103527079D01*
X87884143Y-103524074D01*
X87882148Y-103522343D01*
X87875853Y-103514674D01*
X87804424Y-103443246D01*
X87796757Y-103436953D01*
X87795026Y-103434957D01*
X87792018Y-103433063D01*
X87789271Y-103430809D01*
X87786829Y-103429797D01*
X87778435Y-103424514D01*
X87635579Y-103353085D01*
X87617270Y-103346079D01*
X87613686Y-103345824D01*
X87610366Y-103344449D01*
X87590857Y-103342528D01*
X87376571Y-103342528D01*
X87357062Y-103344449D01*
X87353741Y-103345824D01*
X87350158Y-103346079D01*
X87331849Y-103353085D01*
X87188992Y-103424514D01*
X87180594Y-103429799D01*
X87178156Y-103430810D01*
X87175411Y-103433062D01*
X87172402Y-103434957D01*
X87170669Y-103436954D01*
X87163003Y-103443247D01*
X87091575Y-103514674D01*
X87085283Y-103522340D01*
X87083286Y-103524073D01*
X87081390Y-103527084D01*
X87079139Y-103529828D01*
X87078129Y-103532265D01*
X87072843Y-103540664D01*
X87001414Y-103683520D01*
X86994408Y-103701829D01*
X86994153Y-103705412D01*
X86992778Y-103708733D01*
X86990857Y-103728242D01*
X86548000Y-103728242D01*
X86548000Y-102942528D01*
X86546079Y-102923019D01*
X86531147Y-102886971D01*
X86503557Y-102859381D01*
X86467509Y-102844449D01*
X86448000Y-102842528D01*
X85876571Y-102842528D01*
X85857062Y-102844449D01*
X85853741Y-102845824D01*
X85850158Y-102846079D01*
X85831849Y-102853085D01*
X85688992Y-102924514D01*
X85680597Y-102929798D01*
X85678157Y-102930809D01*
X85675410Y-102933063D01*
X85672402Y-102934957D01*
X85670670Y-102936953D01*
X85663004Y-102943246D01*
X85591575Y-103014674D01*
X85585282Y-103022340D01*
X85583285Y-103024073D01*
X85581391Y-103027081D01*
X85579138Y-103029827D01*
X85578127Y-103032267D01*
X85572842Y-103040664D01*
X85501414Y-103183521D01*
X85494408Y-103201829D01*
X85494153Y-103205412D01*
X85492778Y-103208733D01*
X85490857Y-103228242D01*
X84038476Y-103228242D01*
X84038476Y-102605218D01*
X99857523Y-102605218D01*
X99857523Y-104709195D01*
G37*
D12*
%TO.C,M1*%
X71502500Y-79035000D02*
X71502500Y-100035000D01*
X71502500Y-100035000D02*
X71842500Y-100035000D01*
X71842500Y-79035000D02*
X71502500Y-79035000D01*
X73923500Y-100035000D02*
X74403500Y-100035000D01*
X74403500Y-79035000D02*
X73923500Y-79035000D01*
X76463500Y-100035000D02*
X76943500Y-100035000D01*
X76943500Y-79035000D02*
X76463500Y-79035000D01*
X79003500Y-100035000D02*
X79483500Y-100035000D01*
X79483500Y-79035000D02*
X79003500Y-79035000D01*
X81543500Y-100035000D02*
X82023500Y-100035000D01*
X82023500Y-79035000D02*
X81543500Y-79035000D01*
X84083500Y-100035000D02*
X84563500Y-100035000D01*
X84563500Y-79035000D02*
X84083500Y-79035000D01*
X86623500Y-100035000D02*
X87103500Y-100035000D01*
X87103500Y-79035000D02*
X86623500Y-79035000D01*
X89163500Y-100035000D02*
X89643500Y-100035000D01*
X89643500Y-79035000D02*
X89163500Y-79035000D01*
X91703500Y-100035000D02*
X92183500Y-100035000D01*
X92183500Y-79035000D02*
X91703500Y-79035000D01*
X94243500Y-100035000D02*
X94723500Y-100035000D01*
X94723500Y-79035000D02*
X94243500Y-79035000D01*
X96783500Y-100035000D02*
X97263500Y-100035000D01*
X97263500Y-79035000D02*
X96783500Y-79035000D01*
X99323500Y-100035000D02*
X99803500Y-100035000D01*
X99803500Y-79035000D02*
X99323500Y-79035000D01*
X101863500Y-100035000D02*
X102343500Y-100035000D01*
X102343500Y-79035000D02*
X101863500Y-79035000D01*
X104403500Y-100035000D02*
X104883500Y-100035000D01*
X104883500Y-79035000D02*
X104403500Y-79035000D01*
X106943500Y-100035000D02*
X107423500Y-100035000D01*
X107423500Y-79035000D02*
X106943500Y-79035000D01*
X109483500Y-100035000D02*
X109963500Y-100035000D01*
X109963500Y-79035000D02*
X109483500Y-79035000D01*
X112023500Y-100035000D02*
X112363500Y-100035000D01*
X112363500Y-79035000D02*
X112023500Y-79035000D01*
X112363500Y-93365000D02*
X112393500Y-93345000D01*
X112363500Y-100035000D02*
X112363500Y-79035000D01*
X75052500Y-84035000D02*
G75*
G02*
X72252500Y-84035000I-1400000J0D01*
G01*
X72252500Y-84035000D02*
G75*
G02*
X75052500Y-84035000I1400000J0D01*
G01*
X74452500Y-84035000D02*
G75*
G02*
X72852500Y-84035000I-800000J0D01*
G01*
X72852500Y-84035000D02*
G75*
G02*
X74452500Y-84035000I800000J0D01*
G01*
X75052500Y-95035000D02*
G75*
G02*
X72252500Y-95035000I-1400000J0D01*
G01*
X72252500Y-95035000D02*
G75*
G02*
X75052500Y-95035000I1400000J0D01*
G01*
X74452500Y-95035000D02*
G75*
G02*
X72852500Y-95035000I-800000J0D01*
G01*
X72852500Y-95035000D02*
G75*
G02*
X74452500Y-95035000I800000J0D01*
G01*
X111613500Y-84035000D02*
G75*
G02*
X108813500Y-84035000I-1400000J0D01*
G01*
X108813500Y-84035000D02*
G75*
G02*
X111613500Y-84035000I1400000J0D01*
G01*
X111013500Y-84035000D02*
G75*
G02*
X109413500Y-84035000I-800000J0D01*
G01*
X109413500Y-84035000D02*
G75*
G02*
X111013500Y-84035000I800000J0D01*
G01*
X111613500Y-95035000D02*
G75*
G02*
X108813500Y-95035000I-1400000J0D01*
G01*
X108813500Y-95035000D02*
G75*
G02*
X111613500Y-95035000I1400000J0D01*
G01*
X111013500Y-95035000D02*
G75*
G02*
X109413500Y-95035000I-800000J0D01*
G01*
X109413500Y-95035000D02*
G75*
G02*
X111013500Y-95035000I800000J0D01*
G01*
D13*
X111263500Y-102035000D02*
G75*
G02*
X110763500Y-102035000I-250000J0D01*
G01*
X110763500Y-102035000D02*
G75*
G02*
X111263500Y-102035000I250000J0D01*
G01*
%TD*%
%LPC*%
D14*
%TO.C,U2*%
X137160000Y-107188000D03*
X137160000Y-104648000D03*
X137160000Y-102108000D03*
X137160000Y-99568000D03*
X137160000Y-97028000D03*
X137160000Y-94488000D03*
X134620000Y-107188000D03*
X134620000Y-104648000D03*
X134620000Y-102108000D03*
X134620000Y-99568000D03*
X134620000Y-97028000D03*
X134620000Y-94488000D03*
X132080000Y-107188000D03*
X132080000Y-104648000D03*
X132080000Y-102108000D03*
X132080000Y-99568000D03*
X132080000Y-97028000D03*
X132080000Y-94488000D03*
X129540000Y-107188000D03*
X129540000Y-104648000D03*
X129540000Y-102108000D03*
X129540000Y-99568000D03*
X129540000Y-97028000D03*
X129540000Y-94488000D03*
%TD*%
D15*
%TO.C,TP2*%
X54610000Y-107950000D03*
D16*
X66610000Y-107950000D03*
%TD*%
D17*
%TO.C,JP2*%
X136652000Y-83820000D03*
X134112000Y-83820000D03*
%TD*%
D18*
%TO.C,J1*%
X54610000Y-81280000D03*
D19*
X54610000Y-83820000D03*
X54610000Y-86360000D03*
X54610000Y-88900000D03*
X54610000Y-91440000D03*
%TD*%
D18*
%TO.C,J2*%
X54585000Y-97897000D03*
D19*
X54585000Y-95357000D03*
%TD*%
D15*
%TO.C,TP1*%
X54577000Y-102616000D03*
D16*
X66577000Y-102616000D03*
%TD*%
D20*
%TO.C,U3*%
X99822000Y-91948000D03*
%TD*%
D17*
%TO.C,JP1*%
X123190000Y-83820000D03*
X125730000Y-83820000D03*
%TD*%
D15*
%TO.C,TP4*%
X54610000Y-71120000D03*
D16*
X66610000Y-71120000D03*
%TD*%
D15*
%TO.C,TP3*%
X54577000Y-76454000D03*
D16*
X66577000Y-76454000D03*
%TD*%
D21*
%TO.C,D1*%
X119888000Y-91440000D03*
D22*
X119888000Y-93980000D03*
X119888000Y-96520000D03*
%TD*%
D23*
%TO.C,M1*%
X110993500Y-99625000D03*
X108453500Y-99625000D03*
X105913500Y-99625000D03*
X103373500Y-99625000D03*
X100833500Y-99625000D03*
X98293500Y-99625000D03*
X95753500Y-99625000D03*
X93213500Y-99625000D03*
X90673500Y-99625000D03*
X88133500Y-99625000D03*
X85593500Y-99625000D03*
X83053500Y-99625000D03*
X80513500Y-99625000D03*
X77973500Y-99625000D03*
X75433500Y-99625000D03*
X72893500Y-99625000D03*
X72893500Y-79445000D03*
X75433500Y-79445000D03*
X77973500Y-79445000D03*
X80513500Y-79445000D03*
X83053500Y-79445000D03*
X85593500Y-79445000D03*
X88133500Y-79445000D03*
X90673500Y-79445000D03*
X93213500Y-79445000D03*
X95753500Y-79445000D03*
X98293500Y-79445000D03*
X100833500Y-79445000D03*
X103373500Y-79445000D03*
X105913500Y-79445000D03*
X108453500Y-79445000D03*
X110993500Y-79445000D03*
%TD*%
%LPD*%
M02*
