%TF.GenerationSoftware,KiCad,Pcbnew,8.0.4*%
%TF.CreationDate,2024-09-16T22:07:11+05:30*%
%TF.ProjectId,mmeshtastic-pcb,6d6d6573-6874-4617-9374-69632d706362,rev?*%
%TF.SameCoordinates,Original*%
%TF.FileFunction,Copper,L1,Top*%
%TF.FilePolarity,Positive*%
%FSLAX46Y46*%
G04 Gerber Fmt 4.6, Leading zero omitted, Abs format (unit mm)*
G04 Created by KiCad (PCBNEW 8.0.4) date 2024-09-16 22:07:11*
%MOMM*%
%LPD*%
G01*
G04 APERTURE LIST*
G04 Aperture macros list*
%AMRoundRect*
0 Rectangle with rounded corners*
0 $1 Rounding radius*
0 $2 $3 $4 $5 $6 $7 $8 $9 X,Y pos of 4 corners*
0 Add a 4 corners polygon primitive as box body*
4,1,4,$2,$3,$4,$5,$6,$7,$8,$9,$2,$3,0*
0 Add four circle primitives for the rounded corners*
1,1,$1+$1,$2,$3*
1,1,$1+$1,$4,$5*
1,1,$1+$1,$6,$7*
1,1,$1+$1,$8,$9*
0 Add four rect primitives between the rounded corners*
20,1,$1+$1,$2,$3,$4,$5,0*
20,1,$1+$1,$4,$5,$6,$7,0*
20,1,$1+$1,$6,$7,$8,$9,0*
20,1,$1+$1,$8,$9,$2,$3,0*%
%AMFreePoly0*
4,1,19,0.500000,-0.750000,0.000000,-0.750000,0.000000,-0.744911,-0.071157,-0.744911,-0.207708,-0.704816,-0.327430,-0.627875,-0.420627,-0.520320,-0.479746,-0.390866,-0.500000,-0.250000,-0.500000,0.250000,-0.479746,0.390866,-0.420627,0.520320,-0.327430,0.627875,-0.207708,0.704816,-0.071157,0.744911,0.000000,0.744911,0.000000,0.750000,0.500000,0.750000,0.500000,-0.750000,0.500000,-0.750000,
$1*%
%AMFreePoly1*
4,1,19,0.000000,0.744911,0.071157,0.744911,0.207708,0.704816,0.327430,0.627875,0.420627,0.520320,0.479746,0.390866,0.500000,0.250000,0.500000,-0.250000,0.479746,-0.390866,0.420627,-0.520320,0.327430,-0.627875,0.207708,-0.704816,0.071157,-0.744911,0.000000,-0.744911,0.000000,-0.750000,-0.500000,-0.750000,-0.500000,0.750000,0.000000,0.750000,0.000000,0.744911,0.000000,0.744911,
$1*%
G04 Aperture macros list end*
%TA.AperFunction,SMDPad,CuDef*%
%ADD10R,1.700000X3.000000*%
%TD*%
%TA.AperFunction,SMDPad,CuDef*%
%ADD11O,1.700000X3.000000*%
%TD*%
%TA.AperFunction,SMDPad,CuDef*%
%ADD12O,3.000000X1.700000*%
%TD*%
%TA.AperFunction,ComponentPad*%
%ADD13C,1.200000*%
%TD*%
%TA.AperFunction,SMDPad,CuDef*%
%ADD14RoundRect,1.640420X3.359580X6.359580X-3.359580X6.359580X-3.359580X-6.359580X3.359580X-6.359580X0*%
%TD*%
%TA.AperFunction,SMDPad,CuDef*%
%ADD15RoundRect,0.250000X-0.450000X0.262500X-0.450000X-0.262500X0.450000X-0.262500X0.450000X0.262500X0*%
%TD*%
%TA.AperFunction,ComponentPad*%
%ADD16RoundRect,0.312500X-0.937500X0.937500X-0.937500X-0.937500X0.937500X-0.937500X0.937500X0.937500X0*%
%TD*%
%TA.AperFunction,ComponentPad*%
%ADD17C,2.200000*%
%TD*%
%TA.AperFunction,ComponentPad*%
%ADD18R,1.700000X1.700000*%
%TD*%
%TA.AperFunction,ComponentPad*%
%ADD19O,1.700000X1.700000*%
%TD*%
%TA.AperFunction,SMDPad,CuDef*%
%ADD20RoundRect,0.250000X0.450000X-0.262500X0.450000X0.262500X-0.450000X0.262500X-0.450000X-0.262500X0*%
%TD*%
%TA.AperFunction,SMDPad,CuDef*%
%ADD21RoundRect,0.250000X-0.475000X0.250000X-0.475000X-0.250000X0.475000X-0.250000X0.475000X0.250000X0*%
%TD*%
%TA.AperFunction,SMDPad,CuDef*%
%ADD22FreePoly0,90.000000*%
%TD*%
%TA.AperFunction,SMDPad,CuDef*%
%ADD23FreePoly1,90.000000*%
%TD*%
%TA.AperFunction,SMDPad,CuDef*%
%ADD24RoundRect,0.250000X0.475000X-0.250000X0.475000X0.250000X-0.475000X0.250000X-0.475000X-0.250000X0*%
%TD*%
%TA.AperFunction,SMDPad,CuDef*%
%ADD25O,4.500000X3.500000*%
%TD*%
%TA.AperFunction,SMDPad,CuDef*%
%ADD26R,4.500000X3.500000*%
%TD*%
%TA.AperFunction,SMDPad,CuDef*%
%ADD27RoundRect,0.100000X-0.637500X-0.100000X0.637500X-0.100000X0.637500X0.100000X-0.637500X0.100000X0*%
%TD*%
%TA.AperFunction,ComponentPad*%
%ADD28R,1.800000X1.800000*%
%TD*%
%TA.AperFunction,ComponentPad*%
%ADD29C,1.800000*%
%TD*%
%TA.AperFunction,SMDPad,CuDef*%
%ADD30RoundRect,0.250000X-0.650000X1.000000X-0.650000X-1.000000X0.650000X-1.000000X0.650000X1.000000X0*%
%TD*%
%TA.AperFunction,SMDPad,CuDef*%
%ADD31RoundRect,0.150000X-0.512500X-0.150000X0.512500X-0.150000X0.512500X0.150000X-0.512500X0.150000X0*%
%TD*%
%TA.AperFunction,ViaPad*%
%ADD32C,0.600000*%
%TD*%
%TA.AperFunction,Conductor*%
%ADD33C,0.200000*%
%TD*%
%TA.AperFunction,Conductor*%
%ADD34C,1.500000*%
%TD*%
%TA.AperFunction,Conductor*%
%ADD35C,0.400000*%
%TD*%
G04 APERTURE END LIST*
D10*
%TO.P,U2,1,IN+*%
%TO.N,+6V_TP*%
X128524000Y-88400000D03*
D11*
%TO.P,U2,2,GND*%
%TO.N,GND*%
X131064000Y-88400000D03*
%TO.P,U2,3,OUT+*%
%TO.N,Net-(JP2-A)*%
X136144000Y-88400000D03*
%TO.P,U2,4,GND*%
%TO.N,GND*%
X133604000Y-88400000D03*
D12*
%TO.P,U2,10,~{CHRG}*%
%TO.N,Net-(D1-K2)*%
X125484000Y-96520000D03*
%TO.P,U2,11,~{STDBY}*%
%TO.N,Net-(D1-K1)*%
X125484000Y-91440000D03*
%TO.P,U2,12,LED_PWR*%
%TO.N,Net-(D1-A)*%
X125484000Y-93980000D03*
D13*
%TO.P,U2,20,GND*%
%TO.N,GND*%
X137160000Y-107188000D03*
X137160000Y-104648000D03*
X137160000Y-102108000D03*
X137160000Y-99568000D03*
X137160000Y-97028000D03*
X137160000Y-94488000D03*
X134620000Y-107188000D03*
X134620000Y-104648000D03*
X134620000Y-102108000D03*
X134620000Y-99568000D03*
X134620000Y-97028000D03*
X134620000Y-94488000D03*
D14*
X133350000Y-100838000D03*
D13*
X132080000Y-107188000D03*
X132080000Y-104648000D03*
X132080000Y-102108000D03*
X132080000Y-99568000D03*
X132080000Y-97028000D03*
X132080000Y-94488000D03*
X129540000Y-107188000D03*
X129540000Y-104648000D03*
X129540000Y-102108000D03*
X129540000Y-99568000D03*
X129540000Y-97028000D03*
X129540000Y-94488000D03*
%TD*%
D15*
%TO.P,R6,1*%
%TO.N,GND*%
X121158000Y-75541500D03*
%TO.P,R6,2*%
%TO.N,/BAT_SNS*%
X121158000Y-77366500D03*
%TD*%
D16*
%TO.P,TP2,1,1*%
%TO.N,GND*%
X66610000Y-107950000D03*
%TD*%
D17*
%TO.P,JP2,1,A*%
%TO.N,Net-(JP2-A)*%
X136652000Y-83820000D03*
%TO.P,JP2,2,B*%
%TO.N,+BATT*%
X134112000Y-83820000D03*
%TD*%
D15*
%TO.P,R4,1*%
%TO.N,GND*%
X123952000Y-75541500D03*
%TO.P,R4,2*%
%TO.N,Net-(JP3-A)*%
X123952000Y-77366500D03*
%TD*%
D18*
%TO.P,J1,1,Pin_1*%
%TO.N,/SOLAR_SNS*%
X54610000Y-81280000D03*
D19*
%TO.P,J1,2,Pin_2*%
%TO.N,/BAT_SNS*%
X54610000Y-83820000D03*
%TO.P,J1,3,Pin_3*%
%TO.N,+3V3*%
X54610000Y-86360000D03*
%TO.P,J1,4,Pin_4*%
%TO.N,+BATT*%
X54610000Y-88900000D03*
%TO.P,J1,5,Pin_5*%
%TO.N,GND*%
X54610000Y-91440000D03*
%TD*%
D20*
%TO.P,R5,1*%
%TO.N,/BAT_SNS*%
X115570000Y-77366500D03*
%TO.P,R5,2*%
%TO.N,+BATT*%
X115570000Y-75541500D03*
%TD*%
D21*
%TO.P,C1,1*%
%TO.N,Net-(U1-VCC)*%
X137922000Y-75504000D03*
%TO.P,C1,2*%
%TO.N,-BATT*%
X137922000Y-77404000D03*
%TD*%
D20*
%TO.P,R3,1*%
%TO.N,Net-(JP3-A)*%
X129540000Y-77366500D03*
%TO.P,R3,2*%
%TO.N,+12V*%
X129540000Y-75541500D03*
%TD*%
D22*
%TO.P,JP3,1,A*%
%TO.N,Net-(JP3-A)*%
X119634000Y-71770000D03*
D23*
%TO.P,JP3,2,B*%
%TO.N,/SOLAR_SNS*%
X119634000Y-70470000D03*
%TD*%
D15*
%TO.P,R1,1*%
%TO.N,Net-(U1-CS)*%
X132334000Y-75541500D03*
%TO.P,R1,2*%
%TO.N,GND*%
X132334000Y-77366500D03*
%TD*%
D18*
%TO.P,J2,1,Pin_1*%
%TO.N,+12V*%
X54585000Y-97897000D03*
D19*
%TO.P,J2,2,Pin_2*%
%TO.N,GND*%
X54585000Y-95357000D03*
%TD*%
D21*
%TO.P,C2,1*%
%TO.N,GND*%
X126746000Y-75504000D03*
%TO.P,C2,2*%
%TO.N,Net-(JP3-A)*%
X126746000Y-77404000D03*
%TD*%
D24*
%TO.P,C4,1*%
%TO.N,GND*%
X105156000Y-76454000D03*
%TO.P,C4,2*%
%TO.N,+3V3*%
X105156000Y-74554000D03*
%TD*%
D16*
%TO.P,TP1,1,1*%
%TO.N,+12V*%
X66577000Y-102616000D03*
%TD*%
D24*
%TO.P,C5,1*%
%TO.N,GND*%
X107950000Y-76454000D03*
%TO.P,C5,2*%
%TO.N,+3V3*%
X107950000Y-74554000D03*
%TD*%
D21*
%TO.P,C3,1*%
%TO.N,GND*%
X118364000Y-75504000D03*
%TO.P,C3,2*%
%TO.N,/BAT_SNS*%
X118364000Y-77404000D03*
%TD*%
D20*
%TO.P,R2,1*%
%TO.N,+BATT*%
X135128000Y-77366500D03*
%TO.P,R2,2*%
%TO.N,Net-(U1-VCC)*%
X135128000Y-75541500D03*
%TD*%
D25*
%TO.P,U3,1,IN+*%
%TO.N,+12V*%
X72710000Y-90310000D03*
D26*
%TO.P,U3,2,IN-*%
%TO.N,GND*%
X72710000Y-107810000D03*
D25*
%TO.P,U3,3,OUT-*%
X112710000Y-107810000D03*
%TO.P,U3,4,OUT+*%
%TO.N,+6V*%
X112710000Y-90310000D03*
%TD*%
D17*
%TO.P,JP1,1,A*%
%TO.N,+6V*%
X123190000Y-83820000D03*
%TO.P,JP1,2,B*%
%TO.N,+6V_TP*%
X125730000Y-83820000D03*
%TD*%
D16*
%TO.P,TP4,1,1*%
%TO.N,-BATT*%
X66610000Y-71120000D03*
%TD*%
%TO.P,TP3,1,1*%
%TO.N,+BATT*%
X66577000Y-76454000D03*
%TD*%
D27*
%TO.P,Q1,1*%
%TO.N,unconnected-(Q1-Pad1)*%
X125026500Y-70216000D03*
%TO.P,Q1,2*%
%TO.N,-BATT*%
X125026500Y-70866000D03*
%TO.P,Q1,3*%
X125026500Y-71516000D03*
%TO.P,Q1,4*%
%TO.N,Net-(U1-OD)*%
X125026500Y-72166000D03*
%TO.P,Q1,5*%
%TO.N,Net-(U1-OC)*%
X130751500Y-72166000D03*
%TO.P,Q1,6*%
%TO.N,GND*%
X130751500Y-71516000D03*
%TO.P,Q1,7*%
X130751500Y-70866000D03*
%TO.P,Q1,8*%
%TO.N,unconnected-(Q1-Pad1)_1*%
X130751500Y-70216000D03*
%TD*%
D28*
%TO.P,D1,1,K1*%
%TO.N,Net-(D1-K1)*%
X119888000Y-91440000D03*
D29*
%TO.P,D1,2,A*%
%TO.N,Net-(D1-A)*%
X119888000Y-93980000D03*
%TO.P,D1,3,K2*%
%TO.N,Net-(D1-K2)*%
X119888000Y-96520000D03*
%TD*%
D30*
%TO.P,D2,1,K*%
%TO.N,+3V3*%
X111760000Y-74200000D03*
%TO.P,D2,2,A*%
%TO.N,+BATT*%
X111760000Y-78200000D03*
%TD*%
D31*
%TO.P,U1,1,OD*%
%TO.N,Net-(U1-OD)*%
X135006500Y-70241000D03*
%TO.P,U1,2,CS*%
%TO.N,Net-(U1-CS)*%
X135006500Y-71191000D03*
%TO.P,U1,3,OC*%
%TO.N,Net-(U1-OC)*%
X135006500Y-72141000D03*
%TO.P,U1,4,TD*%
%TO.N,unconnected-(U1-TD-Pad4)*%
X137281500Y-72141000D03*
%TO.P,U1,5,VCC*%
%TO.N,Net-(U1-VCC)*%
X137281500Y-71191000D03*
%TO.P,U1,6,GND*%
%TO.N,-BATT*%
X137281500Y-70241000D03*
%TD*%
D32*
%TO.N,/BAT_SNS*%
X116967000Y-77366500D03*
%TO.N,+12V*%
X129540000Y-73914000D03*
X114808000Y-84328000D03*
%TO.N,-BATT*%
X122936000Y-71191000D03*
X139319000Y-78867000D03*
X138684000Y-69596000D03*
%TO.N,/SOLAR_SNS*%
X100838000Y-73914000D03*
%TO.N,+3V3*%
X100838000Y-75946000D03*
%TO.N,Net-(JP3-A)*%
X125349000Y-77366500D03*
X119634000Y-73152000D03*
%TO.N,Net-(U1-OD)*%
X122936000Y-72898000D03*
X133350000Y-70104000D03*
%TO.N,Net-(U1-CS)*%
X133533000Y-71191000D03*
X132334000Y-74168000D03*
%TD*%
D33*
%TO.N,/BAT_SNS*%
X121158000Y-77366500D02*
X118401500Y-77366500D01*
X116967000Y-77366500D02*
X117004500Y-77404000D01*
X115570000Y-77366500D02*
X116967000Y-77366500D01*
X117004500Y-77404000D02*
X118364000Y-77404000D01*
D34*
%TO.N,+12V*%
X62484000Y-102616000D02*
X57765000Y-97897000D01*
X66577000Y-102616000D02*
X66577000Y-96443000D01*
D33*
X114808000Y-84328000D02*
X112776000Y-86360000D01*
X112776000Y-86360000D02*
X76660000Y-86360000D01*
X129540000Y-73914000D02*
X129540000Y-75541500D01*
D34*
X66577000Y-102616000D02*
X62484000Y-102616000D01*
X57765000Y-97897000D02*
X54585000Y-97897000D01*
D33*
X76660000Y-86360000D02*
X72710000Y-90310000D01*
D34*
X66577000Y-96443000D02*
X72710000Y-90310000D01*
%TO.N,+6V*%
X123190000Y-83820000D02*
X119200000Y-83820000D01*
X119200000Y-83820000D02*
X112710000Y-90310000D01*
D33*
%TO.N,-BATT*%
X138684000Y-69596000D02*
X138684000Y-69977000D01*
X138420000Y-70241000D02*
X137281500Y-70241000D01*
D35*
X123959884Y-70866000D02*
X123634884Y-71191000D01*
X125026500Y-70866000D02*
X123959884Y-70866000D01*
D33*
X138684000Y-69977000D02*
X138420000Y-70241000D01*
X139319000Y-78867000D02*
X139319000Y-78801000D01*
D35*
X125026500Y-71516000D02*
X123959884Y-71516000D01*
X123959884Y-71516000D02*
X123634884Y-71191000D01*
D33*
X139319000Y-78801000D02*
X137922000Y-77404000D01*
D34*
X123634884Y-71191000D02*
X122936000Y-71191000D01*
%TO.N,+BATT*%
X66577000Y-76454000D02*
X84582000Y-76454000D01*
X130921125Y-80772000D02*
X133969125Y-83820000D01*
X114332000Y-80772000D02*
X130921125Y-80772000D01*
D33*
X115570000Y-75541500D02*
X114450500Y-75541500D01*
X113570000Y-78200000D02*
X111760000Y-78200000D01*
X114046000Y-77724000D02*
X113570000Y-78200000D01*
D34*
X84582000Y-76454000D02*
X87122000Y-78994000D01*
D33*
X135128000Y-79756000D02*
X135128000Y-77366500D01*
X134112000Y-83820000D02*
X134112000Y-80772000D01*
D34*
X111760000Y-78200000D02*
X114332000Y-80772000D01*
X109220000Y-78994000D02*
X110014000Y-78200000D01*
D33*
X114450500Y-75541500D02*
X114046000Y-75946000D01*
D34*
X110014000Y-78200000D02*
X111760000Y-78200000D01*
X58928000Y-88900000D02*
X66577000Y-81251000D01*
D33*
X134112000Y-80772000D02*
X135128000Y-79756000D01*
D34*
X87122000Y-78994000D02*
X109220000Y-78994000D01*
X66577000Y-81251000D02*
X66577000Y-76454000D01*
X58928000Y-88900000D02*
X54610000Y-88900000D01*
D33*
X114046000Y-75946000D02*
X114046000Y-77724000D01*
D34*
%TO.N,Net-(JP2-A)*%
X136906000Y-88138000D02*
X136906000Y-84074000D01*
X136144000Y-88900000D02*
X136906000Y-88138000D01*
X136906000Y-84074000D02*
X136652000Y-83820000D01*
%TO.N,+6V_TP*%
X125730000Y-87630000D02*
X125730000Y-83820000D01*
X128524000Y-88900000D02*
X127000000Y-88900000D01*
X127000000Y-88900000D02*
X125730000Y-87630000D01*
D33*
%TO.N,/SOLAR_SNS*%
X104282000Y-70470000D02*
X119634000Y-70470000D01*
X100838000Y-73914000D02*
X104282000Y-70470000D01*
D35*
%TO.N,+3V3*%
X109850000Y-74554000D02*
X110204000Y-74200000D01*
X107950000Y-74554000D02*
X105156000Y-74554000D01*
X107950000Y-74554000D02*
X109850000Y-74554000D01*
X102230000Y-74554000D02*
X100838000Y-75946000D01*
X105156000Y-74554000D02*
X102230000Y-74554000D01*
X110204000Y-74200000D02*
X111760000Y-74200000D01*
D33*
%TO.N,Net-(JP3-A)*%
X125349000Y-77366500D02*
X125386500Y-77404000D01*
X119634000Y-71770000D02*
X119634000Y-73152000D01*
X129540000Y-77366500D02*
X127291500Y-77366500D01*
X125386500Y-77404000D02*
X126746000Y-77404000D01*
X123952000Y-77366500D02*
X127216500Y-77366500D01*
%TO.N,Net-(U1-VCC)*%
X137922000Y-74168000D02*
X138938000Y-73152000D01*
X137922000Y-75504000D02*
X137922000Y-74168000D01*
X138938000Y-71882000D02*
X138247000Y-71191000D01*
X135128000Y-75541500D02*
X137376500Y-75541500D01*
X138938000Y-73152000D02*
X138938000Y-71882000D01*
X138247000Y-71191000D02*
X137281500Y-71191000D01*
%TO.N,Net-(D1-A)*%
X125984000Y-93980000D02*
X119888000Y-93980000D01*
%TO.N,Net-(D1-K2)*%
X125984000Y-96520000D02*
X119888000Y-96520000D01*
%TO.N,Net-(D1-K1)*%
X125984000Y-91440000D02*
X119888000Y-91440000D01*
%TO.N,Net-(U1-OC)*%
X135006500Y-72141000D02*
X130776500Y-72141000D01*
%TO.N,Net-(U1-OD)*%
X135006500Y-70241000D02*
X133487000Y-70241000D01*
X122936000Y-72898000D02*
X124294500Y-72898000D01*
X124294500Y-72898000D02*
X125026500Y-72166000D01*
X133487000Y-70241000D02*
X133350000Y-70104000D01*
%TO.N,Net-(U1-CS)*%
X133533000Y-71191000D02*
X135006500Y-71191000D01*
X132334000Y-75541500D02*
X132334000Y-74168000D01*
%TD*%
%TA.AperFunction,Conductor*%
%TO.N,GND*%
G36*
X137704418Y-68580316D02*
G01*
X137975790Y-68599724D01*
X137993291Y-68602241D01*
X138254803Y-68659129D01*
X138271762Y-68664108D01*
X138522524Y-68757638D01*
X138538617Y-68764988D01*
X138565756Y-68779807D01*
X138615161Y-68829212D01*
X138630013Y-68897485D01*
X138605596Y-68962949D01*
X138549663Y-69004821D01*
X138534986Y-69008474D01*
X138535088Y-69008853D01*
X138527237Y-69010956D01*
X138381160Y-69071463D01*
X138255718Y-69167718D01*
X138159463Y-69293160D01*
X138098956Y-69439237D01*
X138098956Y-69439238D01*
X138083558Y-69556196D01*
X138055291Y-69620092D01*
X137996967Y-69658563D01*
X137947048Y-69663265D01*
X137944396Y-69662973D01*
X137917013Y-69656760D01*
X137878697Y-69643353D01*
X137878699Y-69643353D01*
X137848270Y-69640500D01*
X137848266Y-69640500D01*
X136714734Y-69640500D01*
X136714730Y-69640500D01*
X136684300Y-69643353D01*
X136684298Y-69643353D01*
X136556119Y-69688206D01*
X136556117Y-69688207D01*
X136446850Y-69768850D01*
X136366207Y-69878117D01*
X136366206Y-69878119D01*
X136321353Y-70006298D01*
X136321353Y-70006300D01*
X136318500Y-70036730D01*
X136318500Y-70445269D01*
X136321353Y-70475699D01*
X136321353Y-70475701D01*
X136365472Y-70601782D01*
X136366207Y-70603882D01*
X136443082Y-70708045D01*
X136452368Y-70720626D01*
X136451143Y-70721529D01*
X136479714Y-70773852D01*
X136474730Y-70843544D01*
X136469949Y-70854669D01*
X136428426Y-70939606D01*
X136428426Y-70939607D01*
X136418500Y-71007739D01*
X136418500Y-71374260D01*
X136428426Y-71442391D01*
X136479803Y-71547485D01*
X136510637Y-71578319D01*
X136544122Y-71639642D01*
X136539138Y-71709334D01*
X136510637Y-71753681D01*
X136479803Y-71784514D01*
X136428426Y-71889608D01*
X136418500Y-71957739D01*
X136418500Y-72324260D01*
X136428426Y-72392391D01*
X136428427Y-72392393D01*
X136478990Y-72495823D01*
X136479803Y-72497485D01*
X136562514Y-72580196D01*
X136562515Y-72580196D01*
X136562517Y-72580198D01*
X136667607Y-72631573D01*
X136701673Y-72636536D01*
X136735739Y-72641500D01*
X136735740Y-72641500D01*
X137827261Y-72641500D01*
X137849971Y-72638191D01*
X137895393Y-72631573D01*
X138000483Y-72580198D01*
X138083198Y-72497483D01*
X138134573Y-72392393D01*
X138144500Y-72324260D01*
X138144500Y-71957740D01*
X138134573Y-71889607D01*
X138091685Y-71801879D01*
X138079926Y-71733007D01*
X138107270Y-71668709D01*
X138165034Y-71629402D01*
X138234879Y-71627564D01*
X138290767Y-71659738D01*
X138601181Y-71970152D01*
X138634666Y-72031475D01*
X138637500Y-72057833D01*
X138637500Y-72976167D01*
X138617815Y-73043206D01*
X138601181Y-73063848D01*
X137681541Y-73983487D01*
X137681535Y-73983495D01*
X137641982Y-74052004D01*
X137641979Y-74052009D01*
X137631500Y-74091118D01*
X137624517Y-74117181D01*
X137621500Y-74128439D01*
X137621500Y-74407575D01*
X137605095Y-74469214D01*
X137569143Y-74531970D01*
X137564806Y-74538987D01*
X137498455Y-74638778D01*
X137492397Y-74647116D01*
X137431686Y-74723760D01*
X137423067Y-74733538D01*
X137370634Y-74787064D01*
X137358280Y-74798095D01*
X137351834Y-74803119D01*
X137316560Y-74822358D01*
X137279938Y-74835172D01*
X137274045Y-74837044D01*
X137274010Y-74837059D01*
X137267810Y-74839416D01*
X137234122Y-74851204D01*
X137234118Y-74851206D01*
X137124850Y-74931850D01*
X137124846Y-74931854D01*
X137070433Y-75005580D01*
X137049152Y-75027943D01*
X136974387Y-75089071D01*
X136962708Y-75097536D01*
X136867007Y-75158741D01*
X136852164Y-75166864D01*
X136841431Y-75171818D01*
X136841422Y-75171822D01*
X136765160Y-75207015D01*
X136747020Y-75213725D01*
X136692583Y-75229156D01*
X136667378Y-75236300D01*
X136633563Y-75241000D01*
X136400446Y-75241000D01*
X136371314Y-75237529D01*
X136352959Y-75233092D01*
X136352952Y-75233091D01*
X136339913Y-75229939D01*
X136280611Y-75215604D01*
X136262130Y-75209568D01*
X136173853Y-75172854D01*
X136158455Y-75165156D01*
X136061794Y-75108121D01*
X136049515Y-75099849D01*
X136047835Y-75098565D01*
X135962992Y-75033725D01*
X135938518Y-75008837D01*
X135900151Y-74956851D01*
X135890116Y-74949445D01*
X135790882Y-74876207D01*
X135763066Y-74866473D01*
X135755479Y-74863535D01*
X135754598Y-74863160D01*
X135753407Y-74862754D01*
X135745895Y-74860464D01*
X135662701Y-74831354D01*
X135662694Y-74831353D01*
X135632270Y-74828500D01*
X135632266Y-74828500D01*
X134623734Y-74828500D01*
X134623730Y-74828500D01*
X134593300Y-74831353D01*
X134593298Y-74831353D01*
X134465119Y-74876206D01*
X134465117Y-74876207D01*
X134355850Y-74956850D01*
X134275207Y-75066117D01*
X134275206Y-75066119D01*
X134230353Y-75194298D01*
X134230353Y-75194300D01*
X134227500Y-75224730D01*
X134227500Y-75858269D01*
X134230353Y-75888699D01*
X134230353Y-75888701D01*
X134275206Y-76016880D01*
X134275207Y-76016882D01*
X134355850Y-76126150D01*
X134465118Y-76206793D01*
X134493425Y-76216698D01*
X134593299Y-76251646D01*
X134623730Y-76254500D01*
X134623734Y-76254500D01*
X135632270Y-76254500D01*
X135662693Y-76251647D01*
X135662694Y-76251646D01*
X135662699Y-76251646D01*
X135736130Y-76225950D01*
X135745172Y-76223226D01*
X135745702Y-76223025D01*
X135745708Y-76223025D01*
X135754086Y-76219863D01*
X135754090Y-76219860D01*
X135759732Y-76217731D01*
X135762511Y-76216719D01*
X135790882Y-76206793D01*
X135900150Y-76126150D01*
X135938526Y-76074150D01*
X135962997Y-76049266D01*
X136049530Y-75983135D01*
X136061791Y-75974876D01*
X136158463Y-75917835D01*
X136173841Y-75910146D01*
X136262135Y-75873425D01*
X136280597Y-75867397D01*
X136371309Y-75845470D01*
X136400440Y-75842000D01*
X136639938Y-75842000D01*
X136662774Y-75845242D01*
X136662970Y-75844193D01*
X136668956Y-75845307D01*
X136668959Y-75845308D01*
X136764699Y-75863125D01*
X136783529Y-75868190D01*
X136867845Y-75898166D01*
X136883936Y-75905208D01*
X136886773Y-75906697D01*
X136976045Y-75953557D01*
X136989126Y-75961491D01*
X137077074Y-76022555D01*
X137106122Y-76050775D01*
X137123377Y-76074154D01*
X137124850Y-76076150D01*
X137234118Y-76156793D01*
X137251190Y-76162766D01*
X137252248Y-76163137D01*
X137259491Y-76165929D01*
X137263896Y-76167787D01*
X137263901Y-76167790D01*
X137270545Y-76170593D01*
X137275078Y-76171850D01*
X137281134Y-76173531D01*
X137288941Y-76175977D01*
X137362298Y-76201645D01*
X137362300Y-76201646D01*
X137392730Y-76204500D01*
X137392734Y-76204500D01*
X138451270Y-76204500D01*
X138481699Y-76201646D01*
X138481701Y-76201646D01*
X138562047Y-76173531D01*
X138609882Y-76156793D01*
X138719150Y-76076150D01*
X138799793Y-75966882D01*
X138828487Y-75884880D01*
X138844646Y-75838701D01*
X138844646Y-75838699D01*
X138847500Y-75808269D01*
X138847500Y-75199730D01*
X138844646Y-75169300D01*
X138844646Y-75169298D01*
X138799793Y-75041119D01*
X138799792Y-75041117D01*
X138794338Y-75033727D01*
X138719150Y-74931850D01*
X138609882Y-74851207D01*
X138569695Y-74837145D01*
X138527435Y-74822357D01*
X138492164Y-74803119D01*
X138485709Y-74798088D01*
X138473356Y-74787058D01*
X138420941Y-74733551D01*
X138412327Y-74723780D01*
X138351580Y-74647091D01*
X138345543Y-74638783D01*
X138279190Y-74538987D01*
X138274869Y-74531995D01*
X138238904Y-74469213D01*
X138222500Y-74407576D01*
X138222500Y-74343833D01*
X138242185Y-74276794D01*
X138258819Y-74256152D01*
X138715472Y-73799499D01*
X139178460Y-73336511D01*
X139194737Y-73308318D01*
X139218021Y-73267989D01*
X139238500Y-73191562D01*
X139238500Y-71842438D01*
X139233376Y-71823314D01*
X139218022Y-71766012D01*
X139178460Y-71697489D01*
X138431511Y-70950540D01*
X138431510Y-70950539D01*
X138431507Y-70950537D01*
X138399212Y-70931892D01*
X138399212Y-70931891D01*
X138399210Y-70931891D01*
X138386571Y-70924594D01*
X138362990Y-70910979D01*
X138362991Y-70910979D01*
X138301490Y-70894500D01*
X138286562Y-70890500D01*
X138286561Y-70890500D01*
X138285050Y-70890095D01*
X138270895Y-70887211D01*
X138268174Y-70886455D01*
X138208851Y-70849543D01*
X138178902Y-70786418D01*
X138187835Y-70717121D01*
X138232814Y-70663655D01*
X138280042Y-70644829D01*
X138281738Y-70644533D01*
X138288526Y-70643348D01*
X138309852Y-70641500D01*
X138472725Y-70641500D01*
X138472727Y-70641500D01*
X138574588Y-70614207D01*
X138665913Y-70561480D01*
X138807486Y-70419905D01*
X138819144Y-70409627D01*
X138836521Y-70396148D01*
X138875967Y-70351730D01*
X138880968Y-70346423D01*
X139004480Y-70222913D01*
X139016738Y-70201682D01*
X139057207Y-70131587D01*
X139066793Y-70095808D01*
X139093854Y-70045559D01*
X139117250Y-70019219D01*
X139117830Y-70018261D01*
X139125457Y-70007110D01*
X139208536Y-69898841D01*
X139269044Y-69752762D01*
X139269045Y-69752753D01*
X139271147Y-69744912D01*
X139273689Y-69745593D01*
X139296662Y-69693618D01*
X139354975Y-69655128D01*
X139424839Y-69654275D01*
X139484074Y-69691329D01*
X139500192Y-69714243D01*
X139515011Y-69741382D01*
X139522361Y-69757475D01*
X139615888Y-70008229D01*
X139620872Y-70025205D01*
X139677757Y-70286702D01*
X139680275Y-70304214D01*
X139699684Y-70575581D01*
X139700000Y-70584427D01*
X139700000Y-78184294D01*
X139680315Y-78251333D01*
X139627511Y-78297088D01*
X139558353Y-78307032D01*
X139531022Y-78299849D01*
X139429412Y-78260299D01*
X139429320Y-78260263D01*
X139428509Y-78259949D01*
X139428425Y-78259916D01*
X139428399Y-78259906D01*
X139426199Y-78259067D01*
X139423513Y-78258053D01*
X139416207Y-78255297D01*
X139416146Y-78255274D01*
X139361032Y-78234483D01*
X139350525Y-78229955D01*
X139332000Y-78220937D01*
X139314063Y-78210251D01*
X139311635Y-78208512D01*
X139308730Y-78206431D01*
X139294811Y-78196460D01*
X139282629Y-78186506D01*
X139259351Y-78164883D01*
X139221194Y-78129437D01*
X139220138Y-78128461D01*
X139212616Y-78123754D01*
X139190713Y-78106320D01*
X139128587Y-78044194D01*
X139100032Y-77999701D01*
X139094026Y-77983535D01*
X139091613Y-77976376D01*
X139091544Y-77976150D01*
X139068182Y-77899160D01*
X139059124Y-77869308D01*
X139057668Y-77864107D01*
X139022706Y-77727786D01*
X139021768Y-77723863D01*
X138985421Y-77560191D01*
X138984783Y-77557137D01*
X138949811Y-77378536D01*
X138947500Y-77354708D01*
X138947500Y-77110903D01*
X138947500Y-77110898D01*
X138936877Y-77022436D01*
X138881361Y-76881658D01*
X138881360Y-76881657D01*
X138881360Y-76881656D01*
X138789922Y-76761077D01*
X138669343Y-76669639D01*
X138551505Y-76623170D01*
X138528564Y-76614123D01*
X138528563Y-76614122D01*
X138528561Y-76614122D01*
X138482926Y-76608642D01*
X138440102Y-76603500D01*
X137403898Y-76603500D01*
X137369856Y-76607588D01*
X137315438Y-76614122D01*
X137174656Y-76669639D01*
X137054077Y-76761077D01*
X136962639Y-76881656D01*
X136907122Y-77022438D01*
X136902289Y-77062690D01*
X136896500Y-77110898D01*
X136896500Y-77697102D01*
X136900092Y-77727011D01*
X136907122Y-77785561D01*
X136907122Y-77785563D01*
X136907123Y-77785564D01*
X136916938Y-77810453D01*
X136962639Y-77926343D01*
X137054077Y-78046922D01*
X137174656Y-78138360D01*
X137174657Y-78138360D01*
X137174658Y-78138361D01*
X137315436Y-78193877D01*
X137403898Y-78204500D01*
X137648615Y-78204500D01*
X137670893Y-78206518D01*
X137681800Y-78208510D01*
X137681809Y-78208514D01*
X137681810Y-78208512D01*
X137725994Y-78216584D01*
X137725994Y-78216585D01*
X137832879Y-78236114D01*
X137846694Y-78239468D01*
X137915106Y-78260296D01*
X137967366Y-78276205D01*
X137998174Y-78285584D01*
X138010658Y-78290130D01*
X138167151Y-78356820D01*
X138178085Y-78362129D01*
X138309890Y-78434345D01*
X138340008Y-78450847D01*
X138349419Y-78456561D01*
X138517150Y-78568878D01*
X138535837Y-78584230D01*
X138612293Y-78660686D01*
X138628610Y-78682617D01*
X138629224Y-78682210D01*
X138632386Y-78686971D01*
X138632391Y-78686980D01*
X138632396Y-78686987D01*
X138632398Y-78686989D01*
X138657674Y-78718329D01*
X138684028Y-78779503D01*
X138686235Y-78795770D01*
X138686244Y-78795833D01*
X138699627Y-78894857D01*
X138704051Y-78919763D01*
X138704054Y-78919778D01*
X138704472Y-78921672D01*
X138710985Y-78946266D01*
X138710988Y-78946278D01*
X138710989Y-78946279D01*
X138714731Y-78958357D01*
X138714733Y-78958360D01*
X138730064Y-79007830D01*
X138731838Y-79015921D01*
X138731854Y-79015917D01*
X138733958Y-79023769D01*
X138735927Y-79028522D01*
X138739805Y-79039257D01*
X138746245Y-79060036D01*
X138750631Y-79073132D01*
X138750969Y-79074071D01*
X138750980Y-79074098D01*
X138758544Y-79093082D01*
X138758545Y-79093083D01*
X138761927Y-79098055D01*
X138773962Y-79120347D01*
X138794464Y-79169842D01*
X138884247Y-79286849D01*
X138890718Y-79295282D01*
X139016159Y-79391536D01*
X139162238Y-79452044D01*
X139240619Y-79462363D01*
X139318999Y-79472682D01*
X139319000Y-79472682D01*
X139319001Y-79472682D01*
X139371254Y-79465802D01*
X139475762Y-79452044D01*
X139528549Y-79430178D01*
X139598016Y-79422710D01*
X139660495Y-79453985D01*
X139696148Y-79514073D01*
X139700000Y-79544740D01*
X139700000Y-108485572D01*
X139699684Y-108494418D01*
X139680275Y-108765785D01*
X139677757Y-108783297D01*
X139620872Y-109044794D01*
X139615888Y-109061770D01*
X139522361Y-109312524D01*
X139515011Y-109328617D01*
X139386758Y-109563496D01*
X139377193Y-109578380D01*
X139216811Y-109792624D01*
X139205225Y-109805994D01*
X139015994Y-109995225D01*
X139002624Y-110006811D01*
X138788380Y-110167193D01*
X138773496Y-110176758D01*
X138538617Y-110305011D01*
X138522524Y-110312361D01*
X138271770Y-110405888D01*
X138254794Y-110410872D01*
X137993297Y-110467757D01*
X137975785Y-110470275D01*
X137704418Y-110489684D01*
X137695572Y-110490000D01*
X54074428Y-110490000D01*
X54065582Y-110489684D01*
X53794214Y-110470275D01*
X53776702Y-110467757D01*
X53515205Y-110410872D01*
X53498229Y-110405888D01*
X53247475Y-110312361D01*
X53231382Y-110305011D01*
X52996503Y-110176758D01*
X52981619Y-110167193D01*
X52838425Y-110059999D01*
X52767375Y-110006811D01*
X52754005Y-109995225D01*
X52564774Y-109805994D01*
X52553188Y-109792624D01*
X52392802Y-109578375D01*
X52383244Y-109563501D01*
X52254987Y-109328616D01*
X52247638Y-109312524D01*
X52170855Y-109106661D01*
X52154108Y-109061762D01*
X52149129Y-109044803D01*
X52092241Y-108783291D01*
X52089724Y-108765785D01*
X52070316Y-108494418D01*
X52070000Y-108485572D01*
X52070000Y-107835258D01*
X52859500Y-107835258D01*
X52859500Y-108064741D01*
X52877308Y-108200000D01*
X52889452Y-108292238D01*
X52926397Y-108430119D01*
X52948842Y-108513887D01*
X53036650Y-108725876D01*
X53036657Y-108725890D01*
X53151392Y-108924617D01*
X53291081Y-109106661D01*
X53291089Y-109106670D01*
X53453330Y-109268911D01*
X53453338Y-109268918D01*
X53453339Y-109268919D01*
X53485514Y-109293608D01*
X53635382Y-109408607D01*
X53635385Y-109408608D01*
X53635388Y-109408611D01*
X53834112Y-109523344D01*
X53834117Y-109523346D01*
X53834123Y-109523349D01*
X53925480Y-109561190D01*
X54046113Y-109611158D01*
X54267762Y-109670548D01*
X54484312Y-109699057D01*
X54491460Y-109699999D01*
X54495266Y-109700500D01*
X54495273Y-109700500D01*
X54724727Y-109700500D01*
X54724734Y-109700500D01*
X54952238Y-109670548D01*
X55173887Y-109611158D01*
X55385888Y-109523344D01*
X55584612Y-109408611D01*
X55766661Y-109268919D01*
X55766665Y-109268914D01*
X55766670Y-109268911D01*
X55928911Y-109106670D01*
X55928914Y-109106665D01*
X55928919Y-109106661D01*
X56068611Y-108924612D01*
X56183344Y-108725888D01*
X56271158Y-108513887D01*
X56330548Y-108292238D01*
X56360500Y-108064734D01*
X56360500Y-107835266D01*
X56330548Y-107607762D01*
X56271158Y-107386113D01*
X56183344Y-107174112D01*
X56068611Y-106975388D01*
X56068608Y-106975385D01*
X56068607Y-106975382D01*
X56062072Y-106966865D01*
X64860000Y-106966865D01*
X64860000Y-107700000D01*
X66061518Y-107700000D01*
X66050889Y-107718409D01*
X66010000Y-107871009D01*
X66010000Y-108028991D01*
X66050889Y-108181591D01*
X66061518Y-108200000D01*
X64860000Y-108200000D01*
X64860000Y-108933134D01*
X64875357Y-109069436D01*
X64935830Y-109242260D01*
X65033243Y-109397291D01*
X65162708Y-109526756D01*
X65317739Y-109624169D01*
X65490563Y-109684642D01*
X65626865Y-109699999D01*
X65626869Y-109700000D01*
X66360000Y-109700000D01*
X66360000Y-108498482D01*
X66378409Y-108509111D01*
X66531009Y-108550000D01*
X66688991Y-108550000D01*
X66841591Y-108509111D01*
X66860000Y-108498482D01*
X66860000Y-109700000D01*
X67593131Y-109700000D01*
X67593134Y-109699999D01*
X67729436Y-109684642D01*
X67902260Y-109624169D01*
X67928241Y-109607844D01*
X69960000Y-109607844D01*
X69966401Y-109667372D01*
X69966403Y-109667379D01*
X70016645Y-109802086D01*
X70016649Y-109802093D01*
X70102809Y-109917187D01*
X70102812Y-109917190D01*
X70217906Y-110003350D01*
X70217913Y-110003354D01*
X70352620Y-110053596D01*
X70352627Y-110053598D01*
X70412155Y-110059999D01*
X70412172Y-110060000D01*
X72460000Y-110060000D01*
X72960000Y-110060000D01*
X75007828Y-110060000D01*
X75007844Y-110059999D01*
X75067372Y-110053598D01*
X75067379Y-110053596D01*
X75202086Y-110003354D01*
X75202093Y-110003350D01*
X75317187Y-109917190D01*
X75317190Y-109917187D01*
X75403350Y-109802093D01*
X75403354Y-109802086D01*
X75453596Y-109667379D01*
X75453598Y-109667372D01*
X75459999Y-109607844D01*
X75460000Y-109607827D01*
X75460000Y-108060000D01*
X109973498Y-108060000D01*
X109998496Y-108249884D01*
X109998499Y-108249897D01*
X110074835Y-108534790D01*
X110074838Y-108534800D01*
X110187704Y-108807281D01*
X110187709Y-108807292D01*
X110335174Y-109062707D01*
X110335185Y-109062723D01*
X110514729Y-109296709D01*
X110514735Y-109296716D01*
X110723283Y-109505264D01*
X110723290Y-109505270D01*
X110957276Y-109684814D01*
X110957292Y-109684825D01*
X111212707Y-109832290D01*
X111212718Y-109832295D01*
X111485199Y-109945161D01*
X111485209Y-109945164D01*
X111770102Y-110021500D01*
X111770115Y-110021503D01*
X112062516Y-110059998D01*
X112062534Y-110060000D01*
X112460000Y-110060000D01*
X112960000Y-110060000D01*
X113357466Y-110060000D01*
X113357483Y-110059998D01*
X113649884Y-110021503D01*
X113649897Y-110021500D01*
X113934790Y-109945164D01*
X113934800Y-109945161D01*
X114207281Y-109832295D01*
X114207292Y-109832290D01*
X114462707Y-109684825D01*
X114462723Y-109684814D01*
X114696709Y-109505270D01*
X114696716Y-109505264D01*
X114905264Y-109296716D01*
X114905270Y-109296709D01*
X115084814Y-109062723D01*
X115084825Y-109062707D01*
X115232290Y-108807292D01*
X115232295Y-108807281D01*
X115345161Y-108534800D01*
X115345164Y-108534790D01*
X115421500Y-108249897D01*
X115421503Y-108249884D01*
X115446502Y-108060000D01*
X112960000Y-108060000D01*
X112960000Y-110060000D01*
X112460000Y-110060000D01*
X112460000Y-108060000D01*
X109973498Y-108060000D01*
X75460000Y-108060000D01*
X72960000Y-108060000D01*
X72960000Y-110060000D01*
X72460000Y-110060000D01*
X72460000Y-108060000D01*
X69960000Y-108060000D01*
X69960000Y-109607844D01*
X67928241Y-109607844D01*
X68057291Y-109526756D01*
X68186756Y-109397291D01*
X68284169Y-109242260D01*
X68344642Y-109069436D01*
X68359999Y-108933134D01*
X68360000Y-108933130D01*
X68360000Y-108200000D01*
X67158482Y-108200000D01*
X67169111Y-108181591D01*
X67210000Y-108028991D01*
X67210000Y-107871009D01*
X67169111Y-107718409D01*
X67158482Y-107700000D01*
X68360000Y-107700000D01*
X68360000Y-106966869D01*
X68359999Y-106966865D01*
X68344642Y-106830563D01*
X68284169Y-106657739D01*
X68186756Y-106502708D01*
X68057291Y-106373243D01*
X67902260Y-106275830D01*
X67729436Y-106215357D01*
X67593134Y-106200000D01*
X66860000Y-106200000D01*
X66860000Y-107401517D01*
X66841591Y-107390889D01*
X66688991Y-107350000D01*
X66531009Y-107350000D01*
X66378409Y-107390889D01*
X66360000Y-107401517D01*
X66360000Y-106200000D01*
X65626865Y-106200000D01*
X65490563Y-106215357D01*
X65317739Y-106275830D01*
X65162708Y-106373243D01*
X65033243Y-106502708D01*
X64935830Y-106657739D01*
X64875357Y-106830563D01*
X64860000Y-106966865D01*
X56062072Y-106966865D01*
X55928918Y-106793338D01*
X55928911Y-106793330D01*
X55766670Y-106631089D01*
X55766661Y-106631081D01*
X55584617Y-106491392D01*
X55385890Y-106376657D01*
X55385876Y-106376650D01*
X55173887Y-106288842D01*
X55125325Y-106275830D01*
X54952238Y-106229452D01*
X54914215Y-106224446D01*
X54724741Y-106199500D01*
X54724734Y-106199500D01*
X54495266Y-106199500D01*
X54495258Y-106199500D01*
X54278715Y-106228009D01*
X54267762Y-106229452D01*
X54174076Y-106254554D01*
X54046112Y-106288842D01*
X53834123Y-106376650D01*
X53834109Y-106376657D01*
X53635382Y-106491392D01*
X53453338Y-106631081D01*
X53291081Y-106793338D01*
X53151392Y-106975382D01*
X53036657Y-107174109D01*
X53036650Y-107174123D01*
X52948842Y-107386112D01*
X52889453Y-107607759D01*
X52889451Y-107607770D01*
X52859500Y-107835258D01*
X52070000Y-107835258D01*
X52070000Y-106012155D01*
X69960000Y-106012155D01*
X69960000Y-107560000D01*
X72460000Y-107560000D01*
X72960000Y-107560000D01*
X75460000Y-107560000D01*
X109973497Y-107560000D01*
X112460000Y-107560000D01*
X112960000Y-107560000D01*
X115446502Y-107560000D01*
X115421503Y-107370115D01*
X115421500Y-107370102D01*
X115401420Y-107295160D01*
X127850000Y-107295160D01*
X127856246Y-107416975D01*
X127856246Y-107416977D01*
X127905999Y-107705534D01*
X127906001Y-107705543D01*
X127994578Y-107984629D01*
X127994583Y-107984642D01*
X128120340Y-108249073D01*
X128280936Y-108493917D01*
X128280936Y-108493918D01*
X128473377Y-108714622D01*
X128694082Y-108907063D01*
X128938926Y-109067659D01*
X129203357Y-109193416D01*
X129203370Y-109193421D01*
X129482456Y-109281998D01*
X129482465Y-109282000D01*
X129771023Y-109331753D01*
X129892839Y-109337999D01*
X129892878Y-109338000D01*
X133100000Y-109338000D01*
X133600000Y-109338000D01*
X136807122Y-109338000D01*
X136807160Y-109337999D01*
X136928975Y-109331753D01*
X136928977Y-109331753D01*
X137217534Y-109282000D01*
X137217543Y-109281998D01*
X137496629Y-109193421D01*
X137496642Y-109193416D01*
X137761073Y-109067659D01*
X138005917Y-108907063D01*
X138005918Y-108907063D01*
X138226622Y-108714622D01*
X138419063Y-108493918D01*
X138419063Y-108493917D01*
X138579659Y-108249073D01*
X138705416Y-107984642D01*
X138705421Y-107984629D01*
X138793998Y-107705543D01*
X138794000Y-107705534D01*
X138843753Y-107416977D01*
X138843753Y-107416975D01*
X138849999Y-107295160D01*
X138850000Y-107295121D01*
X138850000Y-101088000D01*
X133600000Y-101088000D01*
X133600000Y-109338000D01*
X133100000Y-109338000D01*
X133100000Y-101088000D01*
X127850000Y-101088000D01*
X127850000Y-107295160D01*
X115401420Y-107295160D01*
X115345164Y-107085209D01*
X115345161Y-107085199D01*
X115232295Y-106812718D01*
X115232290Y-106812707D01*
X115084825Y-106557292D01*
X115084814Y-106557276D01*
X114905270Y-106323290D01*
X114905264Y-106323283D01*
X114696716Y-106114735D01*
X114696709Y-106114729D01*
X114462723Y-105935185D01*
X114462707Y-105935174D01*
X114207292Y-105787709D01*
X114207281Y-105787704D01*
X113934800Y-105674838D01*
X113934790Y-105674835D01*
X113649897Y-105598499D01*
X113649884Y-105598496D01*
X113357483Y-105560001D01*
X113357466Y-105560000D01*
X112960000Y-105560000D01*
X112960000Y-107560000D01*
X112460000Y-107560000D01*
X112460000Y-105560000D01*
X112062534Y-105560000D01*
X112062516Y-105560001D01*
X111770115Y-105598496D01*
X111770102Y-105598499D01*
X111485209Y-105674835D01*
X111485199Y-105674838D01*
X111212718Y-105787704D01*
X111212707Y-105787709D01*
X110957292Y-105935174D01*
X110957276Y-105935185D01*
X110723290Y-106114729D01*
X110723283Y-106114735D01*
X110514735Y-106323283D01*
X110514729Y-106323290D01*
X110335185Y-106557276D01*
X110335174Y-106557292D01*
X110187709Y-106812707D01*
X110187704Y-106812718D01*
X110074838Y-107085199D01*
X110074835Y-107085209D01*
X109998499Y-107370102D01*
X109998496Y-107370115D01*
X109973497Y-107560000D01*
X75460000Y-107560000D01*
X75460000Y-106012172D01*
X75459999Y-106012155D01*
X75453598Y-105952627D01*
X75453596Y-105952620D01*
X75403354Y-105817913D01*
X75403350Y-105817906D01*
X75317190Y-105702812D01*
X75317187Y-105702809D01*
X75202093Y-105616649D01*
X75202086Y-105616645D01*
X75067379Y-105566403D01*
X75067372Y-105566401D01*
X75007844Y-105560000D01*
X72960000Y-105560000D01*
X72960000Y-107560000D01*
X72460000Y-107560000D01*
X72460000Y-105560000D01*
X70412155Y-105560000D01*
X70352627Y-105566401D01*
X70352620Y-105566403D01*
X70217913Y-105616645D01*
X70217906Y-105616649D01*
X70102812Y-105702809D01*
X70102809Y-105702812D01*
X70016649Y-105817906D01*
X70016645Y-105817913D01*
X69966403Y-105952620D01*
X69966401Y-105952627D01*
X69960000Y-106012155D01*
X52070000Y-106012155D01*
X52070000Y-102501258D01*
X52826500Y-102501258D01*
X52826500Y-102730741D01*
X52851446Y-102920215D01*
X52856452Y-102958238D01*
X52856453Y-102958240D01*
X52915842Y-103179887D01*
X53003650Y-103391876D01*
X53003657Y-103391890D01*
X53118392Y-103590617D01*
X53258081Y-103772661D01*
X53258089Y-103772670D01*
X53420330Y-103934911D01*
X53420338Y-103934918D01*
X53602382Y-104074607D01*
X53602385Y-104074608D01*
X53602388Y-104074611D01*
X53801112Y-104189344D01*
X53801117Y-104189346D01*
X53801123Y-104189349D01*
X53892480Y-104227190D01*
X54013113Y-104277158D01*
X54234762Y-104336548D01*
X54462266Y-104366500D01*
X54462273Y-104366500D01*
X54691727Y-104366500D01*
X54691734Y-104366500D01*
X54919238Y-104336548D01*
X55140887Y-104277158D01*
X55352888Y-104189344D01*
X55551612Y-104074611D01*
X55733661Y-103934919D01*
X55733665Y-103934914D01*
X55733670Y-103934911D01*
X55895911Y-103772670D01*
X55895914Y-103772665D01*
X55895919Y-103772661D01*
X56035611Y-103590612D01*
X56150344Y-103391888D01*
X56238158Y-103179887D01*
X56297548Y-102958238D01*
X56327500Y-102730734D01*
X56327500Y-102501266D01*
X56297548Y-102273762D01*
X56238158Y-102052113D01*
X56150344Y-101840112D01*
X56035611Y-101641388D01*
X56035608Y-101641385D01*
X56035607Y-101641382D01*
X55895918Y-101459338D01*
X55895911Y-101459330D01*
X55733670Y-101297089D01*
X55733661Y-101297081D01*
X55551617Y-101157392D01*
X55352890Y-101042657D01*
X55352876Y-101042650D01*
X55140887Y-100954842D01*
X54919238Y-100895452D01*
X54881215Y-100890446D01*
X54691741Y-100865500D01*
X54691734Y-100865500D01*
X54462266Y-100865500D01*
X54462258Y-100865500D01*
X54245715Y-100894009D01*
X54234762Y-100895452D01*
X54141076Y-100920554D01*
X54013112Y-100954842D01*
X53801123Y-101042650D01*
X53801109Y-101042657D01*
X53602382Y-101157392D01*
X53420338Y-101297081D01*
X53258081Y-101459338D01*
X53118392Y-101641382D01*
X53003657Y-101840109D01*
X53003650Y-101840123D01*
X52915842Y-102052112D01*
X52856453Y-102273759D01*
X52856451Y-102273770D01*
X52826500Y-102501258D01*
X52070000Y-102501258D01*
X52070000Y-95106999D01*
X53254364Y-95106999D01*
X53254364Y-95107000D01*
X54151988Y-95107000D01*
X54119075Y-95164007D01*
X54085000Y-95291174D01*
X54085000Y-95422826D01*
X54119075Y-95549993D01*
X54151988Y-95607000D01*
X53254364Y-95607000D01*
X53311567Y-95820486D01*
X53311570Y-95820492D01*
X53411399Y-96034578D01*
X53546894Y-96228082D01*
X53713917Y-96395105D01*
X53893605Y-96520925D01*
X53937230Y-96575502D01*
X53944422Y-96645001D01*
X53912900Y-96707355D01*
X53852670Y-96742769D01*
X53822482Y-96746500D01*
X53690144Y-96746500D01*
X53690117Y-96746502D01*
X53665012Y-96749413D01*
X53665008Y-96749415D01*
X53562235Y-96794793D01*
X53482794Y-96874234D01*
X53437415Y-96977006D01*
X53437415Y-96977008D01*
X53434500Y-97002131D01*
X53434500Y-98791856D01*
X53434502Y-98791882D01*
X53437413Y-98816987D01*
X53437415Y-98816991D01*
X53482793Y-98919764D01*
X53482794Y-98919765D01*
X53562235Y-98999206D01*
X53665009Y-99044585D01*
X53690135Y-99047500D01*
X55479864Y-99047499D01*
X55479879Y-99047497D01*
X55479882Y-99047497D01*
X55504987Y-99044586D01*
X55504988Y-99044585D01*
X55504991Y-99044585D01*
X55607765Y-98999206D01*
X55623152Y-98983819D01*
X55684475Y-98950334D01*
X55710833Y-98947500D01*
X57278507Y-98947500D01*
X57345546Y-98967185D01*
X57366188Y-98983819D01*
X61814341Y-103431974D01*
X61814345Y-103431977D01*
X61986395Y-103546938D01*
X61986408Y-103546945D01*
X62091831Y-103590612D01*
X62177580Y-103626130D01*
X62177584Y-103626130D01*
X62177585Y-103626131D01*
X62380532Y-103666501D01*
X62380535Y-103666501D01*
X62593579Y-103666501D01*
X62593599Y-103666500D01*
X64940881Y-103666500D01*
X65007920Y-103686185D01*
X65053675Y-103738989D01*
X65059957Y-103755905D01*
X65072443Y-103798882D01*
X65072444Y-103798885D01*
X65151282Y-103932194D01*
X65151289Y-103932203D01*
X65260796Y-104041710D01*
X65260800Y-104041713D01*
X65260802Y-104041715D01*
X65394113Y-104120555D01*
X65542844Y-104163765D01*
X65577595Y-104166500D01*
X67576404Y-104166499D01*
X67611156Y-104163765D01*
X67759887Y-104120555D01*
X67893198Y-104041715D01*
X68002715Y-103932198D01*
X68081555Y-103798887D01*
X68124765Y-103650156D01*
X68127500Y-103615405D01*
X68127499Y-101616596D01*
X68124765Y-101581844D01*
X68081555Y-101433113D01*
X68002715Y-101299802D01*
X68002713Y-101299800D01*
X68002710Y-101299796D01*
X67893203Y-101190289D01*
X67893194Y-101190282D01*
X67759885Y-101111444D01*
X67759882Y-101111443D01*
X67716905Y-101098957D01*
X67658019Y-101061351D01*
X67628813Y-100997879D01*
X67627500Y-100979881D01*
X67627500Y-96929492D01*
X67647185Y-96862453D01*
X67663814Y-96841816D01*
X67985631Y-96519999D01*
X118782785Y-96519999D01*
X118782785Y-96520000D01*
X118801602Y-96723082D01*
X118857417Y-96919247D01*
X118857422Y-96919260D01*
X118948327Y-97101821D01*
X119071237Y-97264581D01*
X119221958Y-97401980D01*
X119221960Y-97401982D01*
X119263981Y-97428000D01*
X119395363Y-97509348D01*
X119585544Y-97583024D01*
X119786024Y-97620500D01*
X119786026Y-97620500D01*
X119989974Y-97620500D01*
X119989976Y-97620500D01*
X120190456Y-97583024D01*
X120317043Y-97533982D01*
X120325281Y-97531121D01*
X120341530Y-97526109D01*
X120341530Y-97526108D01*
X120341536Y-97526107D01*
X120345177Y-97524138D01*
X120359341Y-97517597D01*
X120380637Y-97509348D01*
X120433268Y-97476758D01*
X120439500Y-97473148D01*
X120691317Y-97337025D01*
X120707886Y-97327033D01*
X120709718Y-97325807D01*
X120725327Y-97314258D01*
X120965147Y-97118618D01*
X120966383Y-97117601D01*
X120966494Y-97117509D01*
X120966660Y-97117371D01*
X120967326Y-97116817D01*
X121104435Y-97002131D01*
X121140235Y-96972185D01*
X121166529Y-96955321D01*
X121335301Y-96875054D01*
X121374048Y-96863888D01*
X121701701Y-96825306D01*
X121701704Y-96825305D01*
X121701705Y-96825305D01*
X121706786Y-96824272D01*
X121706863Y-96824655D01*
X121735895Y-96820500D01*
X123095850Y-96820500D01*
X123120532Y-96823751D01*
X123120595Y-96823373D01*
X123333409Y-96858556D01*
X123352357Y-96863246D01*
X123547614Y-96928283D01*
X123563937Y-96935049D01*
X123697872Y-97002131D01*
X123766734Y-97036621D01*
X123780115Y-97044403D01*
X123990576Y-97185121D01*
X124001175Y-97193061D01*
X124120740Y-97293063D01*
X124128868Y-97300500D01*
X124164341Y-97335974D01*
X124164349Y-97335980D01*
X124197103Y-97357866D01*
X124207763Y-97365848D01*
X124224377Y-97379743D01*
X124251329Y-97398826D01*
X124254552Y-97400739D01*
X124269634Y-97408653D01*
X124280025Y-97414106D01*
X124291295Y-97420803D01*
X124336400Y-97450940D01*
X124336401Y-97450940D01*
X124336402Y-97450941D01*
X124527580Y-97530130D01*
X124730530Y-97570499D01*
X124730534Y-97570500D01*
X124730535Y-97570500D01*
X126237466Y-97570500D01*
X126237467Y-97570499D01*
X126440420Y-97530130D01*
X126631598Y-97450941D01*
X126803655Y-97335977D01*
X126949977Y-97189655D01*
X127064941Y-97017598D01*
X127144130Y-96826420D01*
X127184500Y-96623465D01*
X127184500Y-96416535D01*
X127144130Y-96213580D01*
X127064941Y-96022402D01*
X126949977Y-95850345D01*
X126949975Y-95850342D01*
X126803657Y-95704024D01*
X126713577Y-95643835D01*
X126631598Y-95589059D01*
X126490589Y-95530651D01*
X126440420Y-95509870D01*
X126440412Y-95509868D01*
X126237469Y-95469500D01*
X126237465Y-95469500D01*
X124730535Y-95469500D01*
X124730530Y-95469500D01*
X124527587Y-95509868D01*
X124527579Y-95509870D01*
X124336401Y-95589059D01*
X124259005Y-95640772D01*
X124249586Y-95646477D01*
X124224387Y-95660249D01*
X124224373Y-95660259D01*
X124207764Y-95674150D01*
X124197105Y-95682132D01*
X124164351Y-95704018D01*
X124164342Y-95704025D01*
X124128873Y-95739493D01*
X124120748Y-95746927D01*
X124001193Y-95846920D01*
X123990561Y-95854884D01*
X123780114Y-95995592D01*
X123766722Y-96003382D01*
X123563947Y-96104943D01*
X123547603Y-96111717D01*
X123352374Y-96176745D01*
X123333415Y-96181439D01*
X123126603Y-96215633D01*
X123125520Y-96215900D01*
X123123523Y-96216142D01*
X123121850Y-96216419D01*
X123121838Y-96216346D01*
X123095859Y-96219500D01*
X121736128Y-96219500D01*
X121707863Y-96215030D01*
X121707652Y-96215995D01*
X121701696Y-96214692D01*
X121374051Y-96176109D01*
X121335297Y-96164941D01*
X121166534Y-96084676D01*
X121140236Y-96067810D01*
X121073785Y-96012228D01*
X121053896Y-95995592D01*
X120967134Y-95923021D01*
X120965188Y-95921413D01*
X120841477Y-95820492D01*
X120725326Y-95725738D01*
X120725318Y-95725732D01*
X120709724Y-95714193D01*
X120707886Y-95712963D01*
X120693063Y-95704025D01*
X120691319Y-95702973D01*
X120691301Y-95702963D01*
X120691292Y-95702958D01*
X120439526Y-95566862D01*
X120433223Y-95563212D01*
X120411604Y-95549825D01*
X120380638Y-95530652D01*
X120380635Y-95530650D01*
X120359352Y-95522405D01*
X120345198Y-95515871D01*
X120341518Y-95513882D01*
X120332226Y-95509160D01*
X120331157Y-95508650D01*
X120331148Y-95508647D01*
X120322415Y-95506668D01*
X120305033Y-95501363D01*
X120190459Y-95456977D01*
X120190458Y-95456976D01*
X120190456Y-95456976D01*
X119989976Y-95419500D01*
X119786024Y-95419500D01*
X119585544Y-95456976D01*
X119585541Y-95456976D01*
X119585541Y-95456977D01*
X119395364Y-95530651D01*
X119395357Y-95530655D01*
X119221960Y-95638017D01*
X119221958Y-95638019D01*
X119071237Y-95775418D01*
X118948327Y-95938178D01*
X118857422Y-96120739D01*
X118857417Y-96120752D01*
X118801602Y-96316917D01*
X118782785Y-96519999D01*
X67985631Y-96519999D01*
X71257577Y-93248052D01*
X71280504Y-93230610D01*
X71280455Y-93230540D01*
X71282118Y-93229382D01*
X71284146Y-93227839D01*
X71285163Y-93227264D01*
X71530078Y-93020869D01*
X71533359Y-93018200D01*
X71780140Y-92824538D01*
X71783723Y-92821832D01*
X72029412Y-92643266D01*
X72033333Y-92640531D01*
X72277911Y-92476942D01*
X72282142Y-92474237D01*
X72438563Y-92378681D01*
X72503205Y-92360500D01*
X73344398Y-92360500D01*
X73404905Y-92352534D01*
X73610891Y-92325416D01*
X73870526Y-92255847D01*
X74057457Y-92178417D01*
X74118850Y-92152988D01*
X74118853Y-92152986D01*
X74118859Y-92152984D01*
X74351641Y-92018587D01*
X74564890Y-91854956D01*
X74626318Y-91793528D01*
X93071500Y-91793528D01*
X93071500Y-92102471D01*
X93106086Y-92409437D01*
X93106089Y-92409455D01*
X93174831Y-92710635D01*
X93174835Y-92710647D01*
X93276862Y-93002222D01*
X93276868Y-93002236D01*
X93410903Y-93280562D01*
X93410905Y-93280565D01*
X93575265Y-93542143D01*
X93767880Y-93783674D01*
X93986326Y-94002120D01*
X94227857Y-94194735D01*
X94489435Y-94359095D01*
X94767771Y-94493135D01*
X94787667Y-94500097D01*
X95059352Y-94595164D01*
X95059364Y-94595168D01*
X95360548Y-94663911D01*
X95360554Y-94663911D01*
X95360562Y-94663913D01*
X95565206Y-94686970D01*
X95667529Y-94698499D01*
X95667532Y-94698500D01*
X95667535Y-94698500D01*
X103976468Y-94698500D01*
X103976469Y-94698499D01*
X104145788Y-94679422D01*
X104283437Y-94663913D01*
X104283442Y-94663912D01*
X104283452Y-94663911D01*
X104584636Y-94595168D01*
X104876229Y-94493135D01*
X105154565Y-94359095D01*
X105416143Y-94194735D01*
X105657674Y-94002120D01*
X105679795Y-93979999D01*
X118782785Y-93979999D01*
X118782785Y-93980000D01*
X118801602Y-94183082D01*
X118857417Y-94379247D01*
X118857422Y-94379260D01*
X118948327Y-94561821D01*
X119071237Y-94724581D01*
X119221958Y-94861980D01*
X119221960Y-94861982D01*
X119272875Y-94893507D01*
X119395363Y-94969348D01*
X119585544Y-95043024D01*
X119786024Y-95080500D01*
X119786026Y-95080500D01*
X119989974Y-95080500D01*
X119989976Y-95080500D01*
X120190456Y-95043024D01*
X120317043Y-94993982D01*
X120325281Y-94991121D01*
X120341530Y-94986109D01*
X120341530Y-94986108D01*
X120341536Y-94986107D01*
X120345177Y-94984138D01*
X120359341Y-94977597D01*
X120380637Y-94969348D01*
X120433268Y-94936758D01*
X120439500Y-94933148D01*
X120691317Y-94797025D01*
X120707886Y-94787033D01*
X120709718Y-94785807D01*
X120725327Y-94774258D01*
X120965147Y-94578618D01*
X120966383Y-94577601D01*
X120966494Y-94577509D01*
X120966660Y-94577371D01*
X120967326Y-94576817D01*
X121136465Y-94435339D01*
X121140235Y-94432185D01*
X121166529Y-94415321D01*
X121335301Y-94335054D01*
X121374048Y-94323888D01*
X121701701Y-94285306D01*
X121701704Y-94285305D01*
X121701705Y-94285305D01*
X121706786Y-94284272D01*
X121706863Y-94284655D01*
X121735895Y-94280500D01*
X123095850Y-94280500D01*
X123120532Y-94283751D01*
X123120595Y-94283373D01*
X123333409Y-94318556D01*
X123352357Y-94323246D01*
X123547614Y-94388283D01*
X123563937Y-94395049D01*
X123759766Y-94493131D01*
X123766734Y-94496621D01*
X123780115Y-94504403D01*
X123990576Y-94645121D01*
X124001175Y-94653061D01*
X124120740Y-94753063D01*
X124128868Y-94760500D01*
X124164341Y-94795974D01*
X124164349Y-94795980D01*
X124197103Y-94817866D01*
X124207763Y-94825848D01*
X124224377Y-94839743D01*
X124251329Y-94858826D01*
X124254552Y-94860739D01*
X124269634Y-94868653D01*
X124280025Y-94874106D01*
X124291295Y-94880803D01*
X124336400Y-94910940D01*
X124336401Y-94910940D01*
X124336402Y-94910941D01*
X124527580Y-94990130D01*
X124730530Y-95030499D01*
X124730534Y-95030500D01*
X124730535Y-95030500D01*
X126237466Y-95030500D01*
X126237467Y-95030499D01*
X126440420Y-94990130D01*
X126631598Y-94910941D01*
X126803655Y-94795977D01*
X126949977Y-94649655D01*
X127064941Y-94477598D01*
X127105020Y-94380839D01*
X127850000Y-94380839D01*
X127850000Y-100588000D01*
X133100000Y-100588000D01*
X133600000Y-100588000D01*
X138850000Y-100588000D01*
X138850000Y-94380878D01*
X138849999Y-94380839D01*
X138843753Y-94259024D01*
X138843753Y-94259022D01*
X138794000Y-93970465D01*
X138793998Y-93970456D01*
X138705421Y-93691370D01*
X138705416Y-93691357D01*
X138579659Y-93426926D01*
X138419063Y-93182082D01*
X138419063Y-93182081D01*
X138226622Y-92961377D01*
X138005917Y-92768936D01*
X137761073Y-92608340D01*
X137496642Y-92482583D01*
X137496629Y-92482578D01*
X137217543Y-92394001D01*
X137217534Y-92393999D01*
X136928976Y-92344246D01*
X136807160Y-92338000D01*
X133600000Y-92338000D01*
X133600000Y-100588000D01*
X133100000Y-100588000D01*
X133100000Y-92338000D01*
X129892839Y-92338000D01*
X129771024Y-92344246D01*
X129771022Y-92344246D01*
X129482465Y-92393999D01*
X129482456Y-92394001D01*
X129203370Y-92482578D01*
X129203357Y-92482583D01*
X128938926Y-92608340D01*
X128694082Y-92768936D01*
X128694081Y-92768936D01*
X128473377Y-92961377D01*
X128280936Y-93182081D01*
X128280936Y-93182082D01*
X128120340Y-93426926D01*
X127994583Y-93691357D01*
X127994578Y-93691370D01*
X127906001Y-93970456D01*
X127905999Y-93970465D01*
X127856246Y-94259022D01*
X127856246Y-94259024D01*
X127850000Y-94380839D01*
X127105020Y-94380839D01*
X127144130Y-94286420D01*
X127184500Y-94083465D01*
X127184500Y-93876535D01*
X127144130Y-93673580D01*
X127064941Y-93482402D01*
X126949977Y-93310345D01*
X126949975Y-93310342D01*
X126803657Y-93164024D01*
X126713577Y-93103835D01*
X126631598Y-93049059D01*
X126490589Y-92990651D01*
X126440420Y-92969870D01*
X126440412Y-92969868D01*
X126237469Y-92929500D01*
X126237465Y-92929500D01*
X124730535Y-92929500D01*
X124730530Y-92929500D01*
X124527587Y-92969868D01*
X124527579Y-92969870D01*
X124336401Y-93049059D01*
X124259005Y-93100772D01*
X124249586Y-93106477D01*
X124224387Y-93120249D01*
X124224373Y-93120259D01*
X124207764Y-93134150D01*
X124197105Y-93142132D01*
X124164351Y-93164018D01*
X124164342Y-93164025D01*
X124128873Y-93199493D01*
X124120748Y-93206927D01*
X124001193Y-93306920D01*
X123990561Y-93314884D01*
X123780114Y-93455592D01*
X123766722Y-93463382D01*
X123563947Y-93564943D01*
X123547603Y-93571717D01*
X123352374Y-93636745D01*
X123333415Y-93641439D01*
X123126603Y-93675633D01*
X123125520Y-93675900D01*
X123123523Y-93676142D01*
X123121850Y-93676419D01*
X123121838Y-93676346D01*
X123095859Y-93679500D01*
X121736128Y-93679500D01*
X121707863Y-93675030D01*
X121707652Y-93675995D01*
X121701696Y-93674692D01*
X121374051Y-93636109D01*
X121335297Y-93624941D01*
X121166534Y-93544676D01*
X121140236Y-93527810D01*
X121073785Y-93472228D01*
X120985256Y-93398179D01*
X120967134Y-93383021D01*
X120965188Y-93381413D01*
X120801716Y-93248056D01*
X120725326Y-93185738D01*
X120725318Y-93185732D01*
X120709724Y-93174193D01*
X120707886Y-93172963D01*
X120693063Y-93164025D01*
X120691319Y-93162973D01*
X120691301Y-93162963D01*
X120691292Y-93162958D01*
X120439526Y-93026862D01*
X120433223Y-93023212D01*
X120399335Y-93002229D01*
X120380638Y-92990652D01*
X120380635Y-92990650D01*
X120359352Y-92982405D01*
X120345198Y-92975871D01*
X120341518Y-92973882D01*
X120332226Y-92969160D01*
X120331157Y-92968650D01*
X120331148Y-92968647D01*
X120322415Y-92966668D01*
X120305033Y-92961363D01*
X120190459Y-92916977D01*
X120190458Y-92916976D01*
X120190456Y-92916976D01*
X119989976Y-92879500D01*
X119786024Y-92879500D01*
X119585544Y-92916976D01*
X119585541Y-92916976D01*
X119585541Y-92916977D01*
X119395364Y-92990651D01*
X119395357Y-92990655D01*
X119221960Y-93098017D01*
X119221958Y-93098019D01*
X119071237Y-93235418D01*
X118948327Y-93398178D01*
X118857422Y-93580739D01*
X118857417Y-93580752D01*
X118801602Y-93776917D01*
X118782785Y-93979999D01*
X105679795Y-93979999D01*
X105876120Y-93783674D01*
X106068735Y-93542143D01*
X106233095Y-93280565D01*
X106367135Y-93002229D01*
X106469168Y-92710636D01*
X106537911Y-92409452D01*
X106546401Y-92334106D01*
X106559201Y-92220500D01*
X106572500Y-92102465D01*
X106572500Y-91793535D01*
X106551038Y-91603052D01*
X106537913Y-91486562D01*
X106537910Y-91486544D01*
X106503670Y-91336530D01*
X106469168Y-91185364D01*
X106453119Y-91139500D01*
X106376280Y-90919907D01*
X106367135Y-90893771D01*
X106233095Y-90615435D01*
X106068735Y-90353857D01*
X105926581Y-90175602D01*
X110159500Y-90175602D01*
X110159500Y-90444397D01*
X110194582Y-90710880D01*
X110194583Y-90710885D01*
X110194584Y-90710891D01*
X110229368Y-90840708D01*
X110264152Y-90970524D01*
X110367011Y-91218850D01*
X110367019Y-91218866D01*
X110434956Y-91336534D01*
X110501413Y-91451641D01*
X110501415Y-91451644D01*
X110501416Y-91451645D01*
X110665042Y-91664888D01*
X110665048Y-91664895D01*
X110855104Y-91854951D01*
X110855111Y-91854957D01*
X110931640Y-91913679D01*
X111068359Y-92018587D01*
X111213640Y-92102465D01*
X111301133Y-92152980D01*
X111301149Y-92152988D01*
X111446184Y-92213063D01*
X111549474Y-92255847D01*
X111809109Y-92325416D01*
X111997319Y-92350193D01*
X112075602Y-92360500D01*
X112075603Y-92360500D01*
X113344398Y-92360500D01*
X113404905Y-92352534D01*
X113610891Y-92325416D01*
X113870526Y-92255847D01*
X114057457Y-92178417D01*
X114118850Y-92152988D01*
X114118853Y-92152986D01*
X114118859Y-92152984D01*
X114351641Y-92018587D01*
X114564890Y-91854956D01*
X114754956Y-91664890D01*
X114918587Y-91451641D01*
X115052984Y-91218859D01*
X115155847Y-90970526D01*
X115225416Y-90710891D01*
X115250514Y-90520247D01*
X118787500Y-90520247D01*
X118787500Y-92359752D01*
X118799131Y-92418229D01*
X118799132Y-92418230D01*
X118843447Y-92484552D01*
X118909769Y-92528867D01*
X118909770Y-92528868D01*
X118968247Y-92540499D01*
X118968250Y-92540500D01*
X118968252Y-92540500D01*
X120807750Y-92540500D01*
X120807751Y-92540499D01*
X120836989Y-92534683D01*
X120866227Y-92528868D01*
X120866227Y-92528867D01*
X120866231Y-92528867D01*
X120890874Y-92512400D01*
X120897884Y-92508066D01*
X120898008Y-92507977D01*
X120898015Y-92507974D01*
X120898020Y-92507969D01*
X120902987Y-92504447D01*
X120903066Y-92504559D01*
X120906249Y-92502127D01*
X120932549Y-92484554D01*
X120932548Y-92484554D01*
X120932552Y-92484552D01*
X120933773Y-92482723D01*
X120955573Y-92457986D01*
X120958556Y-92455397D01*
X121122039Y-92244457D01*
X121128653Y-92236620D01*
X121288081Y-92062910D01*
X121297046Y-92054088D01*
X121449261Y-91918788D01*
X121461343Y-91909319D01*
X121469819Y-91903486D01*
X121604223Y-91810989D01*
X121620179Y-91801680D01*
X121636902Y-91793528D01*
X121667614Y-91778556D01*
X121719958Y-91753039D01*
X121774294Y-91740500D01*
X123095850Y-91740500D01*
X123120532Y-91743751D01*
X123120595Y-91743373D01*
X123333409Y-91778556D01*
X123352357Y-91783246D01*
X123547614Y-91848283D01*
X123563937Y-91855049D01*
X123691197Y-91918788D01*
X123766734Y-91956621D01*
X123780115Y-91964403D01*
X123990576Y-92105121D01*
X124001175Y-92113061D01*
X124120740Y-92213063D01*
X124128868Y-92220500D01*
X124164341Y-92255974D01*
X124164349Y-92255980D01*
X124197103Y-92277866D01*
X124207763Y-92285848D01*
X124224377Y-92299743D01*
X124251329Y-92318826D01*
X124254552Y-92320739D01*
X124269634Y-92328653D01*
X124280025Y-92334106D01*
X124291295Y-92340803D01*
X124336400Y-92370940D01*
X124336401Y-92370940D01*
X124336402Y-92370941D01*
X124527580Y-92450130D01*
X124730530Y-92490499D01*
X124730534Y-92490500D01*
X124730535Y-92490500D01*
X126237466Y-92490500D01*
X126237467Y-92490499D01*
X126440420Y-92450130D01*
X126631598Y-92370941D01*
X126803655Y-92255977D01*
X126949977Y-92109655D01*
X127064941Y-91937598D01*
X127144130Y-91746420D01*
X127184500Y-91543465D01*
X127184500Y-91336535D01*
X127144130Y-91133580D01*
X127064941Y-90942402D01*
X126949977Y-90770345D01*
X126949975Y-90770342D01*
X126803657Y-90624024D01*
X126713577Y-90563835D01*
X126631598Y-90509059D01*
X126440420Y-90429870D01*
X126440412Y-90429868D01*
X126237469Y-90389500D01*
X126237465Y-90389500D01*
X124730535Y-90389500D01*
X124730530Y-90389500D01*
X124527587Y-90429868D01*
X124527579Y-90429870D01*
X124336401Y-90509059D01*
X124259005Y-90560772D01*
X124249586Y-90566477D01*
X124224387Y-90580249D01*
X124224373Y-90580259D01*
X124207764Y-90594150D01*
X124197105Y-90602132D01*
X124164351Y-90624018D01*
X124164342Y-90624025D01*
X124128873Y-90659493D01*
X124120748Y-90666927D01*
X124001193Y-90766920D01*
X123990561Y-90774884D01*
X123780114Y-90915592D01*
X123766722Y-90923382D01*
X123563947Y-91024943D01*
X123547603Y-91031717D01*
X123352374Y-91096745D01*
X123333415Y-91101439D01*
X123126603Y-91135633D01*
X123125520Y-91135900D01*
X123123523Y-91136142D01*
X123121850Y-91136419D01*
X123121838Y-91136346D01*
X123095859Y-91139500D01*
X121774296Y-91139500D01*
X121719959Y-91126960D01*
X121620175Y-91078314D01*
X121604217Y-91069003D01*
X121461340Y-90970675D01*
X121449257Y-90961206D01*
X121297044Y-90825907D01*
X121288069Y-90817073D01*
X121242039Y-90766920D01*
X121128676Y-90643401D01*
X121122022Y-90635517D01*
X121024013Y-90509059D01*
X120958556Y-90424601D01*
X120950383Y-90414710D01*
X120949413Y-90413608D01*
X120949364Y-90413552D01*
X120943771Y-90407244D01*
X120943877Y-90407149D01*
X120941203Y-90404063D01*
X120941185Y-90404082D01*
X120932549Y-90395445D01*
X120866230Y-90351132D01*
X120866229Y-90351131D01*
X120807752Y-90339500D01*
X120807748Y-90339500D01*
X118968252Y-90339500D01*
X118968247Y-90339500D01*
X118909770Y-90351131D01*
X118909769Y-90351132D01*
X118843447Y-90395447D01*
X118799132Y-90461769D01*
X118799131Y-90461770D01*
X118787500Y-90520247D01*
X115250514Y-90520247D01*
X115260500Y-90444397D01*
X115260500Y-90175603D01*
X115260227Y-90173533D01*
X115238255Y-90006635D01*
X115225416Y-89909109D01*
X115165129Y-89684114D01*
X115166792Y-89614267D01*
X115175688Y-89593304D01*
X115197952Y-89551904D01*
X115199701Y-89548766D01*
X115310006Y-89357771D01*
X115312120Y-89354248D01*
X115421170Y-89179387D01*
X115423727Y-89175455D01*
X115531168Y-89016926D01*
X115534187Y-89012671D01*
X115639883Y-88870253D01*
X115639890Y-88870238D01*
X115639898Y-88870227D01*
X115639957Y-88870151D01*
X115642835Y-88866275D01*
X115642964Y-88866371D01*
X115657375Y-88848254D01*
X119598812Y-84906819D01*
X119660135Y-84873334D01*
X119686493Y-84870500D01*
X121061629Y-84870500D01*
X121085180Y-84872757D01*
X121099705Y-84875567D01*
X121136087Y-84875795D01*
X121521048Y-84878214D01*
X121525826Y-84878336D01*
X121844655Y-84892652D01*
X121855612Y-84893633D01*
X121984637Y-84910993D01*
X121984639Y-84910993D01*
X122100685Y-84926604D01*
X122116123Y-84929690D01*
X122341407Y-84989823D01*
X122355050Y-84994327D01*
X122580386Y-85083519D01*
X122593745Y-85089752D01*
X122625497Y-85106936D01*
X122625500Y-85106937D01*
X122845015Y-85182297D01*
X122845017Y-85182297D01*
X122845019Y-85182298D01*
X123073951Y-85220500D01*
X123073952Y-85220500D01*
X123306048Y-85220500D01*
X123306049Y-85220500D01*
X123534981Y-85182298D01*
X123754503Y-85106936D01*
X123958626Y-84996470D01*
X124141784Y-84853913D01*
X124298979Y-84683153D01*
X124334806Y-84628314D01*
X124387950Y-84582959D01*
X124457181Y-84573535D01*
X124520517Y-84603036D01*
X124553904Y-84650484D01*
X124555657Y-84654911D01*
X124560173Y-84668586D01*
X124620305Y-84893873D01*
X124623392Y-84909317D01*
X124656362Y-85154374D01*
X124657344Y-85165346D01*
X124671659Y-85484156D01*
X124671782Y-85488938D01*
X124674190Y-85871796D01*
X124674433Y-85910368D01*
X124674532Y-85916407D01*
X124674533Y-85916410D01*
X124676747Y-85926743D01*
X124679500Y-85952724D01*
X124679500Y-87733469D01*
X124719868Y-87936412D01*
X124719870Y-87936420D01*
X124796571Y-88121593D01*
X124799059Y-88127598D01*
X124856541Y-88213626D01*
X124914024Y-88299657D01*
X125064664Y-88450297D01*
X125064686Y-88450317D01*
X126180897Y-89566528D01*
X126180926Y-89566559D01*
X126330342Y-89715975D01*
X126330345Y-89715977D01*
X126502402Y-89830941D01*
X126693580Y-89910130D01*
X126815082Y-89934298D01*
X126896530Y-89950499D01*
X126896534Y-89950500D01*
X126896535Y-89950500D01*
X127103465Y-89950500D01*
X127287011Y-89950500D01*
X127354050Y-89970185D01*
X127399805Y-90022989D01*
X127400392Y-90024295D01*
X127421794Y-90072765D01*
X127501235Y-90152206D01*
X127604009Y-90197585D01*
X127629135Y-90200500D01*
X129418864Y-90200499D01*
X129418879Y-90200497D01*
X129418882Y-90200497D01*
X129443987Y-90197586D01*
X129443988Y-90197585D01*
X129443991Y-90197585D01*
X129546765Y-90152206D01*
X129626206Y-90072765D01*
X129671585Y-89969991D01*
X129674500Y-89944865D01*
X129674499Y-89813076D01*
X129694183Y-89746040D01*
X129746987Y-89700285D01*
X129816145Y-89690341D01*
X129879701Y-89719365D01*
X129906500Y-89753605D01*
X129906832Y-89753402D01*
X129908603Y-89756292D01*
X129908977Y-89756770D01*
X129909377Y-89757555D01*
X130034272Y-89929459D01*
X130034276Y-89929464D01*
X130184535Y-90079723D01*
X130184540Y-90079727D01*
X130356442Y-90204620D01*
X130545782Y-90301095D01*
X130747871Y-90366757D01*
X130814000Y-90377231D01*
X130814000Y-90377230D01*
X131314000Y-90377230D01*
X131380126Y-90366757D01*
X131380129Y-90366757D01*
X131582217Y-90301095D01*
X131771557Y-90204620D01*
X131943459Y-90079727D01*
X131943464Y-90079723D01*
X132093723Y-89929464D01*
X132093727Y-89929459D01*
X132218620Y-89757558D01*
X132223514Y-89747954D01*
X132271488Y-89697157D01*
X132339308Y-89680361D01*
X132405444Y-89702897D01*
X132444486Y-89747954D01*
X132449379Y-89757558D01*
X132574272Y-89929459D01*
X132574276Y-89929464D01*
X132724535Y-90079723D01*
X132724540Y-90079727D01*
X132896442Y-90204620D01*
X133085782Y-90301095D01*
X133287871Y-90366757D01*
X133354000Y-90377231D01*
X133354000Y-88650000D01*
X131314000Y-88650000D01*
X131314000Y-90377230D01*
X130814000Y-90377230D01*
X130814000Y-86422768D01*
X131314000Y-86422768D01*
X131314000Y-88150000D01*
X133354000Y-88150000D01*
X133354000Y-86422768D01*
X133353999Y-86422768D01*
X133287875Y-86433241D01*
X133085784Y-86498903D01*
X132896442Y-86595379D01*
X132724540Y-86720272D01*
X132724535Y-86720276D01*
X132574276Y-86870535D01*
X132574272Y-86870540D01*
X132449377Y-87042444D01*
X132444484Y-87052048D01*
X132396509Y-87102844D01*
X132328688Y-87119638D01*
X132262553Y-87097100D01*
X132223516Y-87052048D01*
X132218622Y-87042444D01*
X132093727Y-86870540D01*
X132093723Y-86870535D01*
X131943464Y-86720276D01*
X131943459Y-86720272D01*
X131771557Y-86595379D01*
X131582215Y-86498903D01*
X131380124Y-86433241D01*
X131314000Y-86422768D01*
X130814000Y-86422768D01*
X130813999Y-86422768D01*
X130747875Y-86433241D01*
X130545784Y-86498903D01*
X130356442Y-86595379D01*
X130184540Y-86720272D01*
X130184535Y-86720276D01*
X130034276Y-86870535D01*
X130034272Y-86870540D01*
X129909376Y-87042445D01*
X129908981Y-87043222D01*
X129908752Y-87043463D01*
X129906832Y-87046598D01*
X129906173Y-87046194D01*
X129861004Y-87094016D01*
X129793183Y-87110808D01*
X129727049Y-87088267D01*
X129683600Y-87033550D01*
X129674499Y-86986922D01*
X129674499Y-86855143D01*
X129674499Y-86855136D01*
X129674497Y-86855117D01*
X129671586Y-86830012D01*
X129671585Y-86830010D01*
X129671585Y-86830009D01*
X129626206Y-86727235D01*
X129546765Y-86647794D01*
X129523302Y-86637434D01*
X129443992Y-86602415D01*
X129418865Y-86599500D01*
X127629143Y-86599500D01*
X127629117Y-86599502D01*
X127604012Y-86602413D01*
X127604008Y-86602415D01*
X127501235Y-86647793D01*
X127421794Y-86727234D01*
X127376415Y-86830006D01*
X127376415Y-86830008D01*
X127373500Y-86855131D01*
X127373500Y-87488507D01*
X127353815Y-87555546D01*
X127301011Y-87601301D01*
X127231853Y-87611245D01*
X127168297Y-87582220D01*
X127161819Y-87576188D01*
X126816819Y-87231188D01*
X126783334Y-87169865D01*
X126780500Y-87143507D01*
X126780500Y-85948370D01*
X126782757Y-85924818D01*
X126783074Y-85923181D01*
X126785567Y-85910294D01*
X126788214Y-85488938D01*
X126788337Y-85484170D01*
X126788464Y-85481338D01*
X126802654Y-85165330D01*
X126803635Y-85154374D01*
X126836606Y-84909301D01*
X126839690Y-84893873D01*
X126899825Y-84668579D01*
X126904327Y-84654944D01*
X127007607Y-84394021D01*
X127009336Y-84389879D01*
X127059156Y-84276303D01*
X127085763Y-84171238D01*
X127116134Y-84051305D01*
X127116135Y-84051297D01*
X127135300Y-83820006D01*
X127135300Y-83819993D01*
X127116135Y-83588702D01*
X127116133Y-83588691D01*
X127059157Y-83363699D01*
X126965924Y-83151151D01*
X126838983Y-82956852D01*
X126838980Y-82956849D01*
X126838979Y-82956847D01*
X126681784Y-82786087D01*
X126681779Y-82786083D01*
X126681777Y-82786081D01*
X126498634Y-82643535D01*
X126498628Y-82643531D01*
X126294504Y-82533064D01*
X126294495Y-82533061D01*
X126074984Y-82457702D01*
X125903282Y-82429050D01*
X125846049Y-82419500D01*
X125613951Y-82419500D01*
X125568164Y-82427140D01*
X125385015Y-82457702D01*
X125165504Y-82533061D01*
X125165495Y-82533064D01*
X124961371Y-82643531D01*
X124961365Y-82643535D01*
X124778222Y-82786081D01*
X124778219Y-82786084D01*
X124778216Y-82786086D01*
X124778216Y-82786087D01*
X124772769Y-82792004D01*
X124621016Y-82956852D01*
X124563809Y-83044416D01*
X124510662Y-83089773D01*
X124441431Y-83099197D01*
X124378095Y-83069695D01*
X124356191Y-83044416D01*
X124298983Y-82956852D01*
X124298980Y-82956849D01*
X124298979Y-82956847D01*
X124141784Y-82786087D01*
X124141779Y-82786083D01*
X124141777Y-82786081D01*
X123958634Y-82643535D01*
X123958628Y-82643531D01*
X123754504Y-82533064D01*
X123754495Y-82533061D01*
X123534984Y-82457702D01*
X123363282Y-82429050D01*
X123306049Y-82419500D01*
X123073951Y-82419500D01*
X123028164Y-82427140D01*
X122845015Y-82457702D01*
X122625505Y-82533061D01*
X122625502Y-82533062D01*
X122625497Y-82533064D01*
X122625492Y-82533066D01*
X122625489Y-82533068D01*
X122593757Y-82550240D01*
X122580379Y-82556480D01*
X122355072Y-82645662D01*
X122341413Y-82650172D01*
X122116124Y-82710305D01*
X122100680Y-82713392D01*
X121855631Y-82746361D01*
X121844659Y-82747343D01*
X121731400Y-82752428D01*
X121731378Y-82752431D01*
X121525839Y-82761659D01*
X121521057Y-82761782D01*
X121099638Y-82764432D01*
X121093554Y-82764532D01*
X121093543Y-82764533D01*
X121083236Y-82766744D01*
X121057238Y-82769500D01*
X119096530Y-82769500D01*
X118893587Y-82809868D01*
X118893579Y-82809870D01*
X118702403Y-82889058D01*
X118530344Y-83004023D01*
X118489952Y-83044416D01*
X118384023Y-83150345D01*
X118384020Y-83150348D01*
X114162427Y-87371940D01*
X114139499Y-87389387D01*
X114139547Y-87389456D01*
X114137931Y-87390579D01*
X114135879Y-87392142D01*
X114134843Y-87392728D01*
X114134838Y-87392732D01*
X113889948Y-87599102D01*
X113886594Y-87601830D01*
X113639887Y-87795435D01*
X113636237Y-87798192D01*
X113390610Y-87976714D01*
X113386647Y-87979478D01*
X113142109Y-88143038D01*
X113137822Y-88145779D01*
X112981433Y-88241317D01*
X112916791Y-88259500D01*
X112075602Y-88259500D01*
X111809119Y-88294582D01*
X111809112Y-88294583D01*
X111809109Y-88294584D01*
X111754239Y-88309286D01*
X111549475Y-88364152D01*
X111301149Y-88467011D01*
X111301133Y-88467019D01*
X111068354Y-88601416D01*
X110855111Y-88765042D01*
X110855104Y-88765048D01*
X110665048Y-88955104D01*
X110665042Y-88955111D01*
X110501416Y-89168354D01*
X110501413Y-89168358D01*
X110501413Y-89168359D01*
X110495035Y-89179406D01*
X110367019Y-89401133D01*
X110367011Y-89401149D01*
X110264152Y-89649475D01*
X110194585Y-89909106D01*
X110194582Y-89909119D01*
X110159500Y-90175602D01*
X105926581Y-90175602D01*
X105876120Y-90112326D01*
X105657674Y-89893880D01*
X105416143Y-89701265D01*
X105212131Y-89573076D01*
X105154562Y-89536903D01*
X104876236Y-89402868D01*
X104876222Y-89402862D01*
X104584647Y-89300835D01*
X104584635Y-89300831D01*
X104283455Y-89232089D01*
X104283437Y-89232086D01*
X103976471Y-89197500D01*
X103976465Y-89197500D01*
X95667535Y-89197500D01*
X95667528Y-89197500D01*
X95360562Y-89232086D01*
X95360544Y-89232089D01*
X95059364Y-89300831D01*
X95059352Y-89300835D01*
X94767777Y-89402862D01*
X94767763Y-89402868D01*
X94489437Y-89536903D01*
X94227858Y-89701264D01*
X93986326Y-89893879D01*
X93767879Y-90112326D01*
X93575264Y-90353858D01*
X93410903Y-90615437D01*
X93276868Y-90893763D01*
X93276862Y-90893777D01*
X93174835Y-91185352D01*
X93174831Y-91185364D01*
X93106089Y-91486544D01*
X93106086Y-91486562D01*
X93071500Y-91793528D01*
X74626318Y-91793528D01*
X74754956Y-91664890D01*
X74918587Y-91451641D01*
X75052984Y-91218859D01*
X75155847Y-90970526D01*
X75225416Y-90710891D01*
X75260500Y-90444397D01*
X75260500Y-90175603D01*
X75260227Y-90173533D01*
X75238255Y-90006635D01*
X75225416Y-89909109D01*
X75155847Y-89649474D01*
X75135358Y-89600011D01*
X75126217Y-89543988D01*
X75144632Y-89278370D01*
X75144713Y-89277281D01*
X75148256Y-89232089D01*
X75169611Y-88959703D01*
X75169711Y-88958531D01*
X75194434Y-88684478D01*
X75194604Y-88682740D01*
X75219004Y-88452993D01*
X75219329Y-88450240D01*
X75219879Y-88445979D01*
X75226247Y-88396649D01*
X75254352Y-88332684D01*
X75261533Y-88324858D01*
X76789573Y-86796819D01*
X76850896Y-86763334D01*
X76877254Y-86760500D01*
X112828725Y-86760500D01*
X112828727Y-86760500D01*
X112930588Y-86733207D01*
X113021913Y-86680480D01*
X114732991Y-84969400D01*
X114794312Y-84935917D01*
X114804485Y-84934144D01*
X114807997Y-84933681D01*
X114808000Y-84933682D01*
X114964762Y-84913044D01*
X115110841Y-84852536D01*
X115236282Y-84756282D01*
X115332536Y-84630841D01*
X115393044Y-84484762D01*
X115413682Y-84328000D01*
X115413621Y-84327540D01*
X115393044Y-84171239D01*
X115393044Y-84171238D01*
X115332536Y-84025159D01*
X115236282Y-83899718D01*
X115110841Y-83803464D01*
X114964762Y-83742956D01*
X114964760Y-83742955D01*
X114808001Y-83722318D01*
X114807999Y-83722318D01*
X114651239Y-83742955D01*
X114651237Y-83742956D01*
X114505160Y-83803463D01*
X114379718Y-83899718D01*
X114283463Y-84025160D01*
X114222956Y-84171237D01*
X114222956Y-84171238D01*
X114201855Y-84331513D01*
X114173588Y-84395409D01*
X114166597Y-84403008D01*
X112646426Y-85923181D01*
X112585103Y-85956666D01*
X112558745Y-85959500D01*
X76720339Y-85959500D01*
X76720323Y-85959499D01*
X76712727Y-85959499D01*
X76607273Y-85959499D01*
X76539366Y-85977695D01*
X76505412Y-85986793D01*
X76414084Y-86039522D01*
X76339518Y-86114089D01*
X74639867Y-87813738D01*
X74614572Y-87833220D01*
X74317871Y-88005947D01*
X74304296Y-88012773D01*
X74004857Y-88140994D01*
X73988841Y-88146590D01*
X73697175Y-88226578D01*
X73679189Y-88230105D01*
X73539121Y-88246954D01*
X73539110Y-88246955D01*
X73535427Y-88247399D01*
X73535426Y-88247399D01*
X73512365Y-88250172D01*
X73403076Y-88263318D01*
X73372086Y-88263145D01*
X73360989Y-88261684D01*
X73344397Y-88259500D01*
X73344394Y-88259500D01*
X73201554Y-88259500D01*
X73197382Y-88259430D01*
X73171331Y-88258553D01*
X73066060Y-88255009D01*
X73066059Y-88255009D01*
X73066058Y-88255009D01*
X73046587Y-88257428D01*
X73037542Y-88258553D01*
X73022250Y-88259500D01*
X72075602Y-88259500D01*
X71809119Y-88294582D01*
X71809112Y-88294583D01*
X71809109Y-88294584D01*
X71754239Y-88309286D01*
X71549475Y-88364152D01*
X71301149Y-88467011D01*
X71301133Y-88467019D01*
X71068354Y-88601416D01*
X70855111Y-88765042D01*
X70855104Y-88765048D01*
X70665048Y-88955104D01*
X70665042Y-88955111D01*
X70501416Y-89168354D01*
X70501413Y-89168358D01*
X70501413Y-89168359D01*
X70495035Y-89179406D01*
X70367019Y-89401133D01*
X70367011Y-89401149D01*
X70264152Y-89649475D01*
X70194585Y-89909106D01*
X70194582Y-89909119D01*
X70159500Y-90175602D01*
X70159500Y-90444397D01*
X70194582Y-90710880D01*
X70194583Y-90710885D01*
X70194584Y-90710891D01*
X70250590Y-90919907D01*
X70254869Y-90935876D01*
X70253206Y-91005725D01*
X70244305Y-91026698D01*
X70222101Y-91067988D01*
X70220269Y-91071273D01*
X70110007Y-91262195D01*
X70107845Y-91265796D01*
X69998848Y-91440577D01*
X69996278Y-91444530D01*
X69888841Y-91603052D01*
X69885769Y-91607381D01*
X69780114Y-91749748D01*
X69780079Y-91749805D01*
X69779980Y-91749928D01*
X69777164Y-91753724D01*
X69777036Y-91753629D01*
X69762619Y-91771748D01*
X67757451Y-93776917D01*
X65907347Y-95627021D01*
X65907345Y-95627023D01*
X65870361Y-95664007D01*
X65761023Y-95773344D01*
X65646058Y-95945403D01*
X65566870Y-96136579D01*
X65566868Y-96136587D01*
X65526500Y-96339530D01*
X65526500Y-100979881D01*
X65506815Y-101046920D01*
X65454011Y-101092675D01*
X65437095Y-101098957D01*
X65394117Y-101111443D01*
X65394114Y-101111444D01*
X65260805Y-101190282D01*
X65260796Y-101190289D01*
X65151289Y-101299796D01*
X65151282Y-101299805D01*
X65072444Y-101433114D01*
X65072443Y-101433117D01*
X65059957Y-101476095D01*
X65022351Y-101534981D01*
X64958879Y-101564187D01*
X64940881Y-101565500D01*
X62970494Y-101565500D01*
X62903455Y-101545815D01*
X62882813Y-101529181D01*
X58588047Y-97234416D01*
X58588044Y-97234412D01*
X58588044Y-97234413D01*
X58580977Y-97227346D01*
X58580977Y-97227345D01*
X58434655Y-97081023D01*
X58262598Y-96966059D01*
X58171382Y-96928276D01*
X58071420Y-96886870D01*
X58071412Y-96886868D01*
X57868469Y-96846500D01*
X57868465Y-96846500D01*
X55710833Y-96846500D01*
X55643794Y-96826815D01*
X55623152Y-96810181D01*
X55607765Y-96794794D01*
X55504992Y-96749415D01*
X55479868Y-96746500D01*
X55347519Y-96746500D01*
X55280480Y-96726815D01*
X55234725Y-96674011D01*
X55224781Y-96604853D01*
X55253806Y-96541297D01*
X55276395Y-96520925D01*
X55456082Y-96395105D01*
X55623105Y-96228082D01*
X55758600Y-96034578D01*
X55858429Y-95820492D01*
X55858432Y-95820486D01*
X55915636Y-95607000D01*
X55018012Y-95607000D01*
X55050925Y-95549993D01*
X55085000Y-95422826D01*
X55085000Y-95291174D01*
X55050925Y-95164007D01*
X55018012Y-95107000D01*
X55915636Y-95107000D01*
X55915635Y-95106999D01*
X55858432Y-94893513D01*
X55858429Y-94893507D01*
X55758600Y-94679422D01*
X55758599Y-94679420D01*
X55623113Y-94485926D01*
X55623108Y-94485920D01*
X55456082Y-94318894D01*
X55262578Y-94183399D01*
X55048492Y-94083570D01*
X55048486Y-94083567D01*
X54835000Y-94026364D01*
X54835000Y-94923988D01*
X54777993Y-94891075D01*
X54650826Y-94857000D01*
X54519174Y-94857000D01*
X54392007Y-94891075D01*
X54335000Y-94923988D01*
X54335000Y-94026364D01*
X54334999Y-94026364D01*
X54121513Y-94083567D01*
X54121507Y-94083570D01*
X53907422Y-94183399D01*
X53907420Y-94183400D01*
X53713926Y-94318886D01*
X53713920Y-94318891D01*
X53546891Y-94485920D01*
X53546886Y-94485926D01*
X53411400Y-94679420D01*
X53411399Y-94679422D01*
X53311570Y-94893507D01*
X53311567Y-94893513D01*
X53254364Y-95106999D01*
X52070000Y-95106999D01*
X52070000Y-91189999D01*
X53279364Y-91189999D01*
X53279364Y-91190000D01*
X54176988Y-91190000D01*
X54144075Y-91247007D01*
X54110000Y-91374174D01*
X54110000Y-91505826D01*
X54144075Y-91632993D01*
X54176988Y-91690000D01*
X53279364Y-91690000D01*
X53336567Y-91903486D01*
X53336570Y-91903492D01*
X53436399Y-92117578D01*
X53571894Y-92311082D01*
X53738917Y-92478105D01*
X53932421Y-92613600D01*
X54146507Y-92713429D01*
X54146516Y-92713433D01*
X54360000Y-92770634D01*
X54360000Y-91873012D01*
X54417007Y-91905925D01*
X54544174Y-91940000D01*
X54675826Y-91940000D01*
X54802993Y-91905925D01*
X54860000Y-91873012D01*
X54860000Y-92770633D01*
X55073483Y-92713433D01*
X55073492Y-92713429D01*
X55287578Y-92613600D01*
X55481082Y-92478105D01*
X55648105Y-92311082D01*
X55783600Y-92117578D01*
X55883429Y-91903492D01*
X55883432Y-91903486D01*
X55940636Y-91690000D01*
X55043012Y-91690000D01*
X55075925Y-91632993D01*
X55110000Y-91505826D01*
X55110000Y-91374174D01*
X55075925Y-91247007D01*
X55043012Y-91190000D01*
X55940636Y-91190000D01*
X55940635Y-91189999D01*
X55883432Y-90976513D01*
X55883429Y-90976507D01*
X55783600Y-90762422D01*
X55783599Y-90762420D01*
X55648113Y-90568926D01*
X55648108Y-90568920D01*
X55481082Y-90401894D01*
X55287578Y-90266399D01*
X55117052Y-90186882D01*
X55064613Y-90140710D01*
X55045461Y-90073516D01*
X55065677Y-90006635D01*
X55118842Y-89961300D01*
X55169457Y-89950500D01*
X59031466Y-89950500D01*
X59031467Y-89950499D01*
X59234420Y-89910130D01*
X59425598Y-89830941D01*
X59456651Y-89810192D01*
X59597655Y-89715977D01*
X59743977Y-89569655D01*
X59743977Y-89569653D01*
X59754185Y-89559446D01*
X59754186Y-89559443D01*
X67392977Y-81920655D01*
X67507942Y-81748598D01*
X67566297Y-81607714D01*
X67587130Y-81557420D01*
X67598768Y-81498913D01*
X67610158Y-81441651D01*
X67627501Y-81354467D01*
X67627501Y-81142424D01*
X67627500Y-81142398D01*
X67627500Y-78090118D01*
X67647185Y-78023079D01*
X67699989Y-77977324D01*
X67716900Y-77971043D01*
X67759887Y-77958555D01*
X67893198Y-77879715D01*
X68002715Y-77770198D01*
X68081555Y-77636887D01*
X68089172Y-77610670D01*
X68094043Y-77593905D01*
X68131649Y-77535019D01*
X68195121Y-77505813D01*
X68213119Y-77504500D01*
X84095507Y-77504500D01*
X84162546Y-77524185D01*
X84183188Y-77540819D01*
X86302897Y-79660528D01*
X86302926Y-79660559D01*
X86452342Y-79809975D01*
X86452345Y-79809977D01*
X86624402Y-79924941D01*
X86815580Y-80004130D01*
X86984861Y-80037802D01*
X87007309Y-80042267D01*
X87018533Y-80044500D01*
X87018534Y-80044500D01*
X109323466Y-80044500D01*
X109323467Y-80044499D01*
X109526420Y-80004130D01*
X109717598Y-79924941D01*
X109739080Y-79910587D01*
X109889655Y-79809977D01*
X110035977Y-79663655D01*
X110035978Y-79663652D01*
X110379300Y-79320331D01*
X110440620Y-79286849D01*
X110510312Y-79291833D01*
X110566245Y-79333705D01*
X110582333Y-79362525D01*
X110625639Y-79472343D01*
X110717077Y-79592922D01*
X110837656Y-79684360D01*
X110837657Y-79684360D01*
X110837658Y-79684361D01*
X110978436Y-79739877D01*
X111066898Y-79750500D01*
X111773507Y-79750500D01*
X111840546Y-79770185D01*
X111861188Y-79786819D01*
X113512897Y-81438528D01*
X113512926Y-81438559D01*
X113662342Y-81587975D01*
X113662345Y-81587977D01*
X113834402Y-81702941D01*
X114025580Y-81782130D01*
X114228530Y-81822499D01*
X114228534Y-81822500D01*
X114228535Y-81822500D01*
X114435465Y-81822500D01*
X130434632Y-81822500D01*
X130501671Y-81842185D01*
X130522313Y-81858819D01*
X131809864Y-83146370D01*
X131823948Y-83163200D01*
X131833542Y-83176980D01*
X131833544Y-83176982D01*
X131833545Y-83176983D01*
X132141210Y-83480014D01*
X132141884Y-83480682D01*
X132378645Y-83717473D01*
X132383998Y-83723176D01*
X132553351Y-83915392D01*
X132562596Y-83927266D01*
X132647598Y-84051297D01*
X132693485Y-84118252D01*
X132701913Y-84132508D01*
X132819498Y-84365651D01*
X132832878Y-84392181D01*
X132832852Y-84392193D01*
X132837731Y-84401432D01*
X132876076Y-84488850D01*
X133003016Y-84683147D01*
X133003019Y-84683151D01*
X133003021Y-84683153D01*
X133160216Y-84853913D01*
X133160219Y-84853915D01*
X133160222Y-84853918D01*
X133343365Y-84996464D01*
X133343371Y-84996468D01*
X133343374Y-84996470D01*
X133547497Y-85106936D01*
X133661487Y-85146068D01*
X133767015Y-85182297D01*
X133767017Y-85182297D01*
X133767019Y-85182298D01*
X133995951Y-85220500D01*
X133995952Y-85220500D01*
X134228048Y-85220500D01*
X134228049Y-85220500D01*
X134456981Y-85182298D01*
X134676503Y-85106936D01*
X134880626Y-84996470D01*
X135063784Y-84853913D01*
X135220979Y-84683153D01*
X135278191Y-84595582D01*
X135331337Y-84550226D01*
X135400568Y-84540802D01*
X135463904Y-84570304D01*
X135485809Y-84595583D01*
X135543021Y-84683154D01*
X135546169Y-84687198D01*
X135545921Y-84687390D01*
X135558818Y-84705095D01*
X135590458Y-84761001D01*
X135593482Y-84766683D01*
X135699829Y-84979673D01*
X135705988Y-84994276D01*
X135753377Y-85130320D01*
X135753378Y-85130322D01*
X135778345Y-85201999D01*
X135783275Y-85220765D01*
X135830301Y-85481338D01*
X135832127Y-85497365D01*
X135850317Y-85873114D01*
X135850318Y-85873117D01*
X135852159Y-85880887D01*
X135855500Y-85909475D01*
X135855500Y-86433382D01*
X135835854Y-86500362D01*
X135793885Y-86565749D01*
X135791559Y-86569240D01*
X135745773Y-86635529D01*
X135743061Y-86639303D01*
X135731677Y-86654531D01*
X135688657Y-86690770D01*
X135541004Y-86766004D01*
X135394505Y-86872441D01*
X135394500Y-86872445D01*
X135266445Y-87000500D01*
X135266441Y-87000505D01*
X135160004Y-87147004D01*
X135092908Y-87278685D01*
X135044933Y-87329480D01*
X134977112Y-87346275D01*
X134910977Y-87323737D01*
X134867527Y-87269021D01*
X134864492Y-87260705D01*
X134855094Y-87231780D01*
X134758620Y-87042442D01*
X134633727Y-86870540D01*
X134633723Y-86870535D01*
X134483464Y-86720276D01*
X134483459Y-86720272D01*
X134311557Y-86595379D01*
X134122215Y-86498903D01*
X133920124Y-86433241D01*
X133854000Y-86422768D01*
X133854000Y-90377230D01*
X133920126Y-90366757D01*
X133920129Y-90366757D01*
X134122217Y-90301095D01*
X134311557Y-90204620D01*
X134483459Y-90079727D01*
X134483464Y-90079723D01*
X134633723Y-89929464D01*
X134633727Y-89929459D01*
X134758620Y-89757557D01*
X134855095Y-89568217D01*
X134864492Y-89539295D01*
X134903928Y-89481618D01*
X134968286Y-89454419D01*
X135037133Y-89466331D01*
X135088610Y-89513574D01*
X135092908Y-89521314D01*
X135160004Y-89652995D01*
X135266441Y-89799494D01*
X135266445Y-89799499D01*
X135394500Y-89927554D01*
X135394505Y-89927558D01*
X135509796Y-90011321D01*
X135541006Y-90033996D01*
X135617094Y-90072765D01*
X135702360Y-90116211D01*
X135702363Y-90116212D01*
X135719999Y-90121942D01*
X135874591Y-90172171D01*
X135957429Y-90185291D01*
X136053449Y-90200500D01*
X136053454Y-90200500D01*
X136234551Y-90200500D01*
X136321259Y-90186765D01*
X136413409Y-90172171D01*
X136585639Y-90116211D01*
X136746994Y-90033996D01*
X136893501Y-89927553D01*
X137021553Y-89799501D01*
X137127996Y-89652994D01*
X137210211Y-89491639D01*
X137254285Y-89355991D01*
X137266171Y-89319410D01*
X137266172Y-89319405D01*
X137268630Y-89303875D01*
X137270396Y-89292728D01*
X137300322Y-89229593D01*
X137305152Y-89224477D01*
X137721977Y-88807655D01*
X137836942Y-88635598D01*
X137916130Y-88444420D01*
X137945935Y-88294582D01*
X137956501Y-88241467D01*
X137956501Y-88029425D01*
X137956500Y-88029399D01*
X137956500Y-86592339D01*
X137956689Y-86585490D01*
X137956729Y-86584751D01*
X137957779Y-86565790D01*
X137957777Y-86565783D01*
X137957156Y-86557645D01*
X137957628Y-86557608D01*
X137956500Y-86546791D01*
X137956500Y-85888333D01*
X137958079Y-85868607D01*
X137961104Y-85849834D01*
X137959193Y-85773547D01*
X137956539Y-85667557D01*
X137956500Y-85664452D01*
X137956500Y-84365651D01*
X137958999Y-84340883D01*
X137961721Y-84327533D01*
X137969663Y-84302501D01*
X137981157Y-84276300D01*
X138038134Y-84051305D01*
X138038135Y-84051297D01*
X138057300Y-83820006D01*
X138057300Y-83819993D01*
X138038135Y-83588702D01*
X138038133Y-83588691D01*
X137981157Y-83363699D01*
X137887924Y-83151151D01*
X137760983Y-82956852D01*
X137760980Y-82956849D01*
X137760979Y-82956847D01*
X137603784Y-82786087D01*
X137603779Y-82786083D01*
X137603777Y-82786081D01*
X137420634Y-82643535D01*
X137420628Y-82643531D01*
X137216504Y-82533064D01*
X137216495Y-82533061D01*
X136996984Y-82457702D01*
X136825282Y-82429050D01*
X136768049Y-82419500D01*
X136535951Y-82419500D01*
X136490164Y-82427140D01*
X136307015Y-82457702D01*
X136087504Y-82533061D01*
X136087495Y-82533064D01*
X135883371Y-82643531D01*
X135883365Y-82643535D01*
X135700222Y-82786081D01*
X135700219Y-82786084D01*
X135700216Y-82786086D01*
X135700216Y-82786087D01*
X135546752Y-82952795D01*
X135543015Y-82956854D01*
X135485807Y-83044417D01*
X135432660Y-83089774D01*
X135363429Y-83099197D01*
X135300094Y-83069694D01*
X135278191Y-83044417D01*
X135220979Y-82956847D01*
X135220971Y-82956838D01*
X135217825Y-82952795D01*
X135218060Y-82952611D01*
X135207009Y-82937805D01*
X135149546Y-82841530D01*
X135133114Y-82816813D01*
X135131767Y-82814986D01*
X135113035Y-82792004D01*
X134874488Y-82526728D01*
X134694699Y-82325214D01*
X134676829Y-82299127D01*
X134578378Y-82106615D01*
X134565844Y-82066375D01*
X134557366Y-82002113D01*
X134516217Y-81690211D01*
X134516214Y-81690202D01*
X134516214Y-81690199D01*
X134515299Y-81685962D01*
X134512500Y-81659766D01*
X134512500Y-80989255D01*
X134532185Y-80922216D01*
X134548819Y-80901574D01*
X134924309Y-80526084D01*
X135448480Y-80001913D01*
X135501207Y-79910588D01*
X135528500Y-79808727D01*
X135528500Y-79703273D01*
X135528500Y-78513891D01*
X135544716Y-78452584D01*
X135552603Y-78438718D01*
X135569040Y-78409819D01*
X135573321Y-78402842D01*
X135638193Y-78304539D01*
X135644176Y-78296241D01*
X135701807Y-78222902D01*
X135710337Y-78213146D01*
X135757203Y-78164883D01*
X135769466Y-78153831D01*
X135777026Y-78147881D01*
X135808222Y-78129970D01*
X135850342Y-78113361D01*
X135970922Y-78021922D01*
X136062361Y-77901342D01*
X136117877Y-77760564D01*
X136128500Y-77672102D01*
X136128500Y-77060898D01*
X136117877Y-76972436D01*
X136062361Y-76831658D01*
X136062360Y-76831657D01*
X136062360Y-76831656D01*
X135970922Y-76711077D01*
X135850343Y-76619639D01*
X135721274Y-76568741D01*
X135709564Y-76564123D01*
X135709563Y-76564122D01*
X135709561Y-76564122D01*
X135663926Y-76558642D01*
X135621102Y-76553500D01*
X134634898Y-76553500D01*
X134595853Y-76558188D01*
X134546438Y-76564122D01*
X134405656Y-76619639D01*
X134285077Y-76711077D01*
X134193639Y-76831656D01*
X134138122Y-76972438D01*
X134132665Y-77017887D01*
X134127500Y-77060898D01*
X134127500Y-77672102D01*
X134133126Y-77718954D01*
X134138122Y-77760561D01*
X134138122Y-77760563D01*
X134138123Y-77760564D01*
X134144219Y-77776022D01*
X134193639Y-77901343D01*
X134285077Y-78021922D01*
X134393973Y-78104500D01*
X134405658Y-78113361D01*
X134447772Y-78129968D01*
X134478970Y-78147881D01*
X134478974Y-78147884D01*
X134486530Y-78153831D01*
X134498797Y-78164885D01*
X134517645Y-78184294D01*
X134542850Y-78210251D01*
X134545656Y-78213140D01*
X134554196Y-78222909D01*
X134611814Y-78296232D01*
X134617810Y-78304549D01*
X134682676Y-78402842D01*
X134686964Y-78409832D01*
X134711281Y-78452584D01*
X134711283Y-78452586D01*
X134727500Y-78513895D01*
X134727500Y-79538745D01*
X134707815Y-79605784D01*
X134691181Y-79626426D01*
X133791522Y-80526084D01*
X133791518Y-80526090D01*
X133738792Y-80617412D01*
X133738793Y-80617413D01*
X133711500Y-80719273D01*
X133711500Y-81659941D01*
X133708414Y-81687434D01*
X133707781Y-81690216D01*
X133697771Y-81766083D01*
X133669486Y-81829971D01*
X133611151Y-81868425D01*
X133541286Y-81869237D01*
X133489181Y-81839522D01*
X133320989Y-81678839D01*
X133319502Y-81677418D01*
X133319481Y-81677398D01*
X133316883Y-81674944D01*
X133316880Y-81674942D01*
X133316879Y-81674941D01*
X133308702Y-81669745D01*
X133287526Y-81652769D01*
X131744172Y-80109416D01*
X131744169Y-80109412D01*
X131744169Y-80109413D01*
X131737102Y-80102346D01*
X131737102Y-80102345D01*
X131590780Y-79956023D01*
X131418723Y-79841059D01*
X131340662Y-79808725D01*
X131227545Y-79761870D01*
X131227537Y-79761868D01*
X131024594Y-79721500D01*
X131024590Y-79721500D01*
X114818493Y-79721500D01*
X114751454Y-79701815D01*
X114730812Y-79685181D01*
X113771813Y-78726182D01*
X113738328Y-78664859D01*
X113743312Y-78595167D01*
X113785184Y-78539234D01*
X113797495Y-78531114D01*
X113815911Y-78520481D01*
X113815910Y-78520481D01*
X113815913Y-78520480D01*
X114281706Y-78054684D01*
X114281711Y-78054681D01*
X114291911Y-78044480D01*
X114291913Y-78044480D01*
X114366480Y-77969913D01*
X114419207Y-77878587D01*
X114424115Y-77860271D01*
X114425533Y-77854980D01*
X114445577Y-77780175D01*
X114446501Y-77776727D01*
X114446501Y-77776725D01*
X114448604Y-77768877D01*
X114450256Y-77769319D01*
X114474557Y-77714376D01*
X114532877Y-77675900D01*
X114602742Y-77675061D01*
X114661969Y-77712128D01*
X114686278Y-77753493D01*
X114711809Y-77826455D01*
X114717207Y-77841882D01*
X114797850Y-77951150D01*
X114907118Y-78031793D01*
X114944404Y-78044840D01*
X115035299Y-78076646D01*
X115065730Y-78079500D01*
X115065734Y-78079500D01*
X116074270Y-78079500D01*
X116104693Y-78076647D01*
X116104694Y-78076646D01*
X116104699Y-78076646D01*
X116178130Y-78050950D01*
X116187172Y-78048226D01*
X116187702Y-78048025D01*
X116187708Y-78048025D01*
X116196086Y-78044863D01*
X116196090Y-78044860D01*
X116201732Y-78042731D01*
X116204511Y-78041719D01*
X116232882Y-78031793D01*
X116342150Y-77951150D01*
X116380526Y-77899150D01*
X116404997Y-77874266D01*
X116491530Y-77808135D01*
X116503788Y-77799878D01*
X116536104Y-77780809D01*
X116603845Y-77763696D01*
X116652835Y-77775846D01*
X116746566Y-77820898D01*
X116754537Y-77825352D01*
X116756941Y-77826449D01*
X116756947Y-77826453D01*
X116854102Y-77854980D01*
X116895038Y-77867000D01*
X116895039Y-77867000D01*
X117038962Y-77867000D01*
X117038962Y-77866999D01*
X117145138Y-77835824D01*
X117177047Y-77826455D01*
X117177048Y-77826454D01*
X117177053Y-77826453D01*
X117177056Y-77826450D01*
X117184775Y-77822923D01*
X117187009Y-77821712D01*
X117245531Y-77795501D01*
X117314757Y-77786064D01*
X117358600Y-77801508D01*
X117411109Y-77832080D01*
X117423477Y-77840311D01*
X117505643Y-77902414D01*
X117506657Y-77903180D01*
X117531659Y-77928469D01*
X117563079Y-77971041D01*
X117566850Y-77976150D01*
X117660505Y-78045270D01*
X117676118Y-78056793D01*
X117700087Y-78065180D01*
X117709398Y-78068867D01*
X117712865Y-78069863D01*
X117719590Y-78072004D01*
X117804301Y-78101646D01*
X117804308Y-78101646D01*
X117804310Y-78101647D01*
X117834730Y-78104500D01*
X117834734Y-78104500D01*
X118893270Y-78104500D01*
X118923693Y-78101647D01*
X118923694Y-78101646D01*
X118923699Y-78101646D01*
X119006092Y-78072814D01*
X119011969Y-78070949D01*
X119018186Y-78068583D01*
X119051882Y-78056793D01*
X119161150Y-77976150D01*
X119215573Y-77902408D01*
X119236853Y-77880046D01*
X119249988Y-77869308D01*
X119261045Y-77860269D01*
X119311617Y-77818921D01*
X119323294Y-77810456D01*
X119340897Y-77799200D01*
X119419007Y-77749244D01*
X119433833Y-77741131D01*
X119520841Y-77700979D01*
X119538967Y-77694275D01*
X119549140Y-77691393D01*
X119549141Y-77691392D01*
X119549779Y-77691210D01*
X119564400Y-77687068D01*
X119564405Y-77687065D01*
X119618620Y-77671698D01*
X119652430Y-77667000D01*
X119885562Y-77667000D01*
X119914692Y-77670470D01*
X120005389Y-77692393D01*
X120023867Y-77698428D01*
X120112149Y-77735144D01*
X120127528Y-77742832D01*
X120224205Y-77799876D01*
X120236473Y-77808141D01*
X120323005Y-77874271D01*
X120347475Y-77899154D01*
X120367542Y-77926343D01*
X120385850Y-77951150D01*
X120495118Y-78031793D01*
X120495121Y-78031795D01*
X120522936Y-78041527D01*
X120530515Y-78044461D01*
X120531405Y-78044840D01*
X120531415Y-78044842D01*
X120531416Y-78044843D01*
X120532667Y-78045270D01*
X120540098Y-78047531D01*
X120623301Y-78076646D01*
X120623308Y-78076646D01*
X120623310Y-78076647D01*
X120653730Y-78079500D01*
X120653734Y-78079500D01*
X121662270Y-78079500D01*
X121692699Y-78076646D01*
X121692701Y-78076646D01*
X121773710Y-78048299D01*
X121820882Y-78031793D01*
X121930150Y-77951150D01*
X122010793Y-77841882D01*
X122034924Y-77772919D01*
X122055646Y-77713701D01*
X122055646Y-77713699D01*
X122058500Y-77683269D01*
X122058500Y-77049730D01*
X122055646Y-77019300D01*
X122055646Y-77019298D01*
X122018133Y-76912094D01*
X122010793Y-76891118D01*
X121930150Y-76781850D01*
X121847396Y-76720775D01*
X121805147Y-76665129D01*
X121799688Y-76595472D01*
X121832756Y-76533923D01*
X121882028Y-76503300D01*
X121927117Y-76488359D01*
X121927124Y-76488356D01*
X122076345Y-76396315D01*
X122200315Y-76272345D01*
X122292356Y-76123124D01*
X122292358Y-76123119D01*
X122347505Y-75956697D01*
X122347506Y-75956690D01*
X122357999Y-75853986D01*
X122358000Y-75853973D01*
X122358000Y-75791500D01*
X122752001Y-75791500D01*
X122752001Y-75853986D01*
X122762494Y-75956697D01*
X122817641Y-76123119D01*
X122817643Y-76123124D01*
X122909684Y-76272345D01*
X123033654Y-76396315D01*
X123182875Y-76488356D01*
X123182880Y-76488358D01*
X123227972Y-76503300D01*
X123285417Y-76543072D01*
X123312240Y-76607588D01*
X123299925Y-76676364D01*
X123262602Y-76720776D01*
X123179850Y-76781850D01*
X123099207Y-76891117D01*
X123099206Y-76891119D01*
X123054353Y-77019298D01*
X123054353Y-77019300D01*
X123051500Y-77049730D01*
X123051500Y-77683269D01*
X123054353Y-77713699D01*
X123054353Y-77713701D01*
X123099206Y-77841880D01*
X123099207Y-77841882D01*
X123179850Y-77951150D01*
X123289118Y-78031793D01*
X123326404Y-78044840D01*
X123417299Y-78076646D01*
X123447730Y-78079500D01*
X123447734Y-78079500D01*
X124456270Y-78079500D01*
X124486693Y-78076647D01*
X124486694Y-78076646D01*
X124486699Y-78076646D01*
X124560130Y-78050950D01*
X124569172Y-78048226D01*
X124569702Y-78048025D01*
X124569708Y-78048025D01*
X124578086Y-78044863D01*
X124578090Y-78044860D01*
X124583732Y-78042731D01*
X124586511Y-78041719D01*
X124614882Y-78031793D01*
X124724150Y-77951150D01*
X124762526Y-77899150D01*
X124786997Y-77874266D01*
X124873530Y-77808135D01*
X124885791Y-77799876D01*
X124930423Y-77773541D01*
X124998162Y-77756427D01*
X125060474Y-77776021D01*
X125090632Y-77795403D01*
X125138948Y-77826454D01*
X125277036Y-77866999D01*
X125277038Y-77867000D01*
X125277039Y-77867000D01*
X125420962Y-77867000D01*
X125420962Y-77866999D01*
X125539906Y-77832075D01*
X125559050Y-77826454D01*
X125559050Y-77826453D01*
X125559053Y-77826453D01*
X125601867Y-77798937D01*
X125668905Y-77779252D01*
X125731298Y-77796092D01*
X125793101Y-77832075D01*
X125805477Y-77840311D01*
X125887643Y-77902414D01*
X125888657Y-77903180D01*
X125913659Y-77928469D01*
X125945079Y-77971041D01*
X125948850Y-77976150D01*
X126042505Y-78045270D01*
X126058118Y-78056793D01*
X126082087Y-78065180D01*
X126091398Y-78068867D01*
X126094865Y-78069863D01*
X126101590Y-78072004D01*
X126186301Y-78101646D01*
X126186308Y-78101646D01*
X126186310Y-78101647D01*
X126216730Y-78104500D01*
X126216734Y-78104500D01*
X127275270Y-78104500D01*
X127305693Y-78101647D01*
X127305694Y-78101646D01*
X127305699Y-78101646D01*
X127388092Y-78072814D01*
X127393969Y-78070949D01*
X127400186Y-78068583D01*
X127433882Y-78056793D01*
X127543150Y-77976150D01*
X127597573Y-77902408D01*
X127618853Y-77880046D01*
X127631988Y-77869308D01*
X127643045Y-77860269D01*
X127693617Y-77818921D01*
X127705294Y-77810456D01*
X127722897Y-77799200D01*
X127801007Y-77749244D01*
X127815833Y-77741131D01*
X127902841Y-77700979D01*
X127920967Y-77694275D01*
X127931140Y-77691393D01*
X127931141Y-77691392D01*
X127931779Y-77691210D01*
X127946400Y-77687068D01*
X127946405Y-77687065D01*
X128000620Y-77671698D01*
X128034430Y-77667000D01*
X128267562Y-77667000D01*
X128296692Y-77670470D01*
X128387389Y-77692393D01*
X128405867Y-77698428D01*
X128494149Y-77735144D01*
X128509528Y-77742832D01*
X128606205Y-77799876D01*
X128618473Y-77808141D01*
X128705005Y-77874271D01*
X128729475Y-77899154D01*
X128749542Y-77926343D01*
X128767850Y-77951150D01*
X128877118Y-78031793D01*
X128877121Y-78031795D01*
X128904936Y-78041527D01*
X128912515Y-78044461D01*
X128913405Y-78044840D01*
X128913415Y-78044842D01*
X128913416Y-78044843D01*
X128914667Y-78045270D01*
X128922098Y-78047531D01*
X129005301Y-78076646D01*
X129005308Y-78076646D01*
X129005310Y-78076647D01*
X129035730Y-78079500D01*
X129035734Y-78079500D01*
X130044270Y-78079500D01*
X130074699Y-78076646D01*
X130074701Y-78076646D01*
X130155710Y-78048299D01*
X130202882Y-78031793D01*
X130312150Y-77951150D01*
X130392793Y-77841882D01*
X130416924Y-77772919D01*
X130437646Y-77713701D01*
X130437646Y-77713699D01*
X130440500Y-77683269D01*
X130440500Y-77678986D01*
X131134001Y-77678986D01*
X131144494Y-77781697D01*
X131199641Y-77948119D01*
X131199643Y-77948124D01*
X131291684Y-78097345D01*
X131415654Y-78221315D01*
X131564875Y-78313356D01*
X131564880Y-78313358D01*
X131731302Y-78368505D01*
X131731309Y-78368506D01*
X131834019Y-78378999D01*
X132083999Y-78378999D01*
X132584000Y-78378999D01*
X132833972Y-78378999D01*
X132833986Y-78378998D01*
X132936697Y-78368505D01*
X133103119Y-78313358D01*
X133103124Y-78313356D01*
X133252345Y-78221315D01*
X133376315Y-78097345D01*
X133468356Y-77948124D01*
X133468358Y-77948119D01*
X133523505Y-77781697D01*
X133523506Y-77781690D01*
X133533999Y-77678986D01*
X133534000Y-77678973D01*
X133534000Y-77616500D01*
X132584000Y-77616500D01*
X132584000Y-78378999D01*
X132083999Y-78378999D01*
X132084000Y-78378998D01*
X132084000Y-77616500D01*
X131134001Y-77616500D01*
X131134001Y-77678986D01*
X130440500Y-77678986D01*
X130440500Y-77054013D01*
X131134000Y-77054013D01*
X131134000Y-77116500D01*
X133533999Y-77116500D01*
X133533999Y-77054028D01*
X133533998Y-77054013D01*
X133523505Y-76951302D01*
X133468358Y-76784880D01*
X133468356Y-76784875D01*
X133376315Y-76635654D01*
X133252345Y-76511684D01*
X133103124Y-76419643D01*
X133103121Y-76419642D01*
X133058026Y-76404699D01*
X133000582Y-76364926D01*
X132973759Y-76300410D01*
X132986074Y-76231634D01*
X133023394Y-76187225D01*
X133106150Y-76126150D01*
X133186793Y-76016882D01*
X133215247Y-75935564D01*
X133231646Y-75888701D01*
X133231646Y-75888699D01*
X133234500Y-75858269D01*
X133234500Y-75224730D01*
X133231646Y-75194300D01*
X133231646Y-75194298D01*
X133196425Y-75093646D01*
X133186793Y-75066118D01*
X133106150Y-74956850D01*
X132996882Y-74876207D01*
X132996880Y-74876206D01*
X132965898Y-74865365D01*
X132930165Y-74845766D01*
X132916075Y-74834677D01*
X132916070Y-74834673D01*
X132908367Y-74828610D01*
X132896108Y-74817563D01*
X132840948Y-74760760D01*
X132832417Y-74751002D01*
X132823082Y-74739123D01*
X132788303Y-74694864D01*
X132769004Y-74670305D01*
X132763009Y-74661990D01*
X132753193Y-74647116D01*
X132739994Y-74627115D01*
X132719498Y-74560323D01*
X132735255Y-74498791D01*
X132735072Y-74498693D01*
X132735473Y-74497943D01*
X132735483Y-74497902D01*
X132735704Y-74497511D01*
X132736182Y-74496618D01*
X132740219Y-74488665D01*
X132775868Y-74414500D01*
X132791010Y-74382999D01*
X132791022Y-74382971D01*
X132791036Y-74382944D01*
X132793234Y-74378219D01*
X132793485Y-74377661D01*
X132795152Y-74369944D01*
X132803562Y-74344621D01*
X132819165Y-74310457D01*
X132822129Y-74289840D01*
X132839647Y-74168000D01*
X132819165Y-74025543D01*
X132759377Y-73894627D01*
X132665128Y-73785857D01*
X132544053Y-73708047D01*
X132544051Y-73708046D01*
X132544049Y-73708045D01*
X132544050Y-73708045D01*
X132405963Y-73667500D01*
X132405961Y-73667500D01*
X132262039Y-73667500D01*
X132262036Y-73667500D01*
X132123949Y-73708045D01*
X132002873Y-73785856D01*
X131908623Y-73894626D01*
X131908622Y-73894628D01*
X131848834Y-74025543D01*
X131828353Y-74168000D01*
X131848834Y-74310456D01*
X131848836Y-74310463D01*
X131865983Y-74348008D01*
X131873282Y-74368637D01*
X131876958Y-74382935D01*
X131876962Y-74382945D01*
X131927771Y-74488652D01*
X131931831Y-74496649D01*
X131932295Y-74497516D01*
X131932559Y-74497984D01*
X131932568Y-74498026D01*
X131932914Y-74498671D01*
X131932739Y-74498764D01*
X131948295Y-74566059D01*
X131928003Y-74627116D01*
X131904994Y-74661983D01*
X131898996Y-74670302D01*
X131835579Y-74751003D01*
X131827040Y-74760770D01*
X131771897Y-74817557D01*
X131759627Y-74828614D01*
X131737835Y-74845765D01*
X131702102Y-74865365D01*
X131671118Y-74876207D01*
X131561850Y-74956850D01*
X131481207Y-75066117D01*
X131481206Y-75066119D01*
X131436353Y-75194298D01*
X131436353Y-75194300D01*
X131433500Y-75224730D01*
X131433500Y-75858269D01*
X131436353Y-75888699D01*
X131436353Y-75888701D01*
X131481206Y-76016880D01*
X131481207Y-76016882D01*
X131561849Y-76126149D01*
X131561851Y-76126151D01*
X131644601Y-76187223D01*
X131686852Y-76242870D01*
X131692311Y-76312526D01*
X131659244Y-76374076D01*
X131609974Y-76404698D01*
X131564883Y-76419640D01*
X131564875Y-76419643D01*
X131415654Y-76511684D01*
X131291684Y-76635654D01*
X131199643Y-76784875D01*
X131199641Y-76784880D01*
X131144494Y-76951302D01*
X131144493Y-76951309D01*
X131134000Y-77054013D01*
X130440500Y-77054013D01*
X130440500Y-77049730D01*
X130437646Y-77019300D01*
X130437646Y-77019298D01*
X130400133Y-76912094D01*
X130392793Y-76891118D01*
X130312150Y-76781850D01*
X130202882Y-76701207D01*
X130202880Y-76701206D01*
X130074700Y-76656353D01*
X130044270Y-76653500D01*
X130044266Y-76653500D01*
X129035734Y-76653500D01*
X129035730Y-76653500D01*
X129005305Y-76656353D01*
X129005295Y-76656355D01*
X128931876Y-76682044D01*
X128922811Y-76684777D01*
X128908238Y-76690277D01*
X128908207Y-76690197D01*
X128905404Y-76691309D01*
X128877117Y-76701207D01*
X128767850Y-76781850D01*
X128767846Y-76781854D01*
X128729484Y-76833832D01*
X128705010Y-76858720D01*
X128618474Y-76924854D01*
X128606194Y-76933126D01*
X128509544Y-76990155D01*
X128494147Y-76997853D01*
X128405869Y-77034568D01*
X128387387Y-77040603D01*
X128320646Y-77056736D01*
X128320647Y-77056737D01*
X128320643Y-77056738D01*
X128296688Y-77062528D01*
X128267555Y-77066000D01*
X128028071Y-77066000D01*
X128005225Y-77062756D01*
X128005030Y-77063805D01*
X127999044Y-77062690D01*
X127999042Y-77062690D01*
X127951325Y-77053809D01*
X127903304Y-77044872D01*
X127884456Y-77039801D01*
X127800152Y-77009830D01*
X127784057Y-77002787D01*
X127691956Y-76954442D01*
X127678877Y-76946511D01*
X127590919Y-76885439D01*
X127561874Y-76857220D01*
X127543154Y-76831854D01*
X127543151Y-76831851D01*
X127543150Y-76831850D01*
X127447257Y-76761078D01*
X127433881Y-76751206D01*
X127433878Y-76751205D01*
X127415760Y-76744865D01*
X127408523Y-76742076D01*
X127404095Y-76740208D01*
X127404093Y-76740207D01*
X127397451Y-76737405D01*
X127386842Y-76734461D01*
X127379047Y-76732019D01*
X127369970Y-76728843D01*
X127313194Y-76688123D01*
X127287445Y-76623170D01*
X127300900Y-76554608D01*
X127349287Y-76504205D01*
X127371919Y-76494095D01*
X127540119Y-76438358D01*
X127540124Y-76438356D01*
X127689345Y-76346315D01*
X127813315Y-76222345D01*
X127905356Y-76073124D01*
X127905358Y-76073119D01*
X127960505Y-75906697D01*
X127960506Y-75906690D01*
X127970999Y-75803986D01*
X127971000Y-75803973D01*
X127971000Y-75754000D01*
X125521001Y-75754000D01*
X125521001Y-75803986D01*
X125531494Y-75906697D01*
X125586641Y-76073119D01*
X125586643Y-76073124D01*
X125678684Y-76222345D01*
X125802654Y-76346315D01*
X125951875Y-76438356D01*
X125951880Y-76438358D01*
X126119298Y-76493835D01*
X126176743Y-76533608D01*
X126203566Y-76598123D01*
X126191251Y-76666899D01*
X126143708Y-76718099D01*
X126117875Y-76728184D01*
X126118298Y-76729461D01*
X126111689Y-76731648D01*
X126111689Y-76731649D01*
X126103190Y-76734463D01*
X126103178Y-76734467D01*
X126101520Y-76735203D01*
X126094507Y-76738061D01*
X126090927Y-76739393D01*
X126086003Y-76741448D01*
X126058119Y-76751206D01*
X126058118Y-76751206D01*
X125948850Y-76831850D01*
X125930126Y-76857219D01*
X125901080Y-76885437D01*
X125813127Y-76946506D01*
X125800037Y-76954444D01*
X125772347Y-76968979D01*
X125703840Y-76982708D01*
X125647675Y-76963501D01*
X125643117Y-76960572D01*
X125600405Y-76933122D01*
X125559051Y-76906545D01*
X125420963Y-76866000D01*
X125420961Y-76866000D01*
X125277039Y-76866000D01*
X125277036Y-76866000D01*
X125138949Y-76906545D01*
X125060477Y-76956976D01*
X124993437Y-76976660D01*
X124930422Y-76959454D01*
X124926222Y-76956976D01*
X124916618Y-76951309D01*
X124885793Y-76933120D01*
X124873515Y-76924849D01*
X124851005Y-76907646D01*
X124786992Y-76858725D01*
X124762518Y-76833837D01*
X124761054Y-76831854D01*
X124724150Y-76781850D01*
X124641396Y-76720775D01*
X124599147Y-76665129D01*
X124593688Y-76595472D01*
X124626756Y-76533923D01*
X124676028Y-76503300D01*
X124721117Y-76488359D01*
X124721124Y-76488356D01*
X124870345Y-76396315D01*
X124994315Y-76272345D01*
X125086356Y-76123124D01*
X125086358Y-76123119D01*
X125141505Y-75956697D01*
X125141506Y-75956690D01*
X125151999Y-75853986D01*
X125152000Y-75853973D01*
X125152000Y-75791500D01*
X122752001Y-75791500D01*
X122358000Y-75791500D01*
X119958001Y-75791500D01*
X119958001Y-75853986D01*
X119968494Y-75956697D01*
X120023641Y-76123119D01*
X120023643Y-76123124D01*
X120115684Y-76272345D01*
X120239654Y-76396315D01*
X120388875Y-76488356D01*
X120388880Y-76488358D01*
X120433972Y-76503300D01*
X120491417Y-76543072D01*
X120518240Y-76607588D01*
X120505925Y-76676364D01*
X120468602Y-76720776D01*
X120385850Y-76781850D01*
X120385846Y-76781854D01*
X120347484Y-76833832D01*
X120323010Y-76858720D01*
X120236474Y-76924854D01*
X120224194Y-76933126D01*
X120127544Y-76990155D01*
X120112147Y-76997853D01*
X120023869Y-77034568D01*
X120005387Y-77040603D01*
X119938646Y-77056736D01*
X119938647Y-77056737D01*
X119938643Y-77056738D01*
X119914688Y-77062528D01*
X119885555Y-77066000D01*
X119646071Y-77066000D01*
X119623225Y-77062756D01*
X119623030Y-77063805D01*
X119617044Y-77062690D01*
X119617042Y-77062690D01*
X119569325Y-77053809D01*
X119521304Y-77044872D01*
X119502456Y-77039801D01*
X119418152Y-77009830D01*
X119402057Y-77002787D01*
X119309956Y-76954442D01*
X119296877Y-76946511D01*
X119208919Y-76885439D01*
X119179874Y-76857220D01*
X119161154Y-76831854D01*
X119161151Y-76831851D01*
X119161150Y-76831850D01*
X119065257Y-76761078D01*
X119051881Y-76751206D01*
X119051878Y-76751205D01*
X119033760Y-76744865D01*
X119026523Y-76742076D01*
X119022095Y-76740208D01*
X119022093Y-76740207D01*
X119015451Y-76737405D01*
X119004842Y-76734461D01*
X118997047Y-76732019D01*
X118987970Y-76728843D01*
X118931194Y-76688123D01*
X118905445Y-76623170D01*
X118918900Y-76554608D01*
X118967287Y-76504205D01*
X118989919Y-76494095D01*
X119158119Y-76438358D01*
X119158124Y-76438356D01*
X119307345Y-76346315D01*
X119431315Y-76222345D01*
X119523356Y-76073124D01*
X119523358Y-76073119D01*
X119578505Y-75906697D01*
X119578506Y-75906690D01*
X119588999Y-75803986D01*
X119589000Y-75803973D01*
X119589000Y-75754000D01*
X117139001Y-75754000D01*
X117139001Y-75803986D01*
X117149494Y-75906697D01*
X117204641Y-76073119D01*
X117204643Y-76073124D01*
X117296684Y-76222345D01*
X117420654Y-76346315D01*
X117569875Y-76438356D01*
X117569880Y-76438358D01*
X117738081Y-76494094D01*
X117795526Y-76533866D01*
X117822349Y-76598382D01*
X117810034Y-76667158D01*
X117762491Y-76718358D01*
X117740017Y-76728847D01*
X117734179Y-76730889D01*
X117723218Y-76734163D01*
X117722522Y-76734336D01*
X117708975Y-76739374D01*
X117704003Y-76741448D01*
X117676119Y-76751206D01*
X117676118Y-76751206D01*
X117566850Y-76831850D01*
X117566846Y-76831854D01*
X117531662Y-76879526D01*
X117506660Y-76904815D01*
X117432888Y-76960572D01*
X117367537Y-76985290D01*
X117299196Y-76970753D01*
X117297016Y-76969547D01*
X117292949Y-76967243D01*
X117187749Y-76912778D01*
X117177722Y-76906977D01*
X117177052Y-76906546D01*
X117038962Y-76866000D01*
X117038961Y-76866000D01*
X116895039Y-76866000D01*
X116895036Y-76866000D01*
X116756951Y-76906545D01*
X116754539Y-76907646D01*
X116746579Y-76912094D01*
X116652836Y-76957151D01*
X116583886Y-76968451D01*
X116536106Y-76952186D01*
X116503796Y-76933122D01*
X116491515Y-76924849D01*
X116469005Y-76907646D01*
X116404992Y-76858725D01*
X116380518Y-76833837D01*
X116379054Y-76831854D01*
X116342150Y-76781850D01*
X116232882Y-76701207D01*
X116205066Y-76691473D01*
X116197479Y-76688535D01*
X116196598Y-76688160D01*
X116195407Y-76687754D01*
X116187895Y-76685464D01*
X116104701Y-76656354D01*
X116104694Y-76656353D01*
X116074270Y-76653500D01*
X116074266Y-76653500D01*
X115065734Y-76653500D01*
X115065730Y-76653500D01*
X115035300Y-76656353D01*
X115035298Y-76656353D01*
X114907119Y-76701206D01*
X114907117Y-76701207D01*
X114797850Y-76781850D01*
X114717207Y-76891117D01*
X114717206Y-76891119D01*
X114687541Y-76975897D01*
X114646819Y-77032673D01*
X114581866Y-77058420D01*
X114513305Y-77044963D01*
X114462902Y-76996576D01*
X114446500Y-76934942D01*
X114446500Y-76200927D01*
X114466185Y-76133888D01*
X114518989Y-76088133D01*
X114588147Y-76078189D01*
X114648235Y-76104319D01*
X114658487Y-76112568D01*
X114679550Y-76134247D01*
X114727077Y-76196922D01*
X114847655Y-76288359D01*
X114847658Y-76288361D01*
X114847661Y-76288362D01*
X114883308Y-76302420D01*
X114888576Y-76304898D01*
X114888631Y-76304774D01*
X114901393Y-76310369D01*
X114903256Y-76311167D01*
X114906058Y-76312368D01*
X114906068Y-76312370D01*
X114911770Y-76314187D01*
X114911681Y-76314464D01*
X114920968Y-76317270D01*
X114988436Y-76343877D01*
X115076898Y-76354500D01*
X115076903Y-76354500D01*
X116063097Y-76354500D01*
X116063102Y-76354500D01*
X116151564Y-76343877D01*
X116292342Y-76288361D01*
X116412922Y-76196922D01*
X116504361Y-76076342D01*
X116559877Y-75935564D01*
X116570500Y-75847102D01*
X116570500Y-75235898D01*
X116566671Y-75204013D01*
X117139000Y-75204013D01*
X117139000Y-75254000D01*
X118114000Y-75254000D01*
X118614000Y-75254000D01*
X119588999Y-75254000D01*
X119588999Y-75229013D01*
X119958000Y-75229013D01*
X119958000Y-75291500D01*
X120908000Y-75291500D01*
X121408000Y-75291500D01*
X122357999Y-75291500D01*
X122357999Y-75229026D01*
X122357998Y-75229013D01*
X122752000Y-75229013D01*
X122752000Y-75291500D01*
X123702000Y-75291500D01*
X124202000Y-75291500D01*
X125151999Y-75291500D01*
X125151999Y-75229026D01*
X125151998Y-75229013D01*
X125149444Y-75204013D01*
X125521000Y-75204013D01*
X125521000Y-75254000D01*
X126496000Y-75254000D01*
X126996000Y-75254000D01*
X127970999Y-75254000D01*
X127970999Y-75235898D01*
X128539500Y-75235898D01*
X128539500Y-75847102D01*
X128544665Y-75890112D01*
X128550122Y-75935561D01*
X128550122Y-75935563D01*
X128550123Y-75935564D01*
X128557218Y-75953555D01*
X128605639Y-76076343D01*
X128697077Y-76196922D01*
X128817656Y-76288360D01*
X128817657Y-76288360D01*
X128817658Y-76288361D01*
X128958436Y-76343877D01*
X129046898Y-76354500D01*
X129046903Y-76354500D01*
X130033097Y-76354500D01*
X130033102Y-76354500D01*
X130121564Y-76343877D01*
X130262342Y-76288361D01*
X130382922Y-76196922D01*
X130474361Y-76076342D01*
X130529877Y-75935564D01*
X130540500Y-75847102D01*
X130540500Y-75235898D01*
X130529877Y-75147436D01*
X130474361Y-75006658D01*
X130474360Y-75006657D01*
X130474360Y-75006656D01*
X130382922Y-74886077D01*
X130262342Y-74794639D01*
X130243133Y-74787064D01*
X130220232Y-74778033D01*
X130189032Y-74760118D01*
X130181456Y-74754155D01*
X130169197Y-74743108D01*
X130122338Y-74694853D01*
X130113808Y-74685095D01*
X130102183Y-74670302D01*
X130075872Y-74636819D01*
X130056184Y-74611765D01*
X130050189Y-74603449D01*
X129985323Y-74505158D01*
X129981015Y-74498133D01*
X129980481Y-74497195D01*
X129964480Y-74429184D01*
X129981604Y-74372754D01*
X130023385Y-74302211D01*
X130029868Y-74290703D01*
X130030346Y-74289810D01*
X130036348Y-74277987D01*
X130087165Y-74172266D01*
X130090433Y-74165242D01*
X130090684Y-74164684D01*
X130096609Y-74150577D01*
X130098149Y-74142469D01*
X130105406Y-74118168D01*
X130125044Y-74070762D01*
X130145682Y-73914000D01*
X130143131Y-73894626D01*
X130125044Y-73757239D01*
X130125044Y-73757238D01*
X130064536Y-73611159D01*
X129968282Y-73485718D01*
X129842841Y-73389464D01*
X129813187Y-73377181D01*
X129696762Y-73328956D01*
X129696760Y-73328955D01*
X129540001Y-73308318D01*
X129539999Y-73308318D01*
X129383239Y-73328955D01*
X129383237Y-73328956D01*
X129237160Y-73389463D01*
X129111718Y-73485718D01*
X129015463Y-73611160D01*
X128954956Y-73757237D01*
X128954955Y-73757239D01*
X128934318Y-73913998D01*
X128934318Y-73914001D01*
X128954955Y-74070760D01*
X128954956Y-74070761D01*
X128981994Y-74136039D01*
X128987159Y-74151217D01*
X128991683Y-74168000D01*
X128992832Y-74172263D01*
X129043656Y-74278001D01*
X129043679Y-74278048D01*
X129049645Y-74289801D01*
X129049666Y-74289840D01*
X129050128Y-74290703D01*
X129053144Y-74296056D01*
X129056604Y-74302196D01*
X129098393Y-74372754D01*
X129115618Y-74440467D01*
X129099467Y-74497281D01*
X129098961Y-74498170D01*
X129094692Y-74505128D01*
X129064576Y-74550766D01*
X129064574Y-74550770D01*
X129029804Y-74603457D01*
X129023807Y-74611774D01*
X128966188Y-74685097D01*
X128957649Y-74694865D01*
X128910808Y-74743102D01*
X128898536Y-74754160D01*
X128890959Y-74760123D01*
X128859763Y-74778034D01*
X128817658Y-74794638D01*
X128697077Y-74886077D01*
X128605639Y-75006656D01*
X128550122Y-75147438D01*
X128544496Y-75194298D01*
X128539500Y-75235898D01*
X127970999Y-75235898D01*
X127970999Y-75204028D01*
X127970998Y-75204013D01*
X127960505Y-75101302D01*
X127905358Y-74934880D01*
X127905356Y-74934875D01*
X127813315Y-74785654D01*
X127689345Y-74661684D01*
X127540124Y-74569643D01*
X127540119Y-74569641D01*
X127373697Y-74514494D01*
X127373690Y-74514493D01*
X127270986Y-74504000D01*
X126996000Y-74504000D01*
X126996000Y-75254000D01*
X126496000Y-75254000D01*
X126496000Y-74504000D01*
X126221029Y-74504000D01*
X126221012Y-74504001D01*
X126118302Y-74514494D01*
X125951880Y-74569641D01*
X125951875Y-74569643D01*
X125802654Y-74661684D01*
X125678684Y-74785654D01*
X125586643Y-74934875D01*
X125586641Y-74934880D01*
X125531494Y-75101302D01*
X125531493Y-75101309D01*
X125521000Y-75204013D01*
X125149444Y-75204013D01*
X125141505Y-75126302D01*
X125086358Y-74959880D01*
X125086356Y-74959875D01*
X124994315Y-74810654D01*
X124870345Y-74686684D01*
X124721124Y-74594643D01*
X124721119Y-74594641D01*
X124554697Y-74539494D01*
X124554690Y-74539493D01*
X124451986Y-74529000D01*
X124202000Y-74529000D01*
X124202000Y-75291500D01*
X123702000Y-75291500D01*
X123702000Y-74529000D01*
X123452029Y-74529000D01*
X123452012Y-74529001D01*
X123349302Y-74539494D01*
X123182880Y-74594641D01*
X123182875Y-74594643D01*
X123033654Y-74686684D01*
X122909684Y-74810654D01*
X122817643Y-74959875D01*
X122817641Y-74959880D01*
X122762494Y-75126302D01*
X122762493Y-75126309D01*
X122752000Y-75229013D01*
X122357998Y-75229013D01*
X122347505Y-75126302D01*
X122292358Y-74959880D01*
X122292356Y-74959875D01*
X122200315Y-74810654D01*
X122076345Y-74686684D01*
X121927124Y-74594643D01*
X121927119Y-74594641D01*
X121760697Y-74539494D01*
X121760690Y-74539493D01*
X121657986Y-74529000D01*
X121408000Y-74529000D01*
X121408000Y-75291500D01*
X120908000Y-75291500D01*
X120908000Y-74529000D01*
X120658029Y-74529000D01*
X120658012Y-74529001D01*
X120555302Y-74539494D01*
X120388880Y-74594641D01*
X120388875Y-74594643D01*
X120239654Y-74686684D01*
X120115684Y-74810654D01*
X120023643Y-74959875D01*
X120023641Y-74959880D01*
X119968494Y-75126302D01*
X119968493Y-75126309D01*
X119958000Y-75229013D01*
X119588999Y-75229013D01*
X119588999Y-75204028D01*
X119588998Y-75204013D01*
X119578505Y-75101302D01*
X119523358Y-74934880D01*
X119523356Y-74934875D01*
X119431315Y-74785654D01*
X119307345Y-74661684D01*
X119158124Y-74569643D01*
X119158119Y-74569641D01*
X118991697Y-74514494D01*
X118991690Y-74514493D01*
X118888986Y-74504000D01*
X118614000Y-74504000D01*
X118614000Y-75254000D01*
X118114000Y-75254000D01*
X118114000Y-74504000D01*
X117839029Y-74504000D01*
X117839012Y-74504001D01*
X117736302Y-74514494D01*
X117569880Y-74569641D01*
X117569875Y-74569643D01*
X117420654Y-74661684D01*
X117296684Y-74785654D01*
X117204643Y-74934875D01*
X117204641Y-74934880D01*
X117149494Y-75101302D01*
X117149493Y-75101309D01*
X117139000Y-75204013D01*
X116566671Y-75204013D01*
X116559877Y-75147436D01*
X116504361Y-75006658D01*
X116504360Y-75006657D01*
X116504360Y-75006656D01*
X116412922Y-74886077D01*
X116292343Y-74794639D01*
X116176719Y-74749043D01*
X116151564Y-74739123D01*
X116151563Y-74739122D01*
X116151561Y-74739122D01*
X116105055Y-74733538D01*
X116063102Y-74728500D01*
X115076898Y-74728500D01*
X115037853Y-74733188D01*
X114988438Y-74739122D01*
X114847658Y-74794638D01*
X114757835Y-74862754D01*
X114727080Y-74886077D01*
X114727077Y-74886079D01*
X114721082Y-74892074D01*
X114721018Y-74892010D01*
X114718273Y-74894956D01*
X114718525Y-74895195D01*
X114609667Y-75010020D01*
X114601204Y-75018141D01*
X114509033Y-75098565D01*
X114497953Y-75107179D01*
X114480761Y-75119047D01*
X114414407Y-75140932D01*
X114410316Y-75141000D01*
X114397773Y-75141000D01*
X114295913Y-75168293D01*
X114295910Y-75168294D01*
X114217934Y-75213313D01*
X114217934Y-75213314D01*
X114213968Y-75215604D01*
X114204587Y-75221020D01*
X114204584Y-75221022D01*
X113725522Y-75700084D01*
X113725518Y-75700090D01*
X113672792Y-75791413D01*
X113672791Y-75791415D01*
X113664360Y-75822884D01*
X113664360Y-75822886D01*
X113645500Y-75893273D01*
X113645500Y-77506745D01*
X113625815Y-77573784D01*
X113609181Y-77594426D01*
X113440426Y-77763181D01*
X113379103Y-77796666D01*
X113352745Y-77799500D01*
X113084500Y-77799500D01*
X113017461Y-77779815D01*
X112971706Y-77727011D01*
X112960500Y-77675500D01*
X112960500Y-77156903D01*
X112960500Y-77156898D01*
X112949877Y-77068436D01*
X112894361Y-76927658D01*
X112894360Y-76927657D01*
X112894360Y-76927656D01*
X112802922Y-76807077D01*
X112682343Y-76715639D01*
X112559403Y-76667158D01*
X112541564Y-76660123D01*
X112541563Y-76660122D01*
X112541561Y-76660122D01*
X112495926Y-76654642D01*
X112453102Y-76649500D01*
X111066898Y-76649500D01*
X111027853Y-76654188D01*
X110978438Y-76660122D01*
X110837656Y-76715639D01*
X110717077Y-76807077D01*
X110625638Y-76927658D01*
X110625637Y-76927660D01*
X110569115Y-77070990D01*
X110526209Y-77126134D01*
X110460302Y-77149327D01*
X110453761Y-77149500D01*
X110123600Y-77149500D01*
X110123580Y-77149499D01*
X110117466Y-77149499D01*
X109910535Y-77149499D01*
X109910533Y-77149499D01*
X109795683Y-77172345D01*
X109747201Y-77181989D01*
X109717416Y-77187913D01*
X109707579Y-77189870D01*
X109707575Y-77189871D01*
X109670395Y-77205271D01*
X109670396Y-77205272D01*
X109516398Y-77269059D01*
X109344345Y-77384022D01*
X109344341Y-77384025D01*
X108821188Y-77907181D01*
X108759865Y-77940666D01*
X108733507Y-77943500D01*
X87608493Y-77943500D01*
X87541454Y-77923815D01*
X87520812Y-77907181D01*
X86367617Y-76753986D01*
X103931001Y-76753986D01*
X103941494Y-76856697D01*
X103996641Y-77023119D01*
X103996643Y-77023124D01*
X104088684Y-77172345D01*
X104212654Y-77296315D01*
X104361875Y-77388356D01*
X104361880Y-77388358D01*
X104528302Y-77443505D01*
X104528309Y-77443506D01*
X104631019Y-77453999D01*
X104905999Y-77453999D01*
X105406000Y-77453999D01*
X105680972Y-77453999D01*
X105680986Y-77453998D01*
X105783697Y-77443505D01*
X105950119Y-77388358D01*
X105950124Y-77388356D01*
X106099345Y-77296315D01*
X106223315Y-77172345D01*
X106315356Y-77023124D01*
X106315358Y-77023119D01*
X106370505Y-76856697D01*
X106370506Y-76856690D01*
X106380999Y-76753986D01*
X106725001Y-76753986D01*
X106735494Y-76856697D01*
X106790641Y-77023119D01*
X106790643Y-77023124D01*
X106882684Y-77172345D01*
X107006654Y-77296315D01*
X107155875Y-77388356D01*
X107155880Y-77388358D01*
X107322302Y-77443505D01*
X107322309Y-77443506D01*
X107425019Y-77453999D01*
X107699999Y-77453999D01*
X108200000Y-77453999D01*
X108474972Y-77453999D01*
X108474986Y-77453998D01*
X108577697Y-77443505D01*
X108744119Y-77388358D01*
X108744124Y-77388356D01*
X108893345Y-77296315D01*
X109017315Y-77172345D01*
X109109356Y-77023124D01*
X109109358Y-77023119D01*
X109164505Y-76856697D01*
X109164506Y-76856690D01*
X109174999Y-76753986D01*
X109175000Y-76753973D01*
X109175000Y-76704000D01*
X108200000Y-76704000D01*
X108200000Y-77453999D01*
X107699999Y-77453999D01*
X107700000Y-77453998D01*
X107700000Y-76704000D01*
X106725001Y-76704000D01*
X106725001Y-76753986D01*
X106380999Y-76753986D01*
X106381000Y-76753973D01*
X106381000Y-76704000D01*
X105406000Y-76704000D01*
X105406000Y-77453999D01*
X104905999Y-77453999D01*
X104906000Y-77453998D01*
X104906000Y-76704000D01*
X103931001Y-76704000D01*
X103931001Y-76753986D01*
X86367617Y-76753986D01*
X85559631Y-75946000D01*
X100332353Y-75946000D01*
X100352834Y-76088456D01*
X100392804Y-76175977D01*
X100412623Y-76219373D01*
X100506872Y-76328143D01*
X100627947Y-76405953D01*
X100627950Y-76405954D01*
X100627949Y-76405954D01*
X100766036Y-76446499D01*
X100766038Y-76446500D01*
X100766039Y-76446500D01*
X100909962Y-76446500D01*
X100909962Y-76446499D01*
X101048053Y-76405953D01*
X101169128Y-76328143D01*
X101263377Y-76219373D01*
X101323165Y-76088457D01*
X101327573Y-76057795D01*
X101356594Y-75994244D01*
X101362615Y-75987776D01*
X102359574Y-74990819D01*
X102420897Y-74957334D01*
X102447255Y-74954500D01*
X104170520Y-74954500D01*
X104237559Y-74974185D01*
X104271031Y-75010628D01*
X104272689Y-75009405D01*
X104278206Y-75016881D01*
X104278207Y-75016882D01*
X104358850Y-75126150D01*
X104468118Y-75206793D01*
X104532033Y-75229158D01*
X104588807Y-75269878D01*
X104614555Y-75334830D01*
X104601099Y-75403392D01*
X104552712Y-75453795D01*
X104530082Y-75463904D01*
X104361878Y-75519642D01*
X104361875Y-75519643D01*
X104212654Y-75611684D01*
X104088684Y-75735654D01*
X103996643Y-75884875D01*
X103996641Y-75884880D01*
X103941494Y-76051302D01*
X103941493Y-76051309D01*
X103931000Y-76154013D01*
X103931000Y-76204000D01*
X106380999Y-76204000D01*
X106380999Y-76154028D01*
X106380998Y-76154013D01*
X106370505Y-76051302D01*
X106315358Y-75884880D01*
X106315356Y-75884875D01*
X106223315Y-75735654D01*
X106099345Y-75611684D01*
X105950124Y-75519643D01*
X105950119Y-75519641D01*
X105781917Y-75463905D01*
X105724472Y-75424133D01*
X105697649Y-75359617D01*
X105709964Y-75290841D01*
X105757507Y-75239641D01*
X105779966Y-75229158D01*
X105780343Y-75229026D01*
X105843882Y-75206793D01*
X105953150Y-75126150D01*
X106033793Y-75016882D01*
X106033793Y-75016881D01*
X106039311Y-75009405D01*
X106041285Y-75010862D01*
X106080580Y-74970485D01*
X106141480Y-74954500D01*
X106964520Y-74954500D01*
X107031559Y-74974185D01*
X107065031Y-75010628D01*
X107066689Y-75009405D01*
X107072206Y-75016881D01*
X107072207Y-75016882D01*
X107152850Y-75126150D01*
X107262118Y-75206793D01*
X107326033Y-75229158D01*
X107382807Y-75269878D01*
X107408555Y-75334830D01*
X107395099Y-75403392D01*
X107346712Y-75453795D01*
X107324082Y-75463904D01*
X107155878Y-75519642D01*
X107155875Y-75519643D01*
X107006654Y-75611684D01*
X106882684Y-75735654D01*
X106790643Y-75884875D01*
X106790641Y-75884880D01*
X106735494Y-76051302D01*
X106735493Y-76051309D01*
X106725000Y-76154013D01*
X106725000Y-76204000D01*
X109174999Y-76204000D01*
X109174999Y-76154028D01*
X109174998Y-76154013D01*
X109164505Y-76051302D01*
X109109358Y-75884880D01*
X109109356Y-75884875D01*
X109017315Y-75735654D01*
X108893345Y-75611684D01*
X108744124Y-75519643D01*
X108744119Y-75519641D01*
X108575917Y-75463905D01*
X108518472Y-75424133D01*
X108491649Y-75359617D01*
X108503964Y-75290841D01*
X108551507Y-75239641D01*
X108573966Y-75229158D01*
X108574343Y-75229026D01*
X108637882Y-75206793D01*
X108747150Y-75126150D01*
X108827793Y-75016882D01*
X108827793Y-75016881D01*
X108833311Y-75009405D01*
X108835285Y-75010862D01*
X108874580Y-74970485D01*
X108935480Y-74954500D01*
X109902725Y-74954500D01*
X109902727Y-74954500D01*
X110004588Y-74927207D01*
X110095913Y-74874480D01*
X110333574Y-74636817D01*
X110394895Y-74603334D01*
X110421254Y-74600500D01*
X110535500Y-74600500D01*
X110602539Y-74620185D01*
X110648294Y-74672989D01*
X110659500Y-74724500D01*
X110659500Y-75254269D01*
X110662353Y-75284699D01*
X110662353Y-75284701D01*
X110703886Y-75403392D01*
X110707207Y-75412882D01*
X110787850Y-75522150D01*
X110897118Y-75602793D01*
X110939845Y-75617744D01*
X111025299Y-75647646D01*
X111055730Y-75650500D01*
X111055734Y-75650500D01*
X112464270Y-75650500D01*
X112494699Y-75647646D01*
X112494701Y-75647646D01*
X112558790Y-75625219D01*
X112622882Y-75602793D01*
X112732150Y-75522150D01*
X112812793Y-75412882D01*
X112835219Y-75348790D01*
X112857646Y-75284701D01*
X112857646Y-75284699D01*
X112860500Y-75254269D01*
X112860500Y-73145730D01*
X112857646Y-73115300D01*
X112857646Y-73115298D01*
X112812793Y-72987119D01*
X112812792Y-72987117D01*
X112804711Y-72976167D01*
X112732150Y-72877850D01*
X112622882Y-72797207D01*
X112622880Y-72797206D01*
X112494700Y-72752353D01*
X112464270Y-72749500D01*
X112464266Y-72749500D01*
X111055734Y-72749500D01*
X111055730Y-72749500D01*
X111025300Y-72752353D01*
X111025298Y-72752353D01*
X110897119Y-72797206D01*
X110897117Y-72797207D01*
X110787850Y-72877850D01*
X110707207Y-72987117D01*
X110707206Y-72987119D01*
X110662353Y-73115298D01*
X110662353Y-73115300D01*
X110659500Y-73145730D01*
X110659500Y-73675500D01*
X110639815Y-73742539D01*
X110587011Y-73788294D01*
X110535500Y-73799500D01*
X110264339Y-73799500D01*
X110264323Y-73799499D01*
X110256727Y-73799499D01*
X110151273Y-73799499D01*
X110083366Y-73817695D01*
X110049412Y-73826793D01*
X110020536Y-73843465D01*
X109958087Y-73879520D01*
X109890589Y-73947018D01*
X109890588Y-73947017D01*
X109890586Y-73947020D01*
X109883518Y-73954087D01*
X109883518Y-73954088D01*
X109785596Y-74052011D01*
X109720426Y-74117181D01*
X109659103Y-74150666D01*
X109632745Y-74153500D01*
X108935480Y-74153500D01*
X108868441Y-74133815D01*
X108834968Y-74097371D01*
X108833311Y-74098595D01*
X108827793Y-74091118D01*
X108747150Y-73981850D01*
X108637882Y-73901207D01*
X108637880Y-73901206D01*
X108509700Y-73856353D01*
X108479270Y-73853500D01*
X108479266Y-73853500D01*
X107420734Y-73853500D01*
X107420730Y-73853500D01*
X107390300Y-73856353D01*
X107390298Y-73856353D01*
X107262119Y-73901206D01*
X107262117Y-73901207D01*
X107190466Y-73954088D01*
X107152850Y-73981850D01*
X107087231Y-74070762D01*
X107066689Y-74098595D01*
X107064714Y-74097137D01*
X107025420Y-74137515D01*
X106964520Y-74153500D01*
X106141480Y-74153500D01*
X106074441Y-74133815D01*
X106040968Y-74097371D01*
X106039311Y-74098595D01*
X106033793Y-74091118D01*
X105953150Y-73981850D01*
X105843882Y-73901207D01*
X105843880Y-73901206D01*
X105715700Y-73856353D01*
X105685270Y-73853500D01*
X105685266Y-73853500D01*
X104626734Y-73853500D01*
X104626730Y-73853500D01*
X104596300Y-73856353D01*
X104596298Y-73856353D01*
X104468119Y-73901206D01*
X104468117Y-73901207D01*
X104396466Y-73954088D01*
X104358850Y-73981850D01*
X104293231Y-74070762D01*
X104272689Y-74098595D01*
X104270714Y-74097137D01*
X104231420Y-74137515D01*
X104170520Y-74153500D01*
X102177273Y-74153500D01*
X102075410Y-74180793D01*
X101984087Y-74233520D01*
X101984084Y-74233522D01*
X100797009Y-75420597D01*
X100744263Y-75451893D01*
X100627949Y-75486045D01*
X100506873Y-75563856D01*
X100412623Y-75672626D01*
X100412622Y-75672628D01*
X100352834Y-75803543D01*
X100332353Y-75946000D01*
X85559631Y-75946000D01*
X85402317Y-75788686D01*
X85402297Y-75788664D01*
X85251657Y-75638024D01*
X85140655Y-75563856D01*
X85079598Y-75523059D01*
X85077403Y-75522150D01*
X84888420Y-75443870D01*
X84888412Y-75443868D01*
X84685469Y-75403500D01*
X84685465Y-75403500D01*
X68213119Y-75403500D01*
X68146080Y-75383815D01*
X68100325Y-75331011D01*
X68094043Y-75314095D01*
X68081556Y-75271117D01*
X68081555Y-75271114D01*
X68081555Y-75271113D01*
X68021485Y-75169541D01*
X68002717Y-75137805D01*
X68002710Y-75137796D01*
X67893203Y-75028289D01*
X67893194Y-75028282D01*
X67801720Y-74974185D01*
X67759887Y-74949445D01*
X67611156Y-74906235D01*
X67611153Y-74906234D01*
X67611151Y-74906234D01*
X67583563Y-74904063D01*
X67576405Y-74903500D01*
X67576403Y-74903500D01*
X65577606Y-74903500D01*
X65577584Y-74903501D01*
X65542847Y-74906234D01*
X65542844Y-74906235D01*
X65394113Y-74949445D01*
X65394111Y-74949445D01*
X65394111Y-74949446D01*
X65260805Y-75028282D01*
X65260796Y-75028289D01*
X65151289Y-75137796D01*
X65151282Y-75137805D01*
X65082270Y-75254500D01*
X65072445Y-75271113D01*
X65039702Y-75383815D01*
X65029234Y-75419847D01*
X65029234Y-75419849D01*
X65026500Y-75454589D01*
X65026500Y-77453393D01*
X65026501Y-77453415D01*
X65029234Y-77488152D01*
X65029234Y-77488155D01*
X65029235Y-77488156D01*
X65072445Y-77636887D01*
X65099875Y-77683269D01*
X65151282Y-77770194D01*
X65151289Y-77770203D01*
X65260796Y-77879710D01*
X65260805Y-77879717D01*
X65293682Y-77899160D01*
X65394113Y-77958555D01*
X65437094Y-77971041D01*
X65495980Y-78008647D01*
X65525187Y-78072119D01*
X65526500Y-78090118D01*
X65526500Y-80764506D01*
X65506815Y-80831545D01*
X65490181Y-80852187D01*
X58529188Y-87813181D01*
X58467865Y-87846666D01*
X58441507Y-87849500D01*
X55106377Y-87849500D01*
X55061583Y-87841127D01*
X54950754Y-87798192D01*
X54926198Y-87788679D01*
X54716610Y-87749500D01*
X54503390Y-87749500D01*
X54293802Y-87788679D01*
X54293799Y-87788679D01*
X54293799Y-87788680D01*
X54094982Y-87865701D01*
X54094980Y-87865702D01*
X53913699Y-87977947D01*
X53756127Y-88121593D01*
X53627632Y-88291746D01*
X53532596Y-88482605D01*
X53532596Y-88482607D01*
X53474244Y-88687689D01*
X53458196Y-88860884D01*
X53454571Y-88900000D01*
X53474244Y-89112310D01*
X53507614Y-89229593D01*
X53532596Y-89317392D01*
X53532596Y-89317394D01*
X53627632Y-89508253D01*
X53736939Y-89652997D01*
X53756128Y-89678407D01*
X53913698Y-89822052D01*
X54094981Y-89934298D01*
X54123961Y-89945525D01*
X54179362Y-89988095D01*
X54202954Y-90053861D01*
X54187244Y-90121942D01*
X54137222Y-90170722D01*
X54131573Y-90173533D01*
X53932422Y-90266399D01*
X53932420Y-90266400D01*
X53738926Y-90401886D01*
X53738920Y-90401891D01*
X53571891Y-90568920D01*
X53571886Y-90568926D01*
X53436400Y-90762420D01*
X53436399Y-90762422D01*
X53336570Y-90976507D01*
X53336567Y-90976513D01*
X53279364Y-91189999D01*
X52070000Y-91189999D01*
X52070000Y-86360000D01*
X53554417Y-86360000D01*
X53574699Y-86565932D01*
X53585766Y-86602415D01*
X53634768Y-86763954D01*
X53732315Y-86946450D01*
X53732317Y-86946452D01*
X53863589Y-87106410D01*
X53960209Y-87185702D01*
X54023550Y-87237685D01*
X54206046Y-87335232D01*
X54404066Y-87395300D01*
X54404065Y-87395300D01*
X54422529Y-87397118D01*
X54610000Y-87415583D01*
X54815934Y-87395300D01*
X55013954Y-87335232D01*
X55196450Y-87237685D01*
X55356410Y-87106410D01*
X55487685Y-86946450D01*
X55585232Y-86763954D01*
X55645300Y-86565934D01*
X55665583Y-86360000D01*
X55645300Y-86154066D01*
X55585232Y-85956046D01*
X55487685Y-85773550D01*
X55435702Y-85710209D01*
X55356410Y-85613589D01*
X55238677Y-85516969D01*
X55196450Y-85482315D01*
X55013954Y-85384768D01*
X54815934Y-85324700D01*
X54815932Y-85324699D01*
X54815934Y-85324699D01*
X54610000Y-85304417D01*
X54404067Y-85324699D01*
X54206043Y-85384769D01*
X54095898Y-85443643D01*
X54023550Y-85482315D01*
X54023548Y-85482316D01*
X54023547Y-85482317D01*
X53863589Y-85613589D01*
X53732317Y-85773547D01*
X53634769Y-85956043D01*
X53574699Y-86154067D01*
X53554417Y-86360000D01*
X52070000Y-86360000D01*
X52070000Y-83820000D01*
X53554417Y-83820000D01*
X53574699Y-84025932D01*
X53602704Y-84118252D01*
X53634768Y-84223954D01*
X53732315Y-84406450D01*
X53732317Y-84406452D01*
X53863589Y-84566410D01*
X53908219Y-84603036D01*
X54023550Y-84697685D01*
X54206046Y-84795232D01*
X54404066Y-84855300D01*
X54404065Y-84855300D01*
X54422529Y-84857118D01*
X54610000Y-84875583D01*
X54815934Y-84855300D01*
X55013954Y-84795232D01*
X55196450Y-84697685D01*
X55356410Y-84566410D01*
X55487685Y-84406450D01*
X55585232Y-84223954D01*
X55645300Y-84025934D01*
X55665583Y-83820000D01*
X55645300Y-83614066D01*
X55585232Y-83416046D01*
X55487685Y-83233550D01*
X55416139Y-83146370D01*
X55356410Y-83073589D01*
X55209220Y-82952795D01*
X55196450Y-82942315D01*
X55013954Y-82844768D01*
X54815934Y-82784700D01*
X54815932Y-82784699D01*
X54815934Y-82784699D01*
X54610000Y-82764417D01*
X54404067Y-82784699D01*
X54228692Y-82837898D01*
X54216711Y-82841533D01*
X54206043Y-82844769D01*
X54123186Y-82889058D01*
X54023550Y-82942315D01*
X54023548Y-82942316D01*
X54023547Y-82942317D01*
X53863589Y-83073589D01*
X53732317Y-83233547D01*
X53634769Y-83416043D01*
X53574699Y-83614067D01*
X53554417Y-83820000D01*
X52070000Y-83820000D01*
X52070000Y-80410247D01*
X53559500Y-80410247D01*
X53559500Y-82149752D01*
X53571131Y-82208229D01*
X53571132Y-82208230D01*
X53615447Y-82274552D01*
X53681769Y-82318867D01*
X53681770Y-82318868D01*
X53740247Y-82330499D01*
X53740250Y-82330500D01*
X53740252Y-82330500D01*
X55479750Y-82330500D01*
X55479751Y-82330499D01*
X55494568Y-82327552D01*
X55538229Y-82318868D01*
X55538229Y-82318867D01*
X55538231Y-82318867D01*
X55604552Y-82274552D01*
X55648867Y-82208231D01*
X55648867Y-82208229D01*
X55648868Y-82208229D01*
X55660499Y-82149752D01*
X55660500Y-82149750D01*
X55660500Y-80410249D01*
X55660499Y-80410247D01*
X55648868Y-80351770D01*
X55648867Y-80351769D01*
X55604552Y-80285447D01*
X55538230Y-80241132D01*
X55538229Y-80241131D01*
X55479752Y-80229500D01*
X55479748Y-80229500D01*
X53740252Y-80229500D01*
X53740247Y-80229500D01*
X53681770Y-80241131D01*
X53681769Y-80241132D01*
X53615447Y-80285447D01*
X53571132Y-80351769D01*
X53571131Y-80351770D01*
X53559500Y-80410247D01*
X52070000Y-80410247D01*
X52070000Y-76339258D01*
X52826500Y-76339258D01*
X52826500Y-76568741D01*
X52848968Y-76739393D01*
X52856452Y-76796238D01*
X52903213Y-76970753D01*
X52915842Y-77017887D01*
X53003650Y-77229876D01*
X53003657Y-77229890D01*
X53118392Y-77428617D01*
X53258081Y-77610661D01*
X53258089Y-77610670D01*
X53420330Y-77772911D01*
X53420338Y-77772918D01*
X53420339Y-77772919D01*
X53454586Y-77799198D01*
X53602382Y-77912607D01*
X53602385Y-77912608D01*
X53602388Y-77912611D01*
X53801112Y-78027344D01*
X53801117Y-78027346D01*
X53801123Y-78027349D01*
X53872208Y-78056793D01*
X54013113Y-78115158D01*
X54234762Y-78174548D01*
X54462266Y-78204500D01*
X54462273Y-78204500D01*
X54691727Y-78204500D01*
X54691734Y-78204500D01*
X54919238Y-78174548D01*
X55140887Y-78115158D01*
X55352888Y-78027344D01*
X55551612Y-77912611D01*
X55733661Y-77772919D01*
X55733665Y-77772914D01*
X55733670Y-77772911D01*
X55895911Y-77610670D01*
X55895914Y-77610665D01*
X55895919Y-77610661D01*
X56035611Y-77428612D01*
X56150344Y-77229888D01*
X56238158Y-77017887D01*
X56297548Y-76796238D01*
X56327500Y-76568734D01*
X56327500Y-76339266D01*
X56297548Y-76111762D01*
X56238158Y-75890113D01*
X56159448Y-75700090D01*
X56150349Y-75678123D01*
X56150346Y-75678117D01*
X56150344Y-75678112D01*
X56035611Y-75479388D01*
X56035608Y-75479385D01*
X56035607Y-75479382D01*
X55895918Y-75297338D01*
X55895911Y-75297330D01*
X55733670Y-75135089D01*
X55733661Y-75135081D01*
X55551617Y-74995392D01*
X55543696Y-74990819D01*
X55378498Y-74895442D01*
X55352890Y-74880657D01*
X55352876Y-74880650D01*
X55140887Y-74792842D01*
X55119323Y-74787064D01*
X54919238Y-74733452D01*
X54881215Y-74728446D01*
X54691741Y-74703500D01*
X54691734Y-74703500D01*
X54462266Y-74703500D01*
X54462258Y-74703500D01*
X54245715Y-74732009D01*
X54234762Y-74733452D01*
X54141076Y-74758554D01*
X54013112Y-74792842D01*
X53801123Y-74880650D01*
X53801109Y-74880657D01*
X53602382Y-74995392D01*
X53420338Y-75135081D01*
X53258081Y-75297338D01*
X53118392Y-75479382D01*
X53003657Y-75678109D01*
X53003650Y-75678123D01*
X52915842Y-75890112D01*
X52890915Y-75983142D01*
X52862697Y-76088457D01*
X52856453Y-76111759D01*
X52856451Y-76111770D01*
X52826500Y-76339258D01*
X52070000Y-76339258D01*
X52070000Y-73914000D01*
X100332353Y-73914000D01*
X100352834Y-74056456D01*
X100405719Y-74172256D01*
X100412623Y-74187373D01*
X100506872Y-74296143D01*
X100627947Y-74373953D01*
X100627950Y-74373954D01*
X100627949Y-74373954D01*
X100766036Y-74414499D01*
X100766038Y-74414500D01*
X100766039Y-74414500D01*
X100909962Y-74414500D01*
X100909962Y-74414499D01*
X101048053Y-74373953D01*
X101169128Y-74296143D01*
X101263377Y-74187373D01*
X101323165Y-74056457D01*
X101343647Y-73914000D01*
X101342339Y-73904905D01*
X101352279Y-73835749D01*
X101377392Y-73799577D01*
X104370152Y-70806819D01*
X104431475Y-70773334D01*
X104457833Y-70770500D01*
X118554500Y-70770500D01*
X118621539Y-70790185D01*
X118667294Y-70842989D01*
X118678500Y-70894500D01*
X118678500Y-70970004D01*
X118683651Y-71015728D01*
X118705144Y-71060356D01*
X118716496Y-71129297D01*
X118700943Y-71166339D01*
X118704913Y-71168251D01*
X118698850Y-71180839D01*
X118678500Y-71269995D01*
X118678500Y-71841890D01*
X118686822Y-71899777D01*
X118686824Y-71899785D01*
X118727331Y-72037740D01*
X118736508Y-72057833D01*
X118751629Y-72090944D01*
X118751631Y-72090950D01*
X118822440Y-72201130D01*
X118829361Y-72211899D01*
X118867666Y-72256105D01*
X118891389Y-72276661D01*
X118976315Y-72350250D01*
X118976322Y-72350255D01*
X118976327Y-72350259D01*
X119012141Y-72373275D01*
X119025527Y-72381878D01*
X119025543Y-72381887D01*
X119156078Y-72441500D01*
X119156317Y-72441609D01*
X119212439Y-72458088D01*
X119227143Y-72460202D01*
X119290698Y-72489223D01*
X119328475Y-72547999D01*
X119333500Y-72582940D01*
X119333500Y-72688260D01*
X119313815Y-72755299D01*
X119303213Y-72769462D01*
X119208625Y-72878622D01*
X119208622Y-72878628D01*
X119148834Y-73009543D01*
X119128353Y-73152000D01*
X119148834Y-73294456D01*
X119176569Y-73355186D01*
X119208623Y-73425373D01*
X119302872Y-73534143D01*
X119423947Y-73611953D01*
X119423950Y-73611954D01*
X119423949Y-73611954D01*
X119562036Y-73652499D01*
X119562038Y-73652500D01*
X119562039Y-73652500D01*
X119705962Y-73652500D01*
X119705962Y-73652499D01*
X119844053Y-73611953D01*
X119965128Y-73534143D01*
X120059377Y-73425373D01*
X120119165Y-73294457D01*
X120139647Y-73152000D01*
X120119165Y-73009543D01*
X120059377Y-72878627D01*
X120059375Y-72878625D01*
X120059374Y-72878622D01*
X119964787Y-72769462D01*
X119935762Y-72705906D01*
X119934500Y-72688260D01*
X119934500Y-72582940D01*
X119954185Y-72515901D01*
X120006989Y-72470146D01*
X120040853Y-72460202D01*
X120055561Y-72458088D01*
X120111683Y-72441609D01*
X120155278Y-72421699D01*
X120242456Y-72381887D01*
X120242460Y-72381884D01*
X120242468Y-72381881D01*
X120291673Y-72350259D01*
X120291681Y-72350252D01*
X120291684Y-72350250D01*
X120337133Y-72310868D01*
X120400334Y-72256105D01*
X120438639Y-72211899D01*
X120514011Y-72094617D01*
X120516368Y-72090950D01*
X120516368Y-72090949D01*
X120516371Y-72090945D01*
X120540669Y-72037740D01*
X120581176Y-71899785D01*
X120589500Y-71841889D01*
X120589500Y-71270000D01*
X120584348Y-71224272D01*
X120578928Y-71213018D01*
X120562856Y-71179644D01*
X120551504Y-71110703D01*
X120561256Y-71087530D01*
X121885500Y-71087530D01*
X121885500Y-71294469D01*
X121925868Y-71497412D01*
X121925870Y-71497420D01*
X122003107Y-71683887D01*
X122005059Y-71688598D01*
X122033897Y-71731757D01*
X122120024Y-71860657D01*
X122266342Y-72006975D01*
X122266345Y-72006977D01*
X122438402Y-72121941D01*
X122629580Y-72201130D01*
X122683502Y-72211855D01*
X122745410Y-72244239D01*
X122779985Y-72304954D01*
X122776246Y-72374723D01*
X122735381Y-72431396D01*
X122726349Y-72437787D01*
X122604874Y-72515855D01*
X122604872Y-72515856D01*
X122604872Y-72515857D01*
X122587511Y-72535893D01*
X122510623Y-72624626D01*
X122510622Y-72624628D01*
X122450834Y-72755543D01*
X122430353Y-72898000D01*
X122450834Y-73040456D01*
X122510622Y-73171371D01*
X122510623Y-73171373D01*
X122604872Y-73280143D01*
X122725947Y-73357953D01*
X122725950Y-73357954D01*
X122725949Y-73357954D01*
X122864036Y-73398499D01*
X122864038Y-73398500D01*
X122864039Y-73398500D01*
X123007961Y-73398500D01*
X123146053Y-73357953D01*
X123146057Y-73357950D01*
X123148476Y-73356845D01*
X123156432Y-73352397D01*
X123256665Y-73304219D01*
X123264618Y-73300182D01*
X123265511Y-73299704D01*
X123273252Y-73295343D01*
X123348341Y-73250870D01*
X123353394Y-73248036D01*
X123388267Y-73229547D01*
X123412102Y-73219928D01*
X123432735Y-73214002D01*
X123458240Y-73209492D01*
X123539579Y-73203757D01*
X123545191Y-73202328D01*
X123575767Y-73198500D01*
X124334060Y-73198500D01*
X124334062Y-73198500D01*
X124410489Y-73178021D01*
X124479011Y-73138460D01*
X124534960Y-73082511D01*
X124861969Y-72755500D01*
X124884889Y-72739192D01*
X124884105Y-72737936D01*
X124889269Y-72734713D01*
X124889278Y-72734709D01*
X124926697Y-72705906D01*
X124944589Y-72692134D01*
X124950159Y-72688087D01*
X124975840Y-72670500D01*
X125005158Y-72650420D01*
X125011421Y-72646403D01*
X125019593Y-72641500D01*
X125038294Y-72630280D01*
X125038293Y-72630279D01*
X125064521Y-72614544D01*
X125071513Y-72610650D01*
X125122586Y-72584339D01*
X125130356Y-72580673D01*
X125139834Y-72576595D01*
X125188842Y-72566499D01*
X125708856Y-72566499D01*
X125708864Y-72566499D01*
X125708879Y-72566497D01*
X125708882Y-72566497D01*
X125733987Y-72563586D01*
X125733988Y-72563585D01*
X125733991Y-72563585D01*
X125836765Y-72518206D01*
X125916206Y-72438765D01*
X125961585Y-72335991D01*
X125964500Y-72310865D01*
X125964499Y-72021136D01*
X125962857Y-72006975D01*
X125961586Y-71996014D01*
X125959137Y-71987013D01*
X125960532Y-71986633D01*
X125952760Y-71927300D01*
X125982581Y-71864113D01*
X125987574Y-71858817D01*
X125992050Y-71854342D01*
X126049646Y-71741304D01*
X126049646Y-71741302D01*
X126049647Y-71741301D01*
X126053654Y-71716001D01*
X129521988Y-71716001D01*
X129529442Y-71772627D01*
X129529444Y-71772633D01*
X129589899Y-71918585D01*
X129686077Y-72043926D01*
X129764987Y-72104477D01*
X129806189Y-72160905D01*
X129813500Y-72202851D01*
X129813500Y-72310856D01*
X129813502Y-72310881D01*
X129816414Y-72335988D01*
X129816415Y-72335991D01*
X129861793Y-72438764D01*
X129861794Y-72438765D01*
X129941235Y-72518206D01*
X130044009Y-72563585D01*
X130069135Y-72566500D01*
X131433864Y-72566499D01*
X131433879Y-72566497D01*
X131433882Y-72566497D01*
X131458986Y-72563586D01*
X131458987Y-72563585D01*
X131458991Y-72563585D01*
X131561765Y-72518206D01*
X131561768Y-72518202D01*
X131562172Y-72517926D01*
X131579502Y-72503600D01*
X131595805Y-72492539D01*
X131605119Y-72486805D01*
X131627407Y-72474407D01*
X131638284Y-72469037D01*
X131656382Y-72461182D01*
X131668809Y-72456562D01*
X131682999Y-72452136D01*
X131696794Y-72448688D01*
X131717796Y-72444703D01*
X131717796Y-72444702D01*
X131722354Y-72443838D01*
X131722500Y-72444609D01*
X131746082Y-72441500D01*
X133988365Y-72441500D01*
X134012206Y-72444751D01*
X134012324Y-72444078D01*
X134018322Y-72445125D01*
X134018326Y-72445127D01*
X134063824Y-72453074D01*
X134081064Y-72457380D01*
X134116496Y-72468984D01*
X134131590Y-72475050D01*
X134173234Y-72495054D01*
X134185877Y-72502062D01*
X134233978Y-72532519D01*
X134244260Y-72539786D01*
X134251740Y-72545665D01*
X134262782Y-72555463D01*
X134287517Y-72580198D01*
X134298542Y-72585588D01*
X134306463Y-72589460D01*
X134319847Y-72597067D01*
X134333709Y-72606128D01*
X134337288Y-72608045D01*
X134359343Y-72618229D01*
X134359353Y-72618230D01*
X134364970Y-72619912D01*
X134383885Y-72627309D01*
X134392604Y-72631572D01*
X134392605Y-72631572D01*
X134392607Y-72631573D01*
X134460740Y-72641500D01*
X134460745Y-72641500D01*
X135552261Y-72641500D01*
X135574971Y-72638191D01*
X135620393Y-72631573D01*
X135725483Y-72580198D01*
X135808198Y-72497483D01*
X135859573Y-72392393D01*
X135869500Y-72324260D01*
X135869500Y-71957740D01*
X135859573Y-71889607D01*
X135808198Y-71784517D01*
X135808196Y-71784515D01*
X135808196Y-71784514D01*
X135777363Y-71753681D01*
X135743878Y-71692358D01*
X135748862Y-71622666D01*
X135777363Y-71578319D01*
X135808196Y-71547485D01*
X135808198Y-71547483D01*
X135859573Y-71442393D01*
X135869500Y-71374260D01*
X135869500Y-71007740D01*
X135869140Y-71005272D01*
X135861166Y-70950540D01*
X135859573Y-70939607D01*
X135808198Y-70834517D01*
X135808196Y-70834515D01*
X135808196Y-70834514D01*
X135777363Y-70803681D01*
X135743878Y-70742358D01*
X135748862Y-70672666D01*
X135777363Y-70628319D01*
X135808196Y-70597485D01*
X135808198Y-70597483D01*
X135859573Y-70492393D01*
X135869500Y-70424260D01*
X135869500Y-70057740D01*
X135859573Y-69989607D01*
X135808198Y-69884517D01*
X135808196Y-69884515D01*
X135808196Y-69884514D01*
X135725485Y-69801803D01*
X135724024Y-69801089D01*
X135634800Y-69757470D01*
X135620391Y-69750426D01*
X135552261Y-69740500D01*
X135552260Y-69740500D01*
X134460740Y-69740500D01*
X134460739Y-69740500D01*
X134392608Y-69750426D01*
X134287517Y-69801801D01*
X134262789Y-69826529D01*
X134251737Y-69836335D01*
X134244270Y-69842204D01*
X134233977Y-69849479D01*
X134185884Y-69879930D01*
X134173242Y-69886938D01*
X134131586Y-69906948D01*
X134116488Y-69913016D01*
X134081066Y-69924617D01*
X134063813Y-69928926D01*
X134025813Y-69935565D01*
X134018664Y-69936814D01*
X134013644Y-69937691D01*
X134013586Y-69937359D01*
X133988539Y-69940500D01*
X133958790Y-69940500D01*
X133930175Y-69936110D01*
X133930028Y-69936814D01*
X133924061Y-69935565D01*
X133911386Y-69934190D01*
X133846861Y-69907388D01*
X133826302Y-69886289D01*
X133799692Y-69851529D01*
X133795368Y-69846075D01*
X133794869Y-69845467D01*
X133790297Y-69840087D01*
X133782967Y-69831757D01*
X133724600Y-69765424D01*
X133720451Y-69760851D01*
X133719952Y-69760318D01*
X133719951Y-69760317D01*
X133719949Y-69760315D01*
X133719944Y-69760311D01*
X133719941Y-69760309D01*
X133718935Y-69759610D01*
X133695949Y-69738961D01*
X133681130Y-69721858D01*
X133623533Y-69684843D01*
X133560053Y-69644047D01*
X133560051Y-69644046D01*
X133560049Y-69644045D01*
X133560050Y-69644045D01*
X133421963Y-69603500D01*
X133421961Y-69603500D01*
X133278039Y-69603500D01*
X133278036Y-69603500D01*
X133139949Y-69644045D01*
X133018873Y-69721856D01*
X132924623Y-69830626D01*
X132924622Y-69830628D01*
X132864834Y-69961543D01*
X132844353Y-70104000D01*
X132864834Y-70246456D01*
X132917084Y-70360865D01*
X132924623Y-70377373D01*
X133018872Y-70486143D01*
X133139947Y-70563953D01*
X133183497Y-70576740D01*
X133242274Y-70614513D01*
X133271300Y-70678068D01*
X133261357Y-70747227D01*
X133215605Y-70800030D01*
X133201875Y-70808853D01*
X133201874Y-70808855D01*
X133107623Y-70917626D01*
X133107622Y-70917628D01*
X133047834Y-71048543D01*
X133027353Y-71191000D01*
X133047834Y-71333456D01*
X133097584Y-71442391D01*
X133107623Y-71464373D01*
X133201872Y-71573143D01*
X133201874Y-71573144D01*
X133201873Y-71573144D01*
X133262622Y-71612185D01*
X133308376Y-71664989D01*
X133318320Y-71734147D01*
X133289295Y-71797703D01*
X133230517Y-71835477D01*
X133195582Y-71840500D01*
X132106016Y-71840500D01*
X132038977Y-71820815D01*
X131993222Y-71768011D01*
X131986337Y-71722072D01*
X131981012Y-71716000D01*
X129521990Y-71716000D01*
X129521988Y-71716001D01*
X126053654Y-71716001D01*
X126061144Y-71668709D01*
X126064500Y-71647519D01*
X126064499Y-71384482D01*
X126053653Y-71316000D01*
X129521987Y-71316000D01*
X130551500Y-71316000D01*
X130951500Y-71316000D01*
X131981010Y-71316000D01*
X131981011Y-71315998D01*
X131973558Y-71259377D01*
X131973555Y-71259368D01*
X131964892Y-71238453D01*
X131957423Y-71168983D01*
X131964892Y-71143546D01*
X131973556Y-71122629D01*
X131981012Y-71066000D01*
X130951500Y-71066000D01*
X130951500Y-71316000D01*
X130551500Y-71316000D01*
X130551500Y-71066000D01*
X129521990Y-71066000D01*
X129521988Y-71066001D01*
X129529442Y-71122627D01*
X129529443Y-71122629D01*
X129538108Y-71143549D01*
X129545576Y-71213018D01*
X129538109Y-71238449D01*
X129529443Y-71259370D01*
X129521987Y-71316000D01*
X126053653Y-71316000D01*
X126049646Y-71290696D01*
X126027530Y-71247292D01*
X126014635Y-71178626D01*
X126027532Y-71134704D01*
X126033686Y-71122627D01*
X126049646Y-71091304D01*
X126049646Y-71091302D01*
X126049647Y-71091301D01*
X126064499Y-70997524D01*
X126064500Y-70997519D01*
X126064499Y-70734482D01*
X126053653Y-70666000D01*
X129521987Y-70666000D01*
X131981010Y-70666000D01*
X131981011Y-70665998D01*
X131973557Y-70609372D01*
X131973555Y-70609366D01*
X131913100Y-70463414D01*
X131816922Y-70338073D01*
X131738012Y-70277522D01*
X131696810Y-70221094D01*
X131689499Y-70179147D01*
X131689499Y-70071143D01*
X131689499Y-70071136D01*
X131689497Y-70071117D01*
X131686586Y-70046012D01*
X131686585Y-70046010D01*
X131686585Y-70046009D01*
X131641206Y-69943235D01*
X131561765Y-69863794D01*
X131548912Y-69858119D01*
X131458992Y-69818415D01*
X131433865Y-69815500D01*
X130069143Y-69815500D01*
X130069117Y-69815502D01*
X130044012Y-69818413D01*
X130044008Y-69818415D01*
X129941235Y-69863793D01*
X129861794Y-69943234D01*
X129816415Y-70046006D01*
X129816415Y-70046008D01*
X129813500Y-70071131D01*
X129813500Y-70179148D01*
X129793815Y-70246187D01*
X129764987Y-70277523D01*
X129686077Y-70338073D01*
X129589899Y-70463413D01*
X129529444Y-70609368D01*
X129521987Y-70666000D01*
X126053653Y-70666000D01*
X126049646Y-70640696D01*
X125992050Y-70527658D01*
X125992046Y-70527654D01*
X125992045Y-70527652D01*
X125987587Y-70523194D01*
X125954102Y-70461871D01*
X125959086Y-70392179D01*
X125961545Y-70386135D01*
X125961582Y-70385996D01*
X125961585Y-70385991D01*
X125964500Y-70360865D01*
X125964499Y-70071136D01*
X125964497Y-70071117D01*
X125961586Y-70046012D01*
X125961585Y-70046010D01*
X125961585Y-70046009D01*
X125916206Y-69943235D01*
X125836765Y-69863794D01*
X125823912Y-69858119D01*
X125733992Y-69818415D01*
X125708865Y-69815500D01*
X124344143Y-69815500D01*
X124344117Y-69815502D01*
X124319012Y-69818413D01*
X124319008Y-69818415D01*
X124216235Y-69863793D01*
X124136794Y-69943234D01*
X124091415Y-70046006D01*
X124091413Y-70046014D01*
X124088229Y-70073458D01*
X124060949Y-70137782D01*
X124003223Y-70177145D01*
X123940865Y-70180782D01*
X123738353Y-70140500D01*
X123738349Y-70140500D01*
X122832535Y-70140500D01*
X122832530Y-70140500D01*
X122629587Y-70180868D01*
X122629579Y-70180870D01*
X122438403Y-70260058D01*
X122266342Y-70375024D01*
X122120024Y-70521342D01*
X122005058Y-70693403D01*
X121925870Y-70884579D01*
X121925868Y-70884587D01*
X121885500Y-71087530D01*
X120561256Y-71087530D01*
X120567086Y-71073677D01*
X120563087Y-71071752D01*
X120569148Y-71059164D01*
X120569147Y-71059164D01*
X120569149Y-71059163D01*
X120589500Y-70970000D01*
X120589500Y-70398111D01*
X120581176Y-70340215D01*
X120540669Y-70202260D01*
X120516371Y-70149055D01*
X120516368Y-70149051D01*
X120516368Y-70149049D01*
X120438639Y-70028101D01*
X120438638Y-70028100D01*
X120400334Y-69983895D01*
X120374538Y-69961543D01*
X120291684Y-69889749D01*
X120291675Y-69889743D01*
X120291673Y-69889741D01*
X120251299Y-69863794D01*
X120242472Y-69858121D01*
X120242456Y-69858112D01*
X120111689Y-69798393D01*
X120111684Y-69798391D01*
X120111683Y-69798391D01*
X120055561Y-69781912D01*
X120055556Y-69781910D01*
X119925682Y-69763238D01*
X119913246Y-69761450D01*
X119854755Y-69761450D01*
X119854753Y-69761450D01*
X119842319Y-69763238D01*
X119824673Y-69764500D01*
X119443327Y-69764500D01*
X119425681Y-69763238D01*
X119413246Y-69761450D01*
X119413245Y-69761450D01*
X119354754Y-69761450D01*
X119212443Y-69781910D01*
X119212438Y-69781912D01*
X119156310Y-69798393D01*
X119025543Y-69858112D01*
X119025527Y-69858121D01*
X118976331Y-69889738D01*
X118976315Y-69889749D01*
X118867669Y-69983892D01*
X118867666Y-69983895D01*
X118862716Y-69989608D01*
X118829361Y-70028100D01*
X118829360Y-70028101D01*
X118775095Y-70112540D01*
X118722291Y-70158295D01*
X118670780Y-70169500D01*
X104242438Y-70169500D01*
X104166010Y-70189978D01*
X104097489Y-70229540D01*
X104097486Y-70229542D01*
X100949847Y-73377181D01*
X100888524Y-73410666D01*
X100862166Y-73413500D01*
X100766036Y-73413500D01*
X100627949Y-73454045D01*
X100506873Y-73531856D01*
X100412623Y-73640626D01*
X100412622Y-73640628D01*
X100352834Y-73771543D01*
X100332353Y-73914000D01*
X52070000Y-73914000D01*
X52070000Y-71005258D01*
X52859500Y-71005258D01*
X52859500Y-71234741D01*
X52870199Y-71316000D01*
X52889452Y-71462238D01*
X52941404Y-71656128D01*
X52948842Y-71683887D01*
X53036650Y-71895876D01*
X53036657Y-71895890D01*
X53151392Y-72094617D01*
X53291081Y-72276661D01*
X53291089Y-72276670D01*
X53453330Y-72438911D01*
X53453338Y-72438918D01*
X53453339Y-72438919D01*
X53495828Y-72471522D01*
X53635382Y-72578607D01*
X53635385Y-72578608D01*
X53635388Y-72578611D01*
X53834112Y-72693344D01*
X53834117Y-72693346D01*
X53834123Y-72693349D01*
X53864439Y-72705906D01*
X54046113Y-72781158D01*
X54267762Y-72840548D01*
X54495266Y-72870500D01*
X54495273Y-72870500D01*
X54724727Y-72870500D01*
X54724734Y-72870500D01*
X54952238Y-72840548D01*
X55173887Y-72781158D01*
X55385888Y-72693344D01*
X55584612Y-72578611D01*
X55766661Y-72438919D01*
X55766665Y-72438914D01*
X55766670Y-72438911D01*
X55928911Y-72276670D01*
X55928914Y-72276665D01*
X55928919Y-72276661D01*
X56068611Y-72094612D01*
X56183344Y-71895888D01*
X56271158Y-71683887D01*
X56330548Y-71462238D01*
X56360500Y-71234734D01*
X56360500Y-71005266D01*
X56330548Y-70777762D01*
X56271158Y-70556113D01*
X56210476Y-70409614D01*
X56183349Y-70344123D01*
X56183346Y-70344117D01*
X56183344Y-70344112D01*
X56068611Y-70145388D01*
X56068608Y-70145385D01*
X56068607Y-70145382D01*
X56049582Y-70120589D01*
X65059500Y-70120589D01*
X65059500Y-72119393D01*
X65059501Y-72119415D01*
X65062234Y-72154152D01*
X65062234Y-72154155D01*
X65062235Y-72154156D01*
X65105445Y-72302887D01*
X65125023Y-72335991D01*
X65184282Y-72436194D01*
X65184289Y-72436203D01*
X65293796Y-72545710D01*
X65293805Y-72545717D01*
X65297664Y-72547999D01*
X65427113Y-72624555D01*
X65575844Y-72667765D01*
X65610595Y-72670500D01*
X67609404Y-72670499D01*
X67644156Y-72667765D01*
X67792887Y-72624555D01*
X67926198Y-72545715D01*
X68035715Y-72436198D01*
X68114555Y-72302887D01*
X68157765Y-72154156D01*
X68160500Y-72119405D01*
X68160499Y-70120596D01*
X68157765Y-70085844D01*
X68114555Y-69937113D01*
X68044356Y-69818413D01*
X68035717Y-69803805D01*
X68035710Y-69803796D01*
X67926203Y-69694289D01*
X67926194Y-69694282D01*
X67835253Y-69640500D01*
X67792887Y-69615445D01*
X67644156Y-69572235D01*
X67644153Y-69572234D01*
X67644151Y-69572234D01*
X67616563Y-69570063D01*
X67609405Y-69569500D01*
X67609403Y-69569500D01*
X65610606Y-69569500D01*
X65610584Y-69569501D01*
X65575847Y-69572234D01*
X65575844Y-69572235D01*
X65427113Y-69615445D01*
X65427111Y-69615445D01*
X65427111Y-69615446D01*
X65293805Y-69694282D01*
X65293796Y-69694289D01*
X65184289Y-69803796D01*
X65184282Y-69803805D01*
X65106360Y-69935565D01*
X65105445Y-69937113D01*
X65085344Y-70006301D01*
X65062234Y-70085847D01*
X65062234Y-70085849D01*
X65059500Y-70120589D01*
X56049582Y-70120589D01*
X55928918Y-69963338D01*
X55928911Y-69963330D01*
X55766670Y-69801089D01*
X55766661Y-69801081D01*
X55584617Y-69661392D01*
X55581336Y-69659498D01*
X55385888Y-69546656D01*
X55385876Y-69546650D01*
X55173887Y-69458842D01*
X54952238Y-69399452D01*
X54914215Y-69394446D01*
X54724741Y-69369500D01*
X54724734Y-69369500D01*
X54495266Y-69369500D01*
X54495258Y-69369500D01*
X54278715Y-69398009D01*
X54267762Y-69399452D01*
X54174076Y-69424554D01*
X54046112Y-69458842D01*
X53834123Y-69546650D01*
X53834109Y-69546657D01*
X53635382Y-69661392D01*
X53453338Y-69801081D01*
X53291081Y-69963338D01*
X53151392Y-70145382D01*
X53036657Y-70344109D01*
X53036650Y-70344123D01*
X52948842Y-70556112D01*
X52919798Y-70664509D01*
X52890639Y-70773334D01*
X52889453Y-70777759D01*
X52889451Y-70777770D01*
X52859500Y-71005258D01*
X52070000Y-71005258D01*
X52070000Y-70584427D01*
X52070316Y-70575581D01*
X52071708Y-70556112D01*
X52089724Y-70304207D01*
X52092240Y-70286710D01*
X52149130Y-70025192D01*
X52154107Y-70008241D01*
X52247640Y-69757470D01*
X52254985Y-69741388D01*
X52383248Y-69506491D01*
X52392798Y-69491630D01*
X52553195Y-69277366D01*
X52564767Y-69264012D01*
X52754012Y-69074767D01*
X52767366Y-69063195D01*
X52981630Y-68902798D01*
X52996491Y-68893248D01*
X53231388Y-68764985D01*
X53247470Y-68757640D01*
X53498241Y-68664107D01*
X53515192Y-68659130D01*
X53776710Y-68602240D01*
X53794207Y-68599724D01*
X54065582Y-68580316D01*
X54074428Y-68580000D01*
X137695572Y-68580000D01*
X137704418Y-68580316D01*
G37*
%TD.AperFunction*%
%TD*%
%TA.AperFunction,Conductor*%
%TO.N,/BAT_SNS*%
G36*
X120620322Y-76880245D02*
G01*
X121149378Y-77357815D01*
X121153223Y-77365902D01*
X121150223Y-77374340D01*
X121149378Y-77375185D01*
X120620322Y-77852754D01*
X120611884Y-77855754D01*
X120604476Y-77852601D01*
X120478961Y-77734818D01*
X120478960Y-77734817D01*
X120345601Y-77632900D01*
X120212228Y-77554203D01*
X120078866Y-77498738D01*
X120078847Y-77498732D01*
X119954451Y-77468663D01*
X119947215Y-77463389D01*
X119945500Y-77457291D01*
X119945500Y-77275708D01*
X119948927Y-77267435D01*
X119954450Y-77264336D01*
X119986928Y-77256485D01*
X120078847Y-77234266D01*
X120078855Y-77234263D01*
X120078865Y-77234261D01*
X120212231Y-77178794D01*
X120345597Y-77100101D01*
X120478963Y-76998179D01*
X120604478Y-76880397D01*
X120612854Y-76877236D01*
X120620322Y-76880245D01*
G37*
%TD.AperFunction*%
%TD*%
%TA.AperFunction,Conductor*%
%TO.N,/BAT_SNS*%
G36*
X118942217Y-76929548D02*
G01*
X119065536Y-77036063D01*
X119196402Y-77126927D01*
X119327268Y-77195621D01*
X119458134Y-77242145D01*
X119579443Y-77264721D01*
X119586947Y-77269603D01*
X119589000Y-77276223D01*
X119589000Y-77457654D01*
X119585573Y-77465927D01*
X119580491Y-77468911D01*
X119493101Y-77493681D01*
X119458134Y-77503592D01*
X119458132Y-77503592D01*
X119458128Y-77503594D01*
X119327273Y-77563981D01*
X119230178Y-77626077D01*
X119196402Y-77647679D01*
X119130969Y-77701176D01*
X119065534Y-77754675D01*
X118942261Y-77877412D01*
X118933980Y-77880821D01*
X118926474Y-77878074D01*
X118373640Y-77412952D01*
X118369516Y-77405004D01*
X118372220Y-77396468D01*
X118373641Y-77395047D01*
X118522741Y-77269603D01*
X118927041Y-76929449D01*
X118935575Y-76926746D01*
X118942217Y-76929548D01*
G37*
%TD.AperFunction*%
%TD*%
%TA.AperFunction,Conductor*%
%TO.N,/BAT_SNS*%
G36*
X116123523Y-76880398D02*
G01*
X116249037Y-76998180D01*
X116249038Y-76998181D01*
X116382397Y-77100098D01*
X116382401Y-77100100D01*
X116382402Y-77100101D01*
X116515768Y-77178794D01*
X116649134Y-77234261D01*
X116649138Y-77234262D01*
X116649151Y-77234266D01*
X116746670Y-77257838D01*
X116773549Y-77264336D01*
X116780785Y-77269610D01*
X116782500Y-77275708D01*
X116782500Y-77457291D01*
X116779073Y-77465564D01*
X116773549Y-77468663D01*
X116649151Y-77498732D01*
X116649132Y-77498738D01*
X116515770Y-77554203D01*
X116382397Y-77632900D01*
X116249038Y-77734817D01*
X116249037Y-77734818D01*
X116123523Y-77852601D01*
X116115145Y-77855763D01*
X116107677Y-77852754D01*
X116107508Y-77852601D01*
X115578620Y-77375184D01*
X115574776Y-77367098D01*
X115577776Y-77358660D01*
X115578621Y-77357815D01*
X115669580Y-77275708D01*
X116107678Y-76880244D01*
X116116115Y-76877245D01*
X116123523Y-76880398D01*
G37*
%TD.AperFunction*%
%TD*%
%TA.AperFunction,Conductor*%
%TO.N,/BAT_SNS*%
G36*
X116856696Y-77100152D02*
G01*
X116856947Y-77100710D01*
X116966115Y-77361989D01*
X116966142Y-77370944D01*
X116966115Y-77371011D01*
X116856947Y-77632288D01*
X116850595Y-77638600D01*
X116841640Y-77638573D01*
X116841082Y-77638322D01*
X116735359Y-77587505D01*
X116734466Y-77587027D01*
X116652724Y-77538614D01*
X116652709Y-77538605D01*
X116652695Y-77538598D01*
X116652687Y-77538593D01*
X116580644Y-77500399D01*
X116580643Y-77500398D01*
X116580640Y-77500397D01*
X116558911Y-77494156D01*
X116493730Y-77475436D01*
X116377877Y-77467266D01*
X116369865Y-77463266D01*
X116367000Y-77455595D01*
X116367000Y-77277403D01*
X116370427Y-77269130D01*
X116377874Y-77265733D01*
X116493727Y-77257562D01*
X116493730Y-77257561D01*
X116493732Y-77257561D01*
X116580630Y-77232605D01*
X116580631Y-77232604D01*
X116580640Y-77232602D01*
X116652709Y-77194393D01*
X116734477Y-77145963D01*
X116735346Y-77145498D01*
X116841085Y-77094675D01*
X116850024Y-77094180D01*
X116856696Y-77100152D01*
G37*
%TD.AperFunction*%
%TD*%
%TA.AperFunction,Conductor*%
%TO.N,/BAT_SNS*%
G36*
X117801246Y-76929691D02*
G01*
X118354358Y-77395047D01*
X118358483Y-77402996D01*
X118355779Y-77411532D01*
X118354358Y-77412953D01*
X117801246Y-77878308D01*
X117792710Y-77881012D01*
X117785749Y-77877925D01*
X117662466Y-77763349D01*
X117662462Y-77763345D01*
X117531602Y-77664441D01*
X117400736Y-77588247D01*
X117400731Y-77588244D01*
X117269865Y-77534764D01*
X117148021Y-77506120D01*
X117140753Y-77500891D01*
X117139000Y-77494731D01*
X117139000Y-77313268D01*
X117142427Y-77304995D01*
X117148018Y-77301879D01*
X117269865Y-77273235D01*
X117400731Y-77219755D01*
X117531597Y-77143561D01*
X117662463Y-77044653D01*
X117785750Y-76930073D01*
X117794142Y-76926952D01*
X117801246Y-76929691D01*
G37*
%TD.AperFunction*%
%TD*%
%TA.AperFunction,Conductor*%
%TO.N,/BAT_SNS*%
G36*
X117092215Y-77094769D02*
G01*
X117093083Y-77095175D01*
X117198466Y-77149735D01*
X117199968Y-77150662D01*
X117279066Y-77208190D01*
X117347927Y-77257299D01*
X117432523Y-77291295D01*
X117549005Y-77302946D01*
X117556896Y-77307179D01*
X117559541Y-77314588D01*
X117559541Y-77492799D01*
X117556114Y-77501072D01*
X117548352Y-77504488D01*
X117436364Y-77509381D01*
X117436358Y-77509382D01*
X117350083Y-77525732D01*
X117277639Y-77553350D01*
X117277612Y-77553362D01*
X117196027Y-77592499D01*
X117195750Y-77592628D01*
X117092757Y-77638758D01*
X117083805Y-77639012D01*
X117077296Y-77632863D01*
X117077178Y-77632591D01*
X117060481Y-77592628D01*
X116967883Y-77371009D01*
X116967857Y-77362056D01*
X116967862Y-77362042D01*
X117076909Y-77101052D01*
X117083260Y-77094742D01*
X117092215Y-77094769D01*
G37*
%TD.AperFunction*%
%TD*%
%TA.AperFunction,Conductor*%
%TO.N,+12V*%
G36*
X129641467Y-74519927D02*
G01*
X129643364Y-74522415D01*
X129722507Y-74661554D01*
X129722507Y-74661555D01*
X129805001Y-74786559D01*
X129805002Y-74786560D01*
X129887495Y-74891537D01*
X129887494Y-74891537D01*
X129969996Y-74976497D01*
X129970002Y-74976503D01*
X130005775Y-75004657D01*
X130042027Y-75033188D01*
X130046409Y-75040997D01*
X130043985Y-75049618D01*
X130042970Y-75050748D01*
X129548179Y-75534503D01*
X129539868Y-75537836D01*
X129531821Y-75534503D01*
X129312829Y-75320396D01*
X129037028Y-75050747D01*
X129033509Y-75042514D01*
X129036842Y-75034203D01*
X129037961Y-75033197D01*
X129110000Y-74976501D01*
X129192500Y-74891543D01*
X129275000Y-74786557D01*
X129319559Y-74719034D01*
X129357492Y-74661555D01*
X129357492Y-74661554D01*
X129357491Y-74661554D01*
X129357500Y-74661542D01*
X129436636Y-74522415D01*
X129443705Y-74516918D01*
X129446806Y-74516500D01*
X129633194Y-74516500D01*
X129641467Y-74519927D01*
G37*
%TD.AperFunction*%
%TD*%
%TA.AperFunction,Conductor*%
%TO.N,+12V*%
G36*
X129767917Y-74008228D02*
G01*
X129805788Y-74024052D01*
X129812100Y-74030404D01*
X129812073Y-74039359D01*
X129811822Y-74039917D01*
X129761005Y-74145638D01*
X129760527Y-74146531D01*
X129712114Y-74228274D01*
X129712093Y-74228311D01*
X129673899Y-74300354D01*
X129673897Y-74300359D01*
X129648936Y-74387267D01*
X129648936Y-74387270D01*
X129640767Y-74503123D01*
X129636767Y-74511135D01*
X129629096Y-74514000D01*
X129450904Y-74514000D01*
X129442631Y-74510573D01*
X129439233Y-74503123D01*
X129438059Y-74486488D01*
X129431062Y-74387272D01*
X129431061Y-74387267D01*
X129431061Y-74387266D01*
X129406105Y-74300368D01*
X129406103Y-74300364D01*
X129406102Y-74300359D01*
X129367893Y-74228290D01*
X129319462Y-74146517D01*
X129319000Y-74145654D01*
X129268176Y-74039916D01*
X129267681Y-74030975D01*
X129273653Y-74024303D01*
X129274202Y-74024055D01*
X129535490Y-73914883D01*
X129544444Y-73914857D01*
X129767917Y-74008228D01*
G37*
%TD.AperFunction*%
%TD*%
%TA.AperFunction,Conductor*%
%TO.N,+6V*%
G36*
X122743235Y-82824267D02*
G01*
X122749271Y-82830236D01*
X123188872Y-83815232D01*
X123189115Y-83824183D01*
X123188872Y-83824768D01*
X122749271Y-84809763D01*
X122742770Y-84815922D01*
X122734281Y-84815874D01*
X122444296Y-84701091D01*
X122444289Y-84701089D01*
X122168510Y-84627478D01*
X122025372Y-84608221D01*
X121877445Y-84588319D01*
X121877438Y-84588318D01*
X121877426Y-84588317D01*
X121877432Y-84588317D01*
X121531248Y-84572773D01*
X121101626Y-84570073D01*
X121093375Y-84566594D01*
X121090000Y-84558373D01*
X121090000Y-83081626D01*
X121093427Y-83073353D01*
X121101623Y-83069926D01*
X121531237Y-83067226D01*
X121753680Y-83057237D01*
X121877429Y-83051681D01*
X121877432Y-83051680D01*
X121877445Y-83051680D01*
X122168506Y-83012520D01*
X122444298Y-82938907D01*
X122734281Y-82824125D01*
X122743235Y-82824267D01*
G37*
%TD.AperFunction*%
%TD*%
%TA.AperFunction,Conductor*%
%TO.N,-BATT*%
G36*
X138688102Y-69598711D02*
G01*
X138688149Y-69598758D01*
X138888386Y-69800334D01*
X138891785Y-69808619D01*
X138888833Y-69816349D01*
X138815092Y-69899376D01*
X138766731Y-69972078D01*
X138766724Y-69972090D01*
X138729473Y-70038228D01*
X138729021Y-70038966D01*
X138681347Y-70110637D01*
X138680353Y-70111926D01*
X138608098Y-70193285D01*
X138600042Y-70197196D01*
X138591581Y-70194264D01*
X138591077Y-70193789D01*
X138465022Y-70067734D01*
X138461595Y-70059461D01*
X138463380Y-70053249D01*
X138472791Y-70038228D01*
X138514645Y-69971427D01*
X138504995Y-69899383D01*
X138504181Y-69893302D01*
X138504180Y-69893298D01*
X138459799Y-69816349D01*
X138458252Y-69813667D01*
X138458087Y-69813369D01*
X138408556Y-69720383D01*
X138407395Y-69717103D01*
X138386682Y-69609885D01*
X138388478Y-69601112D01*
X138395951Y-69596178D01*
X138398135Y-69595966D01*
X138679822Y-69595304D01*
X138688102Y-69598711D01*
G37*
%TD.AperFunction*%
%TD*%
%TA.AperFunction,Conductor*%
%TO.N,-BATT*%
G36*
X137857259Y-69957021D02*
G01*
X137929922Y-70014134D01*
X137929932Y-70014140D01*
X137929933Y-70014141D01*
X138008442Y-70063851D01*
X138086951Y-70101563D01*
X138086954Y-70101564D01*
X138086956Y-70101564D01*
X138086961Y-70101567D01*
X138165480Y-70127283D01*
X138234314Y-70139308D01*
X138241873Y-70144106D01*
X138244000Y-70150832D01*
X138244000Y-70331167D01*
X138240573Y-70339440D01*
X138234313Y-70342692D01*
X138165482Y-70354715D01*
X138165481Y-70354715D01*
X138086954Y-70380434D01*
X138086951Y-70380435D01*
X138008442Y-70418147D01*
X137929933Y-70467857D01*
X137929921Y-70467866D01*
X137857261Y-70524977D01*
X137848639Y-70527395D01*
X137844753Y-70526220D01*
X137301157Y-70251442D01*
X137295319Y-70244651D01*
X137295993Y-70235722D01*
X137301157Y-70230558D01*
X137844754Y-69955778D01*
X137853682Y-69955105D01*
X137857259Y-69957021D01*
G37*
%TD.AperFunction*%
%TD*%
%TA.AperFunction,Conductor*%
%TO.N,-BATT*%
G36*
X138637621Y-77421652D02*
G01*
X138645802Y-77425290D01*
X138648802Y-77431100D01*
X138686021Y-77621172D01*
X138725047Y-77796907D01*
X138764068Y-77949058D01*
X138803090Y-78077653D01*
X138839501Y-78175655D01*
X138839169Y-78184604D01*
X138836806Y-78188003D01*
X138707490Y-78317319D01*
X138699217Y-78320746D01*
X138692707Y-78318768D01*
X138503533Y-78192092D01*
X138489866Y-78184604D01*
X138306360Y-78084062D01*
X138109220Y-78000049D01*
X138109213Y-78000046D01*
X138004083Y-77968040D01*
X137912055Y-77940023D01*
X137912044Y-77940021D01*
X137780904Y-77916060D01*
X137729116Y-77906598D01*
X137721595Y-77901741D01*
X137719711Y-77892987D01*
X137720400Y-77890638D01*
X137918225Y-77410734D01*
X137924545Y-77404393D01*
X137929339Y-77403499D01*
X138637621Y-77421652D01*
G37*
%TD.AperFunction*%
%TD*%
%TA.AperFunction,Conductor*%
%TO.N,-BATT*%
G36*
X139013271Y-78353263D02*
G01*
X139094718Y-78428923D01*
X139165665Y-78479741D01*
X139234639Y-78513318D01*
X139308055Y-78541013D01*
X139318392Y-78544913D01*
X139318506Y-78544957D01*
X139422699Y-78585513D01*
X139429166Y-78591707D01*
X139429358Y-78600660D01*
X139429278Y-78600860D01*
X139321563Y-78863184D01*
X139315251Y-78869536D01*
X139315184Y-78869563D01*
X139053669Y-78976946D01*
X139044714Y-78976919D01*
X139038402Y-78970567D01*
X139038049Y-78969587D01*
X139007048Y-78869563D01*
X139002793Y-78855833D01*
X139002375Y-78853939D01*
X138989171Y-78756236D01*
X138977676Y-78671536D01*
X138943867Y-78586547D01*
X138910324Y-78544957D01*
X138870190Y-78495194D01*
X138867664Y-78486603D01*
X138871023Y-78479577D01*
X138997038Y-78353562D01*
X139005310Y-78350136D01*
X139013271Y-78353263D01*
G37*
%TD.AperFunction*%
%TD*%
%TA.AperFunction,Conductor*%
%TO.N,+BATT*%
G36*
X133108447Y-81898293D02*
G01*
X133411639Y-82187950D01*
X133672966Y-82402862D01*
X133915068Y-82558983D01*
X133915070Y-82558984D01*
X133915074Y-82558987D01*
X134088852Y-82641965D01*
X134168853Y-82680165D01*
X134454542Y-82786291D01*
X134461104Y-82792385D01*
X134461538Y-82801046D01*
X134114374Y-83815833D01*
X134108454Y-83822552D01*
X134107986Y-83822768D01*
X133118229Y-84255008D01*
X133109276Y-84255179D01*
X133103100Y-84249555D01*
X132961738Y-83969265D01*
X132799838Y-83733029D01*
X132604254Y-83511040D01*
X132356857Y-83263612D01*
X132047918Y-82959326D01*
X132044428Y-82951079D01*
X132047791Y-82942781D01*
X133092093Y-81898479D01*
X133100365Y-81895053D01*
X133108447Y-81898293D01*
G37*
%TD.AperFunction*%
%TD*%
%TA.AperFunction,Conductor*%
%TO.N,+BATT*%
G36*
X114951482Y-75107995D02*
G01*
X115558668Y-75532378D01*
X115563486Y-75539926D01*
X115561555Y-75548671D01*
X115559813Y-75550645D01*
X115032505Y-76027574D01*
X115024071Y-76030582D01*
X115016462Y-76027246D01*
X114910552Y-75923273D01*
X114796776Y-75831724D01*
X114796773Y-75831722D01*
X114683006Y-75760327D01*
X114683003Y-75760326D01*
X114569226Y-75709073D01*
X114458442Y-75678789D01*
X114453254Y-75675776D01*
X114327518Y-75550040D01*
X114324091Y-75541767D01*
X114327518Y-75533494D01*
X114332166Y-75530642D01*
X114439867Y-75495557D01*
X114565706Y-75431628D01*
X114691545Y-75344762D01*
X114817384Y-75234960D01*
X114936290Y-75109535D01*
X114944468Y-75105890D01*
X114951482Y-75107995D01*
G37*
%TD.AperFunction*%
%TD*%
%TA.AperFunction,Conductor*%
%TO.N,+BATT*%
G36*
X135136178Y-77373495D02*
G01*
X135424562Y-77655447D01*
X135630969Y-77857250D01*
X135634489Y-77865484D01*
X135631156Y-77873795D01*
X135630026Y-77874810D01*
X135558002Y-77931494D01*
X135557996Y-77931500D01*
X135475495Y-78016461D01*
X135393002Y-78121438D01*
X135393001Y-78121439D01*
X135310507Y-78246443D01*
X135310507Y-78246444D01*
X135231364Y-78385585D01*
X135224295Y-78391082D01*
X135221194Y-78391500D01*
X135034806Y-78391500D01*
X135026533Y-78388073D01*
X135024636Y-78385585D01*
X134991627Y-78327554D01*
X134945500Y-78246457D01*
X134945495Y-78246450D01*
X134945492Y-78246444D01*
X134945492Y-78246443D01*
X134862998Y-78121439D01*
X134862997Y-78121438D01*
X134780504Y-78016461D01*
X134780505Y-78016461D01*
X134698003Y-77931500D01*
X134697997Y-77931494D01*
X134625973Y-77874810D01*
X134621591Y-77867001D01*
X134624015Y-77858380D01*
X134625025Y-77857254D01*
X135119821Y-77373495D01*
X135128132Y-77370163D01*
X135136178Y-77373495D01*
G37*
%TD.AperFunction*%
%TD*%
%TA.AperFunction,Conductor*%
%TO.N,+BATT*%
G36*
X134210016Y-81723427D02*
G01*
X134213342Y-81730170D01*
X134272658Y-82179768D01*
X134272659Y-82179771D01*
X134429977Y-82487392D01*
X134646950Y-82730583D01*
X134885873Y-82996277D01*
X134887220Y-82998104D01*
X135105248Y-83363391D01*
X135106545Y-83372251D01*
X135101197Y-83379434D01*
X135099969Y-83380071D01*
X134116768Y-83818872D01*
X134107817Y-83819115D01*
X134107232Y-83818872D01*
X133124030Y-83380071D01*
X133117871Y-83373570D01*
X133118114Y-83364619D01*
X133118751Y-83363391D01*
X133336784Y-82998095D01*
X133338118Y-82996285D01*
X133577033Y-82730600D01*
X133794022Y-82487392D01*
X133951340Y-82179769D01*
X134010658Y-81730169D01*
X134015137Y-81722416D01*
X134022257Y-81720000D01*
X134201743Y-81720000D01*
X134210016Y-81723427D01*
G37*
%TD.AperFunction*%
%TD*%
%TA.AperFunction,Conductor*%
%TO.N,Net-(JP2-A)*%
G36*
X137684613Y-84102838D02*
G01*
X137691682Y-84108335D01*
X137692976Y-84116458D01*
X137628241Y-84433926D01*
X137610673Y-84730663D01*
X137622648Y-85039665D01*
X137644348Y-85404484D01*
X137644365Y-85404886D01*
X137655700Y-85857483D01*
X137652482Y-85865839D01*
X137644297Y-85869472D01*
X137644004Y-85869476D01*
X136167147Y-85869476D01*
X136158874Y-85866049D01*
X136155461Y-85858342D01*
X136135918Y-85454631D01*
X136077933Y-85133341D01*
X136045303Y-85039665D01*
X135985438Y-84867805D01*
X135861824Y-84620232D01*
X135716240Y-84362996D01*
X135715148Y-84354110D01*
X135720651Y-84347057D01*
X136647794Y-83821384D01*
X136656661Y-83820281D01*
X137684613Y-84102838D01*
G37*
%TD.AperFunction*%
%TD*%
%TA.AperFunction,Conductor*%
%TO.N,Net-(JP2-A)*%
G36*
X137648934Y-86564580D02*
G01*
X137652361Y-86572853D01*
X137651945Y-86575946D01*
X137523594Y-87044123D01*
X137391203Y-87533040D01*
X137391204Y-87533041D01*
X137258804Y-88027995D01*
X137258800Y-88028013D01*
X137126400Y-88528966D01*
X137126396Y-88528983D01*
X137126395Y-88528982D01*
X136996679Y-89025659D01*
X136991273Y-89032797D01*
X136983525Y-89034257D01*
X136152607Y-88902366D01*
X136144973Y-88897685D01*
X136142844Y-88892363D01*
X135884312Y-86960503D01*
X135886612Y-86951849D01*
X135886803Y-86951605D01*
X135938112Y-86888621D01*
X135992584Y-86815753D01*
X136047056Y-86736887D01*
X136101528Y-86652020D01*
X136152593Y-86566837D01*
X136159786Y-86561503D01*
X136162628Y-86561153D01*
X137640661Y-86561153D01*
X137648934Y-86564580D01*
G37*
%TD.AperFunction*%
%TD*%
%TA.AperFunction,Conductor*%
%TO.N,+6V_TP*%
G36*
X125734737Y-83821114D02*
G01*
X126719763Y-84260728D01*
X126725922Y-84267229D01*
X126725874Y-84275718D01*
X126611091Y-84565701D01*
X126611089Y-84565708D01*
X126537478Y-84841488D01*
X126498317Y-85132568D01*
X126482773Y-85478750D01*
X126480073Y-85908374D01*
X126476594Y-85916625D01*
X126468373Y-85920000D01*
X124991627Y-85920000D01*
X124983354Y-85916573D01*
X124979927Y-85908374D01*
X124979684Y-85869879D01*
X124977226Y-85478762D01*
X124961680Y-85132553D01*
X124922520Y-84841493D01*
X124848907Y-84565700D01*
X124734125Y-84275718D01*
X124734267Y-84266764D01*
X124740234Y-84260729D01*
X125725234Y-83821126D01*
X125734183Y-83820884D01*
X125734737Y-83821114D01*
G37*
%TD.AperFunction*%
%TD*%
%TA.AperFunction,Conductor*%
%TO.N,+6V_TP*%
G36*
X127681960Y-87992421D02*
G01*
X127683044Y-87993450D01*
X128516743Y-88892122D01*
X128519858Y-88900518D01*
X128516123Y-88908656D01*
X128516116Y-88908663D01*
X127679079Y-89683885D01*
X127670681Y-89686992D01*
X127667431Y-89686401D01*
X127408226Y-89600041D01*
X127142512Y-89517512D01*
X126876718Y-89440959D01*
X126610965Y-89370418D01*
X126365459Y-89310793D01*
X126358228Y-89305511D01*
X126356851Y-89296663D01*
X126359945Y-89291153D01*
X127405299Y-88245799D01*
X127406526Y-88244733D01*
X127459503Y-88204916D01*
X127513127Y-88158612D01*
X127566751Y-88106308D01*
X127580157Y-88091732D01*
X127620354Y-88048028D01*
X127620362Y-88048017D01*
X127620375Y-88048004D01*
X127665484Y-87993912D01*
X127673412Y-87989755D01*
X127681960Y-87992421D01*
G37*
%TD.AperFunction*%
%TD*%
%TA.AperFunction,Conductor*%
%TO.N,Net-(JP3-A)*%
G36*
X127324217Y-76929548D02*
G01*
X127447536Y-77036063D01*
X127578402Y-77126927D01*
X127709268Y-77195621D01*
X127840134Y-77242145D01*
X127961443Y-77264721D01*
X127968947Y-77269603D01*
X127971000Y-77276223D01*
X127971000Y-77457654D01*
X127967573Y-77465927D01*
X127962491Y-77468911D01*
X127875101Y-77493681D01*
X127840134Y-77503592D01*
X127840132Y-77503592D01*
X127840128Y-77503594D01*
X127709273Y-77563981D01*
X127612178Y-77626077D01*
X127578402Y-77647679D01*
X127512969Y-77701176D01*
X127447534Y-77754675D01*
X127324261Y-77877412D01*
X127315980Y-77880821D01*
X127308474Y-77878074D01*
X126755640Y-77412952D01*
X126751516Y-77405004D01*
X126754220Y-77396468D01*
X126755641Y-77395047D01*
X126904741Y-77269603D01*
X127309041Y-76929449D01*
X127317575Y-76926746D01*
X127324217Y-76929548D01*
G37*
%TD.AperFunction*%
%TD*%
%TA.AperFunction,Conductor*%
%TO.N,Net-(JP3-A)*%
G36*
X129002322Y-76880245D02*
G01*
X129531378Y-77357815D01*
X129535223Y-77365902D01*
X129532223Y-77374340D01*
X129531378Y-77375185D01*
X129002322Y-77852754D01*
X128993884Y-77855754D01*
X128986476Y-77852601D01*
X128860961Y-77734818D01*
X128860960Y-77734817D01*
X128727601Y-77632900D01*
X128594228Y-77554203D01*
X128460866Y-77498738D01*
X128460847Y-77498732D01*
X128336451Y-77468663D01*
X128329215Y-77463389D01*
X128327500Y-77457291D01*
X128327500Y-77275708D01*
X128330927Y-77267435D01*
X128336450Y-77264336D01*
X128368928Y-77256485D01*
X128460847Y-77234266D01*
X128460855Y-77234263D01*
X128460865Y-77234261D01*
X128594231Y-77178794D01*
X128727597Y-77100101D01*
X128860963Y-76998179D01*
X128986478Y-76880397D01*
X128994854Y-76877236D01*
X129002322Y-76880245D01*
G37*
%TD.AperFunction*%
%TD*%
%TA.AperFunction,Conductor*%
%TO.N,Net-(JP3-A)*%
G36*
X126183246Y-76929691D02*
G01*
X126736358Y-77395047D01*
X126740483Y-77402996D01*
X126737779Y-77411532D01*
X126736358Y-77412953D01*
X126183246Y-77878308D01*
X126174710Y-77881012D01*
X126167749Y-77877925D01*
X126044466Y-77763349D01*
X126044462Y-77763345D01*
X125913602Y-77664441D01*
X125782736Y-77588247D01*
X125782731Y-77588244D01*
X125651865Y-77534764D01*
X125530021Y-77506120D01*
X125522753Y-77500891D01*
X125521000Y-77494731D01*
X125521000Y-77313268D01*
X125524427Y-77304995D01*
X125530018Y-77301879D01*
X125651865Y-77273235D01*
X125782731Y-77219755D01*
X125913597Y-77143561D01*
X126044463Y-77044653D01*
X126167750Y-76930073D01*
X126176142Y-76926952D01*
X126183246Y-76929691D01*
G37*
%TD.AperFunction*%
%TD*%
%TA.AperFunction,Conductor*%
%TO.N,Net-(JP3-A)*%
G36*
X126182959Y-76929449D02*
G01*
X126365932Y-77083392D01*
X126736358Y-77395047D01*
X126740483Y-77402996D01*
X126737779Y-77411532D01*
X126736358Y-77412953D01*
X126183525Y-77878074D01*
X126174989Y-77880778D01*
X126167738Y-77877412D01*
X126044464Y-77754675D01*
X126044463Y-77754674D01*
X125913597Y-77647679D01*
X125782731Y-77563985D01*
X125782725Y-77563981D01*
X125651870Y-77503594D01*
X125651871Y-77503594D01*
X125651866Y-77503592D01*
X125651865Y-77503592D01*
X125617503Y-77493852D01*
X125529509Y-77468911D01*
X125522484Y-77463357D01*
X125521000Y-77457654D01*
X125521000Y-77276223D01*
X125524427Y-77267950D01*
X125530559Y-77264721D01*
X125532398Y-77264378D01*
X125651865Y-77242145D01*
X125782731Y-77195621D01*
X125913597Y-77126927D01*
X126044463Y-77036063D01*
X126167782Y-76929548D01*
X126176281Y-76926734D01*
X126182959Y-76929449D01*
G37*
%TD.AperFunction*%
%TD*%
%TA.AperFunction,Conductor*%
%TO.N,Net-(JP3-A)*%
G36*
X124505523Y-76880398D02*
G01*
X124631037Y-76998180D01*
X124631038Y-76998181D01*
X124764397Y-77100098D01*
X124764401Y-77100100D01*
X124764402Y-77100101D01*
X124897768Y-77178794D01*
X125031134Y-77234261D01*
X125031138Y-77234262D01*
X125031151Y-77234266D01*
X125128670Y-77257838D01*
X125155549Y-77264336D01*
X125162785Y-77269610D01*
X125164500Y-77275708D01*
X125164500Y-77457291D01*
X125161073Y-77465564D01*
X125155549Y-77468663D01*
X125031151Y-77498732D01*
X125031132Y-77498738D01*
X124897770Y-77554203D01*
X124764397Y-77632900D01*
X124631038Y-77734817D01*
X124631037Y-77734818D01*
X124505523Y-77852601D01*
X124497145Y-77855763D01*
X124489677Y-77852754D01*
X124489508Y-77852601D01*
X123960620Y-77375184D01*
X123956776Y-77367098D01*
X123959776Y-77358660D01*
X123960621Y-77357815D01*
X124051580Y-77275708D01*
X124489678Y-76880244D01*
X124498115Y-76877245D01*
X124505523Y-76880398D01*
G37*
%TD.AperFunction*%
%TD*%
%TA.AperFunction,Conductor*%
%TO.N,Net-(U1-VCC)*%
G36*
X138023492Y-74507427D02*
G01*
X138025371Y-74509884D01*
X138102002Y-74643651D01*
X138181997Y-74763963D01*
X138262002Y-74864963D01*
X138262002Y-74864964D01*
X138341991Y-74946620D01*
X138342000Y-74946629D01*
X138396769Y-74989310D01*
X138411513Y-75000800D01*
X138415932Y-75008589D01*
X138413550Y-75017221D01*
X138412561Y-75018335D01*
X137930240Y-75496825D01*
X137921953Y-75500219D01*
X137913760Y-75496825D01*
X137431438Y-75018335D01*
X137427978Y-75010076D01*
X137431372Y-75001789D01*
X137432486Y-75000800D01*
X137501999Y-74946629D01*
X137581999Y-74864961D01*
X137662000Y-74763966D01*
X137742000Y-74643646D01*
X137818629Y-74509883D01*
X137825715Y-74504409D01*
X137828781Y-74504000D01*
X138015219Y-74504000D01*
X138023492Y-74507427D01*
G37*
%TD.AperFunction*%
%TD*%
%TA.AperFunction,Conductor*%
%TO.N,Net-(U1-VCC)*%
G36*
X135681523Y-75055398D02*
G01*
X135807037Y-75173180D01*
X135807038Y-75173181D01*
X135940397Y-75275098D01*
X135940401Y-75275100D01*
X135940402Y-75275101D01*
X136073768Y-75353794D01*
X136207134Y-75409261D01*
X136207138Y-75409262D01*
X136207151Y-75409266D01*
X136304670Y-75432838D01*
X136331549Y-75439336D01*
X136338785Y-75444610D01*
X136340500Y-75450708D01*
X136340500Y-75632291D01*
X136337073Y-75640564D01*
X136331549Y-75643663D01*
X136207151Y-75673732D01*
X136207132Y-75673738D01*
X136073770Y-75729203D01*
X135940397Y-75807900D01*
X135807038Y-75909817D01*
X135807037Y-75909818D01*
X135681523Y-76027601D01*
X135673145Y-76030763D01*
X135665677Y-76027754D01*
X135665508Y-76027601D01*
X135136620Y-75550184D01*
X135132776Y-75542098D01*
X135135776Y-75533660D01*
X135136621Y-75532815D01*
X135227580Y-75450708D01*
X135665678Y-75055244D01*
X135674115Y-75052245D01*
X135681523Y-75055398D01*
G37*
%TD.AperFunction*%
%TD*%
%TA.AperFunction,Conductor*%
%TO.N,Net-(U1-VCC)*%
G36*
X137359523Y-75029924D02*
G01*
X137506193Y-75153323D01*
X137912358Y-75495047D01*
X137916483Y-75502996D01*
X137913779Y-75511532D01*
X137912358Y-75512953D01*
X137358960Y-75978549D01*
X137350424Y-75981253D01*
X137343780Y-75978450D01*
X137220472Y-75871944D01*
X137220463Y-75871936D01*
X137089597Y-75781072D01*
X136958731Y-75712378D01*
X136958727Y-75712376D01*
X136958724Y-75712375D01*
X136827875Y-75665857D01*
X136827858Y-75665852D01*
X136706559Y-75643277D01*
X136699053Y-75638395D01*
X136697000Y-75631775D01*
X136697000Y-75450345D01*
X136700427Y-75442072D01*
X136705508Y-75439088D01*
X136827865Y-75404407D01*
X136925987Y-75359124D01*
X136958725Y-75344017D01*
X136958726Y-75344016D01*
X136958731Y-75344014D01*
X137089597Y-75260320D01*
X137220463Y-75153325D01*
X137343739Y-75030586D01*
X137352019Y-75027178D01*
X137359523Y-75029924D01*
G37*
%TD.AperFunction*%
%TD*%
%TA.AperFunction,Conductor*%
%TO.N,Net-(U1-VCC)*%
G36*
X137857259Y-70907021D02*
G01*
X137929922Y-70964134D01*
X137929932Y-70964140D01*
X137929933Y-70964141D01*
X138008442Y-71013851D01*
X138086951Y-71051563D01*
X138086954Y-71051564D01*
X138086956Y-71051564D01*
X138086961Y-71051567D01*
X138165480Y-71077283D01*
X138234314Y-71089308D01*
X138241873Y-71094106D01*
X138244000Y-71100832D01*
X138244000Y-71281167D01*
X138240573Y-71289440D01*
X138234313Y-71292692D01*
X138165482Y-71304715D01*
X138165481Y-71304715D01*
X138086954Y-71330434D01*
X138086951Y-71330435D01*
X138008442Y-71368147D01*
X137929933Y-71417857D01*
X137929921Y-71417866D01*
X137857261Y-71474977D01*
X137848639Y-71477395D01*
X137844753Y-71476220D01*
X137301157Y-71201442D01*
X137295319Y-71194651D01*
X137295993Y-71185722D01*
X137301157Y-71180558D01*
X137844754Y-70905778D01*
X137853682Y-70905105D01*
X137857259Y-70907021D01*
G37*
%TD.AperFunction*%
%TD*%
%TA.AperFunction,Conductor*%
%TO.N,Net-(D1-A)*%
G36*
X120242737Y-93154156D02*
G01*
X120243807Y-93154666D01*
X120593597Y-93343751D01*
X120595423Y-93344973D01*
X120835287Y-93540649D01*
X120941938Y-93629856D01*
X121040482Y-93712283D01*
X121040483Y-93712283D01*
X121040485Y-93712285D01*
X121296083Y-93833848D01*
X121677668Y-93878783D01*
X121685484Y-93883154D01*
X121688000Y-93890403D01*
X121688000Y-94069596D01*
X121684573Y-94077869D01*
X121677668Y-94081216D01*
X121296084Y-94126150D01*
X121040486Y-94247712D01*
X121040482Y-94247714D01*
X120835357Y-94419290D01*
X120835246Y-94419382D01*
X120595426Y-94615022D01*
X120593594Y-94616248D01*
X120243813Y-94805330D01*
X120234905Y-94806250D01*
X120227957Y-94800602D01*
X120227444Y-94799526D01*
X119888863Y-93984487D01*
X119888855Y-93975534D01*
X119888864Y-93975512D01*
X119927231Y-93883154D01*
X120227444Y-93160472D01*
X120233783Y-93154147D01*
X120242737Y-93154156D01*
G37*
%TD.AperFunction*%
%TD*%
%TA.AperFunction,Conductor*%
%TO.N,Net-(D1-A)*%
G36*
X124368391Y-93276136D02*
G01*
X125477964Y-93759239D01*
X125960362Y-93969273D01*
X125966579Y-93975717D01*
X125966418Y-93984671D01*
X125960362Y-93990727D01*
X124368395Y-94683862D01*
X124359441Y-94684023D01*
X124356218Y-94682110D01*
X124119476Y-94484104D01*
X123877198Y-94322113D01*
X123877196Y-94322112D01*
X123634901Y-94200758D01*
X123634902Y-94200758D01*
X123392629Y-94120060D01*
X123392608Y-94120054D01*
X123160125Y-94081618D01*
X123152521Y-94076888D01*
X123150333Y-94070075D01*
X123150333Y-93889924D01*
X123153760Y-93881651D01*
X123160125Y-93878381D01*
X123392608Y-93839944D01*
X123392609Y-93839943D01*
X123392619Y-93839942D01*
X123634905Y-93759239D01*
X123877192Y-93637889D01*
X124119478Y-93475893D01*
X124356220Y-93277888D01*
X124364762Y-93275210D01*
X124368391Y-93276136D01*
G37*
%TD.AperFunction*%
%TD*%
%TA.AperFunction,Conductor*%
%TO.N,Net-(D1-K2)*%
G36*
X120242737Y-95694156D02*
G01*
X120243807Y-95694666D01*
X120593597Y-95883751D01*
X120595423Y-95884973D01*
X120835287Y-96080649D01*
X120941938Y-96169856D01*
X121040482Y-96252283D01*
X121040483Y-96252283D01*
X121040485Y-96252285D01*
X121296083Y-96373848D01*
X121677668Y-96418783D01*
X121685484Y-96423154D01*
X121688000Y-96430403D01*
X121688000Y-96609596D01*
X121684573Y-96617869D01*
X121677668Y-96621216D01*
X121296084Y-96666150D01*
X121040486Y-96787712D01*
X121040482Y-96787714D01*
X120835357Y-96959290D01*
X120835246Y-96959382D01*
X120595426Y-97155022D01*
X120593594Y-97156248D01*
X120243813Y-97345330D01*
X120234905Y-97346250D01*
X120227957Y-97340602D01*
X120227444Y-97339526D01*
X119888863Y-96524487D01*
X119888855Y-96515534D01*
X119888864Y-96515512D01*
X119927231Y-96423154D01*
X120227444Y-95700472D01*
X120233783Y-95694147D01*
X120242737Y-95694156D01*
G37*
%TD.AperFunction*%
%TD*%
%TA.AperFunction,Conductor*%
%TO.N,Net-(D1-K2)*%
G36*
X124368391Y-95816136D02*
G01*
X125477964Y-96299239D01*
X125960362Y-96509273D01*
X125966579Y-96515717D01*
X125966418Y-96524671D01*
X125960362Y-96530727D01*
X124368395Y-97223862D01*
X124359441Y-97224023D01*
X124356218Y-97222110D01*
X124119476Y-97024104D01*
X123877198Y-96862113D01*
X123877196Y-96862112D01*
X123634901Y-96740758D01*
X123634902Y-96740758D01*
X123392629Y-96660060D01*
X123392608Y-96660054D01*
X123160125Y-96621618D01*
X123152521Y-96616888D01*
X123150333Y-96610075D01*
X123150333Y-96429924D01*
X123153760Y-96421651D01*
X123160125Y-96418381D01*
X123392608Y-96379944D01*
X123392609Y-96379943D01*
X123392619Y-96379942D01*
X123634905Y-96299239D01*
X123877192Y-96177889D01*
X124119478Y-96015893D01*
X124356220Y-95817888D01*
X124364762Y-95815210D01*
X124368391Y-95816136D01*
G37*
%TD.AperFunction*%
%TD*%
%TA.AperFunction,Conductor*%
%TO.N,Net-(D1-K1)*%
G36*
X120795158Y-90549386D02*
G01*
X120796128Y-90550488D01*
X120967994Y-90772242D01*
X120968000Y-90772249D01*
X121148000Y-90968373D01*
X121328000Y-91128373D01*
X121508000Y-91252249D01*
X121681427Y-91336796D01*
X121687362Y-91343501D01*
X121688000Y-91347312D01*
X121688000Y-91532687D01*
X121684573Y-91540960D01*
X121681427Y-91543204D01*
X121507999Y-91627750D01*
X121328010Y-91751618D01*
X121328006Y-91751621D01*
X121147998Y-91911627D01*
X121147994Y-91911631D01*
X120968006Y-92107742D01*
X120967994Y-92107756D01*
X120796128Y-92329511D01*
X120788351Y-92333951D01*
X120779713Y-92331592D01*
X120778615Y-92330626D01*
X119895286Y-91448277D01*
X119891856Y-91440006D01*
X119895278Y-91431731D01*
X119895287Y-91431722D01*
X119987111Y-91340000D01*
X120778613Y-90549375D01*
X120786886Y-90545955D01*
X120795158Y-90549386D01*
G37*
%TD.AperFunction*%
%TD*%
%TA.AperFunction,Conductor*%
%TO.N,Net-(D1-K1)*%
G36*
X124368391Y-90736136D02*
G01*
X125477964Y-91219239D01*
X125960362Y-91429273D01*
X125966579Y-91435717D01*
X125966418Y-91444671D01*
X125960362Y-91450727D01*
X124368395Y-92143862D01*
X124359441Y-92144023D01*
X124356218Y-92142110D01*
X124119476Y-91944104D01*
X123877198Y-91782113D01*
X123877196Y-91782112D01*
X123634901Y-91660758D01*
X123634902Y-91660758D01*
X123392629Y-91580060D01*
X123392608Y-91580054D01*
X123160125Y-91541618D01*
X123152521Y-91536888D01*
X123150333Y-91530075D01*
X123150333Y-91349924D01*
X123153760Y-91341651D01*
X123160125Y-91338381D01*
X123392608Y-91299944D01*
X123392609Y-91299943D01*
X123392619Y-91299942D01*
X123634905Y-91219239D01*
X123877192Y-91097889D01*
X124119478Y-90935893D01*
X124356220Y-90737888D01*
X124364762Y-90735210D01*
X124368391Y-90736136D01*
G37*
%TD.AperFunction*%
%TD*%
%TA.AperFunction,Conductor*%
%TO.N,Net-(U1-OC)*%
G36*
X131431286Y-71975567D02*
G01*
X131479614Y-71999089D01*
X131479621Y-71999091D01*
X131479622Y-71999092D01*
X131531940Y-72018560D01*
X131531947Y-72018562D01*
X131531960Y-72018567D01*
X131558133Y-72025305D01*
X131584298Y-72032042D01*
X131584301Y-72032042D01*
X131584307Y-72032044D01*
X131636653Y-72039522D01*
X131674713Y-72040596D01*
X131677630Y-72040679D01*
X131685803Y-72044338D01*
X131689000Y-72052374D01*
X131689000Y-72231311D01*
X131685573Y-72239584D01*
X131679482Y-72242806D01*
X131639882Y-72250321D01*
X131639869Y-72250324D01*
X131590767Y-72265641D01*
X131590759Y-72265644D01*
X131590757Y-72265645D01*
X131546610Y-72284807D01*
X131541628Y-72286970D01*
X131492507Y-72314294D01*
X131492502Y-72314296D01*
X131447789Y-72344630D01*
X131439019Y-72346439D01*
X131438255Y-72346266D01*
X130791932Y-72176859D01*
X130784798Y-72171446D01*
X130783580Y-72162575D01*
X130788993Y-72155441D01*
X130791690Y-72154290D01*
X131422969Y-71974834D01*
X131431286Y-71975567D01*
G37*
%TD.AperFunction*%
%TD*%
%TA.AperFunction,Conductor*%
%TO.N,Net-(U1-OC)*%
G36*
X134443246Y-71855779D02*
G01*
X134986842Y-72130558D01*
X134992680Y-72137349D01*
X134992006Y-72146278D01*
X134986842Y-72151442D01*
X134443246Y-72426220D01*
X134434317Y-72426894D01*
X134430738Y-72424977D01*
X134358077Y-72367865D01*
X134358068Y-72367859D01*
X134358065Y-72367857D01*
X134279556Y-72318147D01*
X134201047Y-72280435D01*
X134201044Y-72280434D01*
X134122516Y-72254715D01*
X134053687Y-72242692D01*
X134046127Y-72237893D01*
X134044000Y-72231167D01*
X134044000Y-72050832D01*
X134047427Y-72042559D01*
X134053684Y-72039308D01*
X134122519Y-72027283D01*
X134201038Y-72001567D01*
X134201044Y-72001563D01*
X134201047Y-72001563D01*
X134279556Y-71963851D01*
X134279558Y-71963850D01*
X134358077Y-71914134D01*
X134430740Y-71857021D01*
X134439360Y-71854604D01*
X134443246Y-71855779D01*
G37*
%TD.AperFunction*%
%TD*%
%TA.AperFunction,Conductor*%
%TO.N,Net-(U1-OD)*%
G36*
X134443246Y-69955779D02*
G01*
X134986842Y-70230558D01*
X134992680Y-70237349D01*
X134992006Y-70246278D01*
X134986842Y-70251442D01*
X134443246Y-70526220D01*
X134434317Y-70526894D01*
X134430738Y-70524977D01*
X134358077Y-70467865D01*
X134358068Y-70467859D01*
X134358065Y-70467857D01*
X134279556Y-70418147D01*
X134201047Y-70380435D01*
X134201044Y-70380434D01*
X134122516Y-70354715D01*
X134053687Y-70342692D01*
X134046127Y-70337893D01*
X134044000Y-70331167D01*
X134044000Y-70150832D01*
X134047427Y-70142559D01*
X134053684Y-70139308D01*
X134122519Y-70127283D01*
X134201038Y-70101567D01*
X134201044Y-70101563D01*
X134201047Y-70101563D01*
X134279556Y-70063851D01*
X134279558Y-70063850D01*
X134358077Y-70014134D01*
X134430740Y-69957021D01*
X134439360Y-69954604D01*
X134443246Y-69955779D01*
G37*
%TD.AperFunction*%
%TD*%
%TA.AperFunction,Conductor*%
%TO.N,Net-(U1-OD)*%
G36*
X133569860Y-69900684D02*
G01*
X133570351Y-69901209D01*
X133636019Y-69975839D01*
X133636518Y-69976447D01*
X133689146Y-70045192D01*
X133689151Y-70045198D01*
X133689156Y-70045204D01*
X133689163Y-70045211D01*
X133739989Y-70097064D01*
X133739993Y-70097067D01*
X133803046Y-70127309D01*
X133807983Y-70129677D01*
X133901896Y-70139867D01*
X133909751Y-70144167D01*
X133912334Y-70151499D01*
X133912334Y-70329835D01*
X133908907Y-70338108D01*
X133901181Y-70341522D01*
X133772362Y-70347552D01*
X133673662Y-70363174D01*
X133673644Y-70363177D01*
X133589017Y-70381750D01*
X133588338Y-70381878D01*
X133490601Y-70397347D01*
X133489319Y-70397478D01*
X133362206Y-70403428D01*
X133353782Y-70400392D01*
X133349972Y-70392288D01*
X133349959Y-70391780D01*
X133349812Y-70347552D01*
X133349016Y-70108884D01*
X133352414Y-70100601D01*
X133553314Y-69900644D01*
X133561595Y-69897238D01*
X133569860Y-69900684D01*
G37*
%TD.AperFunction*%
%TD*%
%TA.AperFunction,Conductor*%
%TO.N,Net-(U1-OD)*%
G36*
X123061359Y-72625926D02*
G01*
X123061915Y-72626176D01*
X123167654Y-72677000D01*
X123168517Y-72677462D01*
X123250290Y-72725893D01*
X123322359Y-72764102D01*
X123322364Y-72764103D01*
X123322368Y-72764105D01*
X123409268Y-72789061D01*
X123409272Y-72789062D01*
X123525124Y-72797232D01*
X123533135Y-72801232D01*
X123536000Y-72808903D01*
X123536000Y-72987095D01*
X123532573Y-72995368D01*
X123525123Y-72998766D01*
X123409270Y-73006936D01*
X123409267Y-73006936D01*
X123322359Y-73031897D01*
X123322354Y-73031899D01*
X123250311Y-73070093D01*
X123250274Y-73070114D01*
X123168531Y-73118527D01*
X123167638Y-73119005D01*
X123061917Y-73169822D01*
X123052976Y-73170318D01*
X123046303Y-73164346D01*
X123046052Y-73163788D01*
X122990945Y-73031897D01*
X122936883Y-72902509D01*
X122936857Y-72893556D01*
X122936862Y-72893542D01*
X123046052Y-72632210D01*
X123052404Y-72625899D01*
X123061359Y-72625926D01*
G37*
%TD.AperFunction*%
%TD*%
%TA.AperFunction,Conductor*%
%TO.N,Net-(U1-OD)*%
G36*
X125031638Y-72176121D02*
G01*
X125031660Y-72176175D01*
X125104989Y-72355364D01*
X125104951Y-72364318D01*
X125098785Y-72370542D01*
X125038640Y-72396421D01*
X125038626Y-72396427D01*
X124970542Y-72431501D01*
X124967921Y-72432852D01*
X124932564Y-72454066D01*
X124897201Y-72475284D01*
X124826501Y-72523703D01*
X124826483Y-72523717D01*
X124763932Y-72571864D01*
X124755286Y-72574194D01*
X124748523Y-72570865D01*
X124615085Y-72437427D01*
X124613788Y-72435885D01*
X124600226Y-72416568D01*
X124586084Y-72399426D01*
X124571942Y-72385284D01*
X124569248Y-72383161D01*
X124561823Y-72377311D01*
X124557445Y-72369499D01*
X124559874Y-72360880D01*
X124564575Y-72357317D01*
X125016348Y-72169799D01*
X125025302Y-72169793D01*
X125031638Y-72176121D01*
G37*
%TD.AperFunction*%
%TD*%
%TA.AperFunction,Conductor*%
%TO.N,Net-(U1-CS)*%
G36*
X134443246Y-70905779D02*
G01*
X134986842Y-71180558D01*
X134992680Y-71187349D01*
X134992006Y-71196278D01*
X134986842Y-71201442D01*
X134443246Y-71476220D01*
X134434317Y-71476894D01*
X134430738Y-71474977D01*
X134358077Y-71417865D01*
X134358068Y-71417859D01*
X134358065Y-71417857D01*
X134279556Y-71368147D01*
X134201047Y-71330435D01*
X134201044Y-71330434D01*
X134122516Y-71304715D01*
X134053687Y-71292692D01*
X134046127Y-71287893D01*
X134044000Y-71281167D01*
X134044000Y-71100832D01*
X134047427Y-71092559D01*
X134053684Y-71089308D01*
X134122519Y-71077283D01*
X134201038Y-71051567D01*
X134201044Y-71051563D01*
X134201047Y-71051563D01*
X134279556Y-71013851D01*
X134279558Y-71013850D01*
X134358077Y-70964134D01*
X134430740Y-70907021D01*
X134439360Y-70904604D01*
X134443246Y-70905779D01*
G37*
%TD.AperFunction*%
%TD*%
%TA.AperFunction,Conductor*%
%TO.N,Net-(U1-CS)*%
G36*
X133658359Y-70918926D02*
G01*
X133658915Y-70919176D01*
X133764654Y-70970000D01*
X133765517Y-70970462D01*
X133847290Y-71018893D01*
X133919359Y-71057102D01*
X133919364Y-71057103D01*
X133919368Y-71057105D01*
X134006268Y-71082061D01*
X134006272Y-71082062D01*
X134122124Y-71090232D01*
X134130135Y-71094232D01*
X134133000Y-71101903D01*
X134133000Y-71280095D01*
X134129573Y-71288368D01*
X134122123Y-71291766D01*
X134006270Y-71299936D01*
X134006267Y-71299936D01*
X133919359Y-71324897D01*
X133919354Y-71324899D01*
X133847311Y-71363093D01*
X133847274Y-71363114D01*
X133765531Y-71411527D01*
X133764638Y-71412005D01*
X133658917Y-71462822D01*
X133649976Y-71463318D01*
X133643303Y-71457346D01*
X133643052Y-71456788D01*
X133587945Y-71324897D01*
X133533883Y-71195509D01*
X133533857Y-71186556D01*
X133533862Y-71186542D01*
X133643052Y-70925210D01*
X133649404Y-70918899D01*
X133658359Y-70918926D01*
G37*
%TD.AperFunction*%
%TD*%
%TA.AperFunction,Conductor*%
%TO.N,Net-(U1-CS)*%
G36*
X132435467Y-74519927D02*
G01*
X132437364Y-74522415D01*
X132516507Y-74661554D01*
X132516507Y-74661555D01*
X132599001Y-74786559D01*
X132599002Y-74786560D01*
X132681495Y-74891537D01*
X132681494Y-74891537D01*
X132763996Y-74976497D01*
X132764002Y-74976503D01*
X132799775Y-75004657D01*
X132836027Y-75033188D01*
X132840409Y-75040997D01*
X132837985Y-75049618D01*
X132836970Y-75050748D01*
X132342179Y-75534503D01*
X132333868Y-75537836D01*
X132325821Y-75534503D01*
X132106829Y-75320396D01*
X131831028Y-75050747D01*
X131827509Y-75042514D01*
X131830842Y-75034203D01*
X131831961Y-75033197D01*
X131904000Y-74976501D01*
X131986500Y-74891543D01*
X132069000Y-74786557D01*
X132113559Y-74719034D01*
X132151492Y-74661555D01*
X132151492Y-74661554D01*
X132151491Y-74661554D01*
X132151500Y-74661542D01*
X132230636Y-74522415D01*
X132237705Y-74516918D01*
X132240806Y-74516500D01*
X132427194Y-74516500D01*
X132435467Y-74519927D01*
G37*
%TD.AperFunction*%
%TD*%
%TA.AperFunction,Conductor*%
%TO.N,Net-(U1-CS)*%
G36*
X132561917Y-74262228D02*
G01*
X132599788Y-74278052D01*
X132606100Y-74284404D01*
X132606073Y-74293359D01*
X132605822Y-74293917D01*
X132555005Y-74399638D01*
X132554527Y-74400531D01*
X132506114Y-74482274D01*
X132506093Y-74482311D01*
X132467899Y-74554354D01*
X132467897Y-74554359D01*
X132442936Y-74641267D01*
X132442936Y-74641270D01*
X132434767Y-74757123D01*
X132430767Y-74765135D01*
X132423096Y-74768000D01*
X132244904Y-74768000D01*
X132236631Y-74764573D01*
X132233233Y-74757123D01*
X132232059Y-74740488D01*
X132225062Y-74641272D01*
X132225061Y-74641267D01*
X132225061Y-74641266D01*
X132200105Y-74554368D01*
X132200103Y-74554364D01*
X132200102Y-74554359D01*
X132161893Y-74482290D01*
X132113462Y-74400517D01*
X132113000Y-74399654D01*
X132062176Y-74293916D01*
X132061681Y-74284975D01*
X132067653Y-74278303D01*
X132068202Y-74278055D01*
X132329490Y-74168883D01*
X132338444Y-74168857D01*
X132561917Y-74262228D01*
G37*
%TD.AperFunction*%
%TD*%
%TA.AperFunction,Conductor*%
%TO.N,+12V*%
G36*
X74805909Y-88085412D02*
G01*
X74936891Y-88216394D01*
X74940318Y-88224667D01*
X74940222Y-88226165D01*
X74915718Y-88415972D01*
X74890476Y-88653650D01*
X74865229Y-88933507D01*
X74839998Y-89255326D01*
X74815298Y-89611607D01*
X74811307Y-89619624D01*
X74807276Y-89621914D01*
X72728186Y-90304504D01*
X72719256Y-90303829D01*
X72713420Y-90297038D01*
X72713046Y-90291180D01*
X73043517Y-88571808D01*
X73043899Y-88569820D01*
X73048826Y-88562343D01*
X73055781Y-88560336D01*
X73396537Y-88571808D01*
X73571912Y-88550712D01*
X73747273Y-88529618D01*
X73747276Y-88529617D01*
X73747287Y-88529616D01*
X74098037Y-88433424D01*
X74448787Y-88283232D01*
X74791751Y-88083573D01*
X74800624Y-88082373D01*
X74805909Y-88085412D01*
G37*
%TD.AperFunction*%
%TD*%
%TA.AperFunction,Conductor*%
%TO.N,+12V*%
G36*
X72700743Y-90316170D02*
G01*
X72706579Y-90322961D01*
X72706953Y-90328819D01*
X72375189Y-92054920D01*
X72370262Y-92062398D01*
X72369798Y-92062696D01*
X72115396Y-92218107D01*
X71856557Y-92391233D01*
X71597731Y-92579348D01*
X71338921Y-92782450D01*
X71088297Y-92993654D01*
X71079762Y-92996365D01*
X71072484Y-92992980D01*
X70026560Y-91947056D01*
X70023133Y-91938783D01*
X70025437Y-91931812D01*
X70136586Y-91782042D01*
X70253751Y-91609166D01*
X70370915Y-91421291D01*
X70488080Y-91218415D01*
X70603032Y-91004655D01*
X70609684Y-90999082D01*
X72691815Y-90315495D01*
X72700743Y-90316170D01*
G37*
%TD.AperFunction*%
%TD*%
%TA.AperFunction,Conductor*%
%TO.N,+6V*%
G36*
X114347515Y-87627019D02*
G01*
X115393439Y-88672943D01*
X115396866Y-88681216D01*
X115394561Y-88688189D01*
X115283410Y-88837960D01*
X115166253Y-89010824D01*
X115049081Y-89198710D01*
X114931921Y-89401577D01*
X114816967Y-89615342D01*
X114810312Y-89620917D01*
X112728186Y-90304504D01*
X112719256Y-90303829D01*
X112713420Y-90297038D01*
X112713046Y-90291180D01*
X113044811Y-88565077D01*
X113049737Y-88557601D01*
X113050185Y-88557313D01*
X113304613Y-88401884D01*
X113563439Y-88228768D01*
X113822265Y-88040653D01*
X114081091Y-87837537D01*
X114331703Y-87626344D01*
X114340237Y-87623634D01*
X114347515Y-87627019D01*
G37*
%TD.AperFunction*%
%TD*%
M02*
