%TF.GenerationSoftware,KiCad,Pcbnew,8.0.4*%
%TF.CreationDate,2024-09-16T22:07:11+05:30*%
%TF.ProjectId,mmeshtastic-pcb,6d6d6573-6874-4617-9374-69632d706362,rev?*%
%TF.SameCoordinates,Original*%
%TF.FileFunction,Copper,L2,Bot*%
%TF.FilePolarity,Positive*%
%FSLAX46Y46*%
G04 Gerber Fmt 4.6, Leading zero omitted, Abs format (unit mm)*
G04 Created by KiCad (PCBNEW 8.0.4) date 2024-09-16 22:07:11*
%MOMM*%
%LPD*%
G01*
G04 APERTURE LIST*
G04 Aperture macros list*
%AMRoundRect*
0 Rectangle with rounded corners*
0 $1 Rounding radius*
0 $2 $3 $4 $5 $6 $7 $8 $9 X,Y pos of 4 corners*
0 Add a 4 corners polygon primitive as box body*
4,1,4,$2,$3,$4,$5,$6,$7,$8,$9,$2,$3,0*
0 Add four circle primitives for the rounded corners*
1,1,$1+$1,$2,$3*
1,1,$1+$1,$4,$5*
1,1,$1+$1,$6,$7*
1,1,$1+$1,$8,$9*
0 Add four rect primitives between the rounded corners*
20,1,$1+$1,$2,$3,$4,$5,0*
20,1,$1+$1,$4,$5,$6,$7,0*
20,1,$1+$1,$6,$7,$8,$9,0*
20,1,$1+$1,$8,$9,$2,$3,0*%
G04 Aperture macros list end*
%TA.AperFunction,ComponentPad*%
%ADD10C,1.200000*%
%TD*%
%TA.AperFunction,ComponentPad*%
%ADD11RoundRect,0.312500X-0.937500X0.937500X-0.937500X-0.937500X0.937500X-0.937500X0.937500X0.937500X0*%
%TD*%
%TA.AperFunction,ComponentPad*%
%ADD12C,2.200000*%
%TD*%
%TA.AperFunction,ComponentPad*%
%ADD13R,1.700000X1.700000*%
%TD*%
%TA.AperFunction,ComponentPad*%
%ADD14O,1.700000X1.700000*%
%TD*%
%TA.AperFunction,ComponentPad*%
%ADD15R,1.800000X1.800000*%
%TD*%
%TA.AperFunction,ComponentPad*%
%ADD16C,1.800000*%
%TD*%
%TA.AperFunction,SMDPad,CuDef*%
%ADD17R,1.600000X3.200000*%
%TD*%
%TA.AperFunction,ViaPad*%
%ADD18C,0.600000*%
%TD*%
%TA.AperFunction,Conductor*%
%ADD19C,0.200000*%
%TD*%
%TA.AperFunction,Conductor*%
%ADD20C,1.500000*%
%TD*%
%TA.AperFunction,Conductor*%
%ADD21C,0.400000*%
%TD*%
G04 APERTURE END LIST*
D10*
%TO.P,U2,20,GND*%
%TO.N,GND*%
X137160000Y-107188000D03*
X137160000Y-104648000D03*
X137160000Y-102108000D03*
X137160000Y-99568000D03*
X137160000Y-97028000D03*
X137160000Y-94488000D03*
X134620000Y-107188000D03*
X134620000Y-104648000D03*
X134620000Y-102108000D03*
X134620000Y-99568000D03*
X134620000Y-97028000D03*
X134620000Y-94488000D03*
X132080000Y-107188000D03*
X132080000Y-104648000D03*
X132080000Y-102108000D03*
X132080000Y-99568000D03*
X132080000Y-97028000D03*
X132080000Y-94488000D03*
X129540000Y-107188000D03*
X129540000Y-104648000D03*
X129540000Y-102108000D03*
X129540000Y-99568000D03*
X129540000Y-97028000D03*
X129540000Y-94488000D03*
%TD*%
D11*
%TO.P,TP2,1,1*%
%TO.N,GND*%
X66610000Y-107950000D03*
%TD*%
D12*
%TO.P,JP2,1,A*%
%TO.N,Net-(JP2-A)*%
X136652000Y-83820000D03*
%TO.P,JP2,2,B*%
%TO.N,+BATT*%
X134112000Y-83820000D03*
%TD*%
D13*
%TO.P,J1,1,Pin_1*%
%TO.N,/SOLAR_SNS*%
X54610000Y-81280000D03*
D14*
%TO.P,J1,2,Pin_2*%
%TO.N,/BAT_SNS*%
X54610000Y-83820000D03*
%TO.P,J1,3,Pin_3*%
%TO.N,+3V3*%
X54610000Y-86360000D03*
%TO.P,J1,4,Pin_4*%
%TO.N,+BATT*%
X54610000Y-88900000D03*
%TO.P,J1,5,Pin_5*%
%TO.N,GND*%
X54610000Y-91440000D03*
%TD*%
D13*
%TO.P,J2,1,Pin_1*%
%TO.N,+12V*%
X54585000Y-97897000D03*
D14*
%TO.P,J2,2,Pin_2*%
%TO.N,GND*%
X54585000Y-95357000D03*
%TD*%
D11*
%TO.P,TP1,1,1*%
%TO.N,+12V*%
X66577000Y-102616000D03*
%TD*%
D12*
%TO.P,JP1,1,A*%
%TO.N,+6V*%
X123190000Y-83820000D03*
%TO.P,JP1,2,B*%
%TO.N,+6V_TP*%
X125730000Y-83820000D03*
%TD*%
D11*
%TO.P,TP4,1,1*%
%TO.N,-BATT*%
X66610000Y-71120000D03*
%TD*%
%TO.P,TP3,1,1*%
%TO.N,+BATT*%
X66577000Y-76454000D03*
%TD*%
D15*
%TO.P,D1,1,K1*%
%TO.N,Net-(D1-K1)*%
X119888000Y-91440000D03*
D16*
%TO.P,D1,2,A*%
%TO.N,Net-(D1-A)*%
X119888000Y-93980000D03*
%TO.P,D1,3,K2*%
%TO.N,Net-(D1-K2)*%
X119888000Y-96520000D03*
%TD*%
D17*
%TO.P,M1,1,GP0*%
%TO.N,unconnected-(M1-GP0-Pad1)*%
X110993500Y-99625000D03*
%TO.P,M1,2,GP1*%
%TO.N,unconnected-(M1-GP1-Pad2)*%
X108453500Y-99625000D03*
%TO.P,M1,3,GND*%
%TO.N,GND*%
X105913500Y-99625000D03*
%TO.P,M1,4,GP2*%
%TO.N,unconnected-(M1-GP2-Pad4)*%
X103373500Y-99625000D03*
%TO.P,M1,5,GP3*%
%TO.N,unconnected-(M1-GP3-Pad5)*%
X100833500Y-99625000D03*
%TO.P,M1,6,GP4*%
%TO.N,unconnected-(M1-GP4-Pad6)*%
X98293500Y-99625000D03*
%TO.P,M1,7,GP5*%
%TO.N,unconnected-(M1-GP5-Pad7)*%
X95753500Y-99625000D03*
%TO.P,M1,8,GND*%
%TO.N,GND*%
X93213500Y-99625000D03*
%TO.P,M1,9,GP6*%
%TO.N,unconnected-(M1-GP6-Pad9)*%
X90673500Y-99625000D03*
%TO.P,M1,10,GP7*%
%TO.N,unconnected-(M1-GP7-Pad10)*%
X88133500Y-99625000D03*
%TO.P,M1,11,GP8*%
%TO.N,unconnected-(M1-GP8-Pad11)*%
X85593500Y-99625000D03*
%TO.P,M1,12,GP9*%
%TO.N,unconnected-(M1-GP9-Pad12)*%
X83053500Y-99625000D03*
%TO.P,M1,13,GND*%
%TO.N,GND*%
X80513500Y-99625000D03*
%TO.P,M1,14,GP10*%
%TO.N,unconnected-(M1-GP10-Pad14)*%
X77973500Y-99625000D03*
%TO.P,M1,15,GP11*%
%TO.N,unconnected-(M1-GP11-Pad15)*%
X75433500Y-99625000D03*
%TO.P,M1,16,GP12*%
%TO.N,unconnected-(M1-GP12-Pad16)*%
X72893500Y-99625000D03*
%TO.P,M1,25,GP19*%
%TO.N,unconnected-(M1-GP19-Pad25)*%
X72893500Y-79445000D03*
%TO.P,M1,26,GP20*%
%TO.N,unconnected-(M1-GP20-Pad26)*%
X75433500Y-79445000D03*
%TO.P,M1,27,GP21*%
%TO.N,unconnected-(M1-GP21-Pad27)*%
X77973500Y-79445000D03*
%TO.P,M1,28,GND*%
%TO.N,GND*%
X80513500Y-79445000D03*
%TO.P,M1,29,GP22*%
%TO.N,unconnected-(M1-GP22-Pad29)*%
X83053500Y-79445000D03*
%TO.P,M1,30,RUN*%
%TO.N,unconnected-(M1-RUN-Pad30)*%
X85593500Y-79445000D03*
%TO.P,M1,31,GP26*%
%TO.N,/SOLAR_SNS*%
X88133500Y-79445000D03*
%TO.P,M1,32,GP27*%
%TO.N,/BAT_SNS*%
X90673500Y-79445000D03*
%TO.P,M1,33,GND*%
%TO.N,GND*%
X93213500Y-79445000D03*
%TO.P,M1,34,GP28*%
%TO.N,unconnected-(M1-GP28-Pad34)*%
X95753500Y-79445000D03*
%TO.P,M1,35,ADC_REF*%
%TO.N,unconnected-(M1-ADC_REF-Pad35)*%
X98293500Y-79445000D03*
%TO.P,M1,36,3V3(OUT)*%
%TO.N,+3V3*%
X100833500Y-79445000D03*
%TO.P,M1,37,3v3_EN*%
%TO.N,unconnected-(M1-3v3_EN-Pad37)*%
X103373500Y-79445000D03*
%TO.P,M1,38,GND*%
%TO.N,GND*%
X105913500Y-79445000D03*
%TO.P,M1,39,VSYS*%
%TO.N,unconnected-(M1-VSYS-Pad39)*%
X108453500Y-79445000D03*
%TO.P,M1,40,VBUS*%
%TO.N,unconnected-(M1-VBUS-Pad40)*%
X110993500Y-79445000D03*
%TD*%
D18*
%TO.N,/BAT_SNS*%
X116967000Y-77366500D03*
%TO.N,+12V*%
X129540000Y-73914000D03*
X114808000Y-84328000D03*
%TO.N,-BATT*%
X122936000Y-71191000D03*
X139319000Y-78867000D03*
X138684000Y-69596000D03*
%TO.N,/SOLAR_SNS*%
X100838000Y-73914000D03*
%TO.N,+3V3*%
X100838000Y-75946000D03*
%TO.N,Net-(JP3-A)*%
X125349000Y-77366500D03*
X119634000Y-73152000D03*
%TO.N,Net-(U1-OD)*%
X122936000Y-72898000D03*
X133350000Y-70104000D03*
%TO.N,Net-(U1-CS)*%
X133533000Y-71191000D03*
X132334000Y-74168000D03*
%TD*%
D19*
%TO.N,/BAT_SNS*%
X90673500Y-76458500D02*
X90673500Y-79445000D01*
X116967000Y-77366500D02*
X115212500Y-77366500D01*
X113192000Y-75346000D02*
X91786000Y-75346000D01*
X89154000Y-84582000D02*
X90673500Y-83062500D01*
X90673500Y-83062500D02*
X90673500Y-79445000D01*
X91786000Y-75346000D02*
X90673500Y-76458500D01*
X115212500Y-77366500D02*
X113192000Y-75346000D01*
X57658000Y-83820000D02*
X58420000Y-84582000D01*
X58420000Y-84582000D02*
X89154000Y-84582000D01*
X54610000Y-83820000D02*
X57658000Y-83820000D01*
%TO.N,+12V*%
X114808000Y-84328000D02*
X116840000Y-84328000D01*
X120015000Y-81153000D02*
X127889000Y-81153000D01*
X127889000Y-81153000D02*
X129540000Y-79502000D01*
X129540000Y-79502000D02*
X129540000Y-73914000D01*
X116840000Y-84328000D02*
X120015000Y-81153000D01*
%TO.N,-BATT*%
X138684000Y-69596000D02*
X139065000Y-69977000D01*
X138492000Y-69404000D02*
X124723000Y-69404000D01*
X138684000Y-69596000D02*
X138492000Y-69404000D01*
X124723000Y-69404000D02*
X122936000Y-71191000D01*
X139065000Y-69977000D02*
X139065000Y-78613000D01*
D20*
X66610000Y-71120000D02*
X122865000Y-71120000D01*
D19*
X139065000Y-78613000D02*
X139319000Y-78867000D01*
D20*
X122865000Y-71120000D02*
X122936000Y-71191000D01*
D19*
%TO.N,/SOLAR_SNS*%
X54610000Y-81280000D02*
X57404000Y-81280000D01*
X88133500Y-75950500D02*
X88133500Y-78645000D01*
X87376000Y-82804000D02*
X88133500Y-82046500D01*
X58928000Y-82804000D02*
X87376000Y-82804000D01*
X88133500Y-82046500D02*
X88133500Y-79445000D01*
X90170000Y-73914000D02*
X88133500Y-75950500D01*
X100838000Y-73914000D02*
X90170000Y-73914000D01*
X57404000Y-81280000D02*
X58928000Y-82804000D01*
D21*
%TO.N,+3V3*%
X100838000Y-75946000D02*
X100833500Y-75950500D01*
D19*
X100833500Y-83824500D02*
X100833500Y-79445000D01*
X54610000Y-86360000D02*
X98298000Y-86360000D01*
X98298000Y-86360000D02*
X100833500Y-83824500D01*
D21*
X100833500Y-75950500D02*
X100833500Y-79445000D01*
D19*
%TO.N,Net-(JP3-A)*%
X119634000Y-73215500D02*
X119634000Y-73152000D01*
X123785000Y-77366500D02*
X119634000Y-73215500D01*
X125349000Y-77366500D02*
X123785000Y-77366500D01*
%TO.N,Net-(U1-OD)*%
X125984000Y-72898000D02*
X128778000Y-70104000D01*
X122936000Y-72898000D02*
X125984000Y-72898000D01*
X128778000Y-70104000D02*
X133350000Y-70104000D01*
%TO.N,Net-(U1-CS)*%
X132334000Y-74168000D02*
X133533000Y-72969000D01*
X133533000Y-72969000D02*
X133533000Y-71191000D01*
%TD*%
%TA.AperFunction,Conductor*%
%TO.N,GND*%
G36*
X137704418Y-68580316D02*
G01*
X137975790Y-68599724D01*
X137993291Y-68602241D01*
X138254803Y-68659129D01*
X138271762Y-68664108D01*
X138509874Y-68752919D01*
X138565806Y-68794791D01*
X138590223Y-68860255D01*
X138575371Y-68928528D01*
X138525966Y-68977933D01*
X138469197Y-68993072D01*
X138456881Y-68993336D01*
X138456280Y-68993326D01*
X138373874Y-68995768D01*
X138373037Y-68995789D01*
X138285449Y-68997668D01*
X138283583Y-68997693D01*
X138168104Y-68998430D01*
X138161963Y-68998531D01*
X138151647Y-69000744D01*
X138125648Y-69003500D01*
X124783339Y-69003500D01*
X124783323Y-69003499D01*
X124775727Y-69003499D01*
X124670273Y-69003499D01*
X124602366Y-69021695D01*
X124568412Y-69030793D01*
X124477084Y-69083522D01*
X124402518Y-69158089D01*
X123427513Y-70133093D01*
X123366190Y-70166578D01*
X123296498Y-70161594D01*
X123292379Y-70159973D01*
X123171420Y-70109870D01*
X123171412Y-70109868D01*
X122968469Y-70069500D01*
X122968465Y-70069500D01*
X68246119Y-70069500D01*
X68179080Y-70049815D01*
X68133325Y-69997011D01*
X68127043Y-69980095D01*
X68114556Y-69937117D01*
X68114555Y-69937114D01*
X68114555Y-69937113D01*
X68051579Y-69830627D01*
X68035717Y-69803805D01*
X68035710Y-69803796D01*
X67926203Y-69694289D01*
X67926194Y-69694282D01*
X67796047Y-69617314D01*
X67792887Y-69615445D01*
X67644156Y-69572235D01*
X67644153Y-69572234D01*
X67644151Y-69572234D01*
X67616563Y-69570063D01*
X67609405Y-69569500D01*
X67609403Y-69569500D01*
X65610606Y-69569500D01*
X65610584Y-69569501D01*
X65575847Y-69572234D01*
X65575844Y-69572235D01*
X65427113Y-69615445D01*
X65427111Y-69615445D01*
X65427111Y-69615446D01*
X65293805Y-69694282D01*
X65293796Y-69694289D01*
X65184289Y-69803796D01*
X65184282Y-69803805D01*
X65105446Y-69937111D01*
X65105445Y-69937113D01*
X65080120Y-70024282D01*
X65062234Y-70085847D01*
X65062234Y-70085849D01*
X65059500Y-70120589D01*
X65059500Y-72119393D01*
X65059501Y-72119415D01*
X65062234Y-72154152D01*
X65062234Y-72154155D01*
X65062235Y-72154156D01*
X65105445Y-72302887D01*
X65105446Y-72302888D01*
X65184282Y-72436194D01*
X65184289Y-72436203D01*
X65293796Y-72545710D01*
X65293805Y-72545717D01*
X65319954Y-72561181D01*
X65427113Y-72624555D01*
X65575844Y-72667765D01*
X65610595Y-72670500D01*
X67609404Y-72670499D01*
X67644156Y-72667765D01*
X67792887Y-72624555D01*
X67926198Y-72545715D01*
X68035715Y-72436198D01*
X68114555Y-72302887D01*
X68122172Y-72276670D01*
X68127043Y-72259905D01*
X68164649Y-72201019D01*
X68228121Y-72171813D01*
X68246119Y-72170500D01*
X122530970Y-72170500D01*
X122578422Y-72179938D01*
X122629580Y-72201129D01*
X122662545Y-72207686D01*
X122683501Y-72211855D01*
X122745412Y-72244240D01*
X122779986Y-72304955D01*
X122776247Y-72374725D01*
X122735380Y-72431397D01*
X122726350Y-72437787D01*
X122604874Y-72515855D01*
X122510623Y-72624626D01*
X122510622Y-72624628D01*
X122450834Y-72755543D01*
X122430353Y-72898000D01*
X122450834Y-73040456D01*
X122502466Y-73153512D01*
X122510623Y-73171373D01*
X122604872Y-73280143D01*
X122725947Y-73357953D01*
X122725950Y-73357954D01*
X122725949Y-73357954D01*
X122864036Y-73398499D01*
X122864038Y-73398500D01*
X122864039Y-73398500D01*
X123007961Y-73398500D01*
X123146053Y-73357953D01*
X123146057Y-73357950D01*
X123148476Y-73356845D01*
X123156432Y-73352397D01*
X123256665Y-73304219D01*
X123264618Y-73300182D01*
X123265511Y-73299704D01*
X123273252Y-73295343D01*
X123348341Y-73250870D01*
X123353394Y-73248036D01*
X123388267Y-73229547D01*
X123412102Y-73219928D01*
X123432735Y-73214002D01*
X123458240Y-73209492D01*
X123539579Y-73203757D01*
X123545191Y-73202328D01*
X123575767Y-73198500D01*
X126023560Y-73198500D01*
X126023562Y-73198500D01*
X126099989Y-73178021D01*
X126168511Y-73138460D01*
X126224460Y-73082511D01*
X128866152Y-70440819D01*
X128927475Y-70407334D01*
X128953833Y-70404500D01*
X132710545Y-70404500D01*
X132743228Y-70408885D01*
X132746416Y-70409756D01*
X132746417Y-70409756D01*
X132746421Y-70409757D01*
X132827766Y-70415493D01*
X132853261Y-70420002D01*
X132873867Y-70425919D01*
X132873878Y-70425923D01*
X132897730Y-70435549D01*
X132932586Y-70454028D01*
X132937695Y-70456893D01*
X133012712Y-70501324D01*
X133012744Y-70501342D01*
X133020486Y-70505704D01*
X133020507Y-70505715D01*
X133020519Y-70505722D01*
X133021401Y-70506194D01*
X133029319Y-70510214D01*
X133129566Y-70558398D01*
X133137537Y-70562852D01*
X133139944Y-70563951D01*
X133139947Y-70563953D01*
X133179549Y-70575581D01*
X133183496Y-70576740D01*
X133242274Y-70614514D01*
X133271300Y-70678069D01*
X133261357Y-70747228D01*
X133215605Y-70800030D01*
X133201875Y-70808853D01*
X133201874Y-70808855D01*
X133107623Y-70917626D01*
X133107622Y-70917628D01*
X133047834Y-71048543D01*
X133027353Y-71191000D01*
X133047834Y-71333456D01*
X133047836Y-71333463D01*
X133064983Y-71371008D01*
X133072282Y-71391637D01*
X133075958Y-71405935D01*
X133075962Y-71405945D01*
X133126771Y-71511652D01*
X133126778Y-71511665D01*
X133126785Y-71511680D01*
X133130828Y-71519643D01*
X133131290Y-71520506D01*
X133135646Y-71528238D01*
X133135649Y-71528243D01*
X133180116Y-71603324D01*
X133182979Y-71608430D01*
X133201445Y-71643260D01*
X133211073Y-71667119D01*
X133216993Y-71687735D01*
X133221503Y-71713232D01*
X133221504Y-71713240D01*
X133226068Y-71777945D01*
X133226069Y-71777955D01*
X133226196Y-71779752D01*
X133226195Y-71779752D01*
X133226197Y-71779772D01*
X133227242Y-71794581D01*
X133227243Y-71794590D01*
X133228670Y-71800196D01*
X133232500Y-71830778D01*
X133232500Y-72793166D01*
X133212815Y-72860205D01*
X133196181Y-72880847D01*
X132573680Y-73503347D01*
X132547470Y-73523357D01*
X132544596Y-73524997D01*
X132544593Y-73524999D01*
X132483019Y-73578459D01*
X132461793Y-73593305D01*
X132443022Y-73603699D01*
X132419352Y-73613757D01*
X132381656Y-73625332D01*
X132376018Y-73626918D01*
X132291532Y-73648552D01*
X132283120Y-73650897D01*
X132282157Y-73651188D01*
X132273497Y-73654012D01*
X132162816Y-73692836D01*
X132162795Y-73692843D01*
X132162777Y-73692850D01*
X132161413Y-73693349D01*
X132157344Y-73694841D01*
X132156810Y-73695046D01*
X132151338Y-73697823D01*
X132130175Y-73706218D01*
X132123949Y-73708046D01*
X132123945Y-73708048D01*
X132002873Y-73785856D01*
X131908623Y-73894626D01*
X131908622Y-73894628D01*
X131848834Y-74025543D01*
X131828353Y-74168000D01*
X131848834Y-74310456D01*
X131908622Y-74441371D01*
X131908623Y-74441373D01*
X132002872Y-74550143D01*
X132123947Y-74627953D01*
X132123950Y-74627954D01*
X132123949Y-74627954D01*
X132262036Y-74668499D01*
X132262038Y-74668500D01*
X132262039Y-74668500D01*
X132405962Y-74668500D01*
X132405962Y-74668499D01*
X132544053Y-74627953D01*
X132665128Y-74550143D01*
X132759377Y-74441373D01*
X132792727Y-74368345D01*
X132798757Y-74356794D01*
X132809162Y-74339185D01*
X132840155Y-74250819D01*
X132847989Y-74228485D01*
X132848723Y-74226233D01*
X132850791Y-74219895D01*
X132851084Y-74218925D01*
X132853440Y-74210481D01*
X132875084Y-74125955D01*
X132876647Y-74120398D01*
X132888245Y-74082628D01*
X132898298Y-74058969D01*
X132908690Y-74040202D01*
X132923537Y-74018978D01*
X132976996Y-73957410D01*
X132979952Y-73952434D01*
X132998866Y-73928103D01*
X133773460Y-73153511D01*
X133774333Y-73151999D01*
X133797173Y-73112440D01*
X133804272Y-73100141D01*
X133813021Y-73084989D01*
X133833500Y-73008562D01*
X133833500Y-71830456D01*
X133837886Y-71797767D01*
X133838754Y-71794590D01*
X133838758Y-71794577D01*
X133844494Y-71713232D01*
X133849003Y-71687736D01*
X133854928Y-71667104D01*
X133864551Y-71643259D01*
X133883026Y-71608413D01*
X133885877Y-71603330D01*
X133930330Y-71528274D01*
X133930330Y-71528272D01*
X133930343Y-71528252D01*
X133934704Y-71520511D01*
X133935182Y-71519618D01*
X133939219Y-71511665D01*
X133990036Y-71405944D01*
X133992234Y-71401219D01*
X133992485Y-71400661D01*
X133994152Y-71392944D01*
X134002562Y-71367621D01*
X134018165Y-71333457D01*
X134023771Y-71294465D01*
X134038647Y-71191000D01*
X134018165Y-71048543D01*
X133958377Y-70917627D01*
X133864128Y-70808857D01*
X133743053Y-70731047D01*
X133743051Y-70731046D01*
X133743049Y-70731045D01*
X133743050Y-70731045D01*
X133699503Y-70718259D01*
X133640724Y-70680485D01*
X133611699Y-70616929D01*
X133621642Y-70547771D01*
X133667396Y-70494967D01*
X133681128Y-70486143D01*
X133775377Y-70377373D01*
X133835165Y-70246457D01*
X133855647Y-70104000D01*
X133835165Y-69961543D01*
X133833903Y-69952765D01*
X133835720Y-69952503D01*
X133835722Y-69893562D01*
X133873498Y-69834785D01*
X133937055Y-69805762D01*
X133954698Y-69804500D01*
X138027389Y-69804500D01*
X138094428Y-69824185D01*
X138134605Y-69866204D01*
X138143540Y-69881583D01*
X138144684Y-69883361D01*
X138160723Y-69905964D01*
X138160724Y-69905966D01*
X138222862Y-69985618D01*
X138234510Y-69999665D01*
X138235433Y-70000713D01*
X138241753Y-70007307D01*
X138250607Y-70017622D01*
X138255714Y-70024278D01*
X138255716Y-70024279D01*
X138255718Y-70024282D01*
X138381159Y-70120536D01*
X138527238Y-70181044D01*
X138555924Y-70184820D01*
X138568571Y-70187159D01*
X138569358Y-70187347D01*
X138629974Y-70222091D01*
X138662185Y-70284092D01*
X138664500Y-70307942D01*
X138664500Y-78360277D01*
X138663300Y-78377486D01*
X138660375Y-78398357D01*
X138664371Y-78485988D01*
X138664500Y-78491637D01*
X138664500Y-78560273D01*
X138664500Y-78665727D01*
X138691793Y-78767588D01*
X138691794Y-78767591D01*
X138691795Y-78767593D01*
X138694988Y-78773124D01*
X138711469Y-78829466D01*
X138713309Y-78869789D01*
X138713678Y-78872455D01*
X138714966Y-78879530D01*
X138731004Y-79001341D01*
X138733956Y-79023762D01*
X138794464Y-79169841D01*
X138890718Y-79295282D01*
X139016159Y-79391536D01*
X139162238Y-79452044D01*
X139240619Y-79462363D01*
X139318999Y-79472682D01*
X139319000Y-79472682D01*
X139319001Y-79472682D01*
X139371254Y-79465802D01*
X139475762Y-79452044D01*
X139528549Y-79430178D01*
X139598016Y-79422710D01*
X139660495Y-79453985D01*
X139696148Y-79514073D01*
X139700000Y-79544740D01*
X139700000Y-108485572D01*
X139699684Y-108494418D01*
X139680275Y-108765785D01*
X139677757Y-108783297D01*
X139620872Y-109044794D01*
X139615888Y-109061770D01*
X139522361Y-109312524D01*
X139515011Y-109328617D01*
X139386758Y-109563496D01*
X139377193Y-109578380D01*
X139216811Y-109792624D01*
X139205225Y-109805994D01*
X139015994Y-109995225D01*
X139002624Y-110006811D01*
X138788380Y-110167193D01*
X138773496Y-110176758D01*
X138538617Y-110305011D01*
X138522524Y-110312361D01*
X138271770Y-110405888D01*
X138254794Y-110410872D01*
X137993297Y-110467757D01*
X137975785Y-110470275D01*
X137704418Y-110489684D01*
X137695572Y-110490000D01*
X54074428Y-110490000D01*
X54065582Y-110489684D01*
X53794214Y-110470275D01*
X53776702Y-110467757D01*
X53515205Y-110410872D01*
X53498229Y-110405888D01*
X53247475Y-110312361D01*
X53231382Y-110305011D01*
X52996503Y-110176758D01*
X52981619Y-110167193D01*
X52767375Y-110006811D01*
X52754005Y-109995225D01*
X52564774Y-109805994D01*
X52553188Y-109792624D01*
X52392802Y-109578375D01*
X52383244Y-109563501D01*
X52254987Y-109328616D01*
X52247638Y-109312524D01*
X52170855Y-109106661D01*
X52154108Y-109061762D01*
X52149129Y-109044803D01*
X52092241Y-108783291D01*
X52089724Y-108765785D01*
X52070316Y-108494418D01*
X52070000Y-108485572D01*
X52070000Y-107835258D01*
X52859500Y-107835258D01*
X52859500Y-108064741D01*
X52877308Y-108200000D01*
X52889452Y-108292238D01*
X52926397Y-108430119D01*
X52948842Y-108513887D01*
X53036650Y-108725876D01*
X53036657Y-108725890D01*
X53151392Y-108924617D01*
X53291081Y-109106661D01*
X53291089Y-109106670D01*
X53453330Y-109268911D01*
X53453338Y-109268918D01*
X53635382Y-109408607D01*
X53635385Y-109408608D01*
X53635388Y-109408611D01*
X53834112Y-109523344D01*
X53834117Y-109523346D01*
X53834123Y-109523349D01*
X53925480Y-109561190D01*
X54046113Y-109611158D01*
X54267762Y-109670548D01*
X54484312Y-109699057D01*
X54491460Y-109699999D01*
X54495266Y-109700500D01*
X54495273Y-109700500D01*
X54724727Y-109700500D01*
X54724734Y-109700500D01*
X54952238Y-109670548D01*
X55173887Y-109611158D01*
X55385888Y-109523344D01*
X55584612Y-109408611D01*
X55766661Y-109268919D01*
X55766665Y-109268914D01*
X55766670Y-109268911D01*
X55928911Y-109106670D01*
X55928914Y-109106665D01*
X55928919Y-109106661D01*
X56068611Y-108924612D01*
X56183344Y-108725888D01*
X56271158Y-108513887D01*
X56330548Y-108292238D01*
X56360500Y-108064734D01*
X56360500Y-107835266D01*
X56330548Y-107607762D01*
X56271158Y-107386113D01*
X56183344Y-107174112D01*
X56068611Y-106975388D01*
X56068608Y-106975385D01*
X56068607Y-106975382D01*
X56062072Y-106966865D01*
X64860000Y-106966865D01*
X64860000Y-107700000D01*
X66061518Y-107700000D01*
X66050889Y-107718409D01*
X66010000Y-107871009D01*
X66010000Y-108028991D01*
X66050889Y-108181591D01*
X66061518Y-108200000D01*
X64860000Y-108200000D01*
X64860000Y-108933134D01*
X64875357Y-109069436D01*
X64935830Y-109242260D01*
X65033243Y-109397291D01*
X65162708Y-109526756D01*
X65317739Y-109624169D01*
X65490563Y-109684642D01*
X65626865Y-109699999D01*
X65626869Y-109700000D01*
X66360000Y-109700000D01*
X66360000Y-108498482D01*
X66378409Y-108509111D01*
X66531009Y-108550000D01*
X66688991Y-108550000D01*
X66841591Y-108509111D01*
X66860000Y-108498482D01*
X66860000Y-109700000D01*
X67593131Y-109700000D01*
X67593134Y-109699999D01*
X67729436Y-109684642D01*
X67902260Y-109624169D01*
X68057291Y-109526756D01*
X68186756Y-109397291D01*
X68284169Y-109242260D01*
X68344642Y-109069436D01*
X68359999Y-108933134D01*
X68360000Y-108933130D01*
X68360000Y-108200000D01*
X67158482Y-108200000D01*
X67169111Y-108181591D01*
X67210000Y-108028991D01*
X67210000Y-107871009D01*
X67169111Y-107718409D01*
X67158482Y-107700000D01*
X68360000Y-107700000D01*
X68360000Y-106966869D01*
X68359999Y-106966865D01*
X68356747Y-106937999D01*
X128467471Y-106937999D01*
X128467472Y-106938000D01*
X129224314Y-106938000D01*
X129219920Y-106942394D01*
X129167259Y-107033606D01*
X129140000Y-107135339D01*
X129140000Y-107240661D01*
X129167259Y-107342394D01*
X129219920Y-107433606D01*
X129224314Y-107438000D01*
X128467472Y-107438000D01*
X128509885Y-107587065D01*
X128509890Y-107587078D01*
X128600754Y-107769556D01*
X128723608Y-107932242D01*
X128874260Y-108069578D01*
X129047584Y-108176897D01*
X129237678Y-108250539D01*
X129290000Y-108260320D01*
X129290000Y-107503686D01*
X129294394Y-107508080D01*
X129385606Y-107560741D01*
X129487339Y-107588000D01*
X129592661Y-107588000D01*
X129694394Y-107560741D01*
X129785606Y-107508080D01*
X129790000Y-107503686D01*
X129790000Y-108260320D01*
X129842321Y-108250539D01*
X130032415Y-108176897D01*
X130205739Y-108069578D01*
X130356391Y-107932242D01*
X130479245Y-107769556D01*
X130570109Y-107587078D01*
X130570114Y-107587065D01*
X130612528Y-107438000D01*
X129855686Y-107438000D01*
X129860080Y-107433606D01*
X129912741Y-107342394D01*
X129940000Y-107240661D01*
X129940000Y-107135339D01*
X129912741Y-107033606D01*
X129860080Y-106942394D01*
X129855686Y-106938000D01*
X130612528Y-106938000D01*
X130612528Y-106937999D01*
X131007471Y-106937999D01*
X131007472Y-106938000D01*
X131764314Y-106938000D01*
X131759920Y-106942394D01*
X131707259Y-107033606D01*
X131680000Y-107135339D01*
X131680000Y-107240661D01*
X131707259Y-107342394D01*
X131759920Y-107433606D01*
X131764314Y-107438000D01*
X131007472Y-107438000D01*
X131049885Y-107587065D01*
X131049890Y-107587078D01*
X131140754Y-107769556D01*
X131263608Y-107932242D01*
X131414260Y-108069578D01*
X131587584Y-108176897D01*
X131777678Y-108250539D01*
X131830000Y-108260320D01*
X131830000Y-107503686D01*
X131834394Y-107508080D01*
X131925606Y-107560741D01*
X132027339Y-107588000D01*
X132132661Y-107588000D01*
X132234394Y-107560741D01*
X132325606Y-107508080D01*
X132330000Y-107503686D01*
X132330000Y-108260320D01*
X132382321Y-108250539D01*
X132572415Y-108176897D01*
X132745739Y-108069578D01*
X132896391Y-107932242D01*
X133019245Y-107769556D01*
X133110109Y-107587078D01*
X133110114Y-107587065D01*
X133152528Y-107438000D01*
X132395686Y-107438000D01*
X132400080Y-107433606D01*
X132452741Y-107342394D01*
X132480000Y-107240661D01*
X132480000Y-107135339D01*
X132452741Y-107033606D01*
X132400080Y-106942394D01*
X132395686Y-106938000D01*
X133152528Y-106938000D01*
X133152528Y-106937999D01*
X133547471Y-106937999D01*
X133547472Y-106938000D01*
X134304314Y-106938000D01*
X134299920Y-106942394D01*
X134247259Y-107033606D01*
X134220000Y-107135339D01*
X134220000Y-107240661D01*
X134247259Y-107342394D01*
X134299920Y-107433606D01*
X134304314Y-107438000D01*
X133547472Y-107438000D01*
X133589885Y-107587065D01*
X133589890Y-107587078D01*
X133680754Y-107769556D01*
X133803608Y-107932242D01*
X133954260Y-108069578D01*
X134127584Y-108176897D01*
X134317678Y-108250539D01*
X134370000Y-108260320D01*
X134370000Y-107503686D01*
X134374394Y-107508080D01*
X134465606Y-107560741D01*
X134567339Y-107588000D01*
X134672661Y-107588000D01*
X134774394Y-107560741D01*
X134865606Y-107508080D01*
X134870000Y-107503686D01*
X134870000Y-108260320D01*
X134922321Y-108250539D01*
X135112415Y-108176897D01*
X135285739Y-108069578D01*
X135436391Y-107932242D01*
X135559245Y-107769556D01*
X135650109Y-107587078D01*
X135650114Y-107587065D01*
X135692528Y-107438000D01*
X134935686Y-107438000D01*
X134940080Y-107433606D01*
X134992741Y-107342394D01*
X135020000Y-107240661D01*
X135020000Y-107135339D01*
X134992741Y-107033606D01*
X134940080Y-106942394D01*
X134935686Y-106938000D01*
X135692528Y-106938000D01*
X135692528Y-106937999D01*
X136087471Y-106937999D01*
X136087472Y-106938000D01*
X136844314Y-106938000D01*
X136839920Y-106942394D01*
X136787259Y-107033606D01*
X136760000Y-107135339D01*
X136760000Y-107240661D01*
X136787259Y-107342394D01*
X136839920Y-107433606D01*
X136844314Y-107438000D01*
X136087472Y-107438000D01*
X136129885Y-107587065D01*
X136129890Y-107587078D01*
X136220754Y-107769556D01*
X136343608Y-107932242D01*
X136494260Y-108069578D01*
X136667584Y-108176897D01*
X136857678Y-108250539D01*
X136910000Y-108260320D01*
X136910000Y-107503686D01*
X136914394Y-107508080D01*
X137005606Y-107560741D01*
X137107339Y-107588000D01*
X137212661Y-107588000D01*
X137314394Y-107560741D01*
X137405606Y-107508080D01*
X137410000Y-107503686D01*
X137410000Y-108260320D01*
X137462321Y-108250539D01*
X137652415Y-108176897D01*
X137825739Y-108069578D01*
X137976391Y-107932242D01*
X138099245Y-107769556D01*
X138190109Y-107587078D01*
X138190114Y-107587065D01*
X138232528Y-107438000D01*
X137475686Y-107438000D01*
X137480080Y-107433606D01*
X137532741Y-107342394D01*
X137560000Y-107240661D01*
X137560000Y-107135339D01*
X137532741Y-107033606D01*
X137480080Y-106942394D01*
X137475686Y-106938000D01*
X138232528Y-106938000D01*
X138232528Y-106937999D01*
X138190114Y-106788934D01*
X138190109Y-106788921D01*
X138099245Y-106606443D01*
X137976391Y-106443757D01*
X137825739Y-106306421D01*
X137652413Y-106199101D01*
X137462315Y-106125458D01*
X137462309Y-106125456D01*
X137410001Y-106115677D01*
X137410000Y-106115679D01*
X137410000Y-106872314D01*
X137405606Y-106867920D01*
X137314394Y-106815259D01*
X137212661Y-106788000D01*
X137107339Y-106788000D01*
X137005606Y-106815259D01*
X136914394Y-106867920D01*
X136910000Y-106872314D01*
X136910000Y-106115679D01*
X136909998Y-106115677D01*
X136857690Y-106125456D01*
X136857684Y-106125458D01*
X136667586Y-106199101D01*
X136494260Y-106306421D01*
X136343608Y-106443757D01*
X136220754Y-106606443D01*
X136129890Y-106788921D01*
X136129885Y-106788934D01*
X136087471Y-106937999D01*
X135692528Y-106937999D01*
X135650114Y-106788934D01*
X135650109Y-106788921D01*
X135559245Y-106606443D01*
X135436391Y-106443757D01*
X135285739Y-106306421D01*
X135112413Y-106199101D01*
X134922315Y-106125458D01*
X134922309Y-106125456D01*
X134870001Y-106115677D01*
X134870000Y-106115679D01*
X134870000Y-106872314D01*
X134865606Y-106867920D01*
X134774394Y-106815259D01*
X134672661Y-106788000D01*
X134567339Y-106788000D01*
X134465606Y-106815259D01*
X134374394Y-106867920D01*
X134370000Y-106872314D01*
X134370000Y-106115679D01*
X134369998Y-106115677D01*
X134317690Y-106125456D01*
X134317684Y-106125458D01*
X134127586Y-106199101D01*
X133954260Y-106306421D01*
X133803608Y-106443757D01*
X133680754Y-106606443D01*
X133589890Y-106788921D01*
X133589885Y-106788934D01*
X133547471Y-106937999D01*
X133152528Y-106937999D01*
X133110114Y-106788934D01*
X133110109Y-106788921D01*
X133019245Y-106606443D01*
X132896391Y-106443757D01*
X132745739Y-106306421D01*
X132572413Y-106199101D01*
X132382315Y-106125458D01*
X132382309Y-106125456D01*
X132330001Y-106115677D01*
X132330000Y-106115679D01*
X132330000Y-106872314D01*
X132325606Y-106867920D01*
X132234394Y-106815259D01*
X132132661Y-106788000D01*
X132027339Y-106788000D01*
X131925606Y-106815259D01*
X131834394Y-106867920D01*
X131830000Y-106872314D01*
X131830000Y-106115679D01*
X131829998Y-106115677D01*
X131777690Y-106125456D01*
X131777684Y-106125458D01*
X131587586Y-106199101D01*
X131414260Y-106306421D01*
X131263608Y-106443757D01*
X131140754Y-106606443D01*
X131049890Y-106788921D01*
X131049885Y-106788934D01*
X131007471Y-106937999D01*
X130612528Y-106937999D01*
X130570114Y-106788934D01*
X130570109Y-106788921D01*
X130479245Y-106606443D01*
X130356391Y-106443757D01*
X130205739Y-106306421D01*
X130032413Y-106199101D01*
X129842315Y-106125458D01*
X129842309Y-106125456D01*
X129790001Y-106115677D01*
X129790000Y-106115679D01*
X129790000Y-106872314D01*
X129785606Y-106867920D01*
X129694394Y-106815259D01*
X129592661Y-106788000D01*
X129487339Y-106788000D01*
X129385606Y-106815259D01*
X129294394Y-106867920D01*
X129290000Y-106872314D01*
X129290000Y-106115679D01*
X129289998Y-106115677D01*
X129237690Y-106125456D01*
X129237684Y-106125458D01*
X129047586Y-106199101D01*
X128874260Y-106306421D01*
X128723608Y-106443757D01*
X128600754Y-106606443D01*
X128509890Y-106788921D01*
X128509885Y-106788934D01*
X128467471Y-106937999D01*
X68356747Y-106937999D01*
X68344642Y-106830563D01*
X68284169Y-106657739D01*
X68186756Y-106502708D01*
X68057291Y-106373243D01*
X67902260Y-106275830D01*
X67729436Y-106215357D01*
X67593134Y-106200000D01*
X66860000Y-106200000D01*
X66860000Y-107401517D01*
X66841591Y-107390889D01*
X66688991Y-107350000D01*
X66531009Y-107350000D01*
X66378409Y-107390889D01*
X66360000Y-107401517D01*
X66360000Y-106200000D01*
X65626865Y-106200000D01*
X65490563Y-106215357D01*
X65317739Y-106275830D01*
X65162708Y-106373243D01*
X65033243Y-106502708D01*
X64935830Y-106657739D01*
X64875357Y-106830563D01*
X64860000Y-106966865D01*
X56062072Y-106966865D01*
X55928918Y-106793338D01*
X55928911Y-106793330D01*
X55766670Y-106631089D01*
X55766661Y-106631081D01*
X55584617Y-106491392D01*
X55385890Y-106376657D01*
X55385876Y-106376650D01*
X55173887Y-106288842D01*
X55125325Y-106275830D01*
X54952238Y-106229452D01*
X54914215Y-106224446D01*
X54724741Y-106199500D01*
X54724734Y-106199500D01*
X54495266Y-106199500D01*
X54495258Y-106199500D01*
X54278715Y-106228009D01*
X54267762Y-106229452D01*
X54174076Y-106254554D01*
X54046112Y-106288842D01*
X53834123Y-106376650D01*
X53834109Y-106376657D01*
X53635382Y-106491392D01*
X53453338Y-106631081D01*
X53291081Y-106793338D01*
X53151392Y-106975382D01*
X53036657Y-107174109D01*
X53036650Y-107174123D01*
X52948842Y-107386112D01*
X52889453Y-107607759D01*
X52889451Y-107607770D01*
X52859500Y-107835258D01*
X52070000Y-107835258D01*
X52070000Y-104397999D01*
X128467471Y-104397999D01*
X128467472Y-104398000D01*
X129224314Y-104398000D01*
X129219920Y-104402394D01*
X129167259Y-104493606D01*
X129140000Y-104595339D01*
X129140000Y-104700661D01*
X129167259Y-104802394D01*
X129219920Y-104893606D01*
X129224314Y-104898000D01*
X128467472Y-104898000D01*
X128509885Y-105047065D01*
X128509890Y-105047078D01*
X128600754Y-105229556D01*
X128723608Y-105392242D01*
X128874260Y-105529578D01*
X129047584Y-105636897D01*
X129237678Y-105710539D01*
X129290000Y-105720320D01*
X129290000Y-104963686D01*
X129294394Y-104968080D01*
X129385606Y-105020741D01*
X129487339Y-105048000D01*
X129592661Y-105048000D01*
X129694394Y-105020741D01*
X129785606Y-104968080D01*
X129790000Y-104963686D01*
X129790000Y-105720320D01*
X129842321Y-105710539D01*
X130032415Y-105636897D01*
X130205739Y-105529578D01*
X130356391Y-105392242D01*
X130479245Y-105229556D01*
X130570109Y-105047078D01*
X130570114Y-105047065D01*
X130612528Y-104898000D01*
X129855686Y-104898000D01*
X129860080Y-104893606D01*
X129912741Y-104802394D01*
X129940000Y-104700661D01*
X129940000Y-104595339D01*
X129912741Y-104493606D01*
X129860080Y-104402394D01*
X129855686Y-104398000D01*
X130612528Y-104398000D01*
X130612528Y-104397999D01*
X131007471Y-104397999D01*
X131007472Y-104398000D01*
X131764314Y-104398000D01*
X131759920Y-104402394D01*
X131707259Y-104493606D01*
X131680000Y-104595339D01*
X131680000Y-104700661D01*
X131707259Y-104802394D01*
X131759920Y-104893606D01*
X131764314Y-104898000D01*
X131007472Y-104898000D01*
X131049885Y-105047065D01*
X131049890Y-105047078D01*
X131140754Y-105229556D01*
X131263608Y-105392242D01*
X131414260Y-105529578D01*
X131587584Y-105636897D01*
X131777678Y-105710539D01*
X131830000Y-105720320D01*
X131830000Y-104963686D01*
X131834394Y-104968080D01*
X131925606Y-105020741D01*
X132027339Y-105048000D01*
X132132661Y-105048000D01*
X132234394Y-105020741D01*
X132325606Y-104968080D01*
X132330000Y-104963686D01*
X132330000Y-105720320D01*
X132382321Y-105710539D01*
X132572415Y-105636897D01*
X132745739Y-105529578D01*
X132896391Y-105392242D01*
X133019245Y-105229556D01*
X133110109Y-105047078D01*
X133110114Y-105047065D01*
X133152528Y-104898000D01*
X132395686Y-104898000D01*
X132400080Y-104893606D01*
X132452741Y-104802394D01*
X132480000Y-104700661D01*
X132480000Y-104595339D01*
X132452741Y-104493606D01*
X132400080Y-104402394D01*
X132395686Y-104398000D01*
X133152528Y-104398000D01*
X133152528Y-104397999D01*
X133547471Y-104397999D01*
X133547472Y-104398000D01*
X134304314Y-104398000D01*
X134299920Y-104402394D01*
X134247259Y-104493606D01*
X134220000Y-104595339D01*
X134220000Y-104700661D01*
X134247259Y-104802394D01*
X134299920Y-104893606D01*
X134304314Y-104898000D01*
X133547472Y-104898000D01*
X133589885Y-105047065D01*
X133589890Y-105047078D01*
X133680754Y-105229556D01*
X133803608Y-105392242D01*
X133954260Y-105529578D01*
X134127584Y-105636897D01*
X134317678Y-105710539D01*
X134370000Y-105720320D01*
X134370000Y-104963686D01*
X134374394Y-104968080D01*
X134465606Y-105020741D01*
X134567339Y-105048000D01*
X134672661Y-105048000D01*
X134774394Y-105020741D01*
X134865606Y-104968080D01*
X134870000Y-104963686D01*
X134870000Y-105720320D01*
X134922321Y-105710539D01*
X135112415Y-105636897D01*
X135285739Y-105529578D01*
X135436391Y-105392242D01*
X135559245Y-105229556D01*
X135650109Y-105047078D01*
X135650114Y-105047065D01*
X135692528Y-104898000D01*
X134935686Y-104898000D01*
X134940080Y-104893606D01*
X134992741Y-104802394D01*
X135020000Y-104700661D01*
X135020000Y-104595339D01*
X134992741Y-104493606D01*
X134940080Y-104402394D01*
X134935686Y-104398000D01*
X135692528Y-104398000D01*
X135692528Y-104397999D01*
X136087471Y-104397999D01*
X136087472Y-104398000D01*
X136844314Y-104398000D01*
X136839920Y-104402394D01*
X136787259Y-104493606D01*
X136760000Y-104595339D01*
X136760000Y-104700661D01*
X136787259Y-104802394D01*
X136839920Y-104893606D01*
X136844314Y-104898000D01*
X136087472Y-104898000D01*
X136129885Y-105047065D01*
X136129890Y-105047078D01*
X136220754Y-105229556D01*
X136343608Y-105392242D01*
X136494260Y-105529578D01*
X136667584Y-105636897D01*
X136857678Y-105710539D01*
X136910000Y-105720320D01*
X136910000Y-104963686D01*
X136914394Y-104968080D01*
X137005606Y-105020741D01*
X137107339Y-105048000D01*
X137212661Y-105048000D01*
X137314394Y-105020741D01*
X137405606Y-104968080D01*
X137410000Y-104963686D01*
X137410000Y-105720320D01*
X137462321Y-105710539D01*
X137652415Y-105636897D01*
X137825739Y-105529578D01*
X137976391Y-105392242D01*
X138099245Y-105229556D01*
X138190109Y-105047078D01*
X138190114Y-105047065D01*
X138232528Y-104898000D01*
X137475686Y-104898000D01*
X137480080Y-104893606D01*
X137532741Y-104802394D01*
X137560000Y-104700661D01*
X137560000Y-104595339D01*
X137532741Y-104493606D01*
X137480080Y-104402394D01*
X137475686Y-104398000D01*
X138232528Y-104398000D01*
X138232528Y-104397999D01*
X138190114Y-104248934D01*
X138190109Y-104248921D01*
X138099245Y-104066443D01*
X137976391Y-103903757D01*
X137825739Y-103766421D01*
X137652413Y-103659101D01*
X137462315Y-103585458D01*
X137462309Y-103585456D01*
X137410001Y-103575677D01*
X137410000Y-103575679D01*
X137410000Y-104332314D01*
X137405606Y-104327920D01*
X137314394Y-104275259D01*
X137212661Y-104248000D01*
X137107339Y-104248000D01*
X137005606Y-104275259D01*
X136914394Y-104327920D01*
X136910000Y-104332314D01*
X136910000Y-103575679D01*
X136909998Y-103575677D01*
X136857690Y-103585456D01*
X136857684Y-103585458D01*
X136667586Y-103659101D01*
X136494260Y-103766421D01*
X136343608Y-103903757D01*
X136220754Y-104066443D01*
X136129890Y-104248921D01*
X136129885Y-104248934D01*
X136087471Y-104397999D01*
X135692528Y-104397999D01*
X135650114Y-104248934D01*
X135650109Y-104248921D01*
X135559245Y-104066443D01*
X135436391Y-103903757D01*
X135285739Y-103766421D01*
X135112413Y-103659101D01*
X134922315Y-103585458D01*
X134922309Y-103585456D01*
X134870001Y-103575677D01*
X134870000Y-103575679D01*
X134870000Y-104332314D01*
X134865606Y-104327920D01*
X134774394Y-104275259D01*
X134672661Y-104248000D01*
X134567339Y-104248000D01*
X134465606Y-104275259D01*
X134374394Y-104327920D01*
X134370000Y-104332314D01*
X134370000Y-103575679D01*
X134369998Y-103575677D01*
X134317690Y-103585456D01*
X134317684Y-103585458D01*
X134127586Y-103659101D01*
X133954260Y-103766421D01*
X133803608Y-103903757D01*
X133680754Y-104066443D01*
X133589890Y-104248921D01*
X133589885Y-104248934D01*
X133547471Y-104397999D01*
X133152528Y-104397999D01*
X133110114Y-104248934D01*
X133110109Y-104248921D01*
X133019245Y-104066443D01*
X132896391Y-103903757D01*
X132745739Y-103766421D01*
X132572413Y-103659101D01*
X132382315Y-103585458D01*
X132382309Y-103585456D01*
X132330001Y-103575677D01*
X132330000Y-103575679D01*
X132330000Y-104332314D01*
X132325606Y-104327920D01*
X132234394Y-104275259D01*
X132132661Y-104248000D01*
X132027339Y-104248000D01*
X131925606Y-104275259D01*
X131834394Y-104327920D01*
X131830000Y-104332314D01*
X131830000Y-103575679D01*
X131829998Y-103575677D01*
X131777690Y-103585456D01*
X131777684Y-103585458D01*
X131587586Y-103659101D01*
X131414260Y-103766421D01*
X131263608Y-103903757D01*
X131140754Y-104066443D01*
X131049890Y-104248921D01*
X131049885Y-104248934D01*
X131007471Y-104397999D01*
X130612528Y-104397999D01*
X130570114Y-104248934D01*
X130570109Y-104248921D01*
X130479245Y-104066443D01*
X130356391Y-103903757D01*
X130205739Y-103766421D01*
X130032413Y-103659101D01*
X129842315Y-103585458D01*
X129842309Y-103585456D01*
X129790001Y-103575677D01*
X129790000Y-103575679D01*
X129790000Y-104332314D01*
X129785606Y-104327920D01*
X129694394Y-104275259D01*
X129592661Y-104248000D01*
X129487339Y-104248000D01*
X129385606Y-104275259D01*
X129294394Y-104327920D01*
X129290000Y-104332314D01*
X129290000Y-103575679D01*
X129289998Y-103575677D01*
X129237690Y-103585456D01*
X129237684Y-103585458D01*
X129047586Y-103659101D01*
X128874260Y-103766421D01*
X128723608Y-103903757D01*
X128600754Y-104066443D01*
X128509890Y-104248921D01*
X128509885Y-104248934D01*
X128467471Y-104397999D01*
X52070000Y-104397999D01*
X52070000Y-102501258D01*
X52826500Y-102501258D01*
X52826500Y-102730741D01*
X52842497Y-102852242D01*
X52856452Y-102958238D01*
X52893605Y-103096897D01*
X52915842Y-103179887D01*
X53003650Y-103391876D01*
X53003656Y-103391888D01*
X53109767Y-103575679D01*
X53118392Y-103590617D01*
X53258081Y-103772661D01*
X53258089Y-103772670D01*
X53420330Y-103934911D01*
X53420338Y-103934918D01*
X53602382Y-104074607D01*
X53602385Y-104074608D01*
X53602388Y-104074611D01*
X53801112Y-104189344D01*
X53801117Y-104189346D01*
X53801123Y-104189349D01*
X53892480Y-104227190D01*
X54013113Y-104277158D01*
X54234762Y-104336548D01*
X54462266Y-104366500D01*
X54462273Y-104366500D01*
X54691727Y-104366500D01*
X54691734Y-104366500D01*
X54919238Y-104336548D01*
X55140887Y-104277158D01*
X55352888Y-104189344D01*
X55551612Y-104074611D01*
X55733661Y-103934919D01*
X55733665Y-103934914D01*
X55733670Y-103934911D01*
X55895911Y-103772670D01*
X55895914Y-103772665D01*
X55895919Y-103772661D01*
X56035611Y-103590612D01*
X56150344Y-103391888D01*
X56238158Y-103179887D01*
X56297548Y-102958238D01*
X56327500Y-102730734D01*
X56327500Y-102501266D01*
X56297548Y-102273762D01*
X56238158Y-102052113D01*
X56159574Y-101862394D01*
X56150349Y-101840123D01*
X56150346Y-101840117D01*
X56150344Y-101840112D01*
X56035611Y-101641388D01*
X56035608Y-101641385D01*
X56035607Y-101641382D01*
X56016582Y-101616589D01*
X65026500Y-101616589D01*
X65026500Y-103615393D01*
X65026501Y-103615415D01*
X65029234Y-103650152D01*
X65029234Y-103650155D01*
X65029235Y-103650156D01*
X65072445Y-103798887D01*
X65072446Y-103798888D01*
X65151282Y-103932194D01*
X65151289Y-103932203D01*
X65260796Y-104041710D01*
X65260800Y-104041713D01*
X65260802Y-104041715D01*
X65394113Y-104120555D01*
X65542844Y-104163765D01*
X65577595Y-104166500D01*
X67576404Y-104166499D01*
X67611156Y-104163765D01*
X67759887Y-104120555D01*
X67893198Y-104041715D01*
X68002715Y-103932198D01*
X68081555Y-103798887D01*
X68124765Y-103650156D01*
X68127500Y-103615405D01*
X68127499Y-101857999D01*
X128467471Y-101857999D01*
X128467472Y-101858000D01*
X129224314Y-101858000D01*
X129219920Y-101862394D01*
X129167259Y-101953606D01*
X129140000Y-102055339D01*
X129140000Y-102160661D01*
X129167259Y-102262394D01*
X129219920Y-102353606D01*
X129224314Y-102358000D01*
X128467472Y-102358000D01*
X128509885Y-102507065D01*
X128509890Y-102507078D01*
X128600754Y-102689556D01*
X128723608Y-102852242D01*
X128874260Y-102989578D01*
X129047584Y-103096897D01*
X129237678Y-103170539D01*
X129290000Y-103180320D01*
X129290000Y-102423686D01*
X129294394Y-102428080D01*
X129385606Y-102480741D01*
X129487339Y-102508000D01*
X129592661Y-102508000D01*
X129694394Y-102480741D01*
X129785606Y-102428080D01*
X129790000Y-102423686D01*
X129790000Y-103180320D01*
X129842321Y-103170539D01*
X130032415Y-103096897D01*
X130205739Y-102989578D01*
X130356391Y-102852242D01*
X130479245Y-102689556D01*
X130570109Y-102507078D01*
X130570114Y-102507065D01*
X130612528Y-102358000D01*
X129855686Y-102358000D01*
X129860080Y-102353606D01*
X129912741Y-102262394D01*
X129940000Y-102160661D01*
X129940000Y-102055339D01*
X129912741Y-101953606D01*
X129860080Y-101862394D01*
X129855686Y-101858000D01*
X130612528Y-101858000D01*
X130612528Y-101857999D01*
X131007471Y-101857999D01*
X131007472Y-101858000D01*
X131764314Y-101858000D01*
X131759920Y-101862394D01*
X131707259Y-101953606D01*
X131680000Y-102055339D01*
X131680000Y-102160661D01*
X131707259Y-102262394D01*
X131759920Y-102353606D01*
X131764314Y-102358000D01*
X131007472Y-102358000D01*
X131049885Y-102507065D01*
X131049890Y-102507078D01*
X131140754Y-102689556D01*
X131263608Y-102852242D01*
X131414260Y-102989578D01*
X131587584Y-103096897D01*
X131777678Y-103170539D01*
X131830000Y-103180320D01*
X131830000Y-102423686D01*
X131834394Y-102428080D01*
X131925606Y-102480741D01*
X132027339Y-102508000D01*
X132132661Y-102508000D01*
X132234394Y-102480741D01*
X132325606Y-102428080D01*
X132330000Y-102423686D01*
X132330000Y-103180320D01*
X132382321Y-103170539D01*
X132572415Y-103096897D01*
X132745739Y-102989578D01*
X132896391Y-102852242D01*
X133019245Y-102689556D01*
X133110109Y-102507078D01*
X133110114Y-102507065D01*
X133152528Y-102358000D01*
X132395686Y-102358000D01*
X132400080Y-102353606D01*
X132452741Y-102262394D01*
X132480000Y-102160661D01*
X132480000Y-102055339D01*
X132452741Y-101953606D01*
X132400080Y-101862394D01*
X132395686Y-101858000D01*
X133152528Y-101858000D01*
X133152528Y-101857999D01*
X133547471Y-101857999D01*
X133547472Y-101858000D01*
X134304314Y-101858000D01*
X134299920Y-101862394D01*
X134247259Y-101953606D01*
X134220000Y-102055339D01*
X134220000Y-102160661D01*
X134247259Y-102262394D01*
X134299920Y-102353606D01*
X134304314Y-102358000D01*
X133547472Y-102358000D01*
X133589885Y-102507065D01*
X133589890Y-102507078D01*
X133680754Y-102689556D01*
X133803608Y-102852242D01*
X133954260Y-102989578D01*
X134127584Y-103096897D01*
X134317678Y-103170539D01*
X134370000Y-103180320D01*
X134370000Y-102423686D01*
X134374394Y-102428080D01*
X134465606Y-102480741D01*
X134567339Y-102508000D01*
X134672661Y-102508000D01*
X134774394Y-102480741D01*
X134865606Y-102428080D01*
X134870000Y-102423686D01*
X134870000Y-103180320D01*
X134922321Y-103170539D01*
X135112415Y-103096897D01*
X135285739Y-102989578D01*
X135436391Y-102852242D01*
X135559245Y-102689556D01*
X135650109Y-102507078D01*
X135650114Y-102507065D01*
X135692528Y-102358000D01*
X134935686Y-102358000D01*
X134940080Y-102353606D01*
X134992741Y-102262394D01*
X135020000Y-102160661D01*
X135020000Y-102055339D01*
X134992741Y-101953606D01*
X134940080Y-101862394D01*
X134935686Y-101858000D01*
X135692528Y-101858000D01*
X135692528Y-101857999D01*
X136087471Y-101857999D01*
X136087472Y-101858000D01*
X136844314Y-101858000D01*
X136839920Y-101862394D01*
X136787259Y-101953606D01*
X136760000Y-102055339D01*
X136760000Y-102160661D01*
X136787259Y-102262394D01*
X136839920Y-102353606D01*
X136844314Y-102358000D01*
X136087472Y-102358000D01*
X136129885Y-102507065D01*
X136129890Y-102507078D01*
X136220754Y-102689556D01*
X136343608Y-102852242D01*
X136494260Y-102989578D01*
X136667584Y-103096897D01*
X136857678Y-103170539D01*
X136910000Y-103180320D01*
X136910000Y-102423686D01*
X136914394Y-102428080D01*
X137005606Y-102480741D01*
X137107339Y-102508000D01*
X137212661Y-102508000D01*
X137314394Y-102480741D01*
X137405606Y-102428080D01*
X137410000Y-102423686D01*
X137410000Y-103180320D01*
X137462321Y-103170539D01*
X137652415Y-103096897D01*
X137825739Y-102989578D01*
X137976391Y-102852242D01*
X138099245Y-102689556D01*
X138190109Y-102507078D01*
X138190114Y-102507065D01*
X138232528Y-102358000D01*
X137475686Y-102358000D01*
X137480080Y-102353606D01*
X137532741Y-102262394D01*
X137560000Y-102160661D01*
X137560000Y-102055339D01*
X137532741Y-101953606D01*
X137480080Y-101862394D01*
X137475686Y-101858000D01*
X138232528Y-101858000D01*
X138232528Y-101857999D01*
X138190114Y-101708934D01*
X138190109Y-101708921D01*
X138099245Y-101526443D01*
X137976391Y-101363757D01*
X137825739Y-101226421D01*
X137652413Y-101119101D01*
X137462315Y-101045458D01*
X137462309Y-101045456D01*
X137410001Y-101035677D01*
X137410000Y-101035679D01*
X137410000Y-101792314D01*
X137405606Y-101787920D01*
X137314394Y-101735259D01*
X137212661Y-101708000D01*
X137107339Y-101708000D01*
X137005606Y-101735259D01*
X136914394Y-101787920D01*
X136910000Y-101792314D01*
X136910000Y-101035679D01*
X136909998Y-101035677D01*
X136857690Y-101045456D01*
X136857684Y-101045458D01*
X136667586Y-101119101D01*
X136494260Y-101226421D01*
X136343608Y-101363757D01*
X136220754Y-101526443D01*
X136129890Y-101708921D01*
X136129885Y-101708934D01*
X136087471Y-101857999D01*
X135692528Y-101857999D01*
X135650114Y-101708934D01*
X135650109Y-101708921D01*
X135559245Y-101526443D01*
X135436391Y-101363757D01*
X135285739Y-101226421D01*
X135112413Y-101119101D01*
X134922315Y-101045458D01*
X134922309Y-101045456D01*
X134870001Y-101035677D01*
X134870000Y-101035679D01*
X134870000Y-101792314D01*
X134865606Y-101787920D01*
X134774394Y-101735259D01*
X134672661Y-101708000D01*
X134567339Y-101708000D01*
X134465606Y-101735259D01*
X134374394Y-101787920D01*
X134370000Y-101792314D01*
X134370000Y-101035679D01*
X134369998Y-101035677D01*
X134317690Y-101045456D01*
X134317684Y-101045458D01*
X134127586Y-101119101D01*
X133954260Y-101226421D01*
X133803608Y-101363757D01*
X133680754Y-101526443D01*
X133589890Y-101708921D01*
X133589885Y-101708934D01*
X133547471Y-101857999D01*
X133152528Y-101857999D01*
X133110114Y-101708934D01*
X133110109Y-101708921D01*
X133019245Y-101526443D01*
X132896391Y-101363757D01*
X132745739Y-101226421D01*
X132572413Y-101119101D01*
X132382315Y-101045458D01*
X132382309Y-101045456D01*
X132330001Y-101035677D01*
X132330000Y-101035679D01*
X132330000Y-101792314D01*
X132325606Y-101787920D01*
X132234394Y-101735259D01*
X132132661Y-101708000D01*
X132027339Y-101708000D01*
X131925606Y-101735259D01*
X131834394Y-101787920D01*
X131830000Y-101792314D01*
X131830000Y-101035679D01*
X131829998Y-101035677D01*
X131777690Y-101045456D01*
X131777684Y-101045458D01*
X131587586Y-101119101D01*
X131414260Y-101226421D01*
X131263608Y-101363757D01*
X131140754Y-101526443D01*
X131049890Y-101708921D01*
X131049885Y-101708934D01*
X131007471Y-101857999D01*
X130612528Y-101857999D01*
X130570114Y-101708934D01*
X130570109Y-101708921D01*
X130479245Y-101526443D01*
X130356391Y-101363757D01*
X130205739Y-101226421D01*
X130032413Y-101119101D01*
X129842315Y-101045458D01*
X129842309Y-101045456D01*
X129790001Y-101035677D01*
X129790000Y-101035679D01*
X129790000Y-101792314D01*
X129785606Y-101787920D01*
X129694394Y-101735259D01*
X129592661Y-101708000D01*
X129487339Y-101708000D01*
X129385606Y-101735259D01*
X129294394Y-101787920D01*
X129290000Y-101792314D01*
X129290000Y-101035679D01*
X129289998Y-101035677D01*
X129237690Y-101045456D01*
X129237684Y-101045458D01*
X129047586Y-101119101D01*
X128874260Y-101226421D01*
X128723608Y-101363757D01*
X128600754Y-101526443D01*
X128509890Y-101708921D01*
X128509885Y-101708934D01*
X128467471Y-101857999D01*
X68127499Y-101857999D01*
X68127499Y-101616596D01*
X68124765Y-101581844D01*
X68081555Y-101433113D01*
X68004743Y-101303231D01*
X68002717Y-101299805D01*
X68002710Y-101299796D01*
X67893203Y-101190289D01*
X67893194Y-101190282D01*
X67812111Y-101142330D01*
X67759887Y-101111445D01*
X67611156Y-101068235D01*
X67611153Y-101068234D01*
X67611151Y-101068234D01*
X67583563Y-101066063D01*
X67576405Y-101065500D01*
X67576403Y-101065500D01*
X65577606Y-101065500D01*
X65577584Y-101065501D01*
X65542847Y-101068234D01*
X65542844Y-101068235D01*
X65394113Y-101111445D01*
X65394111Y-101111445D01*
X65394111Y-101111446D01*
X65260805Y-101190282D01*
X65260796Y-101190289D01*
X65151289Y-101299796D01*
X65151282Y-101299805D01*
X65083827Y-101413867D01*
X65072445Y-101433113D01*
X65064826Y-101459338D01*
X65029234Y-101581847D01*
X65029234Y-101581849D01*
X65026500Y-101616589D01*
X56016582Y-101616589D01*
X55901869Y-101467093D01*
X55895919Y-101459339D01*
X55895918Y-101459338D01*
X55895911Y-101459330D01*
X55733670Y-101297089D01*
X55733661Y-101297081D01*
X55551617Y-101157392D01*
X55352890Y-101042657D01*
X55352876Y-101042650D01*
X55140887Y-100954842D01*
X54919238Y-100895452D01*
X54881215Y-100890446D01*
X54691741Y-100865500D01*
X54691734Y-100865500D01*
X54462266Y-100865500D01*
X54462258Y-100865500D01*
X54245715Y-100894009D01*
X54234762Y-100895452D01*
X54141076Y-100920554D01*
X54013112Y-100954842D01*
X53801123Y-101042650D01*
X53801109Y-101042657D01*
X53602382Y-101157392D01*
X53420338Y-101297081D01*
X53258081Y-101459338D01*
X53118392Y-101641382D01*
X53003657Y-101840109D01*
X53003650Y-101840123D01*
X52915842Y-102052112D01*
X52856453Y-102273759D01*
X52856451Y-102273770D01*
X52826500Y-102501258D01*
X52070000Y-102501258D01*
X52070000Y-95106999D01*
X53254364Y-95106999D01*
X53254364Y-95107000D01*
X54151988Y-95107000D01*
X54119075Y-95164007D01*
X54085000Y-95291174D01*
X54085000Y-95422826D01*
X54119075Y-95549993D01*
X54151988Y-95607000D01*
X53254364Y-95607000D01*
X53311567Y-95820486D01*
X53311570Y-95820492D01*
X53411399Y-96034578D01*
X53546894Y-96228082D01*
X53713917Y-96395105D01*
X53893605Y-96520925D01*
X53937230Y-96575502D01*
X53944422Y-96645001D01*
X53912900Y-96707355D01*
X53852670Y-96742769D01*
X53822482Y-96746500D01*
X53690144Y-96746500D01*
X53690117Y-96746502D01*
X53665012Y-96749413D01*
X53665008Y-96749415D01*
X53562235Y-96794793D01*
X53482794Y-96874234D01*
X53437415Y-96977006D01*
X53437415Y-96977008D01*
X53434500Y-97002131D01*
X53434500Y-98791856D01*
X53434502Y-98791882D01*
X53437413Y-98816987D01*
X53437415Y-98816991D01*
X53482793Y-98919764D01*
X53482794Y-98919765D01*
X53562235Y-98999206D01*
X53665009Y-99044585D01*
X53690135Y-99047500D01*
X55479864Y-99047499D01*
X55479879Y-99047497D01*
X55479882Y-99047497D01*
X55504987Y-99044586D01*
X55504988Y-99044585D01*
X55504991Y-99044585D01*
X55607765Y-98999206D01*
X55687206Y-98919765D01*
X55732585Y-98816991D01*
X55735500Y-98791865D01*
X55735500Y-98005247D01*
X71893000Y-98005247D01*
X71893000Y-101244752D01*
X71904631Y-101303229D01*
X71904632Y-101303230D01*
X71948947Y-101369552D01*
X72015269Y-101413867D01*
X72015270Y-101413868D01*
X72073747Y-101425499D01*
X72073750Y-101425500D01*
X72073752Y-101425500D01*
X73713250Y-101425500D01*
X73713251Y-101425499D01*
X73728068Y-101422552D01*
X73771729Y-101413868D01*
X73771729Y-101413867D01*
X73771731Y-101413867D01*
X73838052Y-101369552D01*
X73882367Y-101303231D01*
X73882367Y-101303229D01*
X73882368Y-101303229D01*
X73893999Y-101244752D01*
X73894000Y-101244750D01*
X73894000Y-98005249D01*
X73893999Y-98005247D01*
X74433000Y-98005247D01*
X74433000Y-101244752D01*
X74444631Y-101303229D01*
X74444632Y-101303230D01*
X74488947Y-101369552D01*
X74555269Y-101413867D01*
X74555270Y-101413868D01*
X74613747Y-101425499D01*
X74613750Y-101425500D01*
X74613752Y-101425500D01*
X76253250Y-101425500D01*
X76253251Y-101425499D01*
X76268068Y-101422552D01*
X76311729Y-101413868D01*
X76311729Y-101413867D01*
X76311731Y-101413867D01*
X76378052Y-101369552D01*
X76422367Y-101303231D01*
X76422367Y-101303229D01*
X76422368Y-101303229D01*
X76433999Y-101244752D01*
X76434000Y-101244750D01*
X76434000Y-98005249D01*
X76433999Y-98005247D01*
X76973000Y-98005247D01*
X76973000Y-101244752D01*
X76984631Y-101303229D01*
X76984632Y-101303230D01*
X77028947Y-101369552D01*
X77095269Y-101413867D01*
X77095270Y-101413868D01*
X77153747Y-101425499D01*
X77153750Y-101425500D01*
X77153752Y-101425500D01*
X78793250Y-101425500D01*
X78793251Y-101425499D01*
X78808068Y-101422552D01*
X78851729Y-101413868D01*
X78851729Y-101413867D01*
X78851731Y-101413867D01*
X78918052Y-101369552D01*
X78962367Y-101303231D01*
X78969293Y-101268410D01*
X79001676Y-101206501D01*
X79062391Y-101171925D01*
X79132160Y-101175663D01*
X79188833Y-101216528D01*
X79214199Y-101279343D01*
X79219901Y-101332373D01*
X79219903Y-101332379D01*
X79270145Y-101467086D01*
X79270149Y-101467093D01*
X79356309Y-101582187D01*
X79356312Y-101582190D01*
X79471406Y-101668350D01*
X79471413Y-101668354D01*
X79606120Y-101718596D01*
X79606127Y-101718598D01*
X79665655Y-101724999D01*
X79665672Y-101725000D01*
X80263500Y-101725000D01*
X80763500Y-101725000D01*
X81361328Y-101725000D01*
X81361344Y-101724999D01*
X81420872Y-101718598D01*
X81420879Y-101718596D01*
X81555586Y-101668354D01*
X81555593Y-101668350D01*
X81670687Y-101582190D01*
X81670690Y-101582187D01*
X81756850Y-101467093D01*
X81756854Y-101467086D01*
X81807096Y-101332379D01*
X81807098Y-101332372D01*
X81812800Y-101279345D01*
X81839538Y-101214794D01*
X81896931Y-101174946D01*
X81966756Y-101172453D01*
X82026845Y-101208106D01*
X82057706Y-101268410D01*
X82064631Y-101303229D01*
X82064632Y-101303230D01*
X82108947Y-101369552D01*
X82175269Y-101413867D01*
X82175270Y-101413868D01*
X82233747Y-101425499D01*
X82233750Y-101425500D01*
X82233752Y-101425500D01*
X83873250Y-101425500D01*
X83873251Y-101425499D01*
X83888068Y-101422552D01*
X83931729Y-101413868D01*
X83931729Y-101413867D01*
X83931731Y-101413867D01*
X83998052Y-101369552D01*
X84042367Y-101303231D01*
X84042367Y-101303229D01*
X84042368Y-101303229D01*
X84053999Y-101244752D01*
X84054000Y-101244750D01*
X84054000Y-98005249D01*
X84053999Y-98005247D01*
X84593000Y-98005247D01*
X84593000Y-101244752D01*
X84604631Y-101303229D01*
X84604632Y-101303230D01*
X84648947Y-101369552D01*
X84715269Y-101413867D01*
X84715270Y-101413868D01*
X84773747Y-101425499D01*
X84773750Y-101425500D01*
X84773752Y-101425500D01*
X86413250Y-101425500D01*
X86413251Y-101425499D01*
X86428068Y-101422552D01*
X86471729Y-101413868D01*
X86471729Y-101413867D01*
X86471731Y-101413867D01*
X86538052Y-101369552D01*
X86582367Y-101303231D01*
X86582367Y-101303229D01*
X86582368Y-101303229D01*
X86593999Y-101244752D01*
X86594000Y-101244750D01*
X86594000Y-98005249D01*
X86593999Y-98005247D01*
X87133000Y-98005247D01*
X87133000Y-101244752D01*
X87144631Y-101303229D01*
X87144632Y-101303230D01*
X87188947Y-101369552D01*
X87255269Y-101413867D01*
X87255270Y-101413868D01*
X87313747Y-101425499D01*
X87313750Y-101425500D01*
X87313752Y-101425500D01*
X88953250Y-101425500D01*
X88953251Y-101425499D01*
X88968068Y-101422552D01*
X89011729Y-101413868D01*
X89011729Y-101413867D01*
X89011731Y-101413867D01*
X89078052Y-101369552D01*
X89122367Y-101303231D01*
X89122367Y-101303229D01*
X89122368Y-101303229D01*
X89133999Y-101244752D01*
X89134000Y-101244750D01*
X89134000Y-98005249D01*
X89133999Y-98005247D01*
X89673000Y-98005247D01*
X89673000Y-101244752D01*
X89684631Y-101303229D01*
X89684632Y-101303230D01*
X89728947Y-101369552D01*
X89795269Y-101413867D01*
X89795270Y-101413868D01*
X89853747Y-101425499D01*
X89853750Y-101425500D01*
X89853752Y-101425500D01*
X91493250Y-101425500D01*
X91493251Y-101425499D01*
X91508068Y-101422552D01*
X91551729Y-101413868D01*
X91551729Y-101413867D01*
X91551731Y-101413867D01*
X91618052Y-101369552D01*
X91662367Y-101303231D01*
X91669293Y-101268410D01*
X91701676Y-101206501D01*
X91762391Y-101171925D01*
X91832160Y-101175663D01*
X91888833Y-101216528D01*
X91914199Y-101279343D01*
X91919901Y-101332373D01*
X91919903Y-101332379D01*
X91970145Y-101467086D01*
X91970149Y-101467093D01*
X92056309Y-101582187D01*
X92056312Y-101582190D01*
X92171406Y-101668350D01*
X92171413Y-101668354D01*
X92306120Y-101718596D01*
X92306127Y-101718598D01*
X92365655Y-101724999D01*
X92365672Y-101725000D01*
X92963500Y-101725000D01*
X93463500Y-101725000D01*
X94061328Y-101725000D01*
X94061344Y-101724999D01*
X94120872Y-101718598D01*
X94120879Y-101718596D01*
X94255586Y-101668354D01*
X94255593Y-101668350D01*
X94370687Y-101582190D01*
X94370690Y-101582187D01*
X94456850Y-101467093D01*
X94456854Y-101467086D01*
X94507096Y-101332379D01*
X94507098Y-101332372D01*
X94512800Y-101279345D01*
X94539538Y-101214794D01*
X94596931Y-101174946D01*
X94666756Y-101172453D01*
X94726845Y-101208106D01*
X94757706Y-101268410D01*
X94764631Y-101303229D01*
X94764632Y-101303230D01*
X94808947Y-101369552D01*
X94875269Y-101413867D01*
X94875270Y-101413868D01*
X94933747Y-101425499D01*
X94933750Y-101425500D01*
X94933752Y-101425500D01*
X96573250Y-101425500D01*
X96573251Y-101425499D01*
X96588068Y-101422552D01*
X96631729Y-101413868D01*
X96631729Y-101413867D01*
X96631731Y-101413867D01*
X96698052Y-101369552D01*
X96742367Y-101303231D01*
X96742367Y-101303229D01*
X96742368Y-101303229D01*
X96753999Y-101244752D01*
X96754000Y-101244750D01*
X96754000Y-98005249D01*
X96753999Y-98005247D01*
X97293000Y-98005247D01*
X97293000Y-101244752D01*
X97304631Y-101303229D01*
X97304632Y-101303230D01*
X97348947Y-101369552D01*
X97415269Y-101413867D01*
X97415270Y-101413868D01*
X97473747Y-101425499D01*
X97473750Y-101425500D01*
X97473752Y-101425500D01*
X99113250Y-101425500D01*
X99113251Y-101425499D01*
X99128068Y-101422552D01*
X99171729Y-101413868D01*
X99171729Y-101413867D01*
X99171731Y-101413867D01*
X99238052Y-101369552D01*
X99282367Y-101303231D01*
X99282367Y-101303229D01*
X99282368Y-101303229D01*
X99293999Y-101244752D01*
X99294000Y-101244750D01*
X99294000Y-98005249D01*
X99293999Y-98005247D01*
X99833000Y-98005247D01*
X99833000Y-101244752D01*
X99844631Y-101303229D01*
X99844632Y-101303230D01*
X99888947Y-101369552D01*
X99955269Y-101413867D01*
X99955270Y-101413868D01*
X100013747Y-101425499D01*
X100013750Y-101425500D01*
X100013752Y-101425500D01*
X101653250Y-101425500D01*
X101653251Y-101425499D01*
X101668068Y-101422552D01*
X101711729Y-101413868D01*
X101711729Y-101413867D01*
X101711731Y-101413867D01*
X101778052Y-101369552D01*
X101822367Y-101303231D01*
X101822367Y-101303229D01*
X101822368Y-101303229D01*
X101833999Y-101244752D01*
X101834000Y-101244750D01*
X101834000Y-98005249D01*
X101833999Y-98005247D01*
X102373000Y-98005247D01*
X102373000Y-101244752D01*
X102384631Y-101303229D01*
X102384632Y-101303230D01*
X102428947Y-101369552D01*
X102495269Y-101413867D01*
X102495270Y-101413868D01*
X102553747Y-101425499D01*
X102553750Y-101425500D01*
X102553752Y-101425500D01*
X104193250Y-101425500D01*
X104193251Y-101425499D01*
X104208068Y-101422552D01*
X104251729Y-101413868D01*
X104251729Y-101413867D01*
X104251731Y-101413867D01*
X104318052Y-101369552D01*
X104362367Y-101303231D01*
X104369293Y-101268410D01*
X104401676Y-101206501D01*
X104462391Y-101171925D01*
X104532160Y-101175663D01*
X104588833Y-101216528D01*
X104614199Y-101279343D01*
X104619901Y-101332373D01*
X104619903Y-101332379D01*
X104670145Y-101467086D01*
X104670149Y-101467093D01*
X104756309Y-101582187D01*
X104756312Y-101582190D01*
X104871406Y-101668350D01*
X104871413Y-101668354D01*
X105006120Y-101718596D01*
X105006127Y-101718598D01*
X105065655Y-101724999D01*
X105065672Y-101725000D01*
X105663500Y-101725000D01*
X106163500Y-101725000D01*
X106761328Y-101725000D01*
X106761344Y-101724999D01*
X106820872Y-101718598D01*
X106820879Y-101718596D01*
X106955586Y-101668354D01*
X106955593Y-101668350D01*
X107070687Y-101582190D01*
X107070690Y-101582187D01*
X107156850Y-101467093D01*
X107156854Y-101467086D01*
X107207096Y-101332379D01*
X107207098Y-101332372D01*
X107212800Y-101279345D01*
X107239538Y-101214794D01*
X107296931Y-101174946D01*
X107366756Y-101172453D01*
X107426845Y-101208106D01*
X107457706Y-101268410D01*
X107464631Y-101303229D01*
X107464632Y-101303230D01*
X107508947Y-101369552D01*
X107575269Y-101413867D01*
X107575270Y-101413868D01*
X107633747Y-101425499D01*
X107633750Y-101425500D01*
X107633752Y-101425500D01*
X109273250Y-101425500D01*
X109273251Y-101425499D01*
X109288068Y-101422552D01*
X109331729Y-101413868D01*
X109331729Y-101413867D01*
X109331731Y-101413867D01*
X109398052Y-101369552D01*
X109442367Y-101303231D01*
X109442367Y-101303229D01*
X109442368Y-101303229D01*
X109453999Y-101244752D01*
X109454000Y-101244750D01*
X109454000Y-98005249D01*
X109453999Y-98005247D01*
X109993000Y-98005247D01*
X109993000Y-101244752D01*
X110004631Y-101303229D01*
X110004632Y-101303230D01*
X110048947Y-101369552D01*
X110115269Y-101413867D01*
X110115270Y-101413868D01*
X110173747Y-101425499D01*
X110173750Y-101425500D01*
X110173752Y-101425500D01*
X111813250Y-101425500D01*
X111813251Y-101425499D01*
X111828068Y-101422552D01*
X111871729Y-101413868D01*
X111871729Y-101413867D01*
X111871731Y-101413867D01*
X111938052Y-101369552D01*
X111982367Y-101303231D01*
X111982367Y-101303229D01*
X111982368Y-101303229D01*
X111993999Y-101244752D01*
X111994000Y-101244750D01*
X111994000Y-99317999D01*
X128467471Y-99317999D01*
X128467472Y-99318000D01*
X129224314Y-99318000D01*
X129219920Y-99322394D01*
X129167259Y-99413606D01*
X129140000Y-99515339D01*
X129140000Y-99620661D01*
X129167259Y-99722394D01*
X129219920Y-99813606D01*
X129224314Y-99818000D01*
X128467472Y-99818000D01*
X128509885Y-99967065D01*
X128509890Y-99967078D01*
X128600754Y-100149556D01*
X128723608Y-100312242D01*
X128874260Y-100449578D01*
X129047584Y-100556897D01*
X129237678Y-100630539D01*
X129290000Y-100640320D01*
X129290000Y-99883686D01*
X129294394Y-99888080D01*
X129385606Y-99940741D01*
X129487339Y-99968000D01*
X129592661Y-99968000D01*
X129694394Y-99940741D01*
X129785606Y-99888080D01*
X129790000Y-99883686D01*
X129790000Y-100640320D01*
X129842321Y-100630539D01*
X130032415Y-100556897D01*
X130205739Y-100449578D01*
X130356391Y-100312242D01*
X130479245Y-100149556D01*
X130570109Y-99967078D01*
X130570114Y-99967065D01*
X130612528Y-99818000D01*
X129855686Y-99818000D01*
X129860080Y-99813606D01*
X129912741Y-99722394D01*
X129940000Y-99620661D01*
X129940000Y-99515339D01*
X129912741Y-99413606D01*
X129860080Y-99322394D01*
X129855686Y-99318000D01*
X130612528Y-99318000D01*
X130612528Y-99317999D01*
X131007471Y-99317999D01*
X131007472Y-99318000D01*
X131764314Y-99318000D01*
X131759920Y-99322394D01*
X131707259Y-99413606D01*
X131680000Y-99515339D01*
X131680000Y-99620661D01*
X131707259Y-99722394D01*
X131759920Y-99813606D01*
X131764314Y-99818000D01*
X131007472Y-99818000D01*
X131049885Y-99967065D01*
X131049890Y-99967078D01*
X131140754Y-100149556D01*
X131263608Y-100312242D01*
X131414260Y-100449578D01*
X131587584Y-100556897D01*
X131777678Y-100630539D01*
X131830000Y-100640320D01*
X131830000Y-99883686D01*
X131834394Y-99888080D01*
X131925606Y-99940741D01*
X132027339Y-99968000D01*
X132132661Y-99968000D01*
X132234394Y-99940741D01*
X132325606Y-99888080D01*
X132330000Y-99883686D01*
X132330000Y-100640320D01*
X132382321Y-100630539D01*
X132572415Y-100556897D01*
X132745739Y-100449578D01*
X132896391Y-100312242D01*
X133019245Y-100149556D01*
X133110109Y-99967078D01*
X133110114Y-99967065D01*
X133152528Y-99818000D01*
X132395686Y-99818000D01*
X132400080Y-99813606D01*
X132452741Y-99722394D01*
X132480000Y-99620661D01*
X132480000Y-99515339D01*
X132452741Y-99413606D01*
X132400080Y-99322394D01*
X132395686Y-99318000D01*
X133152528Y-99318000D01*
X133152528Y-99317999D01*
X133547471Y-99317999D01*
X133547472Y-99318000D01*
X134304314Y-99318000D01*
X134299920Y-99322394D01*
X134247259Y-99413606D01*
X134220000Y-99515339D01*
X134220000Y-99620661D01*
X134247259Y-99722394D01*
X134299920Y-99813606D01*
X134304314Y-99818000D01*
X133547472Y-99818000D01*
X133589885Y-99967065D01*
X133589890Y-99967078D01*
X133680754Y-100149556D01*
X133803608Y-100312242D01*
X133954260Y-100449578D01*
X134127584Y-100556897D01*
X134317678Y-100630539D01*
X134370000Y-100640320D01*
X134370000Y-99883686D01*
X134374394Y-99888080D01*
X134465606Y-99940741D01*
X134567339Y-99968000D01*
X134672661Y-99968000D01*
X134774394Y-99940741D01*
X134865606Y-99888080D01*
X134870000Y-99883686D01*
X134870000Y-100640320D01*
X134922321Y-100630539D01*
X135112415Y-100556897D01*
X135285739Y-100449578D01*
X135436391Y-100312242D01*
X135559245Y-100149556D01*
X135650109Y-99967078D01*
X135650114Y-99967065D01*
X135692528Y-99818000D01*
X134935686Y-99818000D01*
X134940080Y-99813606D01*
X134992741Y-99722394D01*
X135020000Y-99620661D01*
X135020000Y-99515339D01*
X134992741Y-99413606D01*
X134940080Y-99322394D01*
X134935686Y-99318000D01*
X135692528Y-99318000D01*
X135692528Y-99317999D01*
X136087471Y-99317999D01*
X136087472Y-99318000D01*
X136844314Y-99318000D01*
X136839920Y-99322394D01*
X136787259Y-99413606D01*
X136760000Y-99515339D01*
X136760000Y-99620661D01*
X136787259Y-99722394D01*
X136839920Y-99813606D01*
X136844314Y-99818000D01*
X136087472Y-99818000D01*
X136129885Y-99967065D01*
X136129890Y-99967078D01*
X136220754Y-100149556D01*
X136343608Y-100312242D01*
X136494260Y-100449578D01*
X136667584Y-100556897D01*
X136857678Y-100630539D01*
X136910000Y-100640320D01*
X136910000Y-99883686D01*
X136914394Y-99888080D01*
X137005606Y-99940741D01*
X137107339Y-99968000D01*
X137212661Y-99968000D01*
X137314394Y-99940741D01*
X137405606Y-99888080D01*
X137410000Y-99883686D01*
X137410000Y-100640320D01*
X137462321Y-100630539D01*
X137652415Y-100556897D01*
X137825739Y-100449578D01*
X137976391Y-100312242D01*
X138099245Y-100149556D01*
X138190109Y-99967078D01*
X138190114Y-99967065D01*
X138232528Y-99818000D01*
X137475686Y-99818000D01*
X137480080Y-99813606D01*
X137532741Y-99722394D01*
X137560000Y-99620661D01*
X137560000Y-99515339D01*
X137532741Y-99413606D01*
X137480080Y-99322394D01*
X137475686Y-99318000D01*
X138232528Y-99318000D01*
X138232528Y-99317999D01*
X138190114Y-99168934D01*
X138190109Y-99168921D01*
X138099245Y-98986443D01*
X137976391Y-98823757D01*
X137825739Y-98686421D01*
X137652413Y-98579101D01*
X137462315Y-98505458D01*
X137462309Y-98505456D01*
X137410001Y-98495677D01*
X137410000Y-98495679D01*
X137410000Y-99252314D01*
X137405606Y-99247920D01*
X137314394Y-99195259D01*
X137212661Y-99168000D01*
X137107339Y-99168000D01*
X137005606Y-99195259D01*
X136914394Y-99247920D01*
X136910000Y-99252314D01*
X136910000Y-98495679D01*
X136909998Y-98495677D01*
X136857690Y-98505456D01*
X136857684Y-98505458D01*
X136667586Y-98579101D01*
X136494260Y-98686421D01*
X136343608Y-98823757D01*
X136220754Y-98986443D01*
X136129890Y-99168921D01*
X136129885Y-99168934D01*
X136087471Y-99317999D01*
X135692528Y-99317999D01*
X135650114Y-99168934D01*
X135650109Y-99168921D01*
X135559245Y-98986443D01*
X135436391Y-98823757D01*
X135285739Y-98686421D01*
X135112413Y-98579101D01*
X134922315Y-98505458D01*
X134922309Y-98505456D01*
X134870001Y-98495677D01*
X134870000Y-98495679D01*
X134870000Y-99252314D01*
X134865606Y-99247920D01*
X134774394Y-99195259D01*
X134672661Y-99168000D01*
X134567339Y-99168000D01*
X134465606Y-99195259D01*
X134374394Y-99247920D01*
X134370000Y-99252314D01*
X134370000Y-98495679D01*
X134369998Y-98495677D01*
X134317690Y-98505456D01*
X134317684Y-98505458D01*
X134127586Y-98579101D01*
X133954260Y-98686421D01*
X133803608Y-98823757D01*
X133680754Y-98986443D01*
X133589890Y-99168921D01*
X133589885Y-99168934D01*
X133547471Y-99317999D01*
X133152528Y-99317999D01*
X133110114Y-99168934D01*
X133110109Y-99168921D01*
X133019245Y-98986443D01*
X132896391Y-98823757D01*
X132745739Y-98686421D01*
X132572413Y-98579101D01*
X132382315Y-98505458D01*
X132382309Y-98505456D01*
X132330001Y-98495677D01*
X132330000Y-98495679D01*
X132330000Y-99252314D01*
X132325606Y-99247920D01*
X132234394Y-99195259D01*
X132132661Y-99168000D01*
X132027339Y-99168000D01*
X131925606Y-99195259D01*
X131834394Y-99247920D01*
X131830000Y-99252314D01*
X131830000Y-98495679D01*
X131829998Y-98495677D01*
X131777690Y-98505456D01*
X131777684Y-98505458D01*
X131587586Y-98579101D01*
X131414260Y-98686421D01*
X131263608Y-98823757D01*
X131140754Y-98986443D01*
X131049890Y-99168921D01*
X131049885Y-99168934D01*
X131007471Y-99317999D01*
X130612528Y-99317999D01*
X130570114Y-99168934D01*
X130570109Y-99168921D01*
X130479245Y-98986443D01*
X130356391Y-98823757D01*
X130205739Y-98686421D01*
X130032413Y-98579101D01*
X129842315Y-98505458D01*
X129842309Y-98505456D01*
X129790001Y-98495677D01*
X129790000Y-98495679D01*
X129790000Y-99252314D01*
X129785606Y-99247920D01*
X129694394Y-99195259D01*
X129592661Y-99168000D01*
X129487339Y-99168000D01*
X129385606Y-99195259D01*
X129294394Y-99247920D01*
X129290000Y-99252314D01*
X129290000Y-98495679D01*
X129289998Y-98495677D01*
X129237690Y-98505456D01*
X129237684Y-98505458D01*
X129047586Y-98579101D01*
X128874260Y-98686421D01*
X128723608Y-98823757D01*
X128600754Y-98986443D01*
X128509890Y-99168921D01*
X128509885Y-99168934D01*
X128467471Y-99317999D01*
X111994000Y-99317999D01*
X111994000Y-98005249D01*
X111993999Y-98005247D01*
X111982368Y-97946770D01*
X111982367Y-97946769D01*
X111938052Y-97880447D01*
X111871730Y-97836132D01*
X111871729Y-97836131D01*
X111813252Y-97824500D01*
X111813248Y-97824500D01*
X110173752Y-97824500D01*
X110173747Y-97824500D01*
X110115270Y-97836131D01*
X110115269Y-97836132D01*
X110048947Y-97880447D01*
X110004632Y-97946769D01*
X110004631Y-97946770D01*
X109993000Y-98005247D01*
X109453999Y-98005247D01*
X109442368Y-97946770D01*
X109442367Y-97946769D01*
X109398052Y-97880447D01*
X109331730Y-97836132D01*
X109331729Y-97836131D01*
X109273252Y-97824500D01*
X109273248Y-97824500D01*
X107633752Y-97824500D01*
X107633747Y-97824500D01*
X107575270Y-97836131D01*
X107575269Y-97836132D01*
X107508947Y-97880447D01*
X107464632Y-97946769D01*
X107464631Y-97946770D01*
X107457706Y-97981589D01*
X107425321Y-98043500D01*
X107364605Y-98078075D01*
X107294836Y-98074335D01*
X107238164Y-98033468D01*
X107212800Y-97970654D01*
X107207098Y-97917627D01*
X107207096Y-97917620D01*
X107156854Y-97782913D01*
X107156850Y-97782906D01*
X107070690Y-97667812D01*
X107070687Y-97667809D01*
X106955593Y-97581649D01*
X106955586Y-97581645D01*
X106820879Y-97531403D01*
X106820872Y-97531401D01*
X106761344Y-97525000D01*
X106163500Y-97525000D01*
X106163500Y-101725000D01*
X105663500Y-101725000D01*
X105663500Y-97525000D01*
X105065655Y-97525000D01*
X105006127Y-97531401D01*
X105006120Y-97531403D01*
X104871413Y-97581645D01*
X104871406Y-97581649D01*
X104756312Y-97667809D01*
X104756309Y-97667812D01*
X104670149Y-97782906D01*
X104670145Y-97782913D01*
X104619903Y-97917620D01*
X104619901Y-97917626D01*
X104614199Y-97970656D01*
X104587459Y-98035207D01*
X104530066Y-98075053D01*
X104460241Y-98077545D01*
X104400153Y-98041891D01*
X104369293Y-97981589D01*
X104362367Y-97946769D01*
X104342890Y-97917620D01*
X104318052Y-97880447D01*
X104251730Y-97836132D01*
X104251729Y-97836131D01*
X104193252Y-97824500D01*
X104193248Y-97824500D01*
X102553752Y-97824500D01*
X102553747Y-97824500D01*
X102495270Y-97836131D01*
X102495269Y-97836132D01*
X102428947Y-97880447D01*
X102384632Y-97946769D01*
X102384631Y-97946770D01*
X102373000Y-98005247D01*
X101833999Y-98005247D01*
X101822368Y-97946770D01*
X101822367Y-97946769D01*
X101778052Y-97880447D01*
X101711730Y-97836132D01*
X101711729Y-97836131D01*
X101653252Y-97824500D01*
X101653248Y-97824500D01*
X100013752Y-97824500D01*
X100013747Y-97824500D01*
X99955270Y-97836131D01*
X99955269Y-97836132D01*
X99888947Y-97880447D01*
X99844632Y-97946769D01*
X99844631Y-97946770D01*
X99833000Y-98005247D01*
X99293999Y-98005247D01*
X99282368Y-97946770D01*
X99282367Y-97946769D01*
X99238052Y-97880447D01*
X99171730Y-97836132D01*
X99171729Y-97836131D01*
X99113252Y-97824500D01*
X99113248Y-97824500D01*
X97473752Y-97824500D01*
X97473747Y-97824500D01*
X97415270Y-97836131D01*
X97415269Y-97836132D01*
X97348947Y-97880447D01*
X97304632Y-97946769D01*
X97304631Y-97946770D01*
X97293000Y-98005247D01*
X96753999Y-98005247D01*
X96742368Y-97946770D01*
X96742367Y-97946769D01*
X96698052Y-97880447D01*
X96631730Y-97836132D01*
X96631729Y-97836131D01*
X96573252Y-97824500D01*
X96573248Y-97824500D01*
X94933752Y-97824500D01*
X94933747Y-97824500D01*
X94875270Y-97836131D01*
X94875269Y-97836132D01*
X94808947Y-97880447D01*
X94764632Y-97946769D01*
X94764631Y-97946770D01*
X94757706Y-97981589D01*
X94725321Y-98043500D01*
X94664605Y-98078075D01*
X94594836Y-98074335D01*
X94538164Y-98033468D01*
X94512800Y-97970654D01*
X94507098Y-97917627D01*
X94507096Y-97917620D01*
X94456854Y-97782913D01*
X94456850Y-97782906D01*
X94370690Y-97667812D01*
X94370687Y-97667809D01*
X94255593Y-97581649D01*
X94255586Y-97581645D01*
X94120879Y-97531403D01*
X94120872Y-97531401D01*
X94061344Y-97525000D01*
X93463500Y-97525000D01*
X93463500Y-101725000D01*
X92963500Y-101725000D01*
X92963500Y-97525000D01*
X92365655Y-97525000D01*
X92306127Y-97531401D01*
X92306120Y-97531403D01*
X92171413Y-97581645D01*
X92171406Y-97581649D01*
X92056312Y-97667809D01*
X92056309Y-97667812D01*
X91970149Y-97782906D01*
X91970145Y-97782913D01*
X91919903Y-97917620D01*
X91919901Y-97917626D01*
X91914199Y-97970656D01*
X91887459Y-98035207D01*
X91830066Y-98075053D01*
X91760241Y-98077545D01*
X91700153Y-98041891D01*
X91669293Y-97981589D01*
X91662367Y-97946769D01*
X91642890Y-97917620D01*
X91618052Y-97880447D01*
X91551730Y-97836132D01*
X91551729Y-97836131D01*
X91493252Y-97824500D01*
X91493248Y-97824500D01*
X89853752Y-97824500D01*
X89853747Y-97824500D01*
X89795270Y-97836131D01*
X89795269Y-97836132D01*
X89728947Y-97880447D01*
X89684632Y-97946769D01*
X89684631Y-97946770D01*
X89673000Y-98005247D01*
X89133999Y-98005247D01*
X89122368Y-97946770D01*
X89122367Y-97946769D01*
X89078052Y-97880447D01*
X89011730Y-97836132D01*
X89011729Y-97836131D01*
X88953252Y-97824500D01*
X88953248Y-97824500D01*
X87313752Y-97824500D01*
X87313747Y-97824500D01*
X87255270Y-97836131D01*
X87255269Y-97836132D01*
X87188947Y-97880447D01*
X87144632Y-97946769D01*
X87144631Y-97946770D01*
X87133000Y-98005247D01*
X86593999Y-98005247D01*
X86582368Y-97946770D01*
X86582367Y-97946769D01*
X86538052Y-97880447D01*
X86471730Y-97836132D01*
X86471729Y-97836131D01*
X86413252Y-97824500D01*
X86413248Y-97824500D01*
X84773752Y-97824500D01*
X84773747Y-97824500D01*
X84715270Y-97836131D01*
X84715269Y-97836132D01*
X84648947Y-97880447D01*
X84604632Y-97946769D01*
X84604631Y-97946770D01*
X84593000Y-98005247D01*
X84053999Y-98005247D01*
X84042368Y-97946770D01*
X84042367Y-97946769D01*
X83998052Y-97880447D01*
X83931730Y-97836132D01*
X83931729Y-97836131D01*
X83873252Y-97824500D01*
X83873248Y-97824500D01*
X82233752Y-97824500D01*
X82233747Y-97824500D01*
X82175270Y-97836131D01*
X82175269Y-97836132D01*
X82108947Y-97880447D01*
X82064632Y-97946769D01*
X82064631Y-97946770D01*
X82057706Y-97981589D01*
X82025321Y-98043500D01*
X81964605Y-98078075D01*
X81894836Y-98074335D01*
X81838164Y-98033468D01*
X81812800Y-97970654D01*
X81807098Y-97917627D01*
X81807096Y-97917620D01*
X81756854Y-97782913D01*
X81756850Y-97782906D01*
X81670690Y-97667812D01*
X81670687Y-97667809D01*
X81555593Y-97581649D01*
X81555586Y-97581645D01*
X81420879Y-97531403D01*
X81420872Y-97531401D01*
X81361344Y-97525000D01*
X80763500Y-97525000D01*
X80763500Y-101725000D01*
X80263500Y-101725000D01*
X80263500Y-97525000D01*
X79665655Y-97525000D01*
X79606127Y-97531401D01*
X79606120Y-97531403D01*
X79471413Y-97581645D01*
X79471406Y-97581649D01*
X79356312Y-97667809D01*
X79356309Y-97667812D01*
X79270149Y-97782906D01*
X79270145Y-97782913D01*
X79219903Y-97917620D01*
X79219901Y-97917626D01*
X79214199Y-97970656D01*
X79187459Y-98035207D01*
X79130066Y-98075053D01*
X79060241Y-98077545D01*
X79000153Y-98041891D01*
X78969293Y-97981589D01*
X78962367Y-97946769D01*
X78942890Y-97917620D01*
X78918052Y-97880447D01*
X78851730Y-97836132D01*
X78851729Y-97836131D01*
X78793252Y-97824500D01*
X78793248Y-97824500D01*
X77153752Y-97824500D01*
X77153747Y-97824500D01*
X77095270Y-97836131D01*
X77095269Y-97836132D01*
X77028947Y-97880447D01*
X76984632Y-97946769D01*
X76984631Y-97946770D01*
X76973000Y-98005247D01*
X76433999Y-98005247D01*
X76422368Y-97946770D01*
X76422367Y-97946769D01*
X76378052Y-97880447D01*
X76311730Y-97836132D01*
X76311729Y-97836131D01*
X76253252Y-97824500D01*
X76253248Y-97824500D01*
X74613752Y-97824500D01*
X74613747Y-97824500D01*
X74555270Y-97836131D01*
X74555269Y-97836132D01*
X74488947Y-97880447D01*
X74444632Y-97946769D01*
X74444631Y-97946770D01*
X74433000Y-98005247D01*
X73893999Y-98005247D01*
X73882368Y-97946770D01*
X73882367Y-97946769D01*
X73838052Y-97880447D01*
X73771730Y-97836132D01*
X73771729Y-97836131D01*
X73713252Y-97824500D01*
X73713248Y-97824500D01*
X72073752Y-97824500D01*
X72073747Y-97824500D01*
X72015270Y-97836131D01*
X72015269Y-97836132D01*
X71948947Y-97880447D01*
X71904632Y-97946769D01*
X71904631Y-97946770D01*
X71893000Y-98005247D01*
X55735500Y-98005247D01*
X55735499Y-97002136D01*
X55735497Y-97002117D01*
X55732586Y-96977012D01*
X55732585Y-96977010D01*
X55732585Y-96977009D01*
X55687206Y-96874235D01*
X55607765Y-96794794D01*
X55569728Y-96777999D01*
X55504992Y-96749415D01*
X55479868Y-96746500D01*
X55347519Y-96746500D01*
X55280480Y-96726815D01*
X55234725Y-96674011D01*
X55224781Y-96604853D01*
X55253806Y-96541297D01*
X55276395Y-96520925D01*
X55277717Y-96519999D01*
X118782785Y-96519999D01*
X118782785Y-96520000D01*
X118801602Y-96723082D01*
X118857417Y-96919247D01*
X118857422Y-96919260D01*
X118948327Y-97101821D01*
X119071237Y-97264581D01*
X119221958Y-97401980D01*
X119221960Y-97401982D01*
X119262471Y-97427065D01*
X119395363Y-97509348D01*
X119585544Y-97583024D01*
X119786024Y-97620500D01*
X119786026Y-97620500D01*
X119989974Y-97620500D01*
X119989976Y-97620500D01*
X120190456Y-97583024D01*
X120380637Y-97509348D01*
X120554041Y-97401981D01*
X120704764Y-97264579D01*
X120827673Y-97101821D01*
X120918582Y-96919250D01*
X120958772Y-96777999D01*
X128467471Y-96777999D01*
X128467472Y-96778000D01*
X129224314Y-96778000D01*
X129219920Y-96782394D01*
X129167259Y-96873606D01*
X129140000Y-96975339D01*
X129140000Y-97080661D01*
X129167259Y-97182394D01*
X129219920Y-97273606D01*
X129224314Y-97278000D01*
X128467472Y-97278000D01*
X128509885Y-97427065D01*
X128509890Y-97427078D01*
X128600754Y-97609556D01*
X128723608Y-97772242D01*
X128874260Y-97909578D01*
X129047584Y-98016897D01*
X129237678Y-98090539D01*
X129290000Y-98100320D01*
X129290000Y-97343686D01*
X129294394Y-97348080D01*
X129385606Y-97400741D01*
X129487339Y-97428000D01*
X129592661Y-97428000D01*
X129694394Y-97400741D01*
X129785606Y-97348080D01*
X129790000Y-97343686D01*
X129790000Y-98100320D01*
X129842321Y-98090539D01*
X130032415Y-98016897D01*
X130205739Y-97909578D01*
X130356391Y-97772242D01*
X130479245Y-97609556D01*
X130570109Y-97427078D01*
X130570114Y-97427065D01*
X130612528Y-97278000D01*
X129855686Y-97278000D01*
X129860080Y-97273606D01*
X129912741Y-97182394D01*
X129940000Y-97080661D01*
X129940000Y-96975339D01*
X129912741Y-96873606D01*
X129860080Y-96782394D01*
X129855686Y-96778000D01*
X130612528Y-96778000D01*
X130612528Y-96777999D01*
X131007471Y-96777999D01*
X131007472Y-96778000D01*
X131764314Y-96778000D01*
X131759920Y-96782394D01*
X131707259Y-96873606D01*
X131680000Y-96975339D01*
X131680000Y-97080661D01*
X131707259Y-97182394D01*
X131759920Y-97273606D01*
X131764314Y-97278000D01*
X131007472Y-97278000D01*
X131049885Y-97427065D01*
X131049890Y-97427078D01*
X131140754Y-97609556D01*
X131263608Y-97772242D01*
X131414260Y-97909578D01*
X131587584Y-98016897D01*
X131777678Y-98090539D01*
X131830000Y-98100320D01*
X131830000Y-97343686D01*
X131834394Y-97348080D01*
X131925606Y-97400741D01*
X132027339Y-97428000D01*
X132132661Y-97428000D01*
X132234394Y-97400741D01*
X132325606Y-97348080D01*
X132330000Y-97343686D01*
X132330000Y-98100320D01*
X132382321Y-98090539D01*
X132572415Y-98016897D01*
X132745739Y-97909578D01*
X132896391Y-97772242D01*
X133019245Y-97609556D01*
X133110109Y-97427078D01*
X133110114Y-97427065D01*
X133152528Y-97278000D01*
X132395686Y-97278000D01*
X132400080Y-97273606D01*
X132452741Y-97182394D01*
X132480000Y-97080661D01*
X132480000Y-96975339D01*
X132452741Y-96873606D01*
X132400080Y-96782394D01*
X132395686Y-96778000D01*
X133152528Y-96778000D01*
X133152528Y-96777999D01*
X133547471Y-96777999D01*
X133547472Y-96778000D01*
X134304314Y-96778000D01*
X134299920Y-96782394D01*
X134247259Y-96873606D01*
X134220000Y-96975339D01*
X134220000Y-97080661D01*
X134247259Y-97182394D01*
X134299920Y-97273606D01*
X134304314Y-97278000D01*
X133547472Y-97278000D01*
X133589885Y-97427065D01*
X133589890Y-97427078D01*
X133680754Y-97609556D01*
X133803608Y-97772242D01*
X133954260Y-97909578D01*
X134127584Y-98016897D01*
X134317678Y-98090539D01*
X134370000Y-98100320D01*
X134370000Y-97343686D01*
X134374394Y-97348080D01*
X134465606Y-97400741D01*
X134567339Y-97428000D01*
X134672661Y-97428000D01*
X134774394Y-97400741D01*
X134865606Y-97348080D01*
X134870000Y-97343686D01*
X134870000Y-98100320D01*
X134922321Y-98090539D01*
X135112415Y-98016897D01*
X135285739Y-97909578D01*
X135436391Y-97772242D01*
X135559245Y-97609556D01*
X135650109Y-97427078D01*
X135650114Y-97427065D01*
X135692528Y-97278000D01*
X134935686Y-97278000D01*
X134940080Y-97273606D01*
X134992741Y-97182394D01*
X135020000Y-97080661D01*
X135020000Y-96975339D01*
X134992741Y-96873606D01*
X134940080Y-96782394D01*
X134935686Y-96778000D01*
X135692528Y-96778000D01*
X135692528Y-96777999D01*
X136087471Y-96777999D01*
X136087472Y-96778000D01*
X136844314Y-96778000D01*
X136839920Y-96782394D01*
X136787259Y-96873606D01*
X136760000Y-96975339D01*
X136760000Y-97080661D01*
X136787259Y-97182394D01*
X136839920Y-97273606D01*
X136844314Y-97278000D01*
X136087472Y-97278000D01*
X136129885Y-97427065D01*
X136129890Y-97427078D01*
X136220754Y-97609556D01*
X136343608Y-97772242D01*
X136494260Y-97909578D01*
X136667584Y-98016897D01*
X136857678Y-98090539D01*
X136910000Y-98100320D01*
X136910000Y-97343686D01*
X136914394Y-97348080D01*
X137005606Y-97400741D01*
X137107339Y-97428000D01*
X137212661Y-97428000D01*
X137314394Y-97400741D01*
X137405606Y-97348080D01*
X137410000Y-97343686D01*
X137410000Y-98100320D01*
X137462321Y-98090539D01*
X137652415Y-98016897D01*
X137825739Y-97909578D01*
X137976391Y-97772242D01*
X138099245Y-97609556D01*
X138190109Y-97427078D01*
X138190114Y-97427065D01*
X138232528Y-97278000D01*
X137475686Y-97278000D01*
X137480080Y-97273606D01*
X137532741Y-97182394D01*
X137560000Y-97080661D01*
X137560000Y-96975339D01*
X137532741Y-96873606D01*
X137480080Y-96782394D01*
X137475686Y-96778000D01*
X138232528Y-96778000D01*
X138232528Y-96777999D01*
X138190114Y-96628934D01*
X138190109Y-96628921D01*
X138099245Y-96446443D01*
X137976391Y-96283757D01*
X137825739Y-96146421D01*
X137652413Y-96039101D01*
X137462315Y-95965458D01*
X137462309Y-95965456D01*
X137410001Y-95955677D01*
X137410000Y-95955679D01*
X137410000Y-96712314D01*
X137405606Y-96707920D01*
X137314394Y-96655259D01*
X137212661Y-96628000D01*
X137107339Y-96628000D01*
X137005606Y-96655259D01*
X136914394Y-96707920D01*
X136910000Y-96712314D01*
X136910000Y-95955679D01*
X136909998Y-95955677D01*
X136857690Y-95965456D01*
X136857684Y-95965458D01*
X136667586Y-96039101D01*
X136494260Y-96146421D01*
X136343608Y-96283757D01*
X136220754Y-96446443D01*
X136129890Y-96628921D01*
X136129885Y-96628934D01*
X136087471Y-96777999D01*
X135692528Y-96777999D01*
X135650114Y-96628934D01*
X135650109Y-96628921D01*
X135559245Y-96446443D01*
X135436391Y-96283757D01*
X135285739Y-96146421D01*
X135112413Y-96039101D01*
X134922315Y-95965458D01*
X134922309Y-95965456D01*
X134870001Y-95955677D01*
X134870000Y-95955679D01*
X134870000Y-96712314D01*
X134865606Y-96707920D01*
X134774394Y-96655259D01*
X134672661Y-96628000D01*
X134567339Y-96628000D01*
X134465606Y-96655259D01*
X134374394Y-96707920D01*
X134370000Y-96712314D01*
X134370000Y-95955679D01*
X134369998Y-95955677D01*
X134317690Y-95965456D01*
X134317684Y-95965458D01*
X134127586Y-96039101D01*
X133954260Y-96146421D01*
X133803608Y-96283757D01*
X133680754Y-96446443D01*
X133589890Y-96628921D01*
X133589885Y-96628934D01*
X133547471Y-96777999D01*
X133152528Y-96777999D01*
X133110114Y-96628934D01*
X133110109Y-96628921D01*
X133019245Y-96446443D01*
X132896391Y-96283757D01*
X132745739Y-96146421D01*
X132572413Y-96039101D01*
X132382315Y-95965458D01*
X132382309Y-95965456D01*
X132330001Y-95955677D01*
X132330000Y-95955679D01*
X132330000Y-96712314D01*
X132325606Y-96707920D01*
X132234394Y-96655259D01*
X132132661Y-96628000D01*
X132027339Y-96628000D01*
X131925606Y-96655259D01*
X131834394Y-96707920D01*
X131830000Y-96712314D01*
X131830000Y-95955679D01*
X131829998Y-95955677D01*
X131777690Y-95965456D01*
X131777684Y-95965458D01*
X131587586Y-96039101D01*
X131414260Y-96146421D01*
X131263608Y-96283757D01*
X131140754Y-96446443D01*
X131049890Y-96628921D01*
X131049885Y-96628934D01*
X131007471Y-96777999D01*
X130612528Y-96777999D01*
X130570114Y-96628934D01*
X130570109Y-96628921D01*
X130479245Y-96446443D01*
X130356391Y-96283757D01*
X130205739Y-96146421D01*
X130032413Y-96039101D01*
X129842315Y-95965458D01*
X129842309Y-95965456D01*
X129790001Y-95955677D01*
X129790000Y-95955679D01*
X129790000Y-96712314D01*
X129785606Y-96707920D01*
X129694394Y-96655259D01*
X129592661Y-96628000D01*
X129487339Y-96628000D01*
X129385606Y-96655259D01*
X129294394Y-96707920D01*
X129290000Y-96712314D01*
X129290000Y-95955679D01*
X129289998Y-95955677D01*
X129237690Y-95965456D01*
X129237684Y-95965458D01*
X129047586Y-96039101D01*
X128874260Y-96146421D01*
X128723608Y-96283757D01*
X128600754Y-96446443D01*
X128509890Y-96628921D01*
X128509885Y-96628934D01*
X128467471Y-96777999D01*
X120958772Y-96777999D01*
X120974397Y-96723083D01*
X120993215Y-96520000D01*
X120974397Y-96316917D01*
X120918582Y-96120750D01*
X120827673Y-95938179D01*
X120738800Y-95820492D01*
X120704762Y-95775418D01*
X120554041Y-95638019D01*
X120554039Y-95638017D01*
X120380642Y-95530655D01*
X120380635Y-95530651D01*
X120241878Y-95476897D01*
X120190456Y-95456976D01*
X119989976Y-95419500D01*
X119786024Y-95419500D01*
X119585544Y-95456976D01*
X119585541Y-95456976D01*
X119585541Y-95456977D01*
X119395364Y-95530651D01*
X119395357Y-95530655D01*
X119221960Y-95638017D01*
X119221958Y-95638019D01*
X119071237Y-95775418D01*
X118948327Y-95938178D01*
X118857422Y-96120739D01*
X118857417Y-96120752D01*
X118801602Y-96316917D01*
X118782785Y-96519999D01*
X55277717Y-96519999D01*
X55456082Y-96395105D01*
X55623105Y-96228082D01*
X55758600Y-96034578D01*
X55858429Y-95820492D01*
X55858432Y-95820486D01*
X55915636Y-95607000D01*
X55018012Y-95607000D01*
X55050925Y-95549993D01*
X55085000Y-95422826D01*
X55085000Y-95291174D01*
X55050925Y-95164007D01*
X55018012Y-95107000D01*
X55915636Y-95107000D01*
X55915635Y-95106999D01*
X55858432Y-94893513D01*
X55858429Y-94893507D01*
X55758600Y-94679422D01*
X55758599Y-94679420D01*
X55623113Y-94485926D01*
X55623108Y-94485920D01*
X55456082Y-94318894D01*
X55262578Y-94183399D01*
X55048492Y-94083570D01*
X55048486Y-94083567D01*
X54835000Y-94026364D01*
X54835000Y-94923988D01*
X54777993Y-94891075D01*
X54650826Y-94857000D01*
X54519174Y-94857000D01*
X54392007Y-94891075D01*
X54335000Y-94923988D01*
X54335000Y-94026364D01*
X54334999Y-94026364D01*
X54121513Y-94083567D01*
X54121507Y-94083570D01*
X53907422Y-94183399D01*
X53907420Y-94183400D01*
X53713926Y-94318886D01*
X53713920Y-94318891D01*
X53546891Y-94485920D01*
X53546886Y-94485926D01*
X53411400Y-94679420D01*
X53411399Y-94679422D01*
X53311570Y-94893507D01*
X53311567Y-94893513D01*
X53254364Y-95106999D01*
X52070000Y-95106999D01*
X52070000Y-91189999D01*
X53279364Y-91189999D01*
X53279364Y-91190000D01*
X54176988Y-91190000D01*
X54144075Y-91247007D01*
X54110000Y-91374174D01*
X54110000Y-91505826D01*
X54144075Y-91632993D01*
X54176988Y-91690000D01*
X53279364Y-91690000D01*
X53336567Y-91903486D01*
X53336570Y-91903492D01*
X53436399Y-92117578D01*
X53571894Y-92311082D01*
X53738917Y-92478105D01*
X53932421Y-92613600D01*
X54146507Y-92713429D01*
X54146516Y-92713433D01*
X54360000Y-92770634D01*
X54360000Y-91873012D01*
X54417007Y-91905925D01*
X54544174Y-91940000D01*
X54675826Y-91940000D01*
X54802993Y-91905925D01*
X54860000Y-91873012D01*
X54860000Y-92770633D01*
X55073483Y-92713433D01*
X55073492Y-92713429D01*
X55287578Y-92613600D01*
X55481082Y-92478105D01*
X55648105Y-92311082D01*
X55783600Y-92117578D01*
X55883429Y-91903492D01*
X55883432Y-91903486D01*
X55912895Y-91793528D01*
X93071500Y-91793528D01*
X93071500Y-92102471D01*
X93106086Y-92409437D01*
X93106089Y-92409455D01*
X93174831Y-92710635D01*
X93174835Y-92710647D01*
X93276862Y-93002222D01*
X93276868Y-93002236D01*
X93410903Y-93280562D01*
X93410905Y-93280565D01*
X93575265Y-93542143D01*
X93767880Y-93783674D01*
X93986326Y-94002120D01*
X94227857Y-94194735D01*
X94489435Y-94359095D01*
X94767771Y-94493135D01*
X94767777Y-94493137D01*
X95059352Y-94595164D01*
X95059364Y-94595168D01*
X95360548Y-94663911D01*
X95360554Y-94663911D01*
X95360562Y-94663913D01*
X95565206Y-94686970D01*
X95667529Y-94698499D01*
X95667532Y-94698500D01*
X95667535Y-94698500D01*
X103976468Y-94698500D01*
X103976469Y-94698499D01*
X104145788Y-94679422D01*
X104283437Y-94663913D01*
X104283442Y-94663912D01*
X104283452Y-94663911D01*
X104584636Y-94595168D01*
X104876229Y-94493135D01*
X105154565Y-94359095D01*
X105416143Y-94194735D01*
X105657674Y-94002120D01*
X105679795Y-93979999D01*
X118782785Y-93979999D01*
X118782785Y-93980000D01*
X118801602Y-94183082D01*
X118857417Y-94379247D01*
X118857422Y-94379260D01*
X118948327Y-94561821D01*
X119071237Y-94724581D01*
X119221958Y-94861980D01*
X119221960Y-94861982D01*
X119272875Y-94893507D01*
X119395363Y-94969348D01*
X119585544Y-95043024D01*
X119786024Y-95080500D01*
X119786026Y-95080500D01*
X119989974Y-95080500D01*
X119989976Y-95080500D01*
X120190456Y-95043024D01*
X120380637Y-94969348D01*
X120554041Y-94861981D01*
X120704764Y-94724579D01*
X120827673Y-94561821D01*
X120918582Y-94379250D01*
X120958772Y-94237999D01*
X128467471Y-94237999D01*
X128467472Y-94238000D01*
X129224314Y-94238000D01*
X129219920Y-94242394D01*
X129167259Y-94333606D01*
X129140000Y-94435339D01*
X129140000Y-94540661D01*
X129167259Y-94642394D01*
X129219920Y-94733606D01*
X129224314Y-94738000D01*
X128467472Y-94738000D01*
X128509885Y-94887065D01*
X128509890Y-94887078D01*
X128600754Y-95069556D01*
X128723608Y-95232242D01*
X128874260Y-95369578D01*
X129047584Y-95476897D01*
X129237678Y-95550539D01*
X129290000Y-95560320D01*
X129290000Y-94803686D01*
X129294394Y-94808080D01*
X129385606Y-94860741D01*
X129487339Y-94888000D01*
X129592661Y-94888000D01*
X129694394Y-94860741D01*
X129785606Y-94808080D01*
X129790000Y-94803686D01*
X129790000Y-95560320D01*
X129842321Y-95550539D01*
X130032415Y-95476897D01*
X130205739Y-95369578D01*
X130356391Y-95232242D01*
X130479245Y-95069556D01*
X130570109Y-94887078D01*
X130570114Y-94887065D01*
X130612528Y-94738000D01*
X129855686Y-94738000D01*
X129860080Y-94733606D01*
X129912741Y-94642394D01*
X129940000Y-94540661D01*
X129940000Y-94435339D01*
X129912741Y-94333606D01*
X129860080Y-94242394D01*
X129855686Y-94238000D01*
X130612528Y-94238000D01*
X130612528Y-94237999D01*
X131007471Y-94237999D01*
X131007472Y-94238000D01*
X131764314Y-94238000D01*
X131759920Y-94242394D01*
X131707259Y-94333606D01*
X131680000Y-94435339D01*
X131680000Y-94540661D01*
X131707259Y-94642394D01*
X131759920Y-94733606D01*
X131764314Y-94738000D01*
X131007472Y-94738000D01*
X131049885Y-94887065D01*
X131049890Y-94887078D01*
X131140754Y-95069556D01*
X131263608Y-95232242D01*
X131414260Y-95369578D01*
X131587584Y-95476897D01*
X131777678Y-95550539D01*
X131830000Y-95560320D01*
X131830000Y-94803686D01*
X131834394Y-94808080D01*
X131925606Y-94860741D01*
X132027339Y-94888000D01*
X132132661Y-94888000D01*
X132234394Y-94860741D01*
X132325606Y-94808080D01*
X132330000Y-94803686D01*
X132330000Y-95560320D01*
X132382321Y-95550539D01*
X132572415Y-95476897D01*
X132745739Y-95369578D01*
X132896391Y-95232242D01*
X133019245Y-95069556D01*
X133110109Y-94887078D01*
X133110114Y-94887065D01*
X133152528Y-94738000D01*
X132395686Y-94738000D01*
X132400080Y-94733606D01*
X132452741Y-94642394D01*
X132480000Y-94540661D01*
X132480000Y-94435339D01*
X132452741Y-94333606D01*
X132400080Y-94242394D01*
X132395686Y-94238000D01*
X133152528Y-94238000D01*
X133152528Y-94237999D01*
X133547471Y-94237999D01*
X133547472Y-94238000D01*
X134304314Y-94238000D01*
X134299920Y-94242394D01*
X134247259Y-94333606D01*
X134220000Y-94435339D01*
X134220000Y-94540661D01*
X134247259Y-94642394D01*
X134299920Y-94733606D01*
X134304314Y-94738000D01*
X133547472Y-94738000D01*
X133589885Y-94887065D01*
X133589890Y-94887078D01*
X133680754Y-95069556D01*
X133803608Y-95232242D01*
X133954260Y-95369578D01*
X134127584Y-95476897D01*
X134317678Y-95550539D01*
X134370000Y-95560320D01*
X134370000Y-94803686D01*
X134374394Y-94808080D01*
X134465606Y-94860741D01*
X134567339Y-94888000D01*
X134672661Y-94888000D01*
X134774394Y-94860741D01*
X134865606Y-94808080D01*
X134870000Y-94803686D01*
X134870000Y-95560320D01*
X134922321Y-95550539D01*
X135112415Y-95476897D01*
X135285739Y-95369578D01*
X135436391Y-95232242D01*
X135559245Y-95069556D01*
X135650109Y-94887078D01*
X135650114Y-94887065D01*
X135692528Y-94738000D01*
X134935686Y-94738000D01*
X134940080Y-94733606D01*
X134992741Y-94642394D01*
X135020000Y-94540661D01*
X135020000Y-94435339D01*
X134992741Y-94333606D01*
X134940080Y-94242394D01*
X134935686Y-94238000D01*
X135692528Y-94238000D01*
X135692528Y-94237999D01*
X136087471Y-94237999D01*
X136087472Y-94238000D01*
X136844314Y-94238000D01*
X136839920Y-94242394D01*
X136787259Y-94333606D01*
X136760000Y-94435339D01*
X136760000Y-94540661D01*
X136787259Y-94642394D01*
X136839920Y-94733606D01*
X136844314Y-94738000D01*
X136087472Y-94738000D01*
X136129885Y-94887065D01*
X136129890Y-94887078D01*
X136220754Y-95069556D01*
X136343608Y-95232242D01*
X136494260Y-95369578D01*
X136667584Y-95476897D01*
X136857678Y-95550539D01*
X136910000Y-95560320D01*
X136910000Y-94803686D01*
X136914394Y-94808080D01*
X137005606Y-94860741D01*
X137107339Y-94888000D01*
X137212661Y-94888000D01*
X137314394Y-94860741D01*
X137405606Y-94808080D01*
X137410000Y-94803686D01*
X137410000Y-95560320D01*
X137462321Y-95550539D01*
X137652415Y-95476897D01*
X137825739Y-95369578D01*
X137976391Y-95232242D01*
X138099245Y-95069556D01*
X138190109Y-94887078D01*
X138190114Y-94887065D01*
X138232528Y-94738000D01*
X137475686Y-94738000D01*
X137480080Y-94733606D01*
X137532741Y-94642394D01*
X137560000Y-94540661D01*
X137560000Y-94435339D01*
X137532741Y-94333606D01*
X137480080Y-94242394D01*
X137475686Y-94238000D01*
X138232528Y-94238000D01*
X138232528Y-94237999D01*
X138190114Y-94088934D01*
X138190109Y-94088921D01*
X138099245Y-93906443D01*
X137976391Y-93743757D01*
X137825739Y-93606421D01*
X137652413Y-93499101D01*
X137462315Y-93425458D01*
X137462309Y-93425456D01*
X137410001Y-93415677D01*
X137410000Y-93415679D01*
X137410000Y-94172314D01*
X137405606Y-94167920D01*
X137314394Y-94115259D01*
X137212661Y-94088000D01*
X137107339Y-94088000D01*
X137005606Y-94115259D01*
X136914394Y-94167920D01*
X136910000Y-94172314D01*
X136910000Y-93415679D01*
X136909998Y-93415677D01*
X136857690Y-93425456D01*
X136857684Y-93425458D01*
X136667586Y-93499101D01*
X136494260Y-93606421D01*
X136343608Y-93743757D01*
X136220754Y-93906443D01*
X136129890Y-94088921D01*
X136129885Y-94088934D01*
X136087471Y-94237999D01*
X135692528Y-94237999D01*
X135650114Y-94088934D01*
X135650109Y-94088921D01*
X135559245Y-93906443D01*
X135436391Y-93743757D01*
X135285739Y-93606421D01*
X135112413Y-93499101D01*
X134922315Y-93425458D01*
X134922309Y-93425456D01*
X134870001Y-93415677D01*
X134870000Y-93415679D01*
X134870000Y-94172314D01*
X134865606Y-94167920D01*
X134774394Y-94115259D01*
X134672661Y-94088000D01*
X134567339Y-94088000D01*
X134465606Y-94115259D01*
X134374394Y-94167920D01*
X134370000Y-94172314D01*
X134370000Y-93415679D01*
X134369998Y-93415677D01*
X134317690Y-93425456D01*
X134317684Y-93425458D01*
X134127586Y-93499101D01*
X133954260Y-93606421D01*
X133803608Y-93743757D01*
X133680754Y-93906443D01*
X133589890Y-94088921D01*
X133589885Y-94088934D01*
X133547471Y-94237999D01*
X133152528Y-94237999D01*
X133110114Y-94088934D01*
X133110109Y-94088921D01*
X133019245Y-93906443D01*
X132896391Y-93743757D01*
X132745739Y-93606421D01*
X132572413Y-93499101D01*
X132382315Y-93425458D01*
X132382309Y-93425456D01*
X132330001Y-93415677D01*
X132330000Y-93415679D01*
X132330000Y-94172314D01*
X132325606Y-94167920D01*
X132234394Y-94115259D01*
X132132661Y-94088000D01*
X132027339Y-94088000D01*
X131925606Y-94115259D01*
X131834394Y-94167920D01*
X131830000Y-94172314D01*
X131830000Y-93415679D01*
X131829998Y-93415677D01*
X131777690Y-93425456D01*
X131777684Y-93425458D01*
X131587586Y-93499101D01*
X131414260Y-93606421D01*
X131263608Y-93743757D01*
X131140754Y-93906443D01*
X131049890Y-94088921D01*
X131049885Y-94088934D01*
X131007471Y-94237999D01*
X130612528Y-94237999D01*
X130570114Y-94088934D01*
X130570109Y-94088921D01*
X130479245Y-93906443D01*
X130356391Y-93743757D01*
X130205739Y-93606421D01*
X130032413Y-93499101D01*
X129842315Y-93425458D01*
X129842309Y-93425456D01*
X129790001Y-93415677D01*
X129790000Y-93415679D01*
X129790000Y-94172314D01*
X129785606Y-94167920D01*
X129694394Y-94115259D01*
X129592661Y-94088000D01*
X129487339Y-94088000D01*
X129385606Y-94115259D01*
X129294394Y-94167920D01*
X129290000Y-94172314D01*
X129290000Y-93415679D01*
X129289998Y-93415677D01*
X129237690Y-93425456D01*
X129237684Y-93425458D01*
X129047586Y-93499101D01*
X128874260Y-93606421D01*
X128723608Y-93743757D01*
X128600754Y-93906443D01*
X128509890Y-94088921D01*
X128509885Y-94088934D01*
X128467471Y-94237999D01*
X120958772Y-94237999D01*
X120974397Y-94183083D01*
X120993215Y-93980000D01*
X120974397Y-93776917D01*
X120918582Y-93580750D01*
X120827673Y-93398179D01*
X120704764Y-93235421D01*
X120704762Y-93235418D01*
X120554041Y-93098019D01*
X120554039Y-93098017D01*
X120380642Y-92990655D01*
X120380635Y-92990651D01*
X120285546Y-92953814D01*
X120190456Y-92916976D01*
X119989976Y-92879500D01*
X119786024Y-92879500D01*
X119585544Y-92916976D01*
X119585541Y-92916976D01*
X119585541Y-92916977D01*
X119395364Y-92990651D01*
X119395357Y-92990655D01*
X119221960Y-93098017D01*
X119221958Y-93098019D01*
X119071237Y-93235418D01*
X118948327Y-93398178D01*
X118857422Y-93580739D01*
X118857417Y-93580752D01*
X118801602Y-93776917D01*
X118782785Y-93979999D01*
X105679795Y-93979999D01*
X105876120Y-93783674D01*
X106068735Y-93542143D01*
X106233095Y-93280565D01*
X106367135Y-93002229D01*
X106469168Y-92710636D01*
X106537911Y-92409452D01*
X106572500Y-92102465D01*
X106572500Y-91793535D01*
X106537911Y-91486548D01*
X106469168Y-91185364D01*
X106367135Y-90893771D01*
X106233095Y-90615435D01*
X106173285Y-90520247D01*
X118787500Y-90520247D01*
X118787500Y-92359752D01*
X118799131Y-92418229D01*
X118799132Y-92418230D01*
X118843447Y-92484552D01*
X118909769Y-92528867D01*
X118909770Y-92528868D01*
X118968247Y-92540499D01*
X118968250Y-92540500D01*
X118968252Y-92540500D01*
X120807750Y-92540500D01*
X120807751Y-92540499D01*
X120822568Y-92537552D01*
X120866229Y-92528868D01*
X120866229Y-92528867D01*
X120866231Y-92528867D01*
X120932552Y-92484552D01*
X120976867Y-92418231D01*
X120976867Y-92418229D01*
X120976868Y-92418229D01*
X120988499Y-92359752D01*
X120988500Y-92359750D01*
X120988500Y-90520249D01*
X120988499Y-90520247D01*
X120976868Y-90461770D01*
X120976867Y-90461769D01*
X120932552Y-90395447D01*
X120866230Y-90351132D01*
X120866229Y-90351131D01*
X120807752Y-90339500D01*
X120807748Y-90339500D01*
X118968252Y-90339500D01*
X118968247Y-90339500D01*
X118909770Y-90351131D01*
X118909769Y-90351132D01*
X118843447Y-90395447D01*
X118799132Y-90461769D01*
X118799131Y-90461770D01*
X118787500Y-90520247D01*
X106173285Y-90520247D01*
X106068735Y-90353857D01*
X105876120Y-90112326D01*
X105657674Y-89893880D01*
X105416143Y-89701265D01*
X105154565Y-89536905D01*
X105154562Y-89536903D01*
X104876236Y-89402868D01*
X104876222Y-89402862D01*
X104584647Y-89300835D01*
X104584635Y-89300831D01*
X104283455Y-89232089D01*
X104283437Y-89232086D01*
X103976471Y-89197500D01*
X103976465Y-89197500D01*
X95667535Y-89197500D01*
X95667528Y-89197500D01*
X95360562Y-89232086D01*
X95360544Y-89232089D01*
X95059364Y-89300831D01*
X95059352Y-89300835D01*
X94767777Y-89402862D01*
X94767763Y-89402868D01*
X94489437Y-89536903D01*
X94227858Y-89701264D01*
X93986326Y-89893879D01*
X93767879Y-90112326D01*
X93575264Y-90353858D01*
X93410903Y-90615437D01*
X93276868Y-90893763D01*
X93276862Y-90893777D01*
X93174835Y-91185352D01*
X93174831Y-91185364D01*
X93106089Y-91486544D01*
X93106086Y-91486562D01*
X93071500Y-91793528D01*
X55912895Y-91793528D01*
X55940636Y-91690000D01*
X55043012Y-91690000D01*
X55075925Y-91632993D01*
X55110000Y-91505826D01*
X55110000Y-91374174D01*
X55075925Y-91247007D01*
X55043012Y-91190000D01*
X55940636Y-91190000D01*
X55940635Y-91189999D01*
X55883432Y-90976513D01*
X55883429Y-90976507D01*
X55783600Y-90762422D01*
X55783599Y-90762420D01*
X55648113Y-90568926D01*
X55648108Y-90568920D01*
X55481082Y-90401894D01*
X55287578Y-90266399D01*
X55088426Y-90173533D01*
X55035987Y-90127360D01*
X55016835Y-90060167D01*
X55037051Y-89993286D01*
X55090216Y-89947951D01*
X55096005Y-89945537D01*
X55125019Y-89934298D01*
X55306302Y-89822052D01*
X55463872Y-89678407D01*
X55592366Y-89508255D01*
X55644842Y-89402868D01*
X55687403Y-89317394D01*
X55687403Y-89317393D01*
X55687405Y-89317389D01*
X55745756Y-89112310D01*
X55765429Y-88900000D01*
X55745756Y-88687690D01*
X55687405Y-88482611D01*
X55687403Y-88482606D01*
X55687403Y-88482605D01*
X55592367Y-88291746D01*
X55463872Y-88121593D01*
X55306302Y-87977948D01*
X55125019Y-87865702D01*
X55125017Y-87865701D01*
X55025608Y-87827190D01*
X54926198Y-87788679D01*
X54716610Y-87749500D01*
X54503390Y-87749500D01*
X54293802Y-87788679D01*
X54293799Y-87788679D01*
X54293799Y-87788680D01*
X54094982Y-87865701D01*
X54094980Y-87865702D01*
X53913699Y-87977947D01*
X53756127Y-88121593D01*
X53627632Y-88291746D01*
X53532596Y-88482605D01*
X53532596Y-88482607D01*
X53474244Y-88687689D01*
X53454571Y-88899999D01*
X53454571Y-88900000D01*
X53474244Y-89112310D01*
X53532596Y-89317392D01*
X53532596Y-89317394D01*
X53627632Y-89508253D01*
X53756127Y-89678406D01*
X53756128Y-89678407D01*
X53913698Y-89822052D01*
X54094981Y-89934298D01*
X54123961Y-89945525D01*
X54179362Y-89988095D01*
X54202954Y-90053861D01*
X54187244Y-90121942D01*
X54137222Y-90170722D01*
X54131573Y-90173533D01*
X53932422Y-90266399D01*
X53932420Y-90266400D01*
X53738926Y-90401886D01*
X53738920Y-90401891D01*
X53571891Y-90568920D01*
X53571886Y-90568926D01*
X53436400Y-90762420D01*
X53436399Y-90762422D01*
X53336570Y-90976507D01*
X53336567Y-90976513D01*
X53279364Y-91189999D01*
X52070000Y-91189999D01*
X52070000Y-83820000D01*
X53554417Y-83820000D01*
X53574699Y-84025932D01*
X53582396Y-84051305D01*
X53634768Y-84223954D01*
X53732315Y-84406450D01*
X53732317Y-84406452D01*
X53863589Y-84566410D01*
X53942097Y-84630839D01*
X54023550Y-84697685D01*
X54206046Y-84795232D01*
X54404066Y-84855300D01*
X54404065Y-84855300D01*
X54422529Y-84857118D01*
X54610000Y-84875583D01*
X54815934Y-84855300D01*
X55013954Y-84795232D01*
X55196450Y-84697685D01*
X55356410Y-84566410D01*
X55487685Y-84406450D01*
X55585232Y-84223954D01*
X55589919Y-84208503D01*
X55628217Y-84150065D01*
X55692030Y-84121609D01*
X55708579Y-84120500D01*
X57482167Y-84120500D01*
X57549206Y-84140185D01*
X57569848Y-84156819D01*
X58235489Y-84822460D01*
X58287582Y-84852536D01*
X58304008Y-84862020D01*
X58304012Y-84862022D01*
X58380438Y-84882500D01*
X58380440Y-84882500D01*
X89193560Y-84882500D01*
X89193562Y-84882500D01*
X89269989Y-84862021D01*
X89338511Y-84822460D01*
X89394460Y-84766511D01*
X90913960Y-83247011D01*
X90953522Y-83178488D01*
X90974000Y-83102062D01*
X90974000Y-83022938D01*
X90974000Y-81947567D01*
X90992874Y-81881806D01*
X91081509Y-81740126D01*
X91086404Y-81732889D01*
X91210921Y-81562220D01*
X91217764Y-81553665D01*
X91287927Y-81473480D01*
X91336122Y-81418400D01*
X91345710Y-81408596D01*
X91455322Y-81308294D01*
X91468777Y-81297599D01*
X91581507Y-81220123D01*
X91594913Y-81207283D01*
X91611785Y-81193738D01*
X91618052Y-81189552D01*
X91620168Y-81186384D01*
X91626313Y-81178428D01*
X91626257Y-81178386D01*
X91629274Y-81174379D01*
X91633746Y-81168440D01*
X91639762Y-81157726D01*
X91644777Y-81149555D01*
X91662366Y-81123232D01*
X91662365Y-81123232D01*
X91662367Y-81123231D01*
X91669293Y-81088410D01*
X91701676Y-81026501D01*
X91762391Y-80991925D01*
X91832160Y-80995663D01*
X91888833Y-81036528D01*
X91914199Y-81099343D01*
X91919901Y-81152373D01*
X91919903Y-81152379D01*
X91970145Y-81287086D01*
X91970149Y-81287093D01*
X92056309Y-81402187D01*
X92056312Y-81402190D01*
X92171406Y-81488350D01*
X92171413Y-81488354D01*
X92306120Y-81538596D01*
X92306127Y-81538598D01*
X92365655Y-81544999D01*
X92365672Y-81545000D01*
X92963500Y-81545000D01*
X93463500Y-81545000D01*
X94061328Y-81545000D01*
X94061344Y-81544999D01*
X94120872Y-81538598D01*
X94120879Y-81538596D01*
X94255586Y-81488354D01*
X94255593Y-81488350D01*
X94370687Y-81402190D01*
X94370690Y-81402187D01*
X94456850Y-81287093D01*
X94456854Y-81287086D01*
X94507096Y-81152379D01*
X94507098Y-81152372D01*
X94512800Y-81099345D01*
X94539538Y-81034794D01*
X94596931Y-80994946D01*
X94666756Y-80992453D01*
X94726845Y-81028106D01*
X94757706Y-81088410D01*
X94764631Y-81123229D01*
X94764632Y-81123230D01*
X94808947Y-81189552D01*
X94875269Y-81233867D01*
X94875270Y-81233868D01*
X94933747Y-81245499D01*
X94933750Y-81245500D01*
X94933752Y-81245500D01*
X96573250Y-81245500D01*
X96573251Y-81245499D01*
X96588068Y-81242552D01*
X96631729Y-81233868D01*
X96631729Y-81233867D01*
X96631731Y-81233867D01*
X96698052Y-81189552D01*
X96742367Y-81123231D01*
X96742367Y-81123229D01*
X96742368Y-81123229D01*
X96752344Y-81073072D01*
X96754000Y-81064748D01*
X96754000Y-77825252D01*
X96754000Y-77825249D01*
X96753999Y-77825247D01*
X97293000Y-77825247D01*
X97293000Y-81064752D01*
X97304631Y-81123229D01*
X97304632Y-81123230D01*
X97348947Y-81189552D01*
X97415269Y-81233867D01*
X97415270Y-81233868D01*
X97473747Y-81245499D01*
X97473750Y-81245500D01*
X97473752Y-81245500D01*
X99113250Y-81245500D01*
X99113251Y-81245499D01*
X99128068Y-81242552D01*
X99171729Y-81233868D01*
X99171729Y-81233867D01*
X99171731Y-81233867D01*
X99238052Y-81189552D01*
X99282367Y-81123231D01*
X99282367Y-81123229D01*
X99282368Y-81123229D01*
X99292344Y-81073072D01*
X99294000Y-81064748D01*
X99294000Y-77825252D01*
X99294000Y-77825249D01*
X99293999Y-77825247D01*
X99282368Y-77766770D01*
X99282367Y-77766769D01*
X99238052Y-77700447D01*
X99171730Y-77656132D01*
X99171729Y-77656131D01*
X99113252Y-77644500D01*
X99113248Y-77644500D01*
X97473752Y-77644500D01*
X97473747Y-77644500D01*
X97415270Y-77656131D01*
X97415269Y-77656132D01*
X97348947Y-77700447D01*
X97304632Y-77766769D01*
X97304631Y-77766770D01*
X97293000Y-77825247D01*
X96753999Y-77825247D01*
X96742368Y-77766770D01*
X96742367Y-77766769D01*
X96698052Y-77700447D01*
X96631730Y-77656132D01*
X96631729Y-77656131D01*
X96573252Y-77644500D01*
X96573248Y-77644500D01*
X94933752Y-77644500D01*
X94933747Y-77644500D01*
X94875270Y-77656131D01*
X94875269Y-77656132D01*
X94808947Y-77700447D01*
X94764632Y-77766769D01*
X94764631Y-77766770D01*
X94757706Y-77801589D01*
X94725321Y-77863500D01*
X94664605Y-77898075D01*
X94594836Y-77894335D01*
X94538164Y-77853468D01*
X94512800Y-77790654D01*
X94507098Y-77737627D01*
X94507096Y-77737620D01*
X94456854Y-77602913D01*
X94456850Y-77602906D01*
X94370690Y-77487812D01*
X94370687Y-77487809D01*
X94255593Y-77401649D01*
X94255586Y-77401645D01*
X94120879Y-77351403D01*
X94120872Y-77351401D01*
X94061344Y-77345000D01*
X93463500Y-77345000D01*
X93463500Y-81545000D01*
X92963500Y-81545000D01*
X92963500Y-77345000D01*
X92365655Y-77345000D01*
X92306127Y-77351401D01*
X92306120Y-77351403D01*
X92171413Y-77401645D01*
X92171406Y-77401649D01*
X92056312Y-77487809D01*
X92056309Y-77487812D01*
X91970149Y-77602906D01*
X91970145Y-77602913D01*
X91919903Y-77737620D01*
X91919901Y-77737626D01*
X91914199Y-77790657D01*
X91887460Y-77855208D01*
X91830066Y-77895054D01*
X91760241Y-77897546D01*
X91700153Y-77861893D01*
X91669292Y-77801589D01*
X91662367Y-77766769D01*
X91650564Y-77749105D01*
X91642763Y-77735680D01*
X91642332Y-77734819D01*
X91638216Y-77728480D01*
X91637457Y-77727312D01*
X91637456Y-77727311D01*
X91637455Y-77727309D01*
X91633656Y-77722554D01*
X91633965Y-77722306D01*
X91626497Y-77713088D01*
X91618052Y-77700448D01*
X91618050Y-77700447D01*
X91618050Y-77700446D01*
X91609514Y-77694743D01*
X91589585Y-77678168D01*
X91581509Y-77669878D01*
X91577322Y-77667000D01*
X91468780Y-77592400D01*
X91455315Y-77581696D01*
X91352717Y-77487812D01*
X91345717Y-77481406D01*
X91336115Y-77471588D01*
X91304169Y-77435078D01*
X91304148Y-77435052D01*
X91217771Y-77336340D01*
X91210915Y-77327768D01*
X91171775Y-77274120D01*
X91171775Y-77274119D01*
X91135240Y-77224043D01*
X91086422Y-77157131D01*
X91081485Y-77149830D01*
X90992877Y-77008194D01*
X90974000Y-76942429D01*
X90974000Y-76634333D01*
X90993685Y-76567294D01*
X91010319Y-76546652D01*
X91874152Y-75682819D01*
X91935475Y-75649334D01*
X91961833Y-75646500D01*
X100233302Y-75646500D01*
X100300341Y-75666185D01*
X100346096Y-75718989D01*
X100356040Y-75788147D01*
X100353116Y-75801587D01*
X100332353Y-75946000D01*
X100352834Y-76088456D01*
X100412014Y-76218040D01*
X100412623Y-76219373D01*
X100412625Y-76219375D01*
X100413312Y-76220444D01*
X100413672Y-76221670D01*
X100416307Y-76227440D01*
X100415477Y-76227818D01*
X100433000Y-76287483D01*
X100433000Y-76951809D01*
X100417859Y-77011187D01*
X100338139Y-77157339D01*
X100334121Y-77164176D01*
X100226806Y-77334093D01*
X100221165Y-77342278D01*
X100119183Y-77478254D01*
X100111098Y-77487961D01*
X100017116Y-77589774D01*
X100005385Y-77600925D01*
X99909056Y-77681201D01*
X99909052Y-77681205D01*
X99905841Y-77684739D01*
X99897294Y-77692102D01*
X99888946Y-77700450D01*
X99886783Y-77703687D01*
X99875473Y-77718160D01*
X99870904Y-77723188D01*
X99870899Y-77723196D01*
X99867290Y-77728481D01*
X99867282Y-77728494D01*
X99858829Y-77744396D01*
X99852447Y-77755073D01*
X99844634Y-77766767D01*
X99844631Y-77766774D01*
X99833000Y-77825247D01*
X99833000Y-77842986D01*
X99832304Y-77852021D01*
X99832020Y-77858853D01*
X99832020Y-77858858D01*
X99832020Y-77858861D01*
X99832652Y-77867791D01*
X99832653Y-77867795D01*
X99832691Y-77868330D01*
X99833000Y-77877085D01*
X99833000Y-81068332D01*
X99833826Y-81073072D01*
X99836663Y-81083166D01*
X99844632Y-81123229D01*
X99856435Y-81140894D01*
X99864228Y-81154304D01*
X99864664Y-81155177D01*
X99869542Y-81162688D01*
X99873343Y-81167445D01*
X99873034Y-81167691D01*
X99880502Y-81176914D01*
X99888943Y-81189547D01*
X99888946Y-81189549D01*
X99888948Y-81189552D01*
X99897489Y-81195259D01*
X99917416Y-81211831D01*
X99925491Y-81220121D01*
X99925494Y-81220124D01*
X100038207Y-81297590D01*
X100051681Y-81308300D01*
X100161270Y-81408582D01*
X100161276Y-81408587D01*
X100170880Y-81418407D01*
X100214835Y-81468641D01*
X100214837Y-81468644D01*
X100232084Y-81488354D01*
X100289227Y-81553659D01*
X100296081Y-81562229D01*
X100420566Y-81732854D01*
X100425513Y-81740168D01*
X100514123Y-81881805D01*
X100533000Y-81947570D01*
X100533000Y-83648667D01*
X100513315Y-83715706D01*
X100496681Y-83736348D01*
X98209848Y-86023181D01*
X98148525Y-86056666D01*
X98122167Y-86059500D01*
X55708579Y-86059500D01*
X55641540Y-86039815D01*
X55595785Y-85987011D01*
X55589919Y-85971497D01*
X55589677Y-85970701D01*
X55585232Y-85956046D01*
X55487685Y-85773550D01*
X55435702Y-85710209D01*
X55356410Y-85613589D01*
X55196452Y-85482317D01*
X55196453Y-85482317D01*
X55196450Y-85482315D01*
X55013954Y-85384768D01*
X54815934Y-85324700D01*
X54815932Y-85324699D01*
X54815934Y-85324699D01*
X54610000Y-85304417D01*
X54404067Y-85324699D01*
X54206043Y-85384769D01*
X54095898Y-85443643D01*
X54023550Y-85482315D01*
X54023548Y-85482316D01*
X54023547Y-85482317D01*
X53863589Y-85613589D01*
X53732317Y-85773547D01*
X53634769Y-85956043D01*
X53574699Y-86154067D01*
X53554417Y-86360000D01*
X53574699Y-86565932D01*
X53597173Y-86640020D01*
X53634768Y-86763954D01*
X53732315Y-86946450D01*
X53732317Y-86946452D01*
X53863589Y-87106410D01*
X53960209Y-87185702D01*
X54023550Y-87237685D01*
X54206046Y-87335232D01*
X54404066Y-87395300D01*
X54404065Y-87395300D01*
X54422529Y-87397118D01*
X54610000Y-87415583D01*
X54815934Y-87395300D01*
X55013954Y-87335232D01*
X55196450Y-87237685D01*
X55356410Y-87106410D01*
X55487685Y-86946450D01*
X55585232Y-86763954D01*
X55589919Y-86748503D01*
X55628217Y-86690065D01*
X55692030Y-86661609D01*
X55708579Y-86660500D01*
X98337560Y-86660500D01*
X98337562Y-86660500D01*
X98413989Y-86640021D01*
X98482511Y-86600460D01*
X98538460Y-86544511D01*
X100754973Y-84327998D01*
X114202318Y-84327998D01*
X114202318Y-84328001D01*
X114222955Y-84484760D01*
X114222956Y-84484762D01*
X114246168Y-84540802D01*
X114283464Y-84630841D01*
X114379718Y-84756282D01*
X114505159Y-84852536D01*
X114651238Y-84913044D01*
X114729619Y-84923363D01*
X114807999Y-84933682D01*
X114808000Y-84933682D01*
X114808001Y-84933682D01*
X114860254Y-84926802D01*
X114964762Y-84913044D01*
X115110841Y-84852536D01*
X115236282Y-84756282D01*
X115236283Y-84756279D01*
X115239093Y-84754124D01*
X115304263Y-84728930D01*
X115314580Y-84728500D01*
X116892725Y-84728500D01*
X116892727Y-84728500D01*
X116994588Y-84701207D01*
X117085913Y-84648480D01*
X117914400Y-83819993D01*
X121784700Y-83819993D01*
X121784700Y-83820006D01*
X121803864Y-84051297D01*
X121803866Y-84051308D01*
X121860842Y-84276300D01*
X121954075Y-84488848D01*
X122081016Y-84683147D01*
X122081019Y-84683151D01*
X122081021Y-84683153D01*
X122238216Y-84853913D01*
X122238219Y-84853915D01*
X122238222Y-84853918D01*
X122421365Y-84996464D01*
X122421371Y-84996468D01*
X122421374Y-84996470D01*
X122625497Y-85106936D01*
X122739487Y-85146068D01*
X122845015Y-85182297D01*
X122845017Y-85182297D01*
X122845019Y-85182298D01*
X123073951Y-85220500D01*
X123073952Y-85220500D01*
X123306048Y-85220500D01*
X123306049Y-85220500D01*
X123534981Y-85182298D01*
X123754503Y-85106936D01*
X123958626Y-84996470D01*
X124141784Y-84853913D01*
X124298979Y-84683153D01*
X124356191Y-84595582D01*
X124409337Y-84550226D01*
X124478568Y-84540802D01*
X124541904Y-84570304D01*
X124563809Y-84595583D01*
X124621016Y-84683147D01*
X124621019Y-84683151D01*
X124621021Y-84683153D01*
X124778216Y-84853913D01*
X124778219Y-84853915D01*
X124778222Y-84853918D01*
X124961365Y-84996464D01*
X124961371Y-84996468D01*
X124961374Y-84996470D01*
X125165497Y-85106936D01*
X125279487Y-85146068D01*
X125385015Y-85182297D01*
X125385017Y-85182297D01*
X125385019Y-85182298D01*
X125613951Y-85220500D01*
X125613952Y-85220500D01*
X125846048Y-85220500D01*
X125846049Y-85220500D01*
X126074981Y-85182298D01*
X126294503Y-85106936D01*
X126498626Y-84996470D01*
X126681784Y-84853913D01*
X126838979Y-84683153D01*
X126965924Y-84488849D01*
X127059157Y-84276300D01*
X127116134Y-84051305D01*
X127116135Y-84051297D01*
X127135300Y-83820006D01*
X127135300Y-83819993D01*
X132706700Y-83819993D01*
X132706700Y-83820006D01*
X132725864Y-84051297D01*
X132725866Y-84051308D01*
X132782842Y-84276300D01*
X132876075Y-84488848D01*
X133003016Y-84683147D01*
X133003019Y-84683151D01*
X133003021Y-84683153D01*
X133160216Y-84853913D01*
X133160219Y-84853915D01*
X133160222Y-84853918D01*
X133343365Y-84996464D01*
X133343371Y-84996468D01*
X133343374Y-84996470D01*
X133547497Y-85106936D01*
X133661487Y-85146068D01*
X133767015Y-85182297D01*
X133767017Y-85182297D01*
X133767019Y-85182298D01*
X133995951Y-85220500D01*
X133995952Y-85220500D01*
X134228048Y-85220500D01*
X134228049Y-85220500D01*
X134456981Y-85182298D01*
X134676503Y-85106936D01*
X134880626Y-84996470D01*
X135063784Y-84853913D01*
X135220979Y-84683153D01*
X135278191Y-84595582D01*
X135331337Y-84550226D01*
X135400568Y-84540802D01*
X135463904Y-84570304D01*
X135485809Y-84595583D01*
X135543016Y-84683147D01*
X135543019Y-84683151D01*
X135543021Y-84683153D01*
X135700216Y-84853913D01*
X135700219Y-84853915D01*
X135700222Y-84853918D01*
X135883365Y-84996464D01*
X135883371Y-84996468D01*
X135883374Y-84996470D01*
X136087497Y-85106936D01*
X136201487Y-85146068D01*
X136307015Y-85182297D01*
X136307017Y-85182297D01*
X136307019Y-85182298D01*
X136535951Y-85220500D01*
X136535952Y-85220500D01*
X136768048Y-85220500D01*
X136768049Y-85220500D01*
X136996981Y-85182298D01*
X137216503Y-85106936D01*
X137420626Y-84996470D01*
X137603784Y-84853913D01*
X137760979Y-84683153D01*
X137887924Y-84488849D01*
X137981157Y-84276300D01*
X138038134Y-84051305D01*
X138038135Y-84051297D01*
X138057300Y-83820006D01*
X138057300Y-83819993D01*
X138038135Y-83588702D01*
X138038133Y-83588691D01*
X137981157Y-83363699D01*
X137887924Y-83151151D01*
X137760983Y-82956852D01*
X137760980Y-82956849D01*
X137760979Y-82956847D01*
X137603784Y-82786087D01*
X137603779Y-82786083D01*
X137603777Y-82786081D01*
X137420634Y-82643535D01*
X137420628Y-82643531D01*
X137216504Y-82533064D01*
X137216495Y-82533061D01*
X136996984Y-82457702D01*
X136825282Y-82429050D01*
X136768049Y-82419500D01*
X136535951Y-82419500D01*
X136490164Y-82427140D01*
X136307015Y-82457702D01*
X136087504Y-82533061D01*
X136087495Y-82533064D01*
X135883371Y-82643531D01*
X135883365Y-82643535D01*
X135700222Y-82786081D01*
X135700219Y-82786084D01*
X135543016Y-82956852D01*
X135485809Y-83044416D01*
X135432662Y-83089773D01*
X135363431Y-83099197D01*
X135300095Y-83069695D01*
X135278191Y-83044416D01*
X135220983Y-82956852D01*
X135220980Y-82956849D01*
X135220979Y-82956847D01*
X135063784Y-82786087D01*
X135063779Y-82786083D01*
X135063777Y-82786081D01*
X134880634Y-82643535D01*
X134880628Y-82643531D01*
X134676504Y-82533064D01*
X134676495Y-82533061D01*
X134456984Y-82457702D01*
X134285282Y-82429050D01*
X134228049Y-82419500D01*
X133995951Y-82419500D01*
X133950164Y-82427140D01*
X133767015Y-82457702D01*
X133547504Y-82533061D01*
X133547495Y-82533064D01*
X133343371Y-82643531D01*
X133343365Y-82643535D01*
X133160222Y-82786081D01*
X133160219Y-82786084D01*
X133003016Y-82956852D01*
X132876075Y-83151151D01*
X132782842Y-83363699D01*
X132725866Y-83588691D01*
X132725864Y-83588702D01*
X132706700Y-83819993D01*
X127135300Y-83819993D01*
X127116135Y-83588702D01*
X127116133Y-83588691D01*
X127059157Y-83363699D01*
X126965924Y-83151151D01*
X126838983Y-82956852D01*
X126838980Y-82956849D01*
X126838979Y-82956847D01*
X126681784Y-82786087D01*
X126681779Y-82786083D01*
X126681777Y-82786081D01*
X126498634Y-82643535D01*
X126498628Y-82643531D01*
X126294504Y-82533064D01*
X126294495Y-82533061D01*
X126074984Y-82457702D01*
X125903282Y-82429050D01*
X125846049Y-82419500D01*
X125613951Y-82419500D01*
X125568164Y-82427140D01*
X125385015Y-82457702D01*
X125165504Y-82533061D01*
X125165495Y-82533064D01*
X124961371Y-82643531D01*
X124961365Y-82643535D01*
X124778222Y-82786081D01*
X124778219Y-82786084D01*
X124621016Y-82956852D01*
X124563809Y-83044416D01*
X124510662Y-83089773D01*
X124441431Y-83099197D01*
X124378095Y-83069695D01*
X124356191Y-83044416D01*
X124298983Y-82956852D01*
X124298980Y-82956849D01*
X124298979Y-82956847D01*
X124141784Y-82786087D01*
X124141779Y-82786083D01*
X124141777Y-82786081D01*
X123958634Y-82643535D01*
X123958628Y-82643531D01*
X123754504Y-82533064D01*
X123754495Y-82533061D01*
X123534984Y-82457702D01*
X123363282Y-82429050D01*
X123306049Y-82419500D01*
X123073951Y-82419500D01*
X123028164Y-82427140D01*
X122845015Y-82457702D01*
X122625504Y-82533061D01*
X122625495Y-82533064D01*
X122421371Y-82643531D01*
X122421365Y-82643535D01*
X122238222Y-82786081D01*
X122238219Y-82786084D01*
X122081016Y-82956852D01*
X121954075Y-83151151D01*
X121860842Y-83363699D01*
X121803866Y-83588691D01*
X121803864Y-83588702D01*
X121784700Y-83819993D01*
X117914400Y-83819993D01*
X120144574Y-81589819D01*
X120205897Y-81556334D01*
X120232255Y-81553500D01*
X127941725Y-81553500D01*
X127941727Y-81553500D01*
X128043588Y-81526207D01*
X128134913Y-81473480D01*
X129775703Y-79832687D01*
X129775708Y-79832684D01*
X129785911Y-79822480D01*
X129785913Y-79822480D01*
X129860480Y-79747913D01*
X129913207Y-79656587D01*
X129920546Y-79629199D01*
X129940501Y-79554727D01*
X129940501Y-79449273D01*
X129940501Y-79441678D01*
X129940500Y-79441660D01*
X129940500Y-74559722D01*
X129944516Y-74528421D01*
X129945505Y-74524630D01*
X129945510Y-74524611D01*
X129950506Y-74453747D01*
X129955067Y-74428069D01*
X129955068Y-74428068D01*
X129955122Y-74427877D01*
X129955214Y-74427560D01*
X129964787Y-74403887D01*
X129977259Y-74380360D01*
X129980097Y-74375297D01*
X130023385Y-74302211D01*
X130029868Y-74290703D01*
X130030346Y-74289810D01*
X130036348Y-74277987D01*
X130087165Y-74172266D01*
X130090433Y-74165242D01*
X130090684Y-74164684D01*
X130096609Y-74150577D01*
X130098149Y-74142469D01*
X130105406Y-74118168D01*
X130125044Y-74070762D01*
X130145682Y-73914000D01*
X130143131Y-73894626D01*
X130125044Y-73757239D01*
X130125044Y-73757238D01*
X130064536Y-73611159D01*
X129968282Y-73485718D01*
X129842841Y-73389464D01*
X129753341Y-73352392D01*
X129696762Y-73328956D01*
X129696760Y-73328955D01*
X129540001Y-73308318D01*
X129539999Y-73308318D01*
X129383239Y-73328955D01*
X129383237Y-73328956D01*
X129237160Y-73389463D01*
X129111718Y-73485718D01*
X129015463Y-73611160D01*
X128954956Y-73757237D01*
X128954955Y-73757239D01*
X128934318Y-73913998D01*
X128934318Y-73914001D01*
X128954955Y-74070760D01*
X128954956Y-74070762D01*
X128967479Y-74100996D01*
X128981994Y-74136039D01*
X128987159Y-74151217D01*
X128991683Y-74168000D01*
X128992832Y-74172263D01*
X129043656Y-74278001D01*
X129043679Y-74278048D01*
X129049645Y-74289801D01*
X129050125Y-74290697D01*
X129056604Y-74302196D01*
X129099871Y-74375250D01*
X129102731Y-74380350D01*
X129109546Y-74393204D01*
X129115207Y-74403882D01*
X129124782Y-74427559D01*
X129124929Y-74428068D01*
X129129491Y-74453749D01*
X129133316Y-74507979D01*
X129133315Y-74507980D01*
X129134490Y-74524628D01*
X129135670Y-74529263D01*
X129139500Y-74559843D01*
X129139500Y-79284745D01*
X129119815Y-79351784D01*
X129103181Y-79372426D01*
X127759426Y-80716181D01*
X127698103Y-80749666D01*
X127671745Y-80752500D01*
X119962273Y-80752500D01*
X119860410Y-80779793D01*
X119769087Y-80832520D01*
X119769084Y-80832522D01*
X116710426Y-83891181D01*
X116649103Y-83924666D01*
X116622745Y-83927500D01*
X115314580Y-83927500D01*
X115247541Y-83907815D01*
X115239093Y-83901876D01*
X115236283Y-83899720D01*
X115236282Y-83899718D01*
X115110841Y-83803464D01*
X114964762Y-83742956D01*
X114964760Y-83742955D01*
X114808001Y-83722318D01*
X114807999Y-83722318D01*
X114651239Y-83742955D01*
X114651237Y-83742956D01*
X114505160Y-83803463D01*
X114379718Y-83899718D01*
X114283463Y-84025160D01*
X114222956Y-84171237D01*
X114222955Y-84171239D01*
X114202318Y-84327998D01*
X100754973Y-84327998D01*
X101073960Y-84009011D01*
X101088381Y-83984033D01*
X101113521Y-83940489D01*
X101134000Y-83864062D01*
X101134000Y-81947567D01*
X101152874Y-81881806D01*
X101241509Y-81740126D01*
X101246404Y-81732889D01*
X101370921Y-81562220D01*
X101377764Y-81553665D01*
X101447927Y-81473480D01*
X101496122Y-81418400D01*
X101505710Y-81408596D01*
X101615322Y-81308294D01*
X101628777Y-81297599D01*
X101741507Y-81220123D01*
X101754913Y-81207283D01*
X101771785Y-81193738D01*
X101778052Y-81189552D01*
X101780168Y-81186384D01*
X101786313Y-81178428D01*
X101786257Y-81178386D01*
X101789274Y-81174379D01*
X101793746Y-81168440D01*
X101799762Y-81157726D01*
X101804777Y-81149555D01*
X101822366Y-81123232D01*
X101822368Y-81123229D01*
X101832344Y-81073072D01*
X101834000Y-81064748D01*
X101834000Y-81043516D01*
X101834481Y-81037271D01*
X101834279Y-81037263D01*
X101834566Y-81030311D01*
X101834568Y-81030301D01*
X101834310Y-81026658D01*
X101834000Y-81017896D01*
X101834000Y-77869877D01*
X101834357Y-77860475D01*
X101834695Y-77856024D01*
X101835922Y-77839894D01*
X101835922Y-77839893D01*
X101835329Y-77833435D01*
X101834177Y-77827053D01*
X101834000Y-77825263D01*
X101834000Y-77825252D01*
X101833999Y-77825247D01*
X102373000Y-77825247D01*
X102373000Y-81064752D01*
X102384631Y-81123229D01*
X102384632Y-81123230D01*
X102428947Y-81189552D01*
X102495269Y-81233867D01*
X102495270Y-81233868D01*
X102553747Y-81245499D01*
X102553750Y-81245500D01*
X102553752Y-81245500D01*
X104193250Y-81245500D01*
X104193251Y-81245499D01*
X104208068Y-81242552D01*
X104251729Y-81233868D01*
X104251729Y-81233867D01*
X104251731Y-81233867D01*
X104318052Y-81189552D01*
X104362367Y-81123231D01*
X104369293Y-81088410D01*
X104401676Y-81026501D01*
X104462391Y-80991925D01*
X104532160Y-80995663D01*
X104588833Y-81036528D01*
X104614199Y-81099343D01*
X104619901Y-81152373D01*
X104619903Y-81152379D01*
X104670145Y-81287086D01*
X104670149Y-81287093D01*
X104756309Y-81402187D01*
X104756312Y-81402190D01*
X104871406Y-81488350D01*
X104871413Y-81488354D01*
X105006120Y-81538596D01*
X105006127Y-81538598D01*
X105065655Y-81544999D01*
X105065672Y-81545000D01*
X105663500Y-81545000D01*
X106163500Y-81545000D01*
X106761328Y-81545000D01*
X106761344Y-81544999D01*
X106820872Y-81538598D01*
X106820879Y-81538596D01*
X106955586Y-81488354D01*
X106955593Y-81488350D01*
X107070687Y-81402190D01*
X107070690Y-81402187D01*
X107156850Y-81287093D01*
X107156854Y-81287086D01*
X107207096Y-81152379D01*
X107207098Y-81152372D01*
X107212800Y-81099345D01*
X107239538Y-81034794D01*
X107296931Y-80994946D01*
X107366756Y-80992453D01*
X107426845Y-81028106D01*
X107457706Y-81088410D01*
X107464631Y-81123229D01*
X107464632Y-81123230D01*
X107508947Y-81189552D01*
X107575269Y-81233867D01*
X107575270Y-81233868D01*
X107633747Y-81245499D01*
X107633750Y-81245500D01*
X107633752Y-81245500D01*
X109273250Y-81245500D01*
X109273251Y-81245499D01*
X109288068Y-81242552D01*
X109331729Y-81233868D01*
X109331729Y-81233867D01*
X109331731Y-81233867D01*
X109398052Y-81189552D01*
X109442367Y-81123231D01*
X109442367Y-81123229D01*
X109442368Y-81123229D01*
X109452344Y-81073072D01*
X109454000Y-81064748D01*
X109454000Y-77825252D01*
X109454000Y-77825249D01*
X109453999Y-77825247D01*
X109993000Y-77825247D01*
X109993000Y-81064752D01*
X110004631Y-81123229D01*
X110004632Y-81123230D01*
X110048947Y-81189552D01*
X110115269Y-81233867D01*
X110115270Y-81233868D01*
X110173747Y-81245499D01*
X110173750Y-81245500D01*
X110173752Y-81245500D01*
X111813250Y-81245500D01*
X111813251Y-81245499D01*
X111828068Y-81242552D01*
X111871729Y-81233868D01*
X111871729Y-81233867D01*
X111871731Y-81233867D01*
X111938052Y-81189552D01*
X111982367Y-81123231D01*
X111982367Y-81123229D01*
X111982368Y-81123229D01*
X111992344Y-81073072D01*
X111994000Y-81064748D01*
X111994000Y-77825252D01*
X111994000Y-77825249D01*
X111993999Y-77825247D01*
X111982368Y-77766770D01*
X111982367Y-77766769D01*
X111938052Y-77700447D01*
X111871730Y-77656132D01*
X111871729Y-77656131D01*
X111813252Y-77644500D01*
X111813248Y-77644500D01*
X110173752Y-77644500D01*
X110173747Y-77644500D01*
X110115270Y-77656131D01*
X110115269Y-77656132D01*
X110048947Y-77700447D01*
X110004632Y-77766769D01*
X110004631Y-77766770D01*
X109993000Y-77825247D01*
X109453999Y-77825247D01*
X109442368Y-77766770D01*
X109442367Y-77766769D01*
X109398052Y-77700447D01*
X109331730Y-77656132D01*
X109331729Y-77656131D01*
X109273252Y-77644500D01*
X109273248Y-77644500D01*
X107633752Y-77644500D01*
X107633747Y-77644500D01*
X107575270Y-77656131D01*
X107575269Y-77656132D01*
X107508947Y-77700447D01*
X107464632Y-77766769D01*
X107464631Y-77766770D01*
X107457706Y-77801589D01*
X107425321Y-77863500D01*
X107364605Y-77898075D01*
X107294836Y-77894335D01*
X107238164Y-77853468D01*
X107212800Y-77790654D01*
X107207098Y-77737627D01*
X107207096Y-77737620D01*
X107156854Y-77602913D01*
X107156850Y-77602906D01*
X107070690Y-77487812D01*
X107070687Y-77487809D01*
X106955593Y-77401649D01*
X106955586Y-77401645D01*
X106820879Y-77351403D01*
X106820872Y-77351401D01*
X106761344Y-77345000D01*
X106163500Y-77345000D01*
X106163500Y-81545000D01*
X105663500Y-81545000D01*
X105663500Y-77345000D01*
X105065655Y-77345000D01*
X105006127Y-77351401D01*
X105006120Y-77351403D01*
X104871413Y-77401645D01*
X104871406Y-77401649D01*
X104756312Y-77487809D01*
X104756309Y-77487812D01*
X104670149Y-77602906D01*
X104670145Y-77602913D01*
X104619903Y-77737620D01*
X104619901Y-77737626D01*
X104614199Y-77790656D01*
X104587459Y-77855207D01*
X104530066Y-77895053D01*
X104460241Y-77897545D01*
X104400153Y-77861891D01*
X104369293Y-77801588D01*
X104362367Y-77766769D01*
X104339790Y-77732981D01*
X104318052Y-77700447D01*
X104251730Y-77656132D01*
X104251729Y-77656131D01*
X104193252Y-77644500D01*
X104193248Y-77644500D01*
X102553752Y-77644500D01*
X102553747Y-77644500D01*
X102495270Y-77656131D01*
X102495269Y-77656132D01*
X102428947Y-77700447D01*
X102384632Y-77766769D01*
X102384631Y-77766770D01*
X102373000Y-77825247D01*
X101833999Y-77825247D01*
X101827119Y-77790657D01*
X101822368Y-77766770D01*
X101822366Y-77766767D01*
X101817402Y-77759337D01*
X101810715Y-77748085D01*
X101808340Y-77743561D01*
X101808339Y-77743559D01*
X101803321Y-77737351D01*
X101796671Y-77728313D01*
X101778052Y-77700448D01*
X101778050Y-77700447D01*
X101778050Y-77700446D01*
X101769415Y-77691811D01*
X101769764Y-77691461D01*
X101762731Y-77685037D01*
X101762220Y-77685542D01*
X101757944Y-77681202D01*
X101755192Y-77678909D01*
X101661611Y-77600923D01*
X101649882Y-77589774D01*
X101647806Y-77587525D01*
X101555896Y-77487956D01*
X101547820Y-77478260D01*
X101445815Y-77342253D01*
X101440204Y-77334111D01*
X101332863Y-77164157D01*
X101328871Y-77157363D01*
X101249140Y-77011187D01*
X101234000Y-76951811D01*
X101234000Y-76299525D01*
X101253685Y-76232486D01*
X101262625Y-76220541D01*
X101263372Y-76219378D01*
X101263377Y-76219373D01*
X101323165Y-76088457D01*
X101343647Y-75946000D01*
X101323165Y-75803543D01*
X101321903Y-75794765D01*
X101323720Y-75794503D01*
X101323722Y-75735562D01*
X101361498Y-75676785D01*
X101425055Y-75647762D01*
X101442698Y-75646500D01*
X113016167Y-75646500D01*
X113083206Y-75666185D01*
X113103848Y-75682819D01*
X115027989Y-77606960D01*
X115079824Y-77636887D01*
X115096508Y-77646520D01*
X115096512Y-77646522D01*
X115172938Y-77667000D01*
X115252062Y-77667000D01*
X116327545Y-77667000D01*
X116360228Y-77671385D01*
X116363416Y-77672256D01*
X116363417Y-77672256D01*
X116363421Y-77672257D01*
X116444766Y-77677993D01*
X116470261Y-77682502D01*
X116490867Y-77688419D01*
X116490878Y-77688423D01*
X116514730Y-77698049D01*
X116549586Y-77716528D01*
X116554695Y-77719393D01*
X116629712Y-77763824D01*
X116629744Y-77763842D01*
X116637486Y-77768204D01*
X116637507Y-77768215D01*
X116637519Y-77768222D01*
X116638401Y-77768694D01*
X116646319Y-77772714D01*
X116706394Y-77801589D01*
X116746120Y-77820684D01*
X116746566Y-77820898D01*
X116754537Y-77825352D01*
X116756941Y-77826449D01*
X116756947Y-77826453D01*
X116854879Y-77855208D01*
X116895038Y-77867000D01*
X116895039Y-77867000D01*
X117038962Y-77867000D01*
X117038962Y-77866999D01*
X117177053Y-77826453D01*
X117298128Y-77748643D01*
X117392377Y-77639873D01*
X117452165Y-77508957D01*
X117472647Y-77366500D01*
X117452165Y-77224043D01*
X117392377Y-77093127D01*
X117298128Y-76984357D01*
X117177053Y-76906547D01*
X117177051Y-76906546D01*
X117177049Y-76906545D01*
X117177050Y-76906545D01*
X117038963Y-76866000D01*
X117038961Y-76866000D01*
X116895039Y-76866000D01*
X116895036Y-76866000D01*
X116756951Y-76906545D01*
X116754537Y-76907647D01*
X116746580Y-76912093D01*
X116646324Y-76960281D01*
X116638418Y-76964292D01*
X116637499Y-76964784D01*
X116629788Y-76969128D01*
X116554665Y-77013622D01*
X116549557Y-77016486D01*
X116514741Y-77034944D01*
X116490887Y-77044570D01*
X116470263Y-77050493D01*
X116444760Y-77055004D01*
X116363416Y-77060742D01*
X116363412Y-77060742D01*
X116363410Y-77060743D01*
X116357804Y-77062170D01*
X116327223Y-77066000D01*
X115388333Y-77066000D01*
X115321294Y-77046315D01*
X115300652Y-77029681D01*
X113376512Y-75105541D01*
X113376504Y-75105535D01*
X113307995Y-75065982D01*
X113307990Y-75065979D01*
X113282513Y-75059152D01*
X113231562Y-75045500D01*
X91825562Y-75045500D01*
X91746438Y-75045500D01*
X91670010Y-75065978D01*
X91601489Y-75105540D01*
X91601486Y-75105542D01*
X90433041Y-76273987D01*
X90433035Y-76273995D01*
X90393482Y-76342504D01*
X90393479Y-76342509D01*
X90373000Y-76418939D01*
X90373000Y-76942427D01*
X90354123Y-77008193D01*
X90350727Y-77013622D01*
X90265516Y-77149825D01*
X90260566Y-77157143D01*
X90136087Y-77327759D01*
X90129233Y-77336329D01*
X90010887Y-77471581D01*
X90001279Y-77481406D01*
X89891674Y-77581703D01*
X89878199Y-77592413D01*
X89765497Y-77669873D01*
X89765487Y-77669881D01*
X89752064Y-77682734D01*
X89735210Y-77696263D01*
X89728948Y-77700447D01*
X89726833Y-77703613D01*
X89720682Y-77711577D01*
X89720738Y-77711619D01*
X89713254Y-77721556D01*
X89713251Y-77721562D01*
X89707227Y-77732287D01*
X89702220Y-77740445D01*
X89684634Y-77766765D01*
X89684631Y-77766774D01*
X89673000Y-77825247D01*
X89673000Y-77846478D01*
X89672518Y-77852730D01*
X89672720Y-77852739D01*
X89672431Y-77859702D01*
X89672690Y-77863354D01*
X89673000Y-77872117D01*
X89673000Y-81068332D01*
X89673826Y-81073072D01*
X89676663Y-81083166D01*
X89684632Y-81123229D01*
X89696435Y-81140894D01*
X89704228Y-81154304D01*
X89704664Y-81155177D01*
X89709542Y-81162688D01*
X89713343Y-81167445D01*
X89713034Y-81167691D01*
X89720502Y-81176914D01*
X89728943Y-81189547D01*
X89728946Y-81189549D01*
X89728948Y-81189552D01*
X89737489Y-81195259D01*
X89757416Y-81211831D01*
X89765491Y-81220121D01*
X89765494Y-81220124D01*
X89878207Y-81297590D01*
X89891681Y-81308300D01*
X90001270Y-81408582D01*
X90001276Y-81408587D01*
X90010880Y-81418407D01*
X90054835Y-81468641D01*
X90054837Y-81468644D01*
X90072084Y-81488354D01*
X90129227Y-81553659D01*
X90136081Y-81562229D01*
X90260566Y-81732854D01*
X90265513Y-81740168D01*
X90354123Y-81881805D01*
X90373000Y-81947570D01*
X90373000Y-82886667D01*
X90353315Y-82953706D01*
X90336681Y-82974348D01*
X89065848Y-84245181D01*
X89004525Y-84278666D01*
X88978167Y-84281500D01*
X58595833Y-84281500D01*
X58528794Y-84261815D01*
X58508152Y-84245181D01*
X57842512Y-83579541D01*
X57842504Y-83579535D01*
X57773995Y-83539982D01*
X57773990Y-83539979D01*
X57748513Y-83533152D01*
X57697562Y-83519500D01*
X57697560Y-83519500D01*
X55708579Y-83519500D01*
X55641540Y-83499815D01*
X55595785Y-83447011D01*
X55589919Y-83431497D01*
X55589677Y-83430701D01*
X55585232Y-83416046D01*
X55487685Y-83233550D01*
X55420062Y-83151151D01*
X55356410Y-83073589D01*
X55196452Y-82942317D01*
X55196453Y-82942317D01*
X55196450Y-82942315D01*
X55013954Y-82844768D01*
X54815934Y-82784700D01*
X54815932Y-82784699D01*
X54815934Y-82784699D01*
X54610000Y-82764417D01*
X54404067Y-82784699D01*
X54206043Y-82844769D01*
X54127659Y-82886667D01*
X54023550Y-82942315D01*
X54023548Y-82942316D01*
X54023547Y-82942317D01*
X53863589Y-83073589D01*
X53732317Y-83233547D01*
X53732315Y-83233550D01*
X53725120Y-83247011D01*
X53634769Y-83416043D01*
X53574699Y-83614067D01*
X53554417Y-83820000D01*
X52070000Y-83820000D01*
X52070000Y-80410247D01*
X53559500Y-80410247D01*
X53559500Y-82149752D01*
X53571131Y-82208229D01*
X53571132Y-82208230D01*
X53615447Y-82274552D01*
X53681769Y-82318867D01*
X53681770Y-82318868D01*
X53740247Y-82330499D01*
X53740250Y-82330500D01*
X53740252Y-82330500D01*
X55479750Y-82330500D01*
X55479751Y-82330499D01*
X55494568Y-82327552D01*
X55538229Y-82318868D01*
X55538229Y-82318867D01*
X55538231Y-82318867D01*
X55604552Y-82274552D01*
X55648867Y-82208231D01*
X55648867Y-82208229D01*
X55648868Y-82208229D01*
X55660499Y-82149752D01*
X55660500Y-82149750D01*
X55660500Y-81704500D01*
X55680185Y-81637461D01*
X55732989Y-81591706D01*
X55784500Y-81580500D01*
X57228167Y-81580500D01*
X57295206Y-81600185D01*
X57315848Y-81616819D01*
X58687540Y-82988511D01*
X58743489Y-83044460D01*
X58743491Y-83044461D01*
X58743495Y-83044464D01*
X58793942Y-83073589D01*
X58812011Y-83084021D01*
X58888438Y-83104500D01*
X58888440Y-83104500D01*
X87415560Y-83104500D01*
X87415562Y-83104500D01*
X87491989Y-83084021D01*
X87560511Y-83044460D01*
X87616460Y-82988511D01*
X88373960Y-82231011D01*
X88413522Y-82162488D01*
X88434000Y-82086062D01*
X88434000Y-82006938D01*
X88434000Y-81947567D01*
X88452874Y-81881806D01*
X88541509Y-81740126D01*
X88546404Y-81732889D01*
X88670921Y-81562220D01*
X88677764Y-81553665D01*
X88747927Y-81473480D01*
X88796122Y-81418400D01*
X88805710Y-81408596D01*
X88915322Y-81308294D01*
X88928777Y-81297599D01*
X89041507Y-81220123D01*
X89054913Y-81207283D01*
X89071785Y-81193738D01*
X89078052Y-81189552D01*
X89080168Y-81186384D01*
X89086313Y-81178428D01*
X89086257Y-81178386D01*
X89089274Y-81174379D01*
X89093746Y-81168440D01*
X89099762Y-81157726D01*
X89104777Y-81149555D01*
X89122366Y-81123232D01*
X89122368Y-81123229D01*
X89132344Y-81073072D01*
X89134000Y-81064748D01*
X89134000Y-81043516D01*
X89134481Y-81037271D01*
X89134279Y-81037263D01*
X89134566Y-81030311D01*
X89134568Y-81030301D01*
X89134310Y-81026658D01*
X89134000Y-81017896D01*
X89134000Y-77821669D01*
X89133174Y-77816932D01*
X89130337Y-77806835D01*
X89122368Y-77766771D01*
X89122367Y-77766770D01*
X89122367Y-77766769D01*
X89110564Y-77749105D01*
X89102763Y-77735680D01*
X89102332Y-77734819D01*
X89098216Y-77728480D01*
X89097457Y-77727312D01*
X89097456Y-77727311D01*
X89097455Y-77727309D01*
X89093656Y-77722554D01*
X89093965Y-77722306D01*
X89086497Y-77713088D01*
X89078052Y-77700448D01*
X89078050Y-77700447D01*
X89078050Y-77700446D01*
X89069514Y-77694743D01*
X89049585Y-77678168D01*
X89041509Y-77669878D01*
X89037322Y-77667000D01*
X88928780Y-77592400D01*
X88915315Y-77581696D01*
X88812717Y-77487812D01*
X88805717Y-77481406D01*
X88796115Y-77471588D01*
X88764169Y-77435078D01*
X88764148Y-77435052D01*
X88677771Y-77336340D01*
X88670915Y-77327768D01*
X88631775Y-77274120D01*
X88631775Y-77274119D01*
X88595240Y-77224043D01*
X88546422Y-77157131D01*
X88541485Y-77149830D01*
X88452877Y-77008194D01*
X88434000Y-76942429D01*
X88434000Y-76126333D01*
X88453685Y-76059294D01*
X88470319Y-76038652D01*
X90258152Y-74250819D01*
X90319475Y-74217334D01*
X90345833Y-74214500D01*
X100379499Y-74214500D01*
X100446538Y-74234185D01*
X100473211Y-74257296D01*
X100506872Y-74296143D01*
X100627947Y-74373953D01*
X100627950Y-74373954D01*
X100627949Y-74373954D01*
X100766036Y-74414499D01*
X100766038Y-74414500D01*
X100766039Y-74414500D01*
X100909962Y-74414500D01*
X100909962Y-74414499D01*
X101048053Y-74373953D01*
X101169128Y-74296143D01*
X101263377Y-74187373D01*
X101323165Y-74056457D01*
X101343647Y-73914000D01*
X101323165Y-73771543D01*
X101263377Y-73640627D01*
X101169128Y-73531857D01*
X101048053Y-73454047D01*
X101048051Y-73454046D01*
X101048049Y-73454045D01*
X101048050Y-73454045D01*
X100909963Y-73413500D01*
X100909961Y-73413500D01*
X100766039Y-73413500D01*
X100766036Y-73413500D01*
X100627949Y-73454045D01*
X100506873Y-73531856D01*
X100473212Y-73570703D01*
X100414433Y-73608477D01*
X100379499Y-73613500D01*
X90130438Y-73613500D01*
X90092224Y-73623739D01*
X90054009Y-73633979D01*
X90054008Y-73633980D01*
X90006471Y-73661426D01*
X89985492Y-73673538D01*
X89985486Y-73673542D01*
X87893041Y-75765987D01*
X87893035Y-75765995D01*
X87853482Y-75834504D01*
X87853479Y-75834509D01*
X87833000Y-75910939D01*
X87833000Y-76942427D01*
X87814123Y-77008193D01*
X87810727Y-77013622D01*
X87725516Y-77149825D01*
X87720566Y-77157143D01*
X87596087Y-77327759D01*
X87589233Y-77336329D01*
X87470887Y-77471581D01*
X87461279Y-77481406D01*
X87351674Y-77581703D01*
X87338199Y-77592413D01*
X87225497Y-77669873D01*
X87225487Y-77669881D01*
X87212064Y-77682734D01*
X87195210Y-77696263D01*
X87188948Y-77700447D01*
X87186833Y-77703613D01*
X87180682Y-77711577D01*
X87180738Y-77711619D01*
X87173254Y-77721556D01*
X87173251Y-77721562D01*
X87167227Y-77732287D01*
X87162220Y-77740445D01*
X87144634Y-77766765D01*
X87144631Y-77766774D01*
X87133000Y-77825247D01*
X87133000Y-77846478D01*
X87132518Y-77852730D01*
X87132720Y-77852739D01*
X87132431Y-77859702D01*
X87132690Y-77863354D01*
X87133000Y-77872117D01*
X87133000Y-81068332D01*
X87133826Y-81073072D01*
X87136663Y-81083166D01*
X87144632Y-81123229D01*
X87156435Y-81140894D01*
X87164228Y-81154304D01*
X87164664Y-81155177D01*
X87169542Y-81162688D01*
X87173343Y-81167445D01*
X87173034Y-81167691D01*
X87180502Y-81176914D01*
X87188943Y-81189547D01*
X87188946Y-81189549D01*
X87188948Y-81189552D01*
X87197489Y-81195259D01*
X87217416Y-81211831D01*
X87225491Y-81220121D01*
X87225494Y-81220124D01*
X87338207Y-81297590D01*
X87351681Y-81308300D01*
X87461270Y-81408582D01*
X87461276Y-81408587D01*
X87470880Y-81418407D01*
X87514835Y-81468641D01*
X87514837Y-81468644D01*
X87532084Y-81488354D01*
X87589227Y-81553659D01*
X87596081Y-81562229D01*
X87720566Y-81732854D01*
X87725516Y-81740173D01*
X87784526Y-81834497D01*
X87803394Y-81901771D01*
X87782895Y-81968566D01*
X87767084Y-81987944D01*
X87287848Y-82467181D01*
X87226525Y-82500666D01*
X87200167Y-82503500D01*
X59103833Y-82503500D01*
X59036794Y-82483815D01*
X59016152Y-82467181D01*
X57588512Y-81039541D01*
X57588504Y-81039535D01*
X57519995Y-80999982D01*
X57519990Y-80999979D01*
X57489932Y-80991925D01*
X57443562Y-80979500D01*
X57443560Y-80979500D01*
X55784500Y-80979500D01*
X55717461Y-80959815D01*
X55671706Y-80907011D01*
X55660500Y-80855500D01*
X55660500Y-80410249D01*
X55660499Y-80410247D01*
X55648868Y-80351770D01*
X55648867Y-80351769D01*
X55604552Y-80285447D01*
X55538230Y-80241132D01*
X55538229Y-80241131D01*
X55479752Y-80229500D01*
X55479748Y-80229500D01*
X53740252Y-80229500D01*
X53740247Y-80229500D01*
X53681770Y-80241131D01*
X53681769Y-80241132D01*
X53615447Y-80285447D01*
X53571132Y-80351769D01*
X53571131Y-80351770D01*
X53559500Y-80410247D01*
X52070000Y-80410247D01*
X52070000Y-76339258D01*
X52826500Y-76339258D01*
X52826500Y-76568741D01*
X52828374Y-76582971D01*
X52856452Y-76796238D01*
X52906858Y-76984357D01*
X52915842Y-77017887D01*
X53003650Y-77229876D01*
X53003657Y-77229890D01*
X53118392Y-77428617D01*
X53258081Y-77610661D01*
X53258089Y-77610670D01*
X53420330Y-77772911D01*
X53420338Y-77772918D01*
X53420339Y-77772919D01*
X53457700Y-77801587D01*
X53602382Y-77912607D01*
X53602385Y-77912608D01*
X53602388Y-77912611D01*
X53801112Y-78027344D01*
X53801117Y-78027346D01*
X53801123Y-78027349D01*
X53892480Y-78065190D01*
X54013113Y-78115158D01*
X54234762Y-78174548D01*
X54462266Y-78204500D01*
X54462273Y-78204500D01*
X54691727Y-78204500D01*
X54691734Y-78204500D01*
X54919238Y-78174548D01*
X55140887Y-78115158D01*
X55352888Y-78027344D01*
X55551612Y-77912611D01*
X55733661Y-77772919D01*
X55733665Y-77772914D01*
X55733670Y-77772911D01*
X55895911Y-77610670D01*
X55895914Y-77610665D01*
X55895919Y-77610661D01*
X56035611Y-77428612D01*
X56150344Y-77229888D01*
X56238158Y-77017887D01*
X56297548Y-76796238D01*
X56327500Y-76568734D01*
X56327500Y-76339266D01*
X56297548Y-76111762D01*
X56238158Y-75890113D01*
X56150344Y-75678112D01*
X56035611Y-75479388D01*
X56035608Y-75479385D01*
X56035607Y-75479382D01*
X56016582Y-75454589D01*
X65026500Y-75454589D01*
X65026500Y-77453393D01*
X65026501Y-77453415D01*
X65029234Y-77488152D01*
X65029234Y-77488155D01*
X65029235Y-77488156D01*
X65072445Y-77636887D01*
X65102378Y-77687501D01*
X65151282Y-77770194D01*
X65151289Y-77770203D01*
X65260796Y-77879710D01*
X65260800Y-77879713D01*
X65260802Y-77879715D01*
X65394113Y-77958555D01*
X65542844Y-78001765D01*
X65577595Y-78004500D01*
X67576404Y-78004499D01*
X67611156Y-78001765D01*
X67759887Y-77958555D01*
X67893198Y-77879715D01*
X67947666Y-77825247D01*
X71893000Y-77825247D01*
X71893000Y-81064752D01*
X71904631Y-81123229D01*
X71904632Y-81123230D01*
X71948947Y-81189552D01*
X72015269Y-81233867D01*
X72015270Y-81233868D01*
X72073747Y-81245499D01*
X72073750Y-81245500D01*
X72073752Y-81245500D01*
X73713250Y-81245500D01*
X73713251Y-81245499D01*
X73728068Y-81242552D01*
X73771729Y-81233868D01*
X73771729Y-81233867D01*
X73771731Y-81233867D01*
X73838052Y-81189552D01*
X73882367Y-81123231D01*
X73882367Y-81123229D01*
X73882368Y-81123229D01*
X73892344Y-81073072D01*
X73894000Y-81064748D01*
X73894000Y-77825252D01*
X73894000Y-77825249D01*
X73893999Y-77825247D01*
X74433000Y-77825247D01*
X74433000Y-81064752D01*
X74444631Y-81123229D01*
X74444632Y-81123230D01*
X74488947Y-81189552D01*
X74555269Y-81233867D01*
X74555270Y-81233868D01*
X74613747Y-81245499D01*
X74613750Y-81245500D01*
X74613752Y-81245500D01*
X76253250Y-81245500D01*
X76253251Y-81245499D01*
X76268068Y-81242552D01*
X76311729Y-81233868D01*
X76311729Y-81233867D01*
X76311731Y-81233867D01*
X76378052Y-81189552D01*
X76422367Y-81123231D01*
X76422367Y-81123229D01*
X76422368Y-81123229D01*
X76432344Y-81073072D01*
X76434000Y-81064748D01*
X76434000Y-77825252D01*
X76434000Y-77825249D01*
X76433999Y-77825247D01*
X76973000Y-77825247D01*
X76973000Y-81064752D01*
X76984631Y-81123229D01*
X76984632Y-81123230D01*
X77028947Y-81189552D01*
X77095269Y-81233867D01*
X77095270Y-81233868D01*
X77153747Y-81245499D01*
X77153750Y-81245500D01*
X77153752Y-81245500D01*
X78793250Y-81245500D01*
X78793251Y-81245499D01*
X78808068Y-81242552D01*
X78851729Y-81233868D01*
X78851729Y-81233867D01*
X78851731Y-81233867D01*
X78918052Y-81189552D01*
X78962367Y-81123231D01*
X78969293Y-81088410D01*
X79001676Y-81026501D01*
X79062391Y-80991925D01*
X79132160Y-80995663D01*
X79188833Y-81036528D01*
X79214199Y-81099343D01*
X79219901Y-81152373D01*
X79219903Y-81152379D01*
X79270145Y-81287086D01*
X79270149Y-81287093D01*
X79356309Y-81402187D01*
X79356312Y-81402190D01*
X79471406Y-81488350D01*
X79471413Y-81488354D01*
X79606120Y-81538596D01*
X79606127Y-81538598D01*
X79665655Y-81544999D01*
X79665672Y-81545000D01*
X80263500Y-81545000D01*
X80763500Y-81545000D01*
X81361328Y-81545000D01*
X81361344Y-81544999D01*
X81420872Y-81538598D01*
X81420879Y-81538596D01*
X81555586Y-81488354D01*
X81555593Y-81488350D01*
X81670687Y-81402190D01*
X81670690Y-81402187D01*
X81756850Y-81287093D01*
X81756854Y-81287086D01*
X81807096Y-81152379D01*
X81807098Y-81152372D01*
X81812800Y-81099345D01*
X81839538Y-81034794D01*
X81896931Y-80994946D01*
X81966756Y-80992453D01*
X82026845Y-81028106D01*
X82057706Y-81088410D01*
X82064631Y-81123229D01*
X82064632Y-81123230D01*
X82108947Y-81189552D01*
X82175269Y-81233867D01*
X82175270Y-81233868D01*
X82233747Y-81245499D01*
X82233750Y-81245500D01*
X82233752Y-81245500D01*
X83873250Y-81245500D01*
X83873251Y-81245499D01*
X83888068Y-81242552D01*
X83931729Y-81233868D01*
X83931729Y-81233867D01*
X83931731Y-81233867D01*
X83998052Y-81189552D01*
X84042367Y-81123231D01*
X84042367Y-81123229D01*
X84042368Y-81123229D01*
X84052344Y-81073072D01*
X84054000Y-81064748D01*
X84054000Y-77825252D01*
X84054000Y-77825249D01*
X84053999Y-77825247D01*
X84593000Y-77825247D01*
X84593000Y-81064752D01*
X84604631Y-81123229D01*
X84604632Y-81123230D01*
X84648947Y-81189552D01*
X84715269Y-81233867D01*
X84715270Y-81233868D01*
X84773747Y-81245499D01*
X84773750Y-81245500D01*
X84773752Y-81245500D01*
X86413250Y-81245500D01*
X86413251Y-81245499D01*
X86428068Y-81242552D01*
X86471729Y-81233868D01*
X86471729Y-81233867D01*
X86471731Y-81233867D01*
X86538052Y-81189552D01*
X86582367Y-81123231D01*
X86582367Y-81123229D01*
X86582368Y-81123229D01*
X86592344Y-81073072D01*
X86594000Y-81064748D01*
X86594000Y-77825252D01*
X86594000Y-77825249D01*
X86593999Y-77825247D01*
X86582368Y-77766770D01*
X86582367Y-77766769D01*
X86538052Y-77700447D01*
X86471730Y-77656132D01*
X86471729Y-77656131D01*
X86413252Y-77644500D01*
X86413248Y-77644500D01*
X84773752Y-77644500D01*
X84773747Y-77644500D01*
X84715270Y-77656131D01*
X84715269Y-77656132D01*
X84648947Y-77700447D01*
X84604632Y-77766769D01*
X84604631Y-77766770D01*
X84593000Y-77825247D01*
X84053999Y-77825247D01*
X84042368Y-77766770D01*
X84042367Y-77766769D01*
X83998052Y-77700447D01*
X83931730Y-77656132D01*
X83931729Y-77656131D01*
X83873252Y-77644500D01*
X83873248Y-77644500D01*
X82233752Y-77644500D01*
X82233747Y-77644500D01*
X82175270Y-77656131D01*
X82175269Y-77656132D01*
X82108947Y-77700447D01*
X82064632Y-77766769D01*
X82064631Y-77766770D01*
X82057706Y-77801589D01*
X82025321Y-77863500D01*
X81964605Y-77898075D01*
X81894836Y-77894335D01*
X81838164Y-77853468D01*
X81812800Y-77790654D01*
X81807098Y-77737627D01*
X81807096Y-77737620D01*
X81756854Y-77602913D01*
X81756850Y-77602906D01*
X81670690Y-77487812D01*
X81670687Y-77487809D01*
X81555593Y-77401649D01*
X81555586Y-77401645D01*
X81420879Y-77351403D01*
X81420872Y-77351401D01*
X81361344Y-77345000D01*
X80763500Y-77345000D01*
X80763500Y-81545000D01*
X80263500Y-81545000D01*
X80263500Y-77345000D01*
X79665655Y-77345000D01*
X79606127Y-77351401D01*
X79606120Y-77351403D01*
X79471413Y-77401645D01*
X79471406Y-77401649D01*
X79356312Y-77487809D01*
X79356309Y-77487812D01*
X79270149Y-77602906D01*
X79270145Y-77602913D01*
X79219903Y-77737620D01*
X79219901Y-77737626D01*
X79214199Y-77790656D01*
X79187459Y-77855207D01*
X79130066Y-77895053D01*
X79060241Y-77897545D01*
X79000153Y-77861891D01*
X78969293Y-77801588D01*
X78962367Y-77766769D01*
X78939790Y-77732981D01*
X78918052Y-77700447D01*
X78851730Y-77656132D01*
X78851729Y-77656131D01*
X78793252Y-77644500D01*
X78793248Y-77644500D01*
X77153752Y-77644500D01*
X77153747Y-77644500D01*
X77095270Y-77656131D01*
X77095269Y-77656132D01*
X77028947Y-77700447D01*
X76984632Y-77766769D01*
X76984631Y-77766770D01*
X76973000Y-77825247D01*
X76433999Y-77825247D01*
X76422368Y-77766770D01*
X76422367Y-77766769D01*
X76378052Y-77700447D01*
X76311730Y-77656132D01*
X76311729Y-77656131D01*
X76253252Y-77644500D01*
X76253248Y-77644500D01*
X74613752Y-77644500D01*
X74613747Y-77644500D01*
X74555270Y-77656131D01*
X74555269Y-77656132D01*
X74488947Y-77700447D01*
X74444632Y-77766769D01*
X74444631Y-77766770D01*
X74433000Y-77825247D01*
X73893999Y-77825247D01*
X73882368Y-77766770D01*
X73882367Y-77766769D01*
X73838052Y-77700447D01*
X73771730Y-77656132D01*
X73771729Y-77656131D01*
X73713252Y-77644500D01*
X73713248Y-77644500D01*
X72073752Y-77644500D01*
X72073747Y-77644500D01*
X72015270Y-77656131D01*
X72015269Y-77656132D01*
X71948947Y-77700447D01*
X71904632Y-77766769D01*
X71904631Y-77766770D01*
X71893000Y-77825247D01*
X67947666Y-77825247D01*
X68002715Y-77770198D01*
X68081555Y-77636887D01*
X68124765Y-77488156D01*
X68127500Y-77453405D01*
X68127499Y-75454596D01*
X68124765Y-75419844D01*
X68081555Y-75271113D01*
X68002715Y-75137802D01*
X68002713Y-75137800D01*
X68002710Y-75137796D01*
X67893203Y-75028289D01*
X67893194Y-75028282D01*
X67812111Y-74980330D01*
X67759887Y-74949445D01*
X67611156Y-74906235D01*
X67611153Y-74906234D01*
X67611151Y-74906234D01*
X67583563Y-74904063D01*
X67576405Y-74903500D01*
X67576403Y-74903500D01*
X65577606Y-74903500D01*
X65577584Y-74903501D01*
X65542847Y-74906234D01*
X65542844Y-74906235D01*
X65394113Y-74949445D01*
X65394111Y-74949445D01*
X65394111Y-74949446D01*
X65260805Y-75028282D01*
X65260796Y-75028289D01*
X65151289Y-75137796D01*
X65151282Y-75137805D01*
X65072446Y-75271111D01*
X65072445Y-75271113D01*
X65064826Y-75297338D01*
X65029234Y-75419847D01*
X65029234Y-75419849D01*
X65026500Y-75454589D01*
X56016582Y-75454589D01*
X55895918Y-75297338D01*
X55895911Y-75297330D01*
X55733670Y-75135089D01*
X55733661Y-75135081D01*
X55551617Y-74995392D01*
X55352890Y-74880657D01*
X55352876Y-74880650D01*
X55140887Y-74792842D01*
X54919238Y-74733452D01*
X54881215Y-74728446D01*
X54691741Y-74703500D01*
X54691734Y-74703500D01*
X54462266Y-74703500D01*
X54462258Y-74703500D01*
X54245715Y-74732009D01*
X54234762Y-74733452D01*
X54141076Y-74758554D01*
X54013112Y-74792842D01*
X53801123Y-74880650D01*
X53801109Y-74880657D01*
X53602382Y-74995392D01*
X53420338Y-75135081D01*
X53258081Y-75297338D01*
X53118392Y-75479382D01*
X53003657Y-75678109D01*
X53003650Y-75678123D01*
X52915842Y-75890112D01*
X52915842Y-75890113D01*
X52862697Y-76088457D01*
X52856453Y-76111759D01*
X52856451Y-76111770D01*
X52826500Y-76339258D01*
X52070000Y-76339258D01*
X52070000Y-73152000D01*
X119128353Y-73152000D01*
X119148834Y-73294456D01*
X119176569Y-73355186D01*
X119208623Y-73425373D01*
X119302872Y-73534143D01*
X119423947Y-73611953D01*
X119423950Y-73611954D01*
X119423949Y-73611954D01*
X119498965Y-73633980D01*
X119556586Y-73650899D01*
X119562036Y-73652499D01*
X119562038Y-73652500D01*
X119562039Y-73652500D01*
X119594667Y-73652500D01*
X119661706Y-73672185D01*
X119682348Y-73688819D01*
X123544540Y-77551011D01*
X123600489Y-77606960D01*
X123600491Y-77606961D01*
X123600495Y-77606964D01*
X123669004Y-77646517D01*
X123669011Y-77646521D01*
X123745438Y-77667000D01*
X124890499Y-77667000D01*
X124957538Y-77686685D01*
X124984211Y-77709796D01*
X125017872Y-77748643D01*
X125138947Y-77826453D01*
X125138950Y-77826454D01*
X125138949Y-77826454D01*
X125277036Y-77866999D01*
X125277038Y-77867000D01*
X125277039Y-77867000D01*
X125420962Y-77867000D01*
X125420962Y-77866999D01*
X125559053Y-77826453D01*
X125680128Y-77748643D01*
X125774377Y-77639873D01*
X125834165Y-77508957D01*
X125854647Y-77366500D01*
X125834165Y-77224043D01*
X125774377Y-77093127D01*
X125680128Y-76984357D01*
X125559053Y-76906547D01*
X125559051Y-76906546D01*
X125559049Y-76906545D01*
X125559050Y-76906545D01*
X125420963Y-76866000D01*
X125420961Y-76866000D01*
X125277039Y-76866000D01*
X125277036Y-76866000D01*
X125138949Y-76906545D01*
X125017873Y-76984356D01*
X124984212Y-77023203D01*
X124925433Y-77060977D01*
X124890499Y-77066000D01*
X123960833Y-77066000D01*
X123893794Y-77046315D01*
X123873152Y-77029681D01*
X120165413Y-73321942D01*
X120131928Y-73260619D01*
X120130356Y-73216617D01*
X120139647Y-73152000D01*
X120119165Y-73009543D01*
X120059377Y-72878627D01*
X119965128Y-72769857D01*
X119844053Y-72692047D01*
X119844051Y-72692046D01*
X119844049Y-72692045D01*
X119844050Y-72692045D01*
X119705963Y-72651500D01*
X119705961Y-72651500D01*
X119562039Y-72651500D01*
X119562036Y-72651500D01*
X119423949Y-72692045D01*
X119302873Y-72769856D01*
X119208623Y-72878626D01*
X119208622Y-72878628D01*
X119148834Y-73009543D01*
X119128353Y-73152000D01*
X52070000Y-73152000D01*
X52070000Y-71005258D01*
X52859500Y-71005258D01*
X52859500Y-71234741D01*
X52882039Y-71405935D01*
X52889452Y-71462238D01*
X52937955Y-71643254D01*
X52948842Y-71683887D01*
X53036650Y-71895876D01*
X53036657Y-71895890D01*
X53151392Y-72094617D01*
X53291081Y-72276661D01*
X53291089Y-72276670D01*
X53453330Y-72438911D01*
X53453338Y-72438918D01*
X53635382Y-72578607D01*
X53635385Y-72578608D01*
X53635388Y-72578611D01*
X53834112Y-72693344D01*
X53834117Y-72693346D01*
X53834123Y-72693349D01*
X53925480Y-72731190D01*
X54046113Y-72781158D01*
X54267762Y-72840548D01*
X54495266Y-72870500D01*
X54495273Y-72870500D01*
X54724727Y-72870500D01*
X54724734Y-72870500D01*
X54952238Y-72840548D01*
X55173887Y-72781158D01*
X55385888Y-72693344D01*
X55584612Y-72578611D01*
X55766661Y-72438919D01*
X55766665Y-72438914D01*
X55766670Y-72438911D01*
X55928911Y-72276670D01*
X55928914Y-72276665D01*
X55928919Y-72276661D01*
X56068611Y-72094612D01*
X56183344Y-71895888D01*
X56271158Y-71683887D01*
X56330548Y-71462238D01*
X56360500Y-71234734D01*
X56360500Y-71005266D01*
X56330548Y-70777762D01*
X56271158Y-70556113D01*
X56197121Y-70377373D01*
X56183349Y-70344123D01*
X56183346Y-70344117D01*
X56183344Y-70344112D01*
X56068611Y-70145388D01*
X56068608Y-70145385D01*
X56068607Y-70145382D01*
X55928918Y-69963338D01*
X55928911Y-69963330D01*
X55766670Y-69801089D01*
X55766661Y-69801081D01*
X55584617Y-69661392D01*
X55385890Y-69546657D01*
X55385876Y-69546650D01*
X55173887Y-69458842D01*
X54952238Y-69399452D01*
X54914215Y-69394446D01*
X54724741Y-69369500D01*
X54724734Y-69369500D01*
X54495266Y-69369500D01*
X54495258Y-69369500D01*
X54278715Y-69398009D01*
X54267762Y-69399452D01*
X54174076Y-69424554D01*
X54046112Y-69458842D01*
X53834123Y-69546650D01*
X53834109Y-69546657D01*
X53635382Y-69661392D01*
X53453338Y-69801081D01*
X53291081Y-69963338D01*
X53151392Y-70145382D01*
X53036657Y-70344109D01*
X53036650Y-70344123D01*
X52948842Y-70556112D01*
X52916164Y-70678069D01*
X52897634Y-70747228D01*
X52889453Y-70777759D01*
X52889451Y-70777770D01*
X52859500Y-71005258D01*
X52070000Y-71005258D01*
X52070000Y-70584427D01*
X52070316Y-70575581D01*
X52075627Y-70501324D01*
X52089724Y-70304207D01*
X52092240Y-70286710D01*
X52149130Y-70025192D01*
X52154107Y-70008241D01*
X52247640Y-69757470D01*
X52254985Y-69741388D01*
X52383248Y-69506491D01*
X52392798Y-69491630D01*
X52553195Y-69277366D01*
X52564767Y-69264012D01*
X52754012Y-69074767D01*
X52767366Y-69063195D01*
X52981630Y-68902798D01*
X52996491Y-68893248D01*
X53231388Y-68764985D01*
X53247470Y-68757640D01*
X53498241Y-68664107D01*
X53515192Y-68659130D01*
X53776710Y-68602240D01*
X53794207Y-68599724D01*
X54065582Y-68580316D01*
X54074428Y-68580000D01*
X137695572Y-68580000D01*
X137704418Y-68580316D01*
G37*
%TD.AperFunction*%
%TD*%
%TA.AperFunction,Conductor*%
%TO.N,/BAT_SNS*%
G36*
X90775292Y-77048427D02*
G01*
X90776936Y-77050493D01*
X90913499Y-77268780D01*
X91005762Y-77395240D01*
X91053503Y-77460676D01*
X91146840Y-77567344D01*
X91193500Y-77620670D01*
X91193503Y-77620672D01*
X91193505Y-77620675D01*
X91333499Y-77748779D01*
X91465110Y-77839234D01*
X91469987Y-77846744D01*
X91468949Y-77854106D01*
X90683966Y-79425054D01*
X90677203Y-79430923D01*
X90668270Y-79430290D01*
X90663034Y-79425054D01*
X89878050Y-77854106D01*
X89877417Y-77845173D01*
X89881889Y-77839234D01*
X90013499Y-77748780D01*
X90153499Y-77620670D01*
X90293500Y-77460670D01*
X90433500Y-77268780D01*
X90570062Y-77050494D01*
X90577355Y-77045298D01*
X90579981Y-77045000D01*
X90767019Y-77045000D01*
X90775292Y-77048427D01*
G37*
%TD.AperFunction*%
%TD*%
%TA.AperFunction,Conductor*%
%TO.N,/BAT_SNS*%
G36*
X116856696Y-77100152D02*
G01*
X116856947Y-77100710D01*
X116966115Y-77361989D01*
X116966142Y-77370944D01*
X116966115Y-77371011D01*
X116856947Y-77632288D01*
X116850595Y-77638600D01*
X116841640Y-77638573D01*
X116841082Y-77638322D01*
X116735359Y-77587505D01*
X116734466Y-77587027D01*
X116652724Y-77538614D01*
X116652709Y-77538605D01*
X116652695Y-77538598D01*
X116652687Y-77538593D01*
X116580644Y-77500399D01*
X116580643Y-77500398D01*
X116580640Y-77500397D01*
X116558911Y-77494156D01*
X116493730Y-77475436D01*
X116377877Y-77467266D01*
X116369865Y-77463266D01*
X116367000Y-77455595D01*
X116367000Y-77277403D01*
X116370427Y-77269130D01*
X116377874Y-77265733D01*
X116493727Y-77257562D01*
X116493730Y-77257561D01*
X116493732Y-77257561D01*
X116580630Y-77232605D01*
X116580631Y-77232604D01*
X116580640Y-77232602D01*
X116652709Y-77194393D01*
X116734477Y-77145963D01*
X116735346Y-77145498D01*
X116841085Y-77094675D01*
X116850024Y-77094180D01*
X116856696Y-77100152D01*
G37*
%TD.AperFunction*%
%TD*%
%TA.AperFunction,Conductor*%
%TO.N,/BAT_SNS*%
G36*
X90678730Y-79459709D02*
G01*
X90683966Y-79464945D01*
X91468949Y-81035893D01*
X91469582Y-81044826D01*
X91465110Y-81050765D01*
X91333499Y-81141219D01*
X91193505Y-81269323D01*
X91053503Y-81429322D01*
X90913499Y-81621219D01*
X90776938Y-81839505D01*
X90769645Y-81844702D01*
X90767019Y-81845000D01*
X90579981Y-81845000D01*
X90571708Y-81841573D01*
X90570062Y-81839505D01*
X90433500Y-81621219D01*
X90293500Y-81429329D01*
X90293495Y-81429322D01*
X90209490Y-81333319D01*
X90153499Y-81269329D01*
X90153495Y-81269325D01*
X90153493Y-81269323D01*
X90013499Y-81141219D01*
X89881889Y-81050765D01*
X89877012Y-81043255D01*
X89878049Y-81035894D01*
X90663034Y-79464944D01*
X90669797Y-79459076D01*
X90678730Y-79459709D01*
G37*
%TD.AperFunction*%
%TD*%
%TA.AperFunction,Conductor*%
%TO.N,+12V*%
G36*
X129767917Y-74008228D02*
G01*
X129805788Y-74024052D01*
X129812100Y-74030404D01*
X129812073Y-74039359D01*
X129811822Y-74039917D01*
X129761005Y-74145638D01*
X129760527Y-74146531D01*
X129712114Y-74228274D01*
X129712093Y-74228311D01*
X129673899Y-74300354D01*
X129673897Y-74300359D01*
X129648936Y-74387267D01*
X129648936Y-74387270D01*
X129640767Y-74503123D01*
X129636767Y-74511135D01*
X129629096Y-74514000D01*
X129450904Y-74514000D01*
X129442631Y-74510573D01*
X129439233Y-74503123D01*
X129438059Y-74486488D01*
X129431062Y-74387272D01*
X129431061Y-74387267D01*
X129431061Y-74387266D01*
X129406105Y-74300368D01*
X129406103Y-74300364D01*
X129406102Y-74300359D01*
X129367893Y-74228290D01*
X129319462Y-74146517D01*
X129319000Y-74145654D01*
X129268176Y-74039916D01*
X129267681Y-74030975D01*
X129273653Y-74024303D01*
X129274202Y-74024055D01*
X129535490Y-73914883D01*
X129544444Y-73914857D01*
X129767917Y-74008228D01*
G37*
%TD.AperFunction*%
%TD*%
%TA.AperFunction,Conductor*%
%TO.N,-BATT*%
G36*
X138959913Y-69485412D02*
G01*
X138965946Y-69491136D01*
X139025944Y-69615868D01*
X139081797Y-69709967D01*
X139082066Y-69710445D01*
X139125359Y-69791840D01*
X139126271Y-69794093D01*
X139154352Y-69891495D01*
X139154781Y-69893909D01*
X139164113Y-70025658D01*
X139161279Y-70034153D01*
X139153269Y-70038156D01*
X139152442Y-70038185D01*
X138974208Y-70038185D01*
X138965935Y-70034758D01*
X138962836Y-70029234D01*
X138942853Y-69946564D01*
X138882727Y-69911101D01*
X138882725Y-69911100D01*
X138794088Y-69904945D01*
X138687605Y-69901290D01*
X138685280Y-69900975D01*
X138582506Y-69876353D01*
X138575259Y-69871093D01*
X138573854Y-69862249D01*
X138574417Y-69860511D01*
X138682141Y-69599503D01*
X138688460Y-69593168D01*
X138950959Y-69485385D01*
X138959913Y-69485412D01*
G37*
%TD.AperFunction*%
%TD*%
%TA.AperFunction,Conductor*%
%TO.N,-BATT*%
G36*
X138680559Y-69299448D02*
G01*
X138684039Y-69307699D01*
X138684039Y-69307735D01*
X138684983Y-69591114D01*
X138681584Y-69599399D01*
X138681537Y-69599446D01*
X138481225Y-69798818D01*
X138472943Y-69802225D01*
X138464678Y-69798779D01*
X138463746Y-69797721D01*
X138401592Y-69718047D01*
X138400444Y-69716263D01*
X138357719Y-69634374D01*
X138357717Y-69634370D01*
X138318617Y-69566583D01*
X138318616Y-69566582D01*
X138260046Y-69520804D01*
X138168207Y-69505618D01*
X138160604Y-69500888D01*
X138158416Y-69494075D01*
X138158416Y-69315625D01*
X138161843Y-69307352D01*
X138170039Y-69303925D01*
X138288769Y-69303168D01*
X138381267Y-69301184D01*
X138461148Y-69298816D01*
X138461149Y-69298853D01*
X138461240Y-69298814D01*
X138553646Y-69296832D01*
X138672266Y-69296074D01*
X138680559Y-69299448D01*
G37*
%TD.AperFunction*%
%TD*%
%TA.AperFunction,Conductor*%
%TO.N,-BATT*%
G36*
X123297263Y-70703736D02*
G01*
X123423263Y-70829736D01*
X123426690Y-70838009D01*
X123423825Y-70845680D01*
X123347678Y-70933380D01*
X123303877Y-71012478D01*
X123303877Y-71012479D01*
X123279930Y-71090472D01*
X123279928Y-71090478D01*
X123256363Y-71182503D01*
X123256070Y-71183473D01*
X123217244Y-71294171D01*
X123211272Y-71300844D01*
X123202331Y-71301340D01*
X123201759Y-71301122D01*
X122939815Y-71193563D01*
X122933463Y-71187251D01*
X122933436Y-71187184D01*
X122893719Y-71090459D01*
X122825877Y-70925238D01*
X122825904Y-70916285D01*
X122832256Y-70909973D01*
X122832797Y-70909766D01*
X122943537Y-70870922D01*
X122944488Y-70870635D01*
X123036539Y-70847064D01*
X123114517Y-70823122D01*
X123140885Y-70808519D01*
X123193617Y-70779319D01*
X123193619Y-70779317D01*
X123193623Y-70779315D01*
X123281320Y-70703173D01*
X123289813Y-70700338D01*
X123297263Y-70703736D01*
G37*
%TD.AperFunction*%
%TD*%
%TA.AperFunction,Conductor*%
%TO.N,-BATT*%
G36*
X139163852Y-78375637D02*
G01*
X139167009Y-78381413D01*
X139187378Y-78474715D01*
X139246780Y-78524517D01*
X139246781Y-78524517D01*
X139246782Y-78524518D01*
X139331482Y-78551292D01*
X139331723Y-78551371D01*
X139428700Y-78584347D01*
X139431603Y-78585811D01*
X139475997Y-78616613D01*
X139519653Y-78646903D01*
X139524496Y-78654435D01*
X139522596Y-78663186D01*
X139521276Y-78664770D01*
X139322446Y-78864537D01*
X139314181Y-78867983D01*
X139314114Y-78867983D01*
X139030141Y-78867037D01*
X139021879Y-78863583D01*
X139018492Y-78855870D01*
X139013384Y-78743871D01*
X139013384Y-78743869D01*
X138999994Y-78657011D01*
X138999992Y-78656997D01*
X138984068Y-78582493D01*
X138983960Y-78581902D01*
X138970711Y-78495956D01*
X138970587Y-78494725D01*
X138965558Y-78384443D01*
X138968605Y-78376022D01*
X138976713Y-78372222D01*
X138977246Y-78372210D01*
X139155579Y-78372210D01*
X139163852Y-78375637D01*
G37*
%TD.AperFunction*%
%TD*%
%TA.AperFunction,Conductor*%
%TO.N,/SOLAR_SNS*%
G36*
X88235292Y-77048427D02*
G01*
X88236936Y-77050493D01*
X88373499Y-77268780D01*
X88465762Y-77395240D01*
X88513503Y-77460676D01*
X88606840Y-77567344D01*
X88653500Y-77620670D01*
X88653503Y-77620672D01*
X88653505Y-77620675D01*
X88793499Y-77748779D01*
X88925110Y-77839234D01*
X88929987Y-77846744D01*
X88928949Y-77854106D01*
X88143966Y-79425054D01*
X88137203Y-79430923D01*
X88128270Y-79430290D01*
X88123034Y-79425054D01*
X87338050Y-77854106D01*
X87337417Y-77845173D01*
X87341889Y-77839234D01*
X87473499Y-77748780D01*
X87613499Y-77620670D01*
X87753500Y-77460670D01*
X87893500Y-77268780D01*
X88030062Y-77050494D01*
X88037355Y-77045298D01*
X88039981Y-77045000D01*
X88227019Y-77045000D01*
X88235292Y-77048427D01*
G37*
%TD.AperFunction*%
%TD*%
%TA.AperFunction,Conductor*%
%TO.N,/SOLAR_SNS*%
G36*
X88138730Y-79459709D02*
G01*
X88143966Y-79464945D01*
X88928949Y-81035893D01*
X88929582Y-81044826D01*
X88925110Y-81050765D01*
X88793499Y-81141219D01*
X88653505Y-81269323D01*
X88513503Y-81429322D01*
X88373499Y-81621219D01*
X88236938Y-81839505D01*
X88229645Y-81844702D01*
X88227019Y-81845000D01*
X88039981Y-81845000D01*
X88031708Y-81841573D01*
X88030062Y-81839505D01*
X87893500Y-81621219D01*
X87753500Y-81429329D01*
X87753495Y-81429322D01*
X87669490Y-81333319D01*
X87613499Y-81269329D01*
X87613495Y-81269325D01*
X87613493Y-81269323D01*
X87473499Y-81141219D01*
X87341889Y-81050765D01*
X87337012Y-81043255D01*
X87338049Y-81035894D01*
X88123034Y-79464944D01*
X88129797Y-79459076D01*
X88138730Y-79459709D01*
G37*
%TD.AperFunction*%
%TD*%
%TA.AperFunction,Conductor*%
%TO.N,+3V3*%
G36*
X100838730Y-79459709D02*
G01*
X100843966Y-79464945D01*
X101628949Y-81035893D01*
X101629582Y-81044826D01*
X101625110Y-81050765D01*
X101493499Y-81141219D01*
X101353505Y-81269323D01*
X101213503Y-81429322D01*
X101073499Y-81621219D01*
X100936938Y-81839505D01*
X100929645Y-81844702D01*
X100927019Y-81845000D01*
X100739981Y-81845000D01*
X100731708Y-81841573D01*
X100730062Y-81839505D01*
X100593500Y-81621219D01*
X100453500Y-81429329D01*
X100453495Y-81429322D01*
X100369490Y-81333319D01*
X100313499Y-81269329D01*
X100313495Y-81269325D01*
X100313493Y-81269323D01*
X100173499Y-81141219D01*
X100041889Y-81050765D01*
X100037012Y-81043255D01*
X100038049Y-81035894D01*
X100823034Y-79464944D01*
X100829797Y-79459076D01*
X100838730Y-79459709D01*
G37*
%TD.AperFunction*%
%TD*%
%TA.AperFunction,Conductor*%
%TO.N,+3V3*%
G36*
X101034828Y-77048427D02*
G01*
X101036826Y-77051097D01*
X101153493Y-77264988D01*
X101153503Y-77265006D01*
X101273499Y-77454999D01*
X101273500Y-77455000D01*
X101393500Y-77614999D01*
X101513500Y-77744999D01*
X101626383Y-77839069D01*
X101630545Y-77846998D01*
X101629359Y-77853287D01*
X100843966Y-79425054D01*
X100837203Y-79430923D01*
X100828270Y-79430290D01*
X100823034Y-79425054D01*
X100560281Y-78899221D01*
X100037639Y-77853284D01*
X100037007Y-77844354D01*
X100040614Y-77839071D01*
X100153500Y-77744999D01*
X100273500Y-77614999D01*
X100393500Y-77455000D01*
X100513500Y-77265000D01*
X100630174Y-77051096D01*
X100637144Y-77045475D01*
X100640445Y-77045000D01*
X101026555Y-77045000D01*
X101034828Y-77048427D01*
G37*
%TD.AperFunction*%
%TD*%
%TA.AperFunction,Conductor*%
%TO.N,Net-(U1-OD)*%
G36*
X123061359Y-72625926D02*
G01*
X123061915Y-72626176D01*
X123167654Y-72677000D01*
X123168517Y-72677462D01*
X123250290Y-72725893D01*
X123322359Y-72764102D01*
X123322364Y-72764103D01*
X123322368Y-72764105D01*
X123409268Y-72789061D01*
X123409272Y-72789062D01*
X123525124Y-72797232D01*
X123533135Y-72801232D01*
X123536000Y-72808903D01*
X123536000Y-72987095D01*
X123532573Y-72995368D01*
X123525123Y-72998766D01*
X123409270Y-73006936D01*
X123409267Y-73006936D01*
X123322359Y-73031897D01*
X123322354Y-73031899D01*
X123250311Y-73070093D01*
X123250274Y-73070114D01*
X123168531Y-73118527D01*
X123167638Y-73119005D01*
X123061917Y-73169822D01*
X123052976Y-73170318D01*
X123046303Y-73164346D01*
X123046052Y-73163788D01*
X122990945Y-73031897D01*
X122936883Y-72902509D01*
X122936857Y-72893556D01*
X122936862Y-72893542D01*
X123046052Y-72632210D01*
X123052404Y-72625899D01*
X123061359Y-72625926D01*
G37*
%TD.AperFunction*%
%TD*%
%TA.AperFunction,Conductor*%
%TO.N,Net-(U1-OD)*%
G36*
X133239696Y-69837652D02*
G01*
X133239947Y-69838210D01*
X133349115Y-70099489D01*
X133349142Y-70108444D01*
X133349115Y-70108511D01*
X133239947Y-70369788D01*
X133233595Y-70376100D01*
X133224640Y-70376073D01*
X133224082Y-70375822D01*
X133118359Y-70325005D01*
X133117466Y-70324527D01*
X133035724Y-70276114D01*
X133035709Y-70276105D01*
X133035695Y-70276098D01*
X133035687Y-70276093D01*
X132963644Y-70237899D01*
X132963643Y-70237898D01*
X132963640Y-70237897D01*
X132941911Y-70231656D01*
X132876730Y-70212936D01*
X132760877Y-70204766D01*
X132752865Y-70200766D01*
X132750000Y-70193095D01*
X132750000Y-70014903D01*
X132753427Y-70006630D01*
X132760874Y-70003233D01*
X132876727Y-69995062D01*
X132876730Y-69995061D01*
X132876732Y-69995061D01*
X132963630Y-69970105D01*
X132963631Y-69970104D01*
X132963640Y-69970102D01*
X133035709Y-69931893D01*
X133117477Y-69883463D01*
X133118346Y-69882998D01*
X133224085Y-69832175D01*
X133233024Y-69831680D01*
X133239696Y-69837652D01*
G37*
%TD.AperFunction*%
%TD*%
%TA.AperFunction,Conductor*%
%TO.N,Net-(U1-CS)*%
G36*
X132695263Y-73680736D02*
G01*
X132821263Y-73806736D01*
X132824690Y-73815009D01*
X132821825Y-73822680D01*
X132745678Y-73910380D01*
X132701877Y-73989478D01*
X132701877Y-73989479D01*
X132677930Y-74067472D01*
X132677928Y-74067478D01*
X132654363Y-74159503D01*
X132654070Y-74160473D01*
X132615244Y-74271171D01*
X132609272Y-74277844D01*
X132600331Y-74278340D01*
X132599759Y-74278122D01*
X132337815Y-74170563D01*
X132331463Y-74164251D01*
X132331436Y-74164184D01*
X132291719Y-74067459D01*
X132223877Y-73902238D01*
X132223904Y-73893285D01*
X132230256Y-73886973D01*
X132230797Y-73886766D01*
X132341537Y-73847922D01*
X132342488Y-73847635D01*
X132434539Y-73824064D01*
X132512517Y-73800122D01*
X132538885Y-73785519D01*
X132591617Y-73756319D01*
X132591619Y-73756317D01*
X132591623Y-73756315D01*
X132679320Y-73680173D01*
X132687813Y-73677338D01*
X132695263Y-73680736D01*
G37*
%TD.AperFunction*%
%TD*%
%TA.AperFunction,Conductor*%
%TO.N,Net-(U1-CS)*%
G36*
X133760917Y-71285228D02*
G01*
X133798788Y-71301052D01*
X133805100Y-71307404D01*
X133805073Y-71316359D01*
X133804822Y-71316917D01*
X133754005Y-71422638D01*
X133753527Y-71423531D01*
X133705114Y-71505274D01*
X133705093Y-71505311D01*
X133666899Y-71577354D01*
X133666897Y-71577359D01*
X133641936Y-71664267D01*
X133641936Y-71664270D01*
X133633767Y-71780123D01*
X133629767Y-71788135D01*
X133622096Y-71791000D01*
X133443904Y-71791000D01*
X133435631Y-71787573D01*
X133432233Y-71780123D01*
X133431059Y-71763488D01*
X133424062Y-71664272D01*
X133424061Y-71664267D01*
X133424061Y-71664266D01*
X133399105Y-71577368D01*
X133399103Y-71577364D01*
X133399102Y-71577359D01*
X133360893Y-71505290D01*
X133312462Y-71423517D01*
X133312000Y-71422654D01*
X133261176Y-71316916D01*
X133260681Y-71307975D01*
X133266653Y-71301303D01*
X133267202Y-71301055D01*
X133528490Y-71191883D01*
X133537444Y-71191857D01*
X133760917Y-71285228D01*
G37*
%TD.AperFunction*%
%TD*%
M02*
