M48
; DRILL file {KiCad 8.0.4} date 2024-09-16T22:07:17+0530
; FORMAT={-:-/ absolute / metric / decimal}
; #@! TF.CreationDate,2024-09-16T22:07:17+05:30
; #@! TF.GenerationSoftware,Kicad,Pcbnew,8.0.4
; #@! TF.FileFunction,Plated,1,2,PTH
FMAT,2
METRIC
; #@! TA.AperFunction,Plated,PTH,ViaDrill
T1C0.300
; #@! TA.AperFunction,Plated,PTH,ComponentDrill
T2C0.800
; #@! TA.AperFunction,Plated,PTH,ComponentDrill
T3C0.900
; #@! TA.AperFunction,Plated,PTH,ComponentDrill
T4C1.000
; #@! TA.AperFunction,Plated,PTH,ComponentDrill
T5C1.200
%
G90
G05
T1
X100.838Y-73.914
X100.838Y-75.946
X114.808Y-84.328
X116.967Y-77.367
X119.634Y-73.152
X122.936Y-71.191
X122.936Y-72.898
X125.349Y-77.367
X129.54Y-73.914
X132.334Y-74.168
X133.35Y-70.104
X133.533Y-71.191
X138.684Y-69.596
X139.319Y-78.867
T2
X129.54Y-94.488
X129.54Y-97.028
X129.54Y-99.568
X129.54Y-102.108
X129.54Y-104.648
X129.54Y-107.188
X132.08Y-94.488
X132.08Y-97.028
X132.08Y-99.568
X132.08Y-102.108
X132.08Y-104.648
X132.08Y-107.188
X134.62Y-94.488
X134.62Y-97.028
X134.62Y-99.568
X134.62Y-102.108
X134.62Y-104.648
X134.62Y-107.188
X137.16Y-94.488
X137.16Y-97.028
X137.16Y-99.568
X137.16Y-102.108
X137.16Y-104.648
X137.16Y-107.188
T3
X119.888Y-91.44
X119.888Y-93.98
X119.888Y-96.52
T4
X54.585Y-95.357
X54.585Y-97.897
X54.61Y-81.28
X54.61Y-83.82
X54.61Y-86.36
X54.61Y-88.9
X54.61Y-91.44
T5
X66.577Y-76.454
X66.577Y-102.616
X66.61Y-71.12
X66.61Y-107.95
X123.19Y-83.82
X125.73Y-83.82
X134.112Y-83.82
X136.652Y-83.82
M30
