%TF.GenerationSoftware,KiCad,Pcbnew,8.0.4*%
%TF.CreationDate,2024-09-16T22:07:11+05:30*%
%TF.ProjectId,mmeshtastic-pcb,6d6d6573-6874-4617-9374-69632d706362,rev?*%
%TF.SameCoordinates,Original*%
%TF.FileFunction,Paste,Top*%
%TF.FilePolarity,Positive*%
%FSLAX46Y46*%
G04 Gerber Fmt 4.6, Leading zero omitted, Abs format (unit mm)*
G04 Created by KiCad (PCBNEW 8.0.4) date 2024-09-16 22:07:11*
%MOMM*%
%LPD*%
G01*
G04 APERTURE LIST*
G04 Aperture macros list*
%AMRoundRect*
0 Rectangle with rounded corners*
0 $1 Rounding radius*
0 $2 $3 $4 $5 $6 $7 $8 $9 X,Y pos of 4 corners*
0 Add a 4 corners polygon primitive as box body*
4,1,4,$2,$3,$4,$5,$6,$7,$8,$9,$2,$3,0*
0 Add four circle primitives for the rounded corners*
1,1,$1+$1,$2,$3*
1,1,$1+$1,$4,$5*
1,1,$1+$1,$6,$7*
1,1,$1+$1,$8,$9*
0 Add four rect primitives between the rounded corners*
20,1,$1+$1,$2,$3,$4,$5,0*
20,1,$1+$1,$4,$5,$6,$7,0*
20,1,$1+$1,$6,$7,$8,$9,0*
20,1,$1+$1,$8,$9,$2,$3,0*%
G04 Aperture macros list end*
%ADD10R,1.700000X3.000000*%
%ADD11O,1.700000X3.000000*%
%ADD12O,3.000000X1.700000*%
%ADD13RoundRect,1.640420X3.359580X6.359580X-3.359580X6.359580X-3.359580X-6.359580X3.359580X-6.359580X0*%
%ADD14RoundRect,0.250000X-0.450000X0.262500X-0.450000X-0.262500X0.450000X-0.262500X0.450000X0.262500X0*%
%ADD15RoundRect,0.250000X0.450000X-0.262500X0.450000X0.262500X-0.450000X0.262500X-0.450000X-0.262500X0*%
%ADD16RoundRect,0.250000X-0.475000X0.250000X-0.475000X-0.250000X0.475000X-0.250000X0.475000X0.250000X0*%
%ADD17RoundRect,0.250000X0.475000X-0.250000X0.475000X0.250000X-0.475000X0.250000X-0.475000X-0.250000X0*%
%ADD18O,4.500000X3.500000*%
%ADD19R,4.500000X3.500000*%
%ADD20RoundRect,0.100000X-0.637500X-0.100000X0.637500X-0.100000X0.637500X0.100000X-0.637500X0.100000X0*%
%ADD21RoundRect,0.250000X-0.650000X1.000000X-0.650000X-1.000000X0.650000X-1.000000X0.650000X1.000000X0*%
%ADD22RoundRect,0.150000X-0.512500X-0.150000X0.512500X-0.150000X0.512500X0.150000X-0.512500X0.150000X0*%
G04 APERTURE END LIST*
D10*
%TO.C,U2*%
X128524000Y-88400000D03*
D11*
X131064000Y-88400000D03*
X136144000Y-88400000D03*
X133604000Y-88400000D03*
D12*
X125484000Y-96520000D03*
X125484000Y-91440000D03*
X125484000Y-93980000D03*
D13*
X133350000Y-100838000D03*
%TD*%
D14*
%TO.C,R6*%
X121158000Y-75541500D03*
X121158000Y-77366500D03*
%TD*%
%TO.C,R4*%
X123952000Y-75541500D03*
X123952000Y-77366500D03*
%TD*%
D15*
%TO.C,R5*%
X115570000Y-77366500D03*
X115570000Y-75541500D03*
%TD*%
D16*
%TO.C,C1*%
X137922000Y-75504000D03*
X137922000Y-77404000D03*
%TD*%
D15*
%TO.C,R3*%
X129540000Y-77366500D03*
X129540000Y-75541500D03*
%TD*%
D14*
%TO.C,R1*%
X132334000Y-75541500D03*
X132334000Y-77366500D03*
%TD*%
D16*
%TO.C,C2*%
X126746000Y-75504000D03*
X126746000Y-77404000D03*
%TD*%
D17*
%TO.C,C4*%
X105156000Y-76454000D03*
X105156000Y-74554000D03*
%TD*%
%TO.C,C5*%
X107950000Y-76454000D03*
X107950000Y-74554000D03*
%TD*%
D16*
%TO.C,C3*%
X118364000Y-75504000D03*
X118364000Y-77404000D03*
%TD*%
D15*
%TO.C,R2*%
X135128000Y-77366500D03*
X135128000Y-75541500D03*
%TD*%
D18*
%TO.C,U3*%
X72710000Y-90310000D03*
D19*
X72710000Y-107810000D03*
D18*
X112710000Y-107810000D03*
X112710000Y-90310000D03*
%TD*%
D20*
%TO.C,Q1*%
X125026500Y-70216000D03*
X125026500Y-70866000D03*
X125026500Y-71516000D03*
X125026500Y-72166000D03*
X130751500Y-72166000D03*
X130751500Y-71516000D03*
X130751500Y-70866000D03*
X130751500Y-70216000D03*
%TD*%
D21*
%TO.C,D2*%
X111760000Y-74200000D03*
X111760000Y-78200000D03*
%TD*%
D22*
%TO.C,U1*%
X135006500Y-70241000D03*
X135006500Y-71191000D03*
X135006500Y-72141000D03*
X137281500Y-72141000D03*
X137281500Y-71191000D03*
X137281500Y-70241000D03*
%TD*%
M02*
